<svg height="480pt" viewBox="0 0 480 480" width="480pt" xmlns="http://www.w3.org/2000/svg"><path d="m448 72c0-22.089844-17.910156-40-40-40s-40 17.910156-40 40 17.910156 40 40 40c22.082031-.027344 39.972656-17.917969 40-40zm-64 0c0-13.253906 10.746094-24 24-24s24 10.746094 24 24-10.746094 24-24 24-24-10.746094-24-24zm0 0"/><path d="m88 352h-16v48c0 4.417969 3.582031 8 8 8h32v-16h-24zm0 0"/><path d="m402.503906 173.808594c3.085938 2.921875 7.914063 2.921875 11 0 6.808594-6.457032 66.496094-64.113282 66.496094-101.808594 0-39.765625-32.234375-72-72-72s-72 32.234375-72 72c0 37.695312 59.6875 95.351562 66.503906 101.808594zm5.496094-157.808594c30.914062.035156 55.964844 25.085938 56 56 0 23.679688-36.425781 65.152344-56 84.800781-19.574219-19.65625-56-61.113281-56-84.800781.035156-30.914062 25.085938-55.964844 56-56zm0 0"/><path d="m360 224h-256c-8.835938 0-16-7.164062-16-16s7.164062-16 16-16h232v-16h-232c-17.671875 0-32 14.328125-32 32s14.328125 32 32 32h256c53.019531 0 96 42.980469 96 96s-42.980469 96-96 96h-184v16h184c61.855469 0 112-50.144531 112-112s-50.144531-112-112-112zm0 0"/><path d="m104 304h256c17.671875 0 32 14.328125 32 32s-14.328125 32-32 32h-184v16h184c26.507812 0 48-21.492188 48-48s-21.492188-48-48-48h-256c-44.183594 0-80-35.816406-80-80s35.816406-80 80-80h232v-16h-232c-53.019531 0-96 42.980469-96 96s42.980469 96 96 96zm0 0"/><path d="m80 320c-44.183594 0-80 35.816406-80 80s35.816406 80 80 80 80-35.816406 80-80c-.046875-44.164062-35.835938-79.953125-80-80zm0 144c-35.347656 0-64-28.652344-64-64s28.652344-64 64-64 64 28.652344 64 64c-.039062 35.328125-28.671875 63.960938-64 64zm0 0"/></svg>