<svg xmlns="http://www.w3.org/2000/svg" width="35" height="30" viewBox="0 0 35 30">
  <defs>
    <style>
      .cls-1 {
        fill-rule: evenodd;
      }
    </style>
  </defs>
  <path id="book.svg" class="cls-1" d="M1470.06,2129.9v-13.05a4.625,4.625,0,0,0-1.06-1.86,8.975,8.975,0,0,0-1.06,1.86v13.05c0,0.32.26,0.2,1.06,0.09C1469.43,2129.93,1470.06,2130.22,1470.06,2129.9Zm15.38-19.34a14.539,14.539,0,0,1-4.26-1.08,20.157,20.157,0,0,0-6.6-1.49,6.884,6.884,0,0,0-5.28,2.21,0.839,0.839,0,1,1-1.6,0,6.884,6.884,0,0,0-5.28-2.21,20.157,20.157,0,0,0-6.6,1.49,14.539,14.539,0,0,1-4.26,1.08,0.561,0.561,0,0,0-.56.57v23.01a0.568,0.568,0,0,0,.56.57,15.012,15.012,0,0,0,4.63-1.14,19.341,19.341,0,0,1,6.23-1.43,5.7,5.7,0,0,1,4.44,1.84,0.568,0.568,0,0,0,.8.04,2.542,2.542,0,0,0,.08-1.78,6.56,6.56,0,0,0-5-2.04,19.35,19.35,0,0,0-6.24,1.38,18.612,18.612,0,0,1-3.5.96v-20.22a17.673,17.673,0,0,0,3.85-1.02,18.592,18.592,0,0,1,5.89-1.32,5.264,5.264,0,0,1,5.25,3.37,0.536,0.536,0,0,0,1.02,0,5.325,5.325,0,0,1,5.25-3.37,18.592,18.592,0,0,1,5.89,1.32,17.673,17.673,0,0,0,3.85,1.02v20.22a18.612,18.612,0,0,1-3.5-.96,19.35,19.35,0,0,0-6.24-1.38,6.56,6.56,0,0,0-5,2.04,2.542,2.542,0,0,0,.08,1.78,0.568,0.568,0,0,0,.8-0.04,5.7,5.7,0,0,1,4.44-1.84,19.341,19.341,0,0,1,6.23,1.43,15.012,15.012,0,0,0,4.63,1.14,0.568,0.568,0,0,0,.56-0.57v-23.01A0.561,0.561,0,0,0,1485.44,2110.56Zm0,26.29a14.488,14.488,0,0,1-4.26-1.07,20.163,20.163,0,0,0-6.6-1.5,6.881,6.881,0,0,0-5.1,2.03h-1.96a6.881,6.881,0,0,0-5.1-2.03,20.163,20.163,0,0,0-6.6,1.5,14.488,14.488,0,0,1-4.26,1.07,0.57,0.57,0,0,0,0,1.14,15.262,15.262,0,0,0,4.63-1.13,19.341,19.341,0,0,1,6.23-1.43,5.7,5.7,0,0,1,4.44,1.84,0.569,0.569,0,0,0,.42.19h2.44a0.569,0.569,0,0,0,.42-0.19,5.7,5.7,0,0,1,4.44-1.84,19.341,19.341,0,0,1,6.23,1.43,15.262,15.262,0,0,0,4.63,1.13A0.57,0.57,0,0,0,1485.44,2136.85Z" transform="translate(-1451 -2108)"/>
</svg>
