<?xml version="1.0" encoding="UTF-8" standalone="no"?>
<svg
   xmlns:dc="http://purl.org/dc/elements/1.1/"
   xmlns:cc="http://creativecommons.org/ns#"
   xmlns:rdf="http://www.w3.org/1999/02/22-rdf-syntax-ns#"
   xmlns:svg="http://www.w3.org/2000/svg"
   xmlns="http://www.w3.org/2000/svg"
   id="svg6"
   enable-background="new 0 0 64 64"
   viewBox="0 0 64 64"
   height="64"
   version="1.1"
   width="64">
  <metadata
     id="metadata12">
    <rdf:RDF>
      <cc:Work
         rdf:about="">
        <dc:format>image/svg+xml</dc:format>
        <dc:type
           rdf:resource="http://purl.org/dc/dcmitype/StillImage" />
        <dc:title></dc:title>
      </cc:Work>
    </rdf:RDF>
  </metadata>
  <defs
     id="defs10" />
  <g
     id="g4">
    <path
       id="path2"
       d="M28.941,31.786L0.613,60.114c-0.787,0.787-0.787,2.062,0,2.849c0.393,0.394,0.909,0.59,1.424,0.59   c0.516,0,1.031-0.196,1.424-0.59l28.541-28.541l28.541,28.541c0.394,0.394,0.909,0.59,1.424,0.59c0.515,0,1.031-0.196,1.424-0.59   c0.787-0.787,0.787-2.062,0-2.849L35.064,31.786L63.41,3.438c0.787-0.787,0.787-2.062,0-2.849c-0.787-0.786-2.062-0.786-2.848,0   L32.003,29.15L3.441,0.59c-0.787-0.786-2.061-0.786-2.848,0c-0.787,0.787-0.787,2.062,0,2.849L28.941,31.786z"
       fill="#1D1D1B" />
  </g>
</svg>
