<svg xmlns="http://www.w3.org/2000/svg" width="42.97" height="25" viewBox="0 0 42.97 25">
  <defs>
    <style>
      .cls-1 {
        fill-rule: evenodd;
      }
    </style>
  </defs>
  <path id="coffee.svg" class="cls-1" d="M1556.41,1989.99h-26.96a2.891,2.891,0,0,0-2.89,2.89v1.92a18.221,18.221,0,0,0,9.9,16.24,0.964,0.964,0,0,0,.89-1.71,16.3,16.3,0,0,1-8.87-14.53v-1.92a0.971,0.971,0,0,1,.97-0.97h26.96a0.969,0.969,0,0,1,.96.97v1.92a16.306,16.306,0,0,1-8.86,14.53,0.953,0.953,0,0,0-.42,1.29,0.967,0.967,0,0,0,.86.52,0.871,0.871,0,0,0,.44-0.11,18.2,18.2,0,0,0,9.91-16.23v-1.92A2.9,2.9,0,0,0,1556.41,1989.99Zm5.52,19.82a0.975,0.975,0,0,0-.89-0.59h-36.05a0.959,0.959,0,0,0-.68,1.64l2.16,2.16a6.727,6.727,0,0,0,4.77,1.97h23.56a6.727,6.727,0,0,0,4.77-1.97l2.16-2.16A0.967,0.967,0,0,0,1561.93,2009.81Zm-3.73,1.85a4.764,4.764,0,0,1-3.4,1.41h-23.56a4.787,4.787,0,0,1-3.41-1.41l-0.51-.52h31.4Zm6.94-17.13c-2.6-1.66-6.74.15-7.2,0.35a0.96,0.96,0,1,0,.79,1.75c0.93-.42,3.91-1.41,5.37-0.48a2.742,2.742,0,0,1,.97,2.49c0,3.85-7.77,6.18-10.77,6.75l-0.69.14a0.966,0.966,0,0,0-.76,1.13,0.981,0.981,0,0,0,.95.77,1.087,1.087,0,0,0,.18-0.01l0.68-.14c0.51-.1,12.34-2.41,12.34-8.64A4.545,4.545,0,0,0,1565.14,1994.53Z" transform="translate(-1524.03 -1990)"/>
</svg>
