<svg height="511pt" viewBox="-56 1 511 511.999" width="511pt" xmlns="http://www.w3.org/2000/svg"><path d="m223.957031 231.921875c0 4.164063-3.375 7.539063-7.539062 7.539063-4.164063 0-7.539063-3.375-7.539063-7.539063 0-4.167969 3.375-7.542969 7.539063-7.542969 4.164062 0 7.539062 3.375 7.539062 7.542969zm0 0"/><path d="m249.375 184.445312c2.542969 0 5.027344-1.296874 6.433594-3.640624 2.132812-3.550782.984375-8.15625-2.566406-10.289063-22.710938-13.648437-50.933594-13.648437-73.648438 0-3.550781 2.132813-4.699219 6.738281-2.566406 10.289063 2.132812 3.550781 6.738281 4.699218 10.292968 2.566406 17.949219-10.78125 40.25-10.78125 58.199219 0 1.207031.726562 2.539063 1.074218 3.855469 1.074218zm0 0"/><path d="m232.859375 211.96875c2.546875 0 5.03125-1.296875 6.4375-3.640625 2.132813-3.550781.980469-8.160156-2.570313-10.292969-12.527343-7.519531-28.089843-7.519531-40.613281 0-3.550781 2.132813-4.703125 6.742188-2.570312 10.292969 2.128906 3.550781 6.738281 4.703125 10.289062 2.570313 7.765625-4.660157 17.410157-4.660157 25.175781 0 1.207032.726562 2.535157 1.070312 3.851563 1.070312zm0 0"/><path d="m368.726562 64.128906h-176.871093v-24.566406c0-21.8125-17.75-39.5625-39.566407-39.5625h-112.226562c-21.816406 0-39.5625 17.75-39.5625 39.5625v336.679688c0 21.816406 17.75 39.5625 39.5625 39.5625h96.710938v32.585937c0 4.140625 3.359374 7.5 7.5 7.5 4.140624 0 7.5-3.359375 7.5-7.5v-160.328125c0-9.125 7.421874-16.546875 16.546874-16.546875h8.53125v8.53125c0 12.976563 10.558594 23.53125 23.535157 23.53125h32.0625c12.976562 0 23.53125-10.554687 23.53125-23.53125v-8.53125h8.53125c9.125 0 16.550781 7.421875 16.550781 16.546875v192.386719c0 9.125-7.425781 16.550781-16.550781 16.550781h-96.191407c-9.125 0-16.546874-7.425781-16.546874-16.550781 0-4.140625-3.359376-7.5-7.5-7.5-4.144532 0-7.5 3.359375-7.5 7.5 0 17.398437 14.152343 31.550781 31.546874 31.550781h96.191407c17.398437 0 31.550781-14.152344 31.550781-31.550781v-192.386719c0-17.394531-14.152344-31.546875-31.550781-31.546875h-72.660157v-24.5625c0-4.144531-3.355468-7.5-7.5-7.5-4.140624 0-7.5 3.355469-7.5 7.5v24.5625h-8.53125c-17.394531 0-31.546874 14.152344-31.546874 31.546875v112.742188h-96.710938c-13.546875 0-24.5625-11.019532-24.5625-24.5625v-336.679688c0-13.542969 11.019531-24.5625 24.5625-24.5625h112.226562c13.546876 0 24.5625 11.019531 24.5625 24.5625v24.566406h-25.507812c-11.253906-19.625-32.410156-32.066406-55.167969-32.066406-35.078125 0-63.613281 28.539062-63.613281 63.613281 0 35.078125 28.535156 63.613281 63.613281 63.613281 22.757813 0 43.914063-12.441406 55.167969-32.0625h25.507812v16.546876c0 4.140624 3.359376 7.5 7.5 7.5 4.144532 0 7.5-3.359376 7.5-7.5v-16.546876h176.871094c17.398438 0 31.550782-14.152343 31.550782-31.550781 0-17.394531-14.152344-31.546875-31.546876-31.546875zm-127.742187 215.917969c0 4.707031-3.828125 8.53125-8.53125 8.53125h-32.066406c-4.707031 0-8.53125-3.824219-8.53125-8.53125v-8.53125h49.128906zm127.742187-167.820313h-240.484374c-4.140626 0-7.5 3.359376-7.5 7.5 0 4.140626 3.359374 7.5 7.5 7.5h4.816406c-9.121094 10.628907-22.585938 17.0625-36.882813 17.0625-26.804687 0-48.613281-21.804687-48.613281-48.609374 0-26.808594 21.808594-48.613282 48.613281-48.613282 14.296875 0 27.761719 6.433594 36.882813 17.0625h-36.882813c-17.394531 0-31.546875 14.152344-31.546875 31.546875 0 17.398438 14.152344 31.550781 31.546875 31.550781 4.144531 0 7.5-3.359374 7.5-7.5 0-4.144531-3.355469-7.5-7.5-7.5-9.125 0-16.546875-7.425781-16.546875-16.550781s7.421875-16.546875 16.546875-16.546875h272.546875c9.125 0 16.550782 7.421875 16.550782 16.546875s-7.421876 16.550781-16.546876 16.550781zm0 0"/><path d="m96.175781 263.5c4.144531 0 7.5-3.359375 7.5-7.5v-17.78125c9.308594-3.140625 16.035157-11.945312 16.035157-22.300781 0-12.976563-10.558594-23.53125-23.535157-23.53125-12.972656 0-23.53125 10.558593-23.53125 23.53125 0 10.355469 6.726563 19.160156 16.03125 22.300781v17.78125c0 4.140625 3.359375 7.5 7.5 7.5zm0-56.113281c4.707031 0 8.535157 3.828125 8.535157 8.53125s-3.828126 8.53125-8.535157 8.53125c-4.703125 0-8.53125-3.828125-8.53125-8.53125s3.828125-8.53125 8.53125-8.53125zm0 0"/><path d="m216.417969 328.660156c-4.140625 0-7.5 3.359375-7.5 7.5v80.679688h-.515625c-12.976563 0-23.53125 10.554687-23.53125 23.53125v8.015625c0 12.976562 10.554687 23.53125 23.53125 23.53125h16.03125c12.976562 0 23.53125-10.554688 23.53125-23.53125v-8.015625c0-12.976563-10.554688-23.53125-23.53125-23.53125h-.515625v-57.148438h8.53125c4.144531 0 7.5-3.355468 7.5-7.5 0-4.140625-3.355469-7.5-7.5-7.5h-8.53125v-8.53125c0-4.140625-3.359375-7.5-7.5-7.5zm16.550781 111.710938v8.015625c0 4.707031-3.828125 8.53125-8.535156 8.53125h-16.03125c-4.703125 0-8.53125-3.828125-8.53125-8.53125v-8.015625c0-4.707032 3.828125-8.53125 8.53125-8.53125h16.03125c4.707031 0 8.535156 3.828125 8.535156 8.53125zm0 0"/></svg>