<svg xmlns="http://www.w3.org/2000/svg" width="24.969" height="14" viewBox="0 0 24.969 14">
  <defs>
    <style>
      .cls-1 {
        fill-rule: evenodd;
      }
    </style>
  </defs>
  <path id="eye.svg" class="cls-1" d="M508.908,434.716c-0.2-.275-4.928-6.716-12.408-6.716-6.418,0-12.137,6.4-12.378,6.677a0.488,0.488,0,0,0,0,.646C484.363,435.6,490.082,442,496.5,442s12.137-6.4,12.378-6.677A0.485,0.485,0,0,0,508.908,434.716ZM496.5,441c-5.145,0-10.037-4.71-11.28-6,1.241-1.291,6.128-6,11.28-6,6.02,0,10.269,4.7,11.307,5.973C506.609,436.222,501.689,441,496.5,441Zm0-10a4,4,0,1,0,4.167,4A4.09,4.09,0,0,0,496.5,431Zm0,7a3,3,0,1,1,3.125-3A3.068,3.068,0,0,1,496.5,438Z" transform="translate(-484.031 -428)"/>
</svg>
