<svg width="112" height="100" viewBox="0 0 112 100" fill="none" xmlns="http://www.w3.org/2000/svg">
<path d="M108.784 54.6978C114.458 49.0495 112.705 37.6245 102.877 37.6245L77.0202 37.6418C78.0021 32.1661 79.4245 23.089 79.3681 22.232C78.8252 14.1152 73.6513 4.23665 73.4275 3.83233C72.4838 2.07496 67.7193 -0.307662 62.9244 0.713257C56.7253 2.04031 56.0921 5.99474 56.1173 7.08497C56.1173 7.08497 56.3845 17.9028 56.4105 20.7894C53.4466 27.299 43.2273 44.4063 40.1299 45.7247C39.3891 45.2763 38.5487 45.0351 37.6744 45.0351H5.0064C2.23173 45.0351 0 47.2791 0 50.0408L0.00433205 95.1901C0.198552 97.624 2.26638 99.533 4.70893 99.533H34.0513C36.6534 99.533 38.7689 97.4175 38.7689 94.8154V93.3165C38.7689 93.3165 39.8592 93.2349 40.3545 93.5533C42.2411 94.7512 44.5724 96.2587 47.6135 96.2587H91.4011C107.772 96.2587 106.015 81.7276 104.519 79.7457C107.285 76.7342 108.996 71.4224 106.661 67.226C108.453 65.3264 111.607 60.1049 108.784 54.6978ZM33.0434 94.8067H4.70027V49.7477H33.0434V94.8067ZM101.146 54.3101L100.879 55.4256C108.422 57.5706 104.407 66.2651 98.9959 66.8289L98.7288 67.9445C105.962 69.7841 102.511 78.7363 96.8458 79.3478L96.5786 80.459C102.485 81.4287 101.055 91.5093 92.1065 91.5093L47.5688 91.5267C44.4237 91.5267 41.5588 87.9426 39.2454 87.9426H37.2267V53.2588C39.7429 51.6993 42.836 49.6748 44.5551 48.2141C47.8034 45.4438 61.0985 23.9597 61.0985 21.271C61.0985 18.5822 60.8053 6.95068 60.8053 6.95068C60.8053 6.95068 63.4118 3.59046 69.2319 6.04167C69.2319 6.04167 74.13 15.2263 74.6296 22.546C74.6296 22.546 72.4239 37.6245 71.2391 42.355H102.116C109.702 42.3637 108.254 53.1945 101.146 54.3101Z" fill="#5183E1"/>
</svg>
