<?xml version="1.0" encoding="UTF-8" standalone="no"?>
<svg
   xmlns:dc="http://purl.org/dc/elements/1.1/"
   xmlns:cc="http://creativecommons.org/ns#"
   xmlns:rdf="http://www.w3.org/1999/02/22-rdf-syntax-ns#"
   xmlns:svg="http://www.w3.org/2000/svg"
   xmlns="http://www.w3.org/2000/svg"
   xmlns:sodipodi="http://sodipodi.sourceforge.net/DTD/sodipodi-0.dtd"
   xmlns:inkscape="http://www.inkscape.org/namespaces/inkscape"
   width="120"
   height="101.26432"
   viewBox="0 0 120 101.26432"
   version="1.1"
   id="svg14"
   sodipodi:docname="parking.svg"
   style="fill:none"
   inkscape:version="0.92.1 r15371">
  <metadata
     id="metadata20">
    <rdf:RDF>
      <cc:Work
         rdf:about="">
        <dc:format>image/svg+xml</dc:format>
        <dc:type
           rdf:resource="http://purl.org/dc/dcmitype/StillImage" />
        <dc:title></dc:title>
      </cc:Work>
    </rdf:RDF>
  </metadata>
  <defs
     id="defs18" />
  <sodipodi:namedview
     pagecolor="#ffffff"
     bordercolor="#666666"
     borderopacity="1"
     objecttolerance="10"
     gridtolerance="10"
     guidetolerance="10"
     inkscape:pageopacity="0"
     inkscape:pageshadow="2"
     inkscape:window-width="751"
     inkscape:window-height="480"
     id="namedview16"
     showgrid="false"
     fit-margin-top="0"
     fit-margin-left="0"
     fit-margin-right="0"
     fit-margin-bottom="0"
     inkscape:zoom="1.9666667"
     inkscape:cx="60"
     inkscape:cy="50.632"
     inkscape:window-x="343"
     inkscape:window-y="78"
     inkscape:window-maximized="0"
     inkscape:current-layer="svg14" />
  <path
     d="m 100.306,9.74802 h -5.8572 c -0.8745,0 -1.4281,0.5539 -1.4281,1.1658 h -2e-4 v 18.9419 c 0,0.7868 0.9326,1.1948 1.8942,1.1948 0.9326,0 1.8942,-0.4078 1.8942,-1.1948 v -6.7608 h 3.2641 c 3.847,0 6.848,-1.8361 6.848,-6.6152 v -0.1746 c 0,-4.7793 -2.914,-6.5571 -6.615,-6.5571 z m 2.827,7.0233 c 0,2.2729 -1.166,3.3513 -3.06,3.3513 h -3.2641 v -7.0523 h 3.2641 c 1.894,0 3.06,1.0783 3.06,3.3513 z"
     id="path2"
     inkscape:connector-curvature="0"
     style="fill:#5183e1" />
  <path
     d="m 84.1222,64.44142 c -0.7397,-0.4071 -1.4695,-0.8529 -2.1689,-1.3254 l -11.3074,-7.6387 c -3.4317,-2.3184 -7.4348,-3.5437 -11.5762,-3.5437 H 38.3156 c -5.5089,0 -10.6923,2.1414 -14.5956,6.0297 -2.0062,1.999 -4.2919,3.671 -6.7933,4.9699 -1.4794,0.7683 -2.3984,2.2802 -2.3984,3.9459 0,2.453 1.9955,4.4485 4.4484,4.4485 h 7.0758 c 0.9441,0 1.7095,-0.7655 1.7095,-1.7096 0,-0.944 -0.7654,-1.7095 -1.7095,-1.7095 h -7.0758 c -0.5676,0 -1.0296,-0.4619 -1.0296,-1.0296 0,-0.3846 0.2126,-0.7338 0.555,-0.9115 2.8104,-1.4592 5.378,-3.3375 7.6308,-5.5821 3.2578,-3.2456 7.5843,-5.0329 12.1825,-5.0329 h 4.6465 v 12.5561 h -5.6794 c -0.944,0 -1.7095,0.7655 -1.7095,1.7095 0,0.9441 0.7655,1.7096 1.7095,1.7096 h 46.8744 c 1.4053,0 2.5486,-1.1433 2.5486,-2.5486 0,-1.7995 -0.99,-3.4617 -2.5833,-4.3376 z m -37.7408,3.4674 v -12.5562 h 12.6885 c 3.4568,0 6.7981,1.0228 9.6623,2.9578 l 11.3074,7.6387 c 0.7852,0.5304 1.6043,1.0311 2.4354,1.4881 0.2152,0.1183 0.3954,0.281 0.5309,0.4716 z"
     id="path4"
     inkscape:connector-curvature="0"
     style="fill:#5183e1" />
  <path
     d="m 50.6169,73.92582 h -5.2804 c -0.9441,0 -1.7095,0.7654 -1.7095,1.7095 0,0.944 0.7654,1.7095 1.7095,1.7095 h 5.2804 c 0.9441,0 1.7095,-0.7655 1.7095,-1.7095 0,-0.9441 -0.7654,-1.7095 -1.7095,-1.7095 z"
     id="path6"
     inkscape:connector-curvature="0"
     style="fill:#5183e1" />
  <path
     d="m 118.525,72.49092 -0.54,-0.8962 c -2.035,-3.3771 -5.42,-5.7551 -9.287,-6.5243 l -4.413,-0.8777 v -22.3703 h 11.421 c 2.352,0 4.265,-1.9132 4.265,-4.2647 V 4.26462 C 119.971,1.91292 118.058,0 115.706,0 H 82.413 c -2.3518,0 -4.2647,1.91322 -4.2647,4.26462 v 12.6293 c 0,0.9441 0.7652,1.7095 1.7095,1.7095 0.9443,0 1.7095,-0.7654 1.7095,-1.7095 V 4.26462 c 0,-0.4664 0.3795,-0.8458 0.8459,-0.8458 h 33.2928 c 0.467,0 0.846,0.3794 0.846,0.8458 v 33.2934 c 0,0.4664 -0.379,0.8458 -0.846,0.8458 H 82.413 c -0.4664,0 -0.8459,-0.3794 -0.8459,-0.8458 v -9.5506 c 0,-0.944 -0.7652,-1.7095 -1.7095,-1.7095 -0.9443,0 -1.7095,0.7655 -1.7095,1.7095 v 9.5506 c 0,2.3517 1.9131,4.2646 4.2646,4.2646 h 12.9518 v 20.5966 l -2.2688,-0.4512 c -3.1312,-0.6227 -6.1839,-2.5125 -8.208,-3.8801 l -11.3071,-7.6384 c -4.302,-2.906 -9.3197,-4.4421 -14.5111,-4.4421 H 38.3157 c -6.9058,0 -13.4034,2.6843 -18.2955,7.5581 -3.0956,3.0841 -6.9923,5.1876 -11.26891,6.0834 l -2.45436,0.514 C 2.64819,60.92692 0,64.18752 0,67.91552 v 16.5562 c 0,1.9748 1.16601,3.7694 2.97093,4.5714 l 6.80903,3.0262 c 0.41184,2.153 1.44914,4.209 3.11274,5.873 2.2108,2.211 5.115,3.316 8.0193,3.316 2.9044,0 5.8083,-1.105 8.0194,-3.316 1.4219,-1.422 2.3838,-3.131 2.8912,-4.942 h 56.7739 c 0.5074,1.811 1.4695,3.52 2.8914,4.942 2.1422,2.142 4.9898,3.322 8.0194,3.322 3.0297,0 5.8777,-1.18 8.0197,-3.322 1.422,-1.422 2.384,-3.131 2.891,-4.942 h 3.243 c 3.495,0 6.339,-2.8439 6.339,-6.3391 v -8.8668 c 0,-1.8689 -0.51,-3.7027 -1.475,-5.3035 z M 98.7835,41.82242 h 2.0825 v 21.6904 l -2.0825,-0.4142 z m -72.2699,53.7029 c -1.4963,1.496 -3.4856,2.32 -5.6018,2.32 -2.1162,0 -4.1055,-0.824 -5.6018,-2.32 -2.4002,-2.401 -2.9341,-5.9698 -1.6043,-8.8915 0.0108,-0.0235 0.0211,-0.0471 0.0319,-0.0706 0.0405,-0.0867 0.0834,-0.1725 0.1273,-0.2578 0.0206,-0.0403 0.0412,-0.0804 0.0628,-0.1202 0.0396,-0.0741 0.0808,-0.1477 0.123,-0.2208 0.0291,-0.0504 0.0589,-0.1003 0.0891,-0.15 0.0391,-0.0645 0.0787,-0.1287 0.12,-0.1922 0.0373,-0.0574 0.0757,-0.1141 0.1146,-0.1706 0.0384,-0.056 0.0766,-0.1123 0.1165,-0.1674 0.0457,-0.063 0.0933,-0.1249 0.1411,-0.1868 0.0372,-0.0482 0.0736,-0.097 0.112,-0.1446 0.0563,-0.0696 0.1151,-0.1375 0.1737,-0.2055 0.0335,-0.0387 0.0656,-0.0783 0.0998,-0.1165 0.0872,-0.0968 0.177,-0.1917 0.2693,-0.2848 0.008,-0.0079 0.0152,-0.0164 0.0232,-0.0243 0.0176,-0.0176 0.0361,-0.034 0.0539,-0.0514 0.0783,-0.0768 0.1571,-0.1528 0.2374,-0.2257 0.0209,-0.0189 0.0429,-0.0365 0.064,-0.0553 0.0802,-0.071 0.1608,-0.1415 0.2433,-0.2088 0.0077,-0.0063 0.0159,-0.0122 0.0237,-0.0185 2.8975,-2.3449 7.0767,-2.3421 9.9707,0.0094 0.0033,0.0028 0.0068,0.0051 0.0103,0.0079 0.0884,0.072 0.1749,0.1474 0.2609,0.2239 0.0155,0.0136 0.0314,0.0264 0.0466,0.0403 0.0994,0.0897 0.1969,0.1823 0.2925,0.2779 0.1032,0.1032 0.2025,0.2093 0.2991,0.3169 0.0424,0.0474 0.0825,0.0959 0.1235,0.1439 0.0502,0.0586 0.1006,0.1174 0.1488,0.1772 0.0542,0.0673 0.1064,0.1357 0.158,0.2041 0.0291,0.0382 0.0579,0.0767 0.086,0.1154 0.0626,0.0862 0.1235,0.1734 0.1824,0.2617 0.01,0.015 0.0199,0.0303 0.0297,0.0453 2.011,3.0715 1.6688,7.2424 -1.0272,9.9394 z m 78.5954,0 c -1.497,1.496 -3.486,2.32 -5.6022,2.32 -2.1162,0 -4.1053,-0.824 -5.6015,-2.32 -2.6965,-2.697 -3.0387,-6.8687 -1.0275,-9.9399 0.0096,-0.0148 0.0192,-0.0295 0.029,-0.0441 0.0588,-0.0885 0.12,-0.176 0.1828,-0.2627 0.0279,-0.0384 0.0565,-0.0764 0.0853,-0.1141 0.0518,-0.0689 0.1043,-0.1376 0.159,-0.2053 0.048,-0.0593 0.0977,-0.1175 0.1476,-0.1756 0.0415,-0.0485 0.082,-0.0977 0.1249,-0.1453 0.0966,-0.1076 0.196,-0.2135 0.2991,-0.3166 1.4962,-1.4963 3.4854,-2.3203 5.6015,-2.3203 2.116,0 4.106,0.824 5.602,2.3203 0.103,0.1031 0.202,0.2093 0.299,0.3168 0.043,0.0474 0.083,0.0961 0.124,0.1444 0.05,0.0584 0.1,0.117 0.148,0.1765 0.055,0.0675 0.107,0.1359 0.159,0.2046 0.028,0.0382 0.057,0.0764 0.085,0.1151 0.063,0.0865 0.124,0.1734 0.183,0.2618 0.01,0.015 0.02,0.03 0.03,0.045 2.01,3.0712 1.668,7.2434 -1.028,9.9394 z m 11.472,-8.8641 v 0 c 0,1.6101 -1.31,2.9201 -2.92,2.9201 h -2.815 c -0.067,-2.4795 -0.942,-4.845 -2.517,-6.7845 -0.01,-0.0131 -0.021,-0.0267 -0.031,-0.0398 -0.098,-0.1188 -0.199,-0.2353 -0.301,-0.3511 -0.027,-0.0295 -0.052,-0.06 -0.078,-0.0895 -0.109,-0.1198 -0.221,-0.2372 -0.336,-0.353 -0.019,-0.0197 -0.037,-0.0403 -0.057,-0.0598 -1.472,-1.4725 -3.279,-2.4904 -5.248,-2.9826 -0.896,-0.2238 -1.824,-0.3389 -2.7712,-0.3389 -0.7573,0 -1.5033,0.0738 -2.2298,0.2177 -2.1795,0.4322 -4.1829,1.4974 -5.7896,3.1038 -0.0192,0.0193 -0.0367,0.0394 -0.0557,0.0589 -0.1149,0.1164 -0.2278,0.2341 -0.3368,0.3543 -0.0258,0.0284 -0.0497,0.0579 -0.075,0.0865 -0.1036,0.1167 -0.2058,0.2344 -0.304,0.3544 -0.0099,0.0119 -0.019,0.0244 -0.0288,0.0365 -1.5762,1.9397 -2.4523,4.3067 -2.5196,6.7873 H 32.251 c -0.0672,-2.4837 -0.9452,-4.8534 -2.5253,-6.7947 -0.0073,-0.0092 -0.0143,-0.0183 -0.0216,-0.0275 -0.1031,-0.1261 -0.2102,-0.2496 -0.3192,-0.3719 -0.0202,-0.0225 -0.0389,-0.0457 -0.0593,-0.0682 -0.1277,-0.1409 -0.259,-0.2796 -0.3947,-0.4153 -0.5527,-0.5527 -1.1489,-1.0364 -1.7773,-1.451 -1.8857,-1.2436 -4.0638,-1.8654 -6.2418,-1.8654 -2.9041,0 -5.8085,1.1055 -8.0194,3.3164 -0.1263,0.1263 -0.2484,0.2559 -0.3679,0.3872 -0.0354,0.0389 -0.0694,0.0785 -0.1043,0.1176 -0.0844,0.0954 -0.1674,0.1917 -0.2482,0.2892 -0.0359,0.0434 -0.0717,0.087 -0.1069,0.131 -0.0837,0.1043 -0.1652,0.2098 -0.2449,0.3164 -0.0249,0.0333 -0.0504,0.0659 -0.0745,0.0994 -0.2143,0.2932 -0.413,0.5956 -0.5968,0.9056 -0.0051,0.0087 -0.01,0.0176 -0.0152,0.0263 -0.0898,0.1526 -0.1758,0.3073 -0.258,0.4636 -0.0024,0.0044 -0.0047,0.0091 -0.0073,0.0136 -0.596,1.1341 -0.9968,2.3608 -1.18055,3.6332 l -5.32802,-2.3681 c -0.57141,-0.254 -0.94055,-0.8222 -0.94055,-1.4472 v -16.5562 c 0,-2.119 1.50539,-3.9722 3.57936,-4.4067 l 2.45437,-0.514 c 4.92659,-1.0319 9.41529,-3.4551 12.98109,-7.0075 4.2468,-4.2312 9.8873,-6.5614 15.8823,-6.5614 h 20.7538 c 4.5068,0 8.8627,1.3336 12.5972,3.8562 l 11.3071,7.6385 c 2.269,1.533 5.7178,3.6569 9.4549,4.4004 l 15.6026,3.1026 c 2.925,0.582 5.486,2.3808 7.025,4.9355 l 0.54,0.8962 c 0.644,1.068 0.984,2.2919 0.984,3.5391 z"
     id="path8"
     inkscape:connector-curvature="0"
     style="fill:#5183e1" />
  <path
     d="m 24.5817,86.25402 c -0.9806,-0.9804 -2.2837,-1.5201 -3.67,-1.5201 -1.3864,0 -2.6897,0.54 -3.6699,1.5201 -0.9801,0.9802 -1.5201,2.2835 -1.5201,3.6698 0,1.3865 0.54,2.6895 1.5201,3.6695 0.9802,0.981 2.2835,1.521 3.6701,1.521 1.3863,0 2.6897,-0.54 3.6698,-1.521 2.0236,-2.023 2.0236,-5.3157 0,-7.3393 z m -2.4178,4.9223 c -0.3344,0.334 -0.7793,0.518 -1.2522,0.518 -0.4732,0 -0.9178,-0.184 -1.2523,-0.518 -0.3345,-0.335 -0.5189,-0.7795 -0.5189,-1.2527 0,-0.4732 0.1842,-0.9178 0.5189,-1.2523 0.3345,-0.3344 0.7791,-0.5189 1.2523,-0.5189 0.4729,0 0.9178,0.1843 1.2522,0.5189 0.6905,0.6907 0.6905,1.8143 0,2.505 z"
     id="path10"
     inkscape:connector-curvature="0"
     style="fill:#5183e1" />
  <path
     d="m 103.177,86.25422 c -0.98,-0.9803 -2.284,-1.5203 -3.6701,-1.5203 -1.3863,0 -2.6894,0.5397 -3.6701,1.5201 -2.0233,2.0236 -2.0233,5.3163 0,7.3393 0.9804,0.981 2.2838,1.521 3.6701,1.521 1.3861,0 2.6901,-0.54 3.6701,-1.52 0.98,-0.981 1.52,-2.284 1.52,-3.6702 0,-1.3863 -0.54,-2.6897 -1.52,-3.6699 z m -2.418,4.9221 c -0.334,0.334 -0.7789,0.519 -1.2521,0.519 -0.473,0 -0.9178,-0.185 -1.2522,-0.519 -0.6905,-0.6904 -0.6905,-1.814 0,-2.5045 0.3344,-0.3344 0.7792,-0.5189 1.2522,-0.5189 0.4732,0 0.9181,0.1842 1.2521,0.5189 0.335,0.3345 0.519,0.7791 0.519,1.2523 0,0.4727 -0.184,0.9172 -0.519,1.2522 z"
     id="path12"
     inkscape:connector-curvature="0"
     style="fill:#5183e1" />
</svg>
