<svg width="83" height="93" viewBox="0 0 83 93" fill="none" xmlns="http://www.w3.org/2000/svg">
<path d="M79.633 14.1707C77.9869 12.5246 75.8016 11.6193 73.4743 11.6193C73.4714 11.6193 73.4686 11.6193 73.4686 11.6193L64.7498 11.6235V8.71872C64.7498 3.91099 60.8389 0 56.0311 0H9.53122C4.7233 0 0.8125 3.91099 0.8125 8.71872V20.3437C0.8125 25.1515 4.72349 29.0625 9.53122 29.0625H56.0311C60.8389 29.0625 64.7498 25.1515 64.7498 20.3437V17.4361L73.4714 17.4319H73.4743C74.2492 17.4319 74.9757 17.7327 75.5234 18.2805C76.0741 18.8282 76.3749 19.5605 76.3749 20.3354V30.5753C76.3749 31.8582 75.5518 32.9735 74.3882 33.3341L46.2538 41.3089C40.0269 43.0742 35.6819 48.8272 35.6847 55.298L35.6861 58.1247H32.7813C31.1749 58.1247 29.875 59.4245 29.875 61.031V84.2811C29.875 89.0888 33.786 92.9998 38.5937 92.9998C43.4014 92.9998 47.3124 89.0888 47.3124 84.2811V61.0312C47.3124 59.4249 46.0126 58.1249 44.4061 58.1249H41.4985L41.4971 55.2925C41.4943 51.4127 44.1026 47.9587 47.8375 46.9001L76.0343 38.9079C79.7153 37.7755 82.1873 34.4265 82.1873 30.5751V20.3352C82.1873 18.0052 81.2791 15.8168 79.633 14.1707ZM58.9374 20.3437C58.9374 21.9472 57.6348 23.25 56.0311 23.25H9.53122C7.92776 23.25 6.62492 21.9474 6.62492 20.3437V8.71872C6.62492 7.11525 7.92757 5.81242 9.53122 5.81242H56.0311C57.6346 5.81242 58.9374 7.11506 58.9374 8.71872V20.3437ZM41.4998 84.2811C41.4998 85.8846 40.1972 87.1874 38.5935 87.1874C36.9898 87.1874 35.6872 85.8847 35.6872 84.2811V63.9373H41.4996V84.2811H41.4998Z" fill="#5183E1"/>
</svg>
