<svg width="100" height="92" viewBox="0 0 100 92" fill="none" xmlns="http://www.w3.org/2000/svg">
<path d="M97.8723 62.5751H86.1701V36.4179C86.1701 26.7581 82.408 17.6747 75.5766 10.8407C68.7432 4.00986 59.6598 0.247559 50 0.247559C30.0557 0.247559 13.8299 16.4735 13.8299 36.4177V62.5747H2.12773C0.952734 62.5749 0 63.5276 0 64.7026C0 65.8776 0.952734 66.8304 2.12773 66.8304H4.46816V89.6251C4.46816 90.7999 5.4209 91.7528 6.5959 91.7528H15.9576H24.4682H50H75.5318H84.0424H93.4041C94.5789 91.7528 95.5318 90.8001 95.5318 89.6251V66.8304H97.8723C99.0471 66.8304 100 65.8776 100 64.7026C100 63.5276 99.0473 62.5751 97.8723 62.5751ZM13.8299 87.4974H8.72344V66.8304H13.8299V87.4974ZM22.3404 87.4974H18.0852V66.8304H22.3404V87.4974ZM47.8723 87.4974H26.5957V66.8304H47.8723V87.4974ZM47.8723 62.5751H26.5957V53.7265H47.8723V62.5751ZM47.8723 49.471H26.5957V36.4179C26.5957 24.2296 35.96 14.1874 47.8723 13.1093V49.471ZM73.4043 87.4974H52.1277V66.8304H73.4043V87.4974ZM73.4043 62.5751H52.1277V53.7265H73.4043V62.5751ZM73.4043 49.4712H52.1277V13.1097C64.04 14.1876 73.4043 24.2298 73.4043 36.4183V49.4712ZM81.9148 87.4974H77.6596V66.8304H81.9148V87.4974ZM81.9148 62.5749H77.6596V51.5985V36.4177C77.6596 21.1659 65.2518 8.75811 50 8.75811C34.7482 8.75811 22.3404 21.1659 22.3404 36.4177V51.5985V62.5749H18.0852V36.4179C18.0852 18.82 32.4021 4.50303 50 4.50303C58.5236 4.50303 66.5383 7.82256 72.5676 13.8497C78.5953 19.8798 81.9148 27.8946 81.9148 36.4181V62.5749ZM91.2766 87.4974H86.1701V66.8304H91.2766V87.4974Z" fill="#5183E1"/>
</svg>
