<svg width="105" height="116" viewBox="0 0 105 116" fill="none" xmlns="http://www.w3.org/2000/svg">
<path d="M78.7248 15.6992H27.8986C19.4546 15.6992 12.6094 22.5229 12.6094 30.9403V76.6636C12.6094 85.081 19.4546 91.9047 27.8986 91.9047H78.7248C87.1688 91.9047 94.014 85.081 94.014 76.6636V30.9403C94.014 22.5229 87.1688 15.6992 78.7248 15.6992Z" stroke="#00A0E3" stroke-width="5.6444" stroke-miterlimit="22.9256" stroke-linecap="round" stroke-linejoin="round"/>
<path fill-rule="evenodd" clip-rule="evenodd" d="M23.8965 92.0181H82.1222L95.9855 105.838L11.0234 105.245L23.8965 92.0181Z" stroke="#00A0E3" stroke-width="5.6444" stroke-miterlimit="22.9256" stroke-linecap="round" stroke-linejoin="round"/>
<path d="M23.1045 78.4595H34.9873" stroke="#00A0E3" stroke-width="5.6444" stroke-miterlimit="22.9256" stroke-linecap="round" stroke-linejoin="round"/>
<path d="M71.3721 78.854H83.2549" stroke="#00A0E3" stroke-width="5.6444" stroke-miterlimit="22.9256" stroke-linecap="round" stroke-linejoin="round"/>
<path d="M32.1221 15.2776L41.2295 3.13965H66.3741L74.2936 15.3763" stroke="#00A0E3" stroke-width="5.6444" stroke-miterlimit="22.9256" stroke-linecap="round" stroke-linejoin="round"/>
<path d="M12.6094 32.1641C16.4379 41.4757 18.5147 52.0639 25.0849 59.7044C32.7036 68.5643 41.9885 65.2321 53.4058 65.2321" stroke="#00A0E3" stroke-width="5.6444" stroke-miterlimit="22.9256" stroke-linecap="round" stroke-linejoin="round"/>
<path d="M10.3264 105.999L3.59277 112.316" stroke="#00A0E3" stroke-width="5.6444" stroke-miterlimit="22.9256" stroke-linecap="round" stroke-linejoin="round"/>
<path d="M96.5664 106.533L102.112 112.258" stroke="#00A0E3" stroke-width="5.6444" stroke-miterlimit="22.9256" stroke-linecap="round" stroke-linejoin="round"/>
<path d="M41.71 56.0686V31.3906L52.9463 46.9437" stroke="#00A0E3" stroke-width="5.6444" stroke-miterlimit="22.9256" stroke-linecap="round" stroke-linejoin="round"/>
<path d="M66.0802 55.9353V31.2573L53.8184 48.0189" stroke="#5E99B3" stroke-width="5.6444" stroke-miterlimit="22.9256" stroke-linecap="round" stroke-linejoin="round"/>
<path d="M93.9898 32.1719C90.1613 41.4836 88.0845 52.0718 81.5143 59.7122C73.8955 68.5721 64.6107 65.2399 53.1934 65.2399" stroke="#00A0E3" stroke-width="5.6444" stroke-miterlimit="22.9256" stroke-linecap="round" stroke-linejoin="round"/>
<path d="M95.1932 97.4116H83.1123V99.9781H95.1932V97.4116Z" stroke="#FEFEFE" stroke-width="0.2" stroke-miterlimit="22.9256"/>
<path d="M23.8963 96.854H11.8154V99.4205H23.8963V96.854Z" stroke="#FEFEFE" stroke-width="0.2" stroke-miterlimit="22.9256"/>
<path d="M87.2618 14.2183H83.5V21.0274H87.2618V14.2183Z" stroke="#FEFEFE" stroke-width="0.2" stroke-miterlimit="22.9256"/>
</svg>
