<svg width="92" height="102" viewBox="0 0 92 102" fill="none" xmlns="http://www.w3.org/2000/svg">
<path d="M57.9758 75.9934C66.5247 61.8143 77.3299 41.8807 77.3299 31.6344C77.3299 14.3504 63.2749 0.29541 45.9909 0.29541C28.7068 0.29541 14.6519 14.3504 14.6519 31.6344C14.6519 41.8807 25.457 61.8143 34.0059 75.9934C23.8631 76.7593 0.783203 79.5123 0.783203 88.6408C0.783203 97.6243 24.215 101.723 46.0116 101.723C67.7874 101.723 91.2399 97.6243 91.2399 88.6408C91.2192 79.5123 68.1186 76.7593 57.9758 75.9934ZM18.978 31.6344C18.978 16.7308 31.1079 4.6009 45.9909 4.6009C60.8945 4.6009 73.0244 16.7308 73.0244 31.6344C73.0244 44.6544 52.2835 77.3182 45.9909 86.9227C39.6982 77.3182 18.978 44.6544 18.978 31.6344ZM45.9909 97.3967C19.5162 97.3967 5.08869 91.6008 5.08869 88.6201C5.08869 86.3224 14.6105 81.3753 36.5519 80.1126C40.6711 86.7571 43.7967 91.4559 44.2107 92.0148C44.7696 92.76 46.4048 93.65 47.7917 92.0148C48.2264 91.4973 51.3313 86.7571 55.4505 80.1126C77.392 81.3753 86.9137 86.3017 86.9137 88.6201C86.893 91.6215 72.4655 97.3967 45.9909 97.3967Z" fill="#5183E1"/>
<path d="M59.6315 31.6346C59.6315 24.1 53.5252 17.9937 45.9906 17.9937C38.456 17.9937 32.3496 24.1 32.3496 31.6346C32.3496 39.1692 38.456 45.2756 45.9906 45.2756C53.5252 45.2756 59.6315 39.1692 59.6315 31.6346ZM36.6551 31.6346C36.6551 26.4804 40.8364 22.2991 45.9906 22.2991C51.1447 22.2991 55.326 26.4804 55.326 31.6346C55.326 36.7888 51.1447 40.9701 45.9906 40.9701C40.8364 40.9701 36.6551 36.7888 36.6551 31.6346Z" fill="#5183E1"/>
</svg>
