<svg width="100" height="100" viewBox="0 0 100 100" fill="none" xmlns="http://www.w3.org/2000/svg">
<g clip-path="url(#clip0)">
<path d="M90.7185 13.5045C90.2502 13.2777 89.7027 13.2825 89.2384 13.5179L82.0559 17.1608L76.4348 7.50518C74.5106 3.8987 70.7483 1.65353 66.6609 1.67248H38.8839C34.7366 1.68248 30.8945 3.85391 28.7466 7.40186L23.5805 15.7976C23.1031 16.5734 23.3368 17.5887 24.1055 18.0774L42.4368 29.7428C42.7039 29.9125 43.0136 30.0025 43.3301 30.0027C43.4684 30.003 43.6061 29.9855 43.74 29.9511C44.1848 29.8384 44.5635 29.5472 44.7866 29.1462L51.7858 16.5525L59.4516 31.051L52.4724 35.2388C51.8595 35.6063 51.5492 36.3237 51.7008 37.022C51.8518 37.72 52.4309 38.2441 53.1407 38.3252L77.943 41.1449C78.0055 41.1515 78.0684 41.1549 78.1313 41.1549C78.77 41.1549 79.3526 40.7899 79.6311 40.215L91.4915 15.731C91.8927 14.9025 91.5467 13.9057 90.7185 13.5045ZM42.7318 25.9796L27.2785 16.1474L31.5947 9.1348C33.1364 6.57945 35.8996 5.014 38.8839 5.00525H45.6498L49.7794 13.296L42.7318 25.9796ZM77.1464 37.7L58.4018 35.5686L62.5196 33.0972C63.2777 32.6414 63.5477 31.673 63.1346 30.8908L49.4477 5.00525H66.6609C69.5553 5.00108 72.2119 6.60674 73.5534 9.17146L79.9661 20.1919C80.4112 20.9535 81.3726 21.2362 82.1592 20.8369L86.3354 18.7204L77.1464 37.7Z" fill="#5183E1"/>
<path d="M98.5411 48.3407L93.155 37.5818C92.7438 36.7584 91.7429 36.4244 90.9194 36.8357C90.8863 36.8521 90.8538 36.8698 90.8219 36.8886L70.8241 48.554C70.0404 49.011 69.7665 50.0109 70.2075 50.8037L77.1601 63.3324H61.6618V56.6664C61.6622 55.7461 60.9162 54.9997 59.9959 54.9993C59.5262 54.9991 59.0781 55.1972 58.7621 55.5449L42.0972 73.8762C41.5542 74.4739 41.5177 75.3748 42.0106 76.0143L58.6754 97.6786C59.2372 98.4075 60.2838 98.5429 61.0127 97.9811C61.4218 97.6657 61.6616 97.1787 61.6618 96.6621V91.6626H73.3272C77.4363 91.7639 81.2382 89.4948 83.0994 85.8299L94.7648 65.8421L98.2311 60.2427C100.473 56.6216 100.592 52.0736 98.5411 48.3407ZM80.2014 84.1901C78.9174 86.7961 76.2312 88.4136 73.3272 88.3297H59.9953C59.075 88.3297 58.3288 89.0758 58.3288 89.9962V91.7626L45.4969 75.0878L58.3288 60.976V64.9989C58.3288 65.9192 59.075 66.6653 59.9953 66.6653H90.4236L80.2014 84.1901ZM95.3898 58.4962L92.3901 63.329H80.973L73.9104 50.6187L90.9636 40.6682L95.5881 49.9005C97.0808 52.5908 97.005 55.8776 95.3898 58.4962Z" fill="#5183E1"/>
<path d="M39.8442 50.9688L29.8452 29.3045C29.5578 28.6783 28.9147 28.2933 28.2271 28.3363L1.5633 30.0027C0.644652 30.0598 -0.0538138 30.8506 0.00326335 31.7692C0.0368014 32.3083 0.32927 32.7979 0.788387 33.0824L0.790053 33.0857L9.02916 38.1952L3.52976 49.2073C1.53643 52.8288 1.54789 57.2215 3.55975 60.8327L12.8337 76.8477L17.9049 85.6317C20.0828 89.3313 24.0392 91.6198 28.3321 91.6627H34.998C35.9183 91.6627 36.6645 90.9166 36.6645 89.9962V66.6654C36.6645 65.7451 35.9183 64.999 34.998 64.999H22.5477L30.8601 50.5755L37.7327 53.2219C38.5918 53.5521 39.5561 53.1234 39.8862 52.2643C40.0477 51.8445 40.0325 51.3773 39.8442 50.9688ZM33.3315 68.3319V88.3298H28.3321C25.2266 88.2998 22.3638 86.6447 20.7879 83.9686L16.2134 76.0428L20.9329 68.3319H33.3315ZM30.7268 46.9526C29.9611 46.6584 29.0951 46.9651 28.6854 47.6758L14.2703 72.6865L6.44444 59.1663C5.00585 56.5378 5.0273 53.3527 6.5011 50.7438L12.6988 38.3218C13.0868 37.5498 12.8206 36.6093 12.0855 36.1554L6.98771 33.0024L27.2972 31.7376L35.0963 48.6357L30.7268 46.9526Z" fill="#5183E1"/>
</g>
<defs>
<clipPath id="clip0">
<rect width="100" height="100" fill="white"/>
</clipPath>
</defs>
</svg>
