<svg width="122" height="121" viewBox="0 0 122 121" fill="none" xmlns="http://www.w3.org/2000/svg">
<path d="M30.6363 2.17578H7.45508V62.5471H30.6363V2.17578Z" stroke="#00A0E3" stroke-width="3" stroke-miterlimit="22.9256" stroke-linecap="round" stroke-linejoin="round"/>
<path d="M120.153 2.22998H30.6367V24.7313H120.153V2.22998Z" stroke="#00A0E3" stroke-width="3" stroke-miterlimit="22.9256" stroke-linecap="round" stroke-linejoin="round"/>
<path d="M120.153 24.7314H96.4609V119.501H120.153V24.7314Z" stroke="#00A0E3" stroke-width="3" stroke-miterlimit="22.9256" stroke-linecap="round" stroke-linejoin="round"/>
<path d="M96.4608 99.0391H30.7686V119.501H96.4608V99.0391Z" stroke="#00A0E3" stroke-width="3" stroke-miterlimit="22.9256" stroke-linecap="round" stroke-linejoin="round"/>
<path d="M64.0291 75.816C71.8731 75.816 78.232 69.412 78.232 61.5123C78.232 53.6125 71.8731 47.2085 64.0291 47.2085C56.185 47.2085 49.8262 53.6125 49.8262 61.5123C49.8262 69.412 56.185 75.816 64.0291 75.816Z" stroke="#00A6D6" stroke-width="3" stroke-miterlimit="22.9256" stroke-linejoin="round"/>
<path d="M63.8592 55.5998C64.8358 55.5998 65.6275 54.8201 65.6275 53.8583C65.6275 52.8964 64.8358 52.1167 63.8592 52.1167C62.8825 52.1167 62.0908 52.8964 62.0908 53.8583C62.0908 54.8201 62.8825 55.5998 63.8592 55.5998Z" stroke="#00A6D6" stroke-width="1.4111" stroke-miterlimit="22.9256" stroke-linejoin="round"/>
<path d="M70.3181 59.344C71.2947 59.344 72.0864 58.5642 72.0864 57.6024C72.0864 56.6406 71.2947 55.8608 70.3181 55.8608C69.3415 55.8608 68.5498 56.6406 68.5498 57.6024C68.5498 58.5642 69.3415 59.344 70.3181 59.344Z" stroke="#00A6D6" stroke-width="1.4111" stroke-miterlimit="22.9256" stroke-linejoin="round"/>
<path d="M70.3943 66.2732C71.3709 66.2732 72.1626 65.4934 72.1626 64.5316C72.1626 63.5698 71.3709 62.79 70.3943 62.79C69.4177 62.79 68.626 63.5698 68.626 64.5316C68.626 65.4934 69.4177 66.2732 70.3943 66.2732Z" stroke="#00A6D6" stroke-width="1.4111" stroke-miterlimit="22.9256" stroke-linejoin="round"/>
<path d="M64.1091 70.1257C65.0858 70.1257 65.8775 69.346 65.8775 68.3841C65.8775 67.4223 65.0858 66.6426 64.1091 66.6426C63.1325 66.6426 62.3408 67.4223 62.3408 68.3841C62.3408 69.346 63.1325 70.1257 64.1091 70.1257Z" stroke="#00A6D6" stroke-width="1.4111" stroke-miterlimit="22.9256" stroke-linejoin="round"/>
<path d="M57.3748 59.5036C58.3514 59.5036 59.1431 58.7239 59.1431 57.7621C59.1431 56.8002 58.3514 56.0205 57.3748 56.0205C56.3982 56.0205 55.6064 56.8002 55.6064 57.7621C55.6064 58.7239 56.3982 59.5036 57.3748 59.5036Z" stroke="#00A6D6" stroke-width="1.4111" stroke-miterlimit="22.9256" stroke-linejoin="round"/>
<path d="M57.4509 66.4328C58.4276 66.4328 59.2193 65.6531 59.2193 64.6913C59.2193 63.7294 58.4276 62.9497 57.4509 62.9497C56.4743 62.9497 55.6826 63.7294 55.6826 64.6913C55.6826 65.6531 56.4743 66.4328 57.4509 66.4328Z" stroke="#00A6D6" stroke-width="1.4111" stroke-miterlimit="22.9256" stroke-linejoin="round"/>
<path d="M63.9613 80.3264C74.3534 80.3264 82.778 71.8495 82.778 61.3927C82.778 50.9359 74.3534 42.459 63.9613 42.459C53.5691 42.459 45.1445 50.9359 45.1445 61.3927C45.1445 71.8495 53.5691 80.3264 63.9613 80.3264Z" stroke="#00A6D6" stroke-width="3" stroke-miterlimit="22.9256" stroke-linejoin="round" stroke-dasharray="2.82 4.23"/>
<path fill-rule="evenodd" clip-rule="evenodd" d="M3.33369 90.851C3.61082 89.7249 1.19929 89.8983 4.06435 88.6454C4.69775 88.3684 2.18355 87.0086 5.98795 86.9278C6.87228 86.909 7.55349 84.9114 8.61002 86.2397C8.86975 86.5662 10.0394 85.9184 10.2314 87.0985C10.2857 87.4328 11.8593 87.0848 12.3434 87.3929C12.6196 87.5688 12.9984 89.6501 13.8856 90.4261C15.2688 91.6358 13.6921 93.041 14.2484 94.0586C14.7945 95.0578 13.809 95.2928 13.3852 96.0788C12.7406 97.2743 12.5657 95.2674 11.8059 97.3183C11.5179 98.0955 10.3103 97.1411 9.80788 98.3137C9.78575 98.3653 8.20215 99.1284 7.57215 98.6357C7.12675 98.2874 5.53822 98.8315 5.42709 97.8632C4.81815 97.8213 3.14722 96.7252 2.93762 96.7148C2.18142 95.6787 3.56269 95.6559 2.32989 94.4799C1.86862 94.0399 2.21735 92.7328 1.87722 91.6952C1.75222 91.314 3.31862 90.9122 3.33369 90.851V90.851Z" stroke="#00A6D6" stroke-width="3" stroke-miterlimit="22.9256" stroke-linejoin="round"/>
<path fill-rule="evenodd" clip-rule="evenodd" d="M9.2834 79.8735C9.69207 81.5343 6.13574 81.2784 10.3609 83.1262C11.295 83.5348 7.5872 85.5401 13.1977 85.6593C14.5019 85.687 15.5065 88.6329 17.0645 86.674C17.4476 86.1924 19.1726 87.1477 19.4555 85.4075C19.5357 84.9145 21.8563 85.4277 22.5701 84.9733C22.9776 84.7139 23.5363 81.6445 24.8447 80.5001C26.8844 78.7162 24.5593 76.6439 25.3796 75.1433C26.185 73.6697 24.7316 73.3231 24.1067 72.164C23.1561 70.401 22.8981 73.3606 21.7775 70.3362C21.3529 69.1898 19.572 70.5974 18.8311 68.8681C18.7984 68.792 16.4631 67.6665 15.534 68.3932C14.8772 68.9069 12.5345 68.1045 12.3706 69.5325C11.4726 69.5942 9.0084 71.2107 8.69927 71.226C7.58407 72.7541 9.62107 72.7877 7.803 74.5219C7.1228 75.1708 7.63707 77.0985 7.13547 78.6286C6.95114 79.1909 9.26114 79.7833 9.2834 79.8735V79.8735Z" stroke="#00A6D6" stroke-width="3" stroke-miterlimit="22.9256" stroke-linejoin="round"/>
<path fill-rule="evenodd" clip-rule="evenodd" d="M13.5075 100.219C12.1939 100.805 11.8841 97.789 10.9753 101.598C10.7745 102.44 8.57213 99.6293 9.29627 104.345C9.4646 105.441 7.1754 106.714 9.024 107.732C9.47847 107.982 8.94133 109.567 10.4221 109.548C10.8417 109.543 10.7575 111.562 11.2379 112.093C11.5122 112.396 14.1328 112.414 15.2711 113.342C17.0457 114.788 18.4187 112.537 19.7801 113.004C21.1169 113.462 21.1905 112.195 22.0575 111.501C23.3763 110.447 20.8907 110.665 23.2278 109.283C24.1136 108.759 22.6883 107.474 24.0099 106.6C24.0681 106.562 24.6565 104.441 23.9193 103.77C23.3981 103.295 23.7182 101.215 22.5131 101.288C22.3304 100.545 20.6321 98.7182 20.5741 98.4617C19.1467 97.7518 19.4177 99.4625 17.7167 98.1944C17.0803 97.7199 15.5613 98.4332 14.2223 98.2376C13.7303 98.1657 13.5789 100.187 13.5075 100.219V100.219Z" stroke="#00A6D6" stroke-width="3" stroke-miterlimit="22.9256" stroke-linejoin="round"/>
<path d="M43.2314 27.7959C44.5112 32.9185 47.9432 37.0709 51.3474 39.5454" stroke="#00A6D6" stroke-width="3" stroke-miterlimit="22.9256" stroke-linejoin="round"/>
<path d="M37.6514 29.3286C39.05 37.1671 47.289 43.6324 47.289 43.6324" stroke="#00A6D6" stroke-width="3" stroke-miterlimit="22.9256" stroke-linejoin="round"/>
<path d="M94.4658 44.8267C89.2218 44.9305 86.4636 45.446 83.3039 48.23" stroke="#00A6D6" stroke-width="3" stroke-miterlimit="22.9256" stroke-linejoin="round"/>
<path d="M94.2383 39.0068C86.3399 38.6165 80.768 42.0999 80.768 42.0999" stroke="#00A6D6" stroke-width="3" stroke-miterlimit="22.9256" stroke-linejoin="round"/>
<path d="M73.6973 95.6489C73.7589 90.367 73.3339 87.5744 70.6701 84.3064" stroke="#00A6D6" stroke-width="3" stroke-miterlimit="22.9256" stroke-linejoin="round"/>
<path d="M79.4795 95.6021C80.1149 87.6638 76.8328 81.9457 76.8328 81.9457" stroke="#00A6D6" stroke-width="3" stroke-miterlimit="22.9256" stroke-linejoin="round"/>
<path d="M28.8301 86.894C33.4907 84.471 41.1082 78.1852 42.7244 74.283" stroke="#00A6D6" stroke-width="3" stroke-miterlimit="22.9256" stroke-linejoin="round"/>
<path d="M31.584 92.0156C38.8432 88.8568 48.3038 78.3699 48.3038 78.3699" stroke="#00A6D6" stroke-width="3" stroke-miterlimit="22.9256" stroke-linejoin="round"/>
</svg>
