<svg width="97" height="112" viewBox="0 0 97 112" fill="none" xmlns="http://www.w3.org/2000/svg">
<path d="M96.5255 88.5435C96.5255 76.5148 82.922 67.0812 71.2616 66.6343L65.3127 61.2518C72.5582 55.9283 76.956 47.3731 76.956 38.2813V23.8438C76.956 10.5761 66.2027 -0.21875 52.9854 -0.21875H44.2965C31.0969 -0.21875 20.4785 10.5376 20.4785 23.8438V38.2813C20.4785 47.3578 24.8179 55.8967 31.9692 61.2108L25.9753 66.6343C14.3404 67.0803 0.711426 76.49 0.711426 88.5435V109.594C0.711426 110.802 1.68383 111.781 2.88364 111.781H94.3532C95.5531 111.781 96.5255 110.802 96.5255 109.594V88.5435ZM43.8069 97.3439H53.4181L55.6955 107.406H41.4633L43.8069 97.3439ZM53.6048 92.9689H43.6694L42.003 87.7403L48.6197 84.4086L55.3782 87.8129L53.6048 92.9689ZM48.6189 77.8358L41.0704 65.6755C43.5218 66.3617 46.0691 66.718 48.6409 66.718C51.1882 66.718 53.7168 66.3685 56.1554 65.6935L48.6189 77.8358ZM51.7278 81.0829L62.157 64.2776L67.7818 69.367L60.6246 85.5639L51.7278 81.0829ZM44.2965 4.15626H52.9854C63.8074 4.15626 72.6116 12.9875 72.6116 23.8438V25.6519L68.5328 19.7371C68.1637 19.2013 67.5757 18.8595 66.9299 18.8048C66.2834 18.7502 65.6487 18.9886 65.1956 19.4551C60.7799 24.0027 55.6675 26.0313 48.6197 26.0313C41.5728 26.0313 36.4596 24.0027 32.0405 19.4551C31.5857 18.986 30.945 18.7485 30.2976 18.8057C29.6494 18.863 29.0605 19.2099 28.6939 19.7516L24.823 25.4639V23.8438C24.823 12.9875 33.5585 4.15626 44.2965 4.15626ZM24.823 38.2813V33.2253L30.8559 24.3223C35.6891 28.4623 41.4005 30.4063 48.6197 30.4063C55.8466 30.4063 61.5622 28.4581 66.3962 24.3095L72.6116 33.3227V38.2813C72.6116 51.3816 61.9788 62.3439 48.6409 62.3439C35.3463 62.3439 24.823 51.4158 24.823 38.2813ZM35.0799 64.2785L45.5107 81.0829L36.6123 85.5639L29.455 69.367L35.0799 64.2785ZM5.05585 88.5435C5.05585 79.532 15.9339 71.751 25.4398 71.0435L33.567 89.433C33.8079 89.9782 34.2602 90.4012 34.8185 90.6028C35.3769 90.8045 35.992 90.7669 36.5232 90.5003L38.0709 89.7201L39.8333 95.247L37.0009 107.406H5.05585V88.5435ZM92.181 107.406H60.1511L57.407 95.2803L59.2966 89.7859L60.7137 90.5003C61.2482 90.7695 61.8651 90.8028 62.4183 90.6028C62.9767 90.4012 63.4289 89.9782 63.6699 89.433L71.797 71.0435C81.303 71.7519 92.181 79.532 92.181 88.5435V107.406Z" fill="#5183E1"/>
</svg>
