<svg width="140" height="125" viewBox="0 0 140 125" fill="none" xmlns="http://www.w3.org/2000/svg">
<path d="M63.8793 3.82764C64.7077 3.82764 65.3793 3.15606 65.3793 2.32764C65.3793 1.49921 64.7077 0.827637 63.8793 0.827637V3.82764ZM2.31055 2.32764V0.827637C1.48212 0.827637 0.810547 1.49921 0.810547 2.32764L2.31055 2.32764ZM2.31055 123.5H0.810547C0.810547 124.329 1.48212 125 2.31055 125L2.31055 123.5ZM47.1771 123.5V125C48.0056 125 48.6771 124.329 48.6771 123.5H47.1771ZM138.22 104.178V105.678C139.049 105.678 139.72 105.006 139.72 104.178H138.22ZM138.22 2.32764H139.72C139.72 1.49921 139.049 0.827637 138.22 0.827637V2.32764ZM75.014 0.827637C74.1856 0.827637 73.514 1.49921 73.514 2.32764C73.514 3.15606 74.1856 3.82764 75.014 3.82764V0.827637ZM28.8375 25.5797H27.3375V27.0797H28.8375V25.5797ZM57.6569 25.5797V27.0797H59.1569V25.5797H57.6569ZM81.8914 23.6147H80.3914V25.1147H81.8914V23.6147ZM91.0612 23.6147V25.1147H92.5612V23.6147H91.0612ZM127.74 11.8249H129.24V10.3249H127.74V11.8249ZM127.74 27.2171H126.24V28.7171H127.74V27.2171ZM121.846 36.7144V35.2144H120.346V36.7144H121.846ZM121.846 50.4692H120.346V51.9692H121.846V50.4692ZM47.1771 43.5918V42.0918H45.6771V43.5918H47.1771ZM0.810547 2.32764V123.5H3.81055V2.32764H0.810547ZM2.31055 125H47.1771V122H2.31055V125ZM48.6771 123.5V104.178H45.6771V123.5H48.6771ZM47.1771 105.678H138.22V102.678H47.1771V105.678ZM28.8375 0.827637H2.31055V3.82764H28.8375V0.827637ZM27.3375 2.32764V25.5797H30.3375V2.32764H27.3375ZM28.8375 27.0797H44.2297V24.0797H28.8375V27.0797ZM54.382 27.0797H57.6569V24.0797H54.382V27.0797ZM63.8793 0.827637H57.6569V3.82764H63.8793V0.827637ZM57.6569 0.827637H28.8375V3.82764H57.6569V0.827637ZM59.1569 25.5797V2.32764H56.1569V25.5797H59.1569ZM138.22 0.827637H81.8914V3.82764H138.22V0.827637ZM81.8914 0.827637H75.014V3.82764H81.8914V0.827637ZM80.3914 2.32764V23.6147H83.3914V2.32764H80.3914ZM81.8914 25.1147H91.0612V22.1147H81.8914V25.1147ZM92.5612 23.6147V11.8249H89.5612V23.6147H92.5612ZM92.5612 11.8249V2.98262H89.5612V11.8249H92.5612ZM91.0612 13.3249H127.74V10.3249H91.0612V13.3249ZM126.24 11.8249V27.2171H129.24V11.8249H126.24ZM139.72 27.2171V2.32764H136.72V27.2171H139.72ZM127.74 28.7171H138.22V25.7171H127.74V28.7171ZM139.72 36.7144V27.2171H136.72V36.7144H139.72ZM138.22 35.2144H121.846V38.2144H138.22V35.2144ZM120.346 36.7144V50.4692H123.346V36.7144H120.346ZM139.72 104.178V50.4692H136.72V104.178H139.72ZM139.72 50.4692V36.7144H136.72V50.4692H139.72ZM121.846 51.9692H138.22V48.9692H121.846V51.9692ZM48.6771 104.178V43.5918H45.6771V104.178H48.6771ZM47.1771 45.0918H54.382V42.0918H47.1771V45.0918Z" fill="#5183E1"/>
<path d="M2.6377 60.6216H19.6673V75.3588H2.6377" stroke="#5183E1" stroke-width="3"/>
<path d="M47.8316 103.523H32.4395" stroke="#5183E1" stroke-width="3"/>
<path d="M1 104.178H17.3747" stroke="#5183E1" stroke-width="3"/>
<path d="M89.4231 104.505V43.2642H67.8086" stroke="#5183E1" stroke-width="3"/>
<path d="M127.74 12.1523V2" stroke="#5183E1" stroke-width="3"/>
</svg>
