<?xml version="1.0" encoding="UTF-8" standalone="no"?>
<svg
   xmlns:dc="http://purl.org/dc/elements/1.1/"
   xmlns:cc="http://creativecommons.org/ns#"
   xmlns:rdf="http://www.w3.org/1999/02/22-rdf-syntax-ns#"
   xmlns:svg="http://www.w3.org/2000/svg"
   xmlns="http://www.w3.org/2000/svg"
   xmlns:sodipodi="http://sodipodi.sourceforge.net/DTD/sodipodi-0.dtd"
   xmlns:inkscape="http://www.inkscape.org/namespaces/inkscape"
   width="186.40387"
   height="98.325996"
   viewBox="0 0 186.40387 98.325996"
   version="1.1"
   id="svg64"
   sodipodi:docname="Инфрастуркута.svg"
   style="fill:none"
   inkscape:version="0.92.1 r15371">
  <metadata
     id="metadata70">
    <rdf:RDF>
      <cc:Work
         rdf:about="">
        <dc:format>image/svg+xml</dc:format>
        <dc:type
           rdf:resource="http://purl.org/dc/dcmitype/StillImage" />
        <dc:title></dc:title>
      </cc:Work>
    </rdf:RDF>
  </metadata>
  <defs
     id="defs68" />
  <sodipodi:namedview
     pagecolor="#ffffff"
     bordercolor="#666666"
     borderopacity="1"
     objecttolerance="10"
     gridtolerance="10"
     guidetolerance="10"
     inkscape:pageopacity="0"
     inkscape:pageshadow="2"
     inkscape:window-width="751"
     inkscape:window-height="480"
     id="namedview66"
     showgrid="false"
     fit-margin-top="0"
     fit-margin-left="0"
     fit-margin-right="0"
     fit-margin-bottom="0"
     inkscape:zoom="0.79461279"
     inkscape:cx="93.32998"
     inkscape:cy="55.326"
     inkscape:window-x="238"
     inkscape:window-y="91"
     inkscape:window-maximized="0"
     inkscape:current-layer="svg64" />
  <path
     d="m 44.11298,26.882 102.722,0.124 38.069,68.397 H 1.4998801 Z"
     stroke-miterlimit="22.9256"
     id="path2"
     inkscape:connector-curvature="0"
     style="clip-rule:evenodd;fill-rule:evenodd;stroke:#5183e1;stroke-width:3;stroke-linecap:round;stroke-linejoin:round;stroke-miterlimit:22.92560005" />
  <path
     d="m 76.61388,85.118 c 12.6441,0 22.8931,-9.919 22.8931,-22.154 0,-12.236 -10.249,-22.155 -22.8931,-22.155 -12.6436,0 -22.8933,9.919 -22.8933,22.155 0,12.235 10.2497,22.154 22.8933,22.154 z"
     stroke-miterlimit="22.9256"
     id="path4"
     inkscape:connector-curvature="0"
     style="stroke:#5183e1;stroke-width:3;stroke-linecap:round;stroke-linejoin:round;stroke-miterlimit:22.92560005" />
  <path
     d="m 68.66398,42.182 21.55,53.435"
     stroke-miterlimit="22.9256"
     id="path6"
     inkscape:connector-curvature="0"
     style="stroke:#5183e1;stroke-width:3;stroke-linecap:round;stroke-linejoin:round;stroke-miterlimit:22.92560005" />
  <path
     d="m 55.25678,70.958 42.2252,-16.89"
     stroke-miterlimit="22.9256"
     id="path8"
     inkscape:connector-curvature="0"
     style="stroke:#5183e1;stroke-width:3;stroke-linecap:round;stroke-linejoin:round;stroke-miterlimit:22.92560005" />
  <path
     d="M 85.26358,42.23 62.95788,95.04"
     stroke-miterlimit="22.9256"
     id="path10"
     inkscape:connector-curvature="0"
     style="stroke:#5183e1;stroke-width:3;stroke-linecap:round;stroke-linejoin:round;stroke-miterlimit:22.92560005" />
  <path
     d="M 56.18738,52.757 97.55898,71.9"
     stroke-miterlimit="22.9256"
     id="path12"
     inkscape:connector-curvature="0"
     style="stroke:#5183e1;stroke-width:3;stroke-linecap:round;stroke-linejoin:round;stroke-miterlimit:22.92560005" />
  <path
     d="m 76.89408,48.297 c 1.943,0 3.5181,-1.521 3.5181,-3.398 0,-1.877 -1.5751,-3.399 -3.5181,-3.399 -1.9431,0 -3.5182,1.522 -3.5182,3.399 0,1.877 1.5751,3.398 3.5182,3.398 z"
     stroke-miterlimit="22.9256"
     id="path14"
     inkscape:connector-curvature="0"
     style="stroke:#5183e1;stroke-width:2;stroke-linecap:round;stroke-linejoin:round;stroke-miterlimit:22.92560005" />
  <path
     d="m 90.30498,52.388 c 1.943,0 3.518,-1.521 3.518,-3.398 0,-1.877 -1.575,-3.399 -3.518,-3.399 -1.943,0 -3.518,1.522 -3.518,3.399 0,1.877 1.575,3.398 3.518,3.398 z"
     stroke-miterlimit="22.9256"
     id="path16"
     inkscape:connector-curvature="0"
     style="stroke:#5183e1;stroke-width:2;stroke-linecap:round;stroke-linejoin:round;stroke-miterlimit:22.92560005" />
  <path
     d="m 96.12198,66.298 c 1.943,0 3.518,-1.521 3.518,-3.398 0,-1.877 -1.575,-3.399 -3.518,-3.399 -1.943,0 -3.518,1.522 -3.518,3.399 0,1.877 1.575,3.398 3.518,3.398 z"
     stroke-miterlimit="22.9256"
     id="path18"
     inkscape:connector-curvature="0"
     style="stroke:#5183e1;stroke-width:2;stroke-linecap:round;stroke-linejoin:round;stroke-miterlimit:22.92560005" />
  <path
     d="m 90.10898,80.171 c 1.943,0 3.518,-1.521 3.518,-3.398 0,-1.877 -1.575,-3.399 -3.518,-3.399 -1.9431,0 -3.5183,1.522 -3.5183,3.399 0,1.877 1.5752,3.398 3.5183,3.398 z"
     stroke-miterlimit="22.9256"
     id="path20"
     inkscape:connector-curvature="0"
     style="stroke:#5183e1;stroke-width:2;stroke-linecap:round;stroke-linejoin:round;stroke-miterlimit:22.92560005" />
  <path
     d="m 76.60008,85.45 c 1.943,0 3.5182,-1.521 3.5182,-3.398 0,-1.877 -1.5752,-3.399 -3.5182,-3.399 -1.943,0 -3.5181,1.522 -3.5181,3.399 0,1.877 1.5751,3.398 3.5181,3.398 z"
     stroke-miterlimit="22.9256"
     id="path22"
     inkscape:connector-curvature="0"
     style="stroke:#5183e1;stroke-width:2;stroke-linecap:round;stroke-linejoin:round;stroke-miterlimit:22.92560005" />
  <path
     d="m 63.44138,79.146 c 1.9431,0 3.5182,-1.522 3.5182,-3.399 0,-1.877 -1.5751,-3.398 -3.5182,-3.398 -1.943,0 -3.5181,1.521 -3.5181,3.398 0,1.877 1.5751,3.399 3.5181,3.399 z"
     stroke-miterlimit="22.9256"
     id="path24"
     inkscape:connector-curvature="0"
     style="stroke:#5183e1;stroke-width:2;stroke-linecap:round;stroke-linejoin:round;stroke-miterlimit:22.92560005" />
  <path
     d="m 56.84818,64.956 c 1.943,0 3.5181,-1.522 3.5181,-3.399 0,-1.877 -1.5751,-3.398 -3.5181,-3.398 -1.9431,0 -3.5182,1.521 -3.5182,3.398 0,1.877 1.5751,3.399 3.5182,3.399 z"
     stroke-miterlimit="22.9256"
     id="path26"
     inkscape:connector-curvature="0"
     style="stroke:#5183e1;stroke-width:2;stroke-linecap:round;stroke-linejoin:round;stroke-miterlimit:22.92560005" />
  <path
     d="m 64.16458,51.514 c 1.943,0 3.5181,-1.522 3.5181,-3.399 0,-1.877 -1.5751,-3.398 -3.5181,-3.398 -1.9431,0 -3.5182,1.521 -3.5182,3.398 0,1.877 1.5751,3.399 3.5182,3.399 z"
     stroke-miterlimit="22.9256"
     id="path28"
     inkscape:connector-curvature="0"
     style="stroke:#5183e1;stroke-width:2;stroke-linecap:round;stroke-linejoin:round;stroke-miterlimit:22.92560005" />
  <path
     d="m 54.56488,95.668 43.5711,-0.105"
     stroke-miterlimit="22.9256"
     id="path30"
     inkscape:connector-curvature="0"
     style="stroke:#5183e1;stroke-width:3;stroke-linecap:round;stroke-linejoin:round;stroke-miterlimit:22.92560005" />
  <path
     d="m 41.56148,35.478 0.9102,-0.721 c 9.371,5.489 18.4962,-3.983 13.7079,-12.716 l -4.3224,-3.781 c -1.637,-13.315 -17.1002,-13.575 -18.658,-0.908 -2.8589,3.546 -6.7376,8.332 -3.8511,13.101 2.7236,5.069 6.6708,6.184 12.2134,5.025 z"
     stroke-miterlimit="22.9256"
     id="path32"
     inkscape:connector-curvature="0"
     style="clip-rule:evenodd;fill:#fefefe;fill-rule:evenodd;stroke:#5183e1;stroke-width:3;stroke-linecap:round;stroke-linejoin:round;stroke-miterlimit:22.92560005" />
  <path
     d="M 42.47158,47.082 V 22.433"
     stroke-miterlimit="22.9256"
     id="path34"
     inkscape:connector-curvature="0"
     style="stroke:#5183e1;stroke-width:3;stroke-linecap:round;stroke-linejoin:round;stroke-miterlimit:22.92560005" />
  <path
     d="m 42.47158,29.789 3.4129,-2.882"
     stroke-miterlimit="22.9256"
     id="path36"
     inkscape:connector-curvature="0"
     style="stroke:#5183e1;stroke-width:3;stroke-linecap:round;stroke-linejoin:round;stroke-miterlimit:22.92560005" />
  <path
     d="m 42.47148,26.983 -2.9579,-2.579"
     stroke-miterlimit="22.9256"
     id="path38"
     inkscape:connector-curvature="0"
     style="stroke:#5183e1;stroke-width:3;stroke-linecap:round;stroke-linejoin:round;stroke-miterlimit:22.92560005" />
  <path
     d="M 142.47198,95.523 V 70.875"
     stroke-miterlimit="22.9256"
     id="path40"
     inkscape:connector-curvature="0"
     style="stroke:#5183e1;stroke-width:3;stroke-linecap:round;stroke-linejoin:round;stroke-miterlimit:22.92560005" />
  <path
     d="m 142.47198,78.231 3.413,-2.882"
     stroke-miterlimit="22.9256"
     id="path42"
     inkscape:connector-curvature="0"
     style="stroke:#5183e1;stroke-width:3;stroke-linecap:round;stroke-linejoin:round;stroke-miterlimit:22.92560005" />
  <path
     d="m 142.47098,75.425 -2.957,-2.579"
     stroke-miterlimit="22.9256"
     id="path44"
     inkscape:connector-curvature="0"
     style="stroke:#5183e1;stroke-width:3;stroke-linecap:round;stroke-linejoin:round;stroke-miterlimit:22.92560005" />
  <path
     d="m 141.56098,83.919 0.911,-0.72 c 9.371,5.488 18.496,-3.983 13.708,-12.716 l -4.323,-3.781 c -1.637,-13.315 -17.1,-13.575 -18.658,-0.908 -2.859,3.546 -6.737,8.332 -3.851,13.101 2.724,5.069 6.671,6.184 12.213,5.024 z"
     stroke-miterlimit="22.9256"
     id="path46"
     inkscape:connector-curvature="0"
     style="clip-rule:evenodd;fill-rule:evenodd;stroke:#5183e1;stroke-width:3;stroke-linecap:round;stroke-linejoin:round;stroke-miterlimit:22.92560005" />
  <path
     d="m 132.52998,1.5 h -22.4 c -2.651,0 -4.8,1.997 -4.8,4.461 v 33.078 c 0,2.464 2.149,4.461 4.8,4.461 h 22.4 c 2.651,0 4.8,-1.997 4.8,-4.461 V 5.961 c 0,-2.464 -2.149,-4.461 -4.8,-4.461 z"
     stroke-miterlimit="22.9256"
     id="path48"
     inkscape:connector-curvature="0"
     style="fill:#fefefe;stroke:#5183e1;stroke-width:3;stroke-linecap:round;stroke-linejoin:round;stroke-miterlimit:22.92560005" />
  <path
     d="m 117.55198,7.5 h -5.444 c -0.43,0 -0.778,0.47 -0.778,1.05 v 4.9 c 0,0.58 0.348,1.05 0.778,1.05 h 5.444 c 0.43,0 0.778,-0.47 0.778,-1.05 v -4.9 c 0,-0.58 -0.348,-1.05 -0.778,-1.05 z"
     stroke-miterlimit="22.9256"
     id="path50"
     inkscape:connector-curvature="0"
     style="fill:#fefefe;stroke:#5183e1;stroke-width:3;stroke-linecap:round;stroke-linejoin:round;stroke-miterlimit:22.92560005" />
  <path
     d="m 130.55198,7.5 h -5.444 c -0.43,0 -0.778,0.47 -0.778,1.05 v 4.9 c 0,0.58 0.348,1.05 0.778,1.05 h 5.444 c 0.43,0 0.778,-0.47 0.778,-1.05 v -4.9 c 0,-0.58 -0.348,-1.05 -0.778,-1.05 z"
     stroke-miterlimit="22.9256"
     id="path52"
     inkscape:connector-curvature="0"
     style="fill:#fefefe;stroke:#5183e1;stroke-width:3;stroke-linecap:round;stroke-linejoin:round;stroke-miterlimit:22.92560005" />
  <path
     d="m 117.55198,19.5 h -5.444 c -0.43,0 -0.778,0.47 -0.778,1.05 v 4.9 c 0,0.58 0.348,1.05 0.778,1.05 h 5.444 c 0.43,0 0.778,-0.47 0.778,-1.05 v -4.9 c 0,-0.58 -0.348,-1.05 -0.778,-1.05 z"
     stroke-miterlimit="22.9256"
     id="path54"
     inkscape:connector-curvature="0"
     style="fill:#fefefe;stroke:#5183e1;stroke-width:3;stroke-linecap:round;stroke-linejoin:round;stroke-miterlimit:22.92560005" />
  <path
     d="m 130.55198,19.5 h -5.444 c -0.43,0 -0.778,0.47 -0.778,1.05 v 4.9 c 0,0.58 0.348,1.05 0.778,1.05 h 5.444 c 0.43,0 0.778,-0.47 0.778,-1.05 v -4.9 c 0,-0.58 -0.348,-1.05 -0.778,-1.05 z"
     stroke-miterlimit="22.9256"
     id="path56"
     inkscape:connector-curvature="0"
     style="fill:#fefefe;stroke:#5183e1;stroke-width:3;stroke-linecap:round;stroke-linejoin:round;stroke-miterlimit:22.92560005" />
  <path
     d="m 117.55198,31.5 h -5.444 c -0.43,0 -0.778,0.47 -0.778,1.05 v 4.9 c 0,0.58 0.348,1.05 0.778,1.05 h 5.444 c 0.43,0 0.778,-0.47 0.778,-1.05 v -4.9 c 0,-0.58 -0.348,-1.05 -0.778,-1.05 z"
     stroke-miterlimit="22.9256"
     id="path58"
     inkscape:connector-curvature="0"
     style="fill:#fefefe;stroke:#5183e1;stroke-width:3;stroke-linecap:round;stroke-linejoin:round;stroke-miterlimit:22.92560005" />
  <path
     d="m 130.55198,31.5 h -5.444 c -0.43,0 -0.778,0.47 -0.778,1.05 v 4.9 c 0,0.58 0.348,1.05 0.778,1.05 h 5.444 c 0.43,0 0.778,-0.47 0.778,-1.05 v -4.9 c 0,-0.58 -0.348,-1.05 -0.778,-1.05 z"
     stroke-miterlimit="22.9256"
     id="path60"
     inkscape:connector-curvature="0"
     style="fill:#fefefe;stroke:#5183e1;stroke-width:3;stroke-linecap:round;stroke-linejoin:round;stroke-miterlimit:22.92560005" />
  <path
     d="m 165.30998,92.771 h 8.317 c 0.273,0 0.496,0.369 0.496,0.819 v 3.818 c 0,0.45 -0.223,0.818 -0.496,0.818 h -8.317 c -0.274,0 -0.497,-0.368 -0.497,-0.818 V 93.59 c 0,-0.45 0.223,-0.819 0.497,-0.819 z"
     stroke-miterlimit="22.9256"
     id="path62"
     inkscape:connector-curvature="0"
     style="clip-rule:evenodd;fill:#fefefe;fill-rule:evenodd;stroke:#fefefe;stroke-width:0.2;stroke-miterlimit:22.92560005" />
</svg>
