<svg height="482pt" viewBox="0 0 482 482" width="482pt" xmlns="http://www.w3.org/2000/svg"><path d="m474.226562 482h-466.453124c-4.292969 0-7.773438-3.476562-7.773438-7.773438v-466.453124c0-4.292969 3.480469-7.773438 7.773438-7.773438h466.453124c4.296876 0 7.773438 3.480469 7.773438 7.773438v466.453124c0 4.296876-3.476562 7.773438-7.773438 7.773438zm-458.679687-15.546875h450.902344v-450.90625h-450.902344zm0 0"/><path d="m233.226562 7.773438h15.546876v466.453124h-15.546876zm0 0"/><path d="m443.128906 450.902344h-171.03125c-4.296875 0-7.773437-3.476563-7.773437-7.773438v-62.195312c0-4.296875 3.476562-7.773438 7.773437-7.773438h171.03125c4.296875 0 7.773438 3.476563 7.773438 7.773438v62.195312c0 4.296875-3.476563 7.773438-7.773438 7.773438zm-163.257812-15.546875h155.484375v-46.644531h-155.484375zm0 0"/><path d="m443.128906 357.613281h-171.03125c-4.296875 0-7.773437-3.476562-7.773437-7.773437v-62.195313c0-4.296875 3.476562-7.773437 7.773437-7.773437h171.03125c4.296875 0 7.773438 3.476562 7.773438 7.773437v62.195313c0 4.296875-3.476563 7.773437-7.773438 7.773437zm-163.257812-15.546875h155.484375v-46.644531h-155.484375zm0 0"/><path d="m443.128906 264.324219h-171.03125c-4.296875 0-7.773437-3.476563-7.773437-7.773438v-217.679687c0-4.292969 3.476562-7.773438 7.773437-7.773438h171.03125c4.296875 0 7.773438 3.480469 7.773438 7.773438v217.675781c0 4.296875-3.476563 7.777344-7.773438 7.777344zm-163.257812-15.550781h155.484375v-202.128907h-155.484375zm0 0"/><path d="m295.417969 116.613281h15.550781v62.195313h-15.550781zm0 0"/><path d="m342.066406 310.96875h31.09375v15.546875h-31.09375zm0 0"/><path d="m342.066406 404.257812h31.09375v15.546876h-31.09375zm0 0"/><path d="m171.03125 279.871094h-93.289062c-4.292969 0-7.773438-3.476563-7.773438-7.773438v-69.96875h-23.324219c-4.292969 0-7.773437-3.480468-7.773437-7.773437v-35.652344c0-9.167969 3.566406-17.785156 10.050781-24.265625 6.480469-6.484375 15.097656-10.050781 24.265625-10.050781h102.402344c9.164062 0 17.78125 3.566406 24.261718 10.050781 6.484376 6.480469 10.050782 15.097656 10.050782 24.265625v35.652344c0 4.292969-3.480469 7.773437-7.773438 7.773437h-23.320312v69.96875c-.003906 4.296875-3.484375 7.773438-7.777344 7.773438zm-85.515625-15.546875h77.742187v-69.96875c0-4.292969 3.480469-7.773438 7.773438-7.773438h23.324219v-27.878906c0-5.011719-1.953125-9.726563-5.496094-13.269531-3.492187-3.492188-8.332031-5.5-13.273437-5.5h-102.398438c-4.941406 0-9.777344 2.003906-13.273438 5.5-3.488281 3.492187-5.496093 8.332031-5.496093 13.269531v27.878906h23.324219c4.292968 0 7.773437 3.480469 7.773437 7.773438zm0 0"/><path d="m155.484375 139.933594h-62.195313c-4.292968 0-7.773437-3.480469-7.773437-7.773438v-31.097656c0-4.292969 3.480469-7.773438 7.773437-7.773438h62.195313c4.292969 0 7.773437 3.480469 7.773437 7.773438v31.097656c0 4.292969-3.480468 7.773438-7.773437 7.773438zm-54.417969-15.546875h46.644532v-15.546875h-46.644532zm0 0"/><path d="m116.613281 69.96875h15.546875v31.097656h-15.546875zm0 0"/><path d="m241 77.742188h-233.226562c-4.292969 0-7.773438-3.480469-7.773438-7.773438v-31.097656c0-4.292969 3.480469-7.773438 7.773438-7.773438h233.226562c4.296875 0 7.773438 3.480469 7.773438 7.773438v31.097656c0 4.292969-3.476563 7.773438-7.773438 7.773438zm-225.453125-15.546876h217.679687v-15.550781h-217.679687zm0 0"/><path d="m7.773438 388.710938h233.226562v15.546874h-233.226562zm0 0"/><path d="m178.804688 404.257812h-108.835938c-12.863281 0-23.324219-10.460937-23.324219-23.324218 0-12.859375 10.460938-23.320313 23.324219-23.320313h108.839844c12.859375 0 23.320312 10.460938 23.320312 23.320313 0 12.863281-10.460937 23.324218-23.324218 23.324218zm-108.835938-31.097656c-4.285156 0-7.773438 3.484375-7.773438 7.773438 0 4.289062 3.488282 7.777344 7.773438 7.777344h108.839844c4.285156 0 7.773437-3.488282 7.773437-7.777344 0-4.289063-3.488281-7.773438-7.773437-7.773438zm0 0"/><path d="m178.804688 373.160156h-108.835938c-12.863281 0-23.324219-10.460937-23.324219-23.320312 0-12.863282 10.460938-23.324219 23.324219-23.324219h108.839844c12.859375 0 23.320312 10.460937 23.320312 23.324219 0 12.859375-10.460937 23.320312-23.324218 23.320312zm-108.835938-31.09375c-4.285156 0-7.773438 3.484375-7.773438 7.773438 0 4.289062 3.488282 7.773437 7.773438 7.773437h108.839844c4.285156 0 7.773437-3.484375 7.773437-7.773437 0-4.289063-3.488281-7.773438-7.773437-7.773438zm0 0"/><path d="m108.839844 419.804688h31.097656v15.550781h-31.097656zm0 0"/></svg>