<?xml version="1.0" encoding="UTF-8" standalone="no"?>
<svg
   xmlns:dc="http://purl.org/dc/elements/1.1/"
   xmlns:cc="http://creativecommons.org/ns#"
   xmlns:rdf="http://www.w3.org/1999/02/22-rdf-syntax-ns#"
   xmlns:svg="http://www.w3.org/2000/svg"
   xmlns="http://www.w3.org/2000/svg"
   height="80"
   width="50"
   xml:space="preserve"
   viewBox="0 0 50 80"
   y="0px"
   x="0px"
   id="Capa_1"
   version="1.1"><metadata
     id="metadata43"><rdf:RDF><cc:Work
         rdf:about=""><dc:format>image/svg+xml</dc:format><dc:type
           rdf:resource="http://purl.org/dc/dcmitype/StillImage" /><dc:title></dc:title></cc:Work></rdf:RDF></metadata><defs
     id="defs41" /><g
     transform="translate(-15)"
     id="g6"><g
       id="g4"><path
         id="path2"
         d="M 40,0 C 26.191,0 15,11.194 15,25 15,48.87 40,80 40,80 40,80 65,48.87 65,25 65,11.194 53.807,0 40,0 Z m 0,38.8 c -7.457,0 -13.5,-6.044 -13.5,-13.5 0,-7.456 6.043,-13.5 13.5,-13.5 7.455,0 13.5,6.044 13.5,13.5 0,7.456 -6.045,13.5 -13.5,13.5 z"
         style="fill:#030104" /></g></g><g
     transform="translate(-15)"
     id="g8" /><g
     transform="translate(-15)"
     id="g10" /><g
     transform="translate(-15)"
     id="g12" /><g
     transform="translate(-15)"
     id="g14" /><g
     transform="translate(-15)"
     id="g16" /><g
     transform="translate(-15)"
     id="g18" /><g
     transform="translate(-15)"
     id="g20" /><g
     transform="translate(-15)"
     id="g22" /><g
     transform="translate(-15)"
     id="g24" /><g
     transform="translate(-15)"
     id="g26" /><g
     transform="translate(-15)"
     id="g28" /><g
     transform="translate(-15)"
     id="g30" /><g
     transform="translate(-15)"
     id="g32" /><g
     transform="translate(-15)"
     id="g34" /><g
     transform="translate(-15)"
     id="g36" /></svg>