<svg xmlns="http://www.w3.org/2000/svg" width="15" height="21" viewBox="0 0 15 21">
  <defs>
    <style>
      .cls-1 {
        fill: #cacdd9;
        fill-rule: evenodd;
      }
    </style>
  </defs>
  <path id="phone2.svg" class="cls-1" d="M828.59,12162.5a16.166,16.166,0,0,0,5.22,7.8l2.265-2a0.689,0.689,0,0,1,.935-0.1,8.659,8.659,0,0,0,3.205,1.2,0.876,0.876,0,0,1,.791,1.1l-0.406,3.6a0.9,0.9,0,0,1-1.03.9c-8.557-1.3-14.568-10.3-13.444-20.1a0.9,0.9,0,0,1,1.029-.9l3.187,0.5a0.968,0.968,0,0,1,.79,1.2,13.452,13.452,0,0,0,.116,3.8,1.431,1.431,0,0,1-.3,1Z" transform="translate(-826 -12154)"/>
</svg>
