<?xml version="1.0" encoding="iso-8859-1"?>
<!-- Generator: Adobe Illustrator 19.0.0, SVG Export Plug-In . SVG Version: 6.00 Build 0)  -->
<svg version="1.1" id="Capa_1" xmlns="http://www.w3.org/2000/svg" xmlns:xlink="http://www.w3.org/1999/xlink" x="0px" y="0px"
	 viewBox="0 0 511.999 511.999" style="enable-background:new 0 0 511.999 511.999;" xml:space="preserve">
<g>
	<g>
		<path d="M464.868,176.262c-1.86-1.859-4.43-2.92-7.07-2.92c-2.63,0-5.21,1.061-7.069,2.92c-1.86,1.87-2.931,4.44-2.931,7.07
			c0,2.64,1.07,5.22,2.931,7.08c1.859,1.86,4.439,2.93,7.069,2.93c2.641,0,5.21-1.069,7.07-2.93c1.87-1.86,2.93-4.44,2.93-7.08
			C467.798,180.702,466.738,178.132,464.868,176.262z"/>
	</g>
</g>
<g>
	<g>
		<path d="M501.545,144.571c-9.103-11.395-22.687-17.928-37.269-17.928c-22.439,0-41.571,15.285-46.524,37.17l-18.602,82.174
			h-47.074c0.22-0.638,0.433-1.281,0.61-1.942c1.407-5.253,1.266-10.588-0.153-15.497c15.501-0.553,27.943-13.336,27.943-28.971
			c0-9.463-4.558-17.881-11.594-23.176l2.894-2.894c5.477-5.476,8.492-12.755,8.492-20.498c0-7.743-3.016-15.022-8.491-20.497
			c-5.476-5.477-12.755-8.492-20.498-8.492s-15.022,3.016-20.499,8.491l-2.894,2.894c-1.883-2.503-4.168-4.684-6.749-6.466
			l2.534-2.534c11.303-11.304,11.303-29.694,0-40.997c-5.476-5.476-12.755-8.491-20.498-8.491c-7.744,0-15.023,3.016-20.499,8.491
			l-2.895,2.895c-2.268-3.014-5.112-5.568-8.363-7.508c4.606-5.277,7.127-11.956,7.127-19.025c0-7.744-3.016-15.023-8.491-20.499
			c-6.69-6.691-15.866-9.418-24.584-8.191v-4.092C245.468,13.004,232.463,0,216.479,0S187.49,13.004,187.49,28.989v4.093
			c-8.717-1.225-17.894,1.501-24.585,8.19c-10.825,10.826-11.274,28.149-1.364,39.523c-3.251,1.941-6.095,4.495-8.363,7.509
			l-2.894-2.895c-5.476-5.476-12.755-8.491-20.499-8.491c-7.743,0-15.022,3.016-20.498,8.491c-11.302,11.304-11.302,29.694,0,40.997
			l2.954,2.954c-2.337,1.702-4.417,3.737-6.154,6.046l-2.894-2.894c-5.477-5.476-12.756-8.491-20.499-8.491
			s-15.022,3.016-20.498,8.491c-5.476,5.475-8.491,12.755-8.491,20.498s3.016,15.022,8.491,20.498l2.895,2.894
			c-7.036,5.295-11.594,13.713-11.594,23.176c0,15.634,12.441,28.418,27.944,28.971c-1.42,4.91-1.562,10.246-0.154,15.499
			c0.177,0.662,0.39,1.304,0.61,1.942H46.486c-3.063,0-5.957,1.403-7.854,3.81c-1.896,2.405-2.585,5.547-1.87,8.525l16.189,67.43
			c-1.602,0.696-3.177,1.412-4.695,2.171c-18.862,9.432-29.251,22.777-29.251,37.58s10.389,28.149,29.251,37.58
			c1.018,0.509,2.057,1.003,3.113,1.484c-5.823,1.874-11.317,4.037-16.402,6.478c-22.545,10.821-34.961,26.076-34.961,42.954
			c0,16.878,12.415,32.134,34.961,42.954c20.21,9.701,46.857,15.043,75.035,15.043c0.634,0,1.263-0.017,1.896-0.022h316.883
			c4.672,0,8.722-3.235,9.753-7.792l55.686-245.991c0.021-0.094,0.029-0.189,0.048-0.283l16.531-73.034
			C514.02,170.655,510.646,155.964,501.545,144.571z M373.267,265.988l-11.243,64.011h-86.547v-64.01L373.267,265.988z
			 M353.146,380.539c-8.815-3.053-19.821-4.562-32.533-1.595c-1.033-12.15-5.323-21.676-10.473-28.946h48.37L353.146,380.539z
			 M357.831,405.295c-2.308,7.196-8.807,20.457-26.138,26.089c-0.844,0.274-1.691,0.513-2.538,0.736
			c-10.71-8.796-22.283-11.99-31.271-12.97c2.963-5.737,8.093-12.414,16.882-16.937c2.055-1.058,4.264-1.974,6.564-2.721
			c15.054-4.893,26.857-0.357,33.838,3.999c0.104,0.07,0.21,0.136,0.317,0.202C356.343,404.237,357.129,404.778,357.831,405.295z
			 M319.873,162.973c3.737,1.545,8.038,0.692,10.899-2.168l14.149-14.149c1.698-1.698,3.956-2.634,6.357-2.634
			c2.401,0,4.658,0.935,6.357,2.634c1.698,1.698,2.633,3.955,2.633,6.356c0,2.401-0.935,4.658-2.634,6.356l-14.149,14.15
			c-2.859,2.86-3.715,7.161-2.167,10.898c1.548,3.736,5.193,6.173,9.238,6.173h0.931c4.957,0,8.99,4.033,8.99,8.99
			s-4.033,8.99-8.99,8.99h-20.695c-4.896,0-9.071,3.544-9.867,8.374c-0.796,4.831,2.022,9.527,6.659,11.098
			c4.466,1.513,7.007,6.271,5.785,10.832c-1.283,4.788-6.225,7.641-11.01,6.357c-0.044-0.012-0.087-0.022-0.13-0.034l-37.884-9.611
			c-0.625-1.935-1.448-3.828-2.497-5.644c-2.72-4.709-6.592-8.382-11.068-10.85c5.016-5.381,7.765-12.352,7.765-19.745
			c0-7.744-3.016-15.023-8.491-20.499c-2.499-2.499-5.345-4.445-8.384-5.839c1.044-0.967,2.317-1.7,3.75-2.084
			c4.56-1.222,9.32,1.319,10.832,5.785c1.57,4.638,6.265,7.451,11.098,6.659c4.83-0.796,8.374-4.972,8.374-9.867v-20.695
			c0-4.957,4.033-8.99,8.99-8.99s8.99,4.033,8.99,8.99v0.931C313.701,157.779,316.137,161.425,319.873,162.973z M189.294,402.855
			c0.065,0.537,0.737,5.552,3.366,12.249c-2.396-1.411-4.935-2.766-7.622-4.056c-5.085-2.441-10.58-4.605-16.402-6.478
			c1.056-0.481,2.095-0.975,3.113-1.484c18.862-9.432,29.251-22.777,29.251-37.58c0-5.404-1.391-10.613-4.067-15.508h61.063
			c-5.127,7.258-9.412,16.782-10.442,28.948c-30.305-7.084-50.974,11.26-55.222,15.456
			C190.064,396.557,188.91,399.683,189.294,402.855z M191.682,220.335L177.047,205.7c-3.506-3.505-3.506-9.209-0.001-12.714
			c3.505-3.505,9.21-3.507,12.714,0l0.658,0.658c2.86,2.859,7.162,3.714,10.898,2.168c3.736-1.548,6.173-5.194,6.173-9.239v-20.011
			c0-4.958,4.033-8.991,8.99-8.991s8.99,4.033,8.99,8.991v20.011c0,4.045,2.437,7.691,6.173,9.239
			c3.737,1.546,8.039,0.691,10.898-2.168l0.658-0.658c1.626-1.627,3.728-2.489,5.863-2.606c0.045-0.001,0.089,0.003,0.134,0.001
			c0.058-0.002,0.114-0.013,0.172-0.016c2.364-0.049,4.744,0.82,6.545,2.62c1.698,1.698,2.633,3.956,2.633,6.357
			c0,2.4-0.935,4.658-2.634,6.356l-14.633,14.634c-3.462,3.462-3.908,8.921-1.055,12.898c2.853,3.978,8.167,5.305,12.555,3.138
			c4.227-2.09,9.388-0.521,11.749,3.569c1.084,1.877,1.427,4.015,1.066,6.049l-98.226,0.003c-0.362-2.035-0.018-4.173,1.066-6.05
			c2.361-4.09,7.524-5.659,11.75-3.569c4.389,2.165,9.703,0.842,12.555-3.138C195.591,229.254,195.144,223.795,191.682,220.335z
			 M255.478,266.116v63.883h-79.841c-1.255-0.709-2.548-1.402-3.889-2.072c-1.131-0.566-2.292-1.111-3.47-1.641l-10.591-60.297
			L255.478,266.116z M246.83,399.489c0.833,0.271,1.649,0.571,2.455,0.885c3.482,13.422,10.962,22.824,17.659,28.91
			c-5.753,2.883-13.785,5.25-23.496,3.769c-0.004,0-0.007-0.002-0.011-0.002c-2.308-0.354-4.651-0.914-6.969-1.667
			c-17.312-5.625-23.818-18.886-26.133-26.093C216.714,400.598,229.652,393.91,246.83,399.489z M177.046,55.414
			c3.507-3.505,9.21-3.506,12.72,0.005l0.658,0.657c2.86,2.856,7.159,3.71,10.896,2.161c3.735-1.549,6.17-5.194,6.17-9.237V28.989
			c0-4.957,4.033-8.99,8.99-8.99s8.99,4.033,8.99,8.99V49c0,4.043,2.435,7.688,6.17,9.237c3.733,1.549,8.034,0.697,10.896-2.161
			l0.664-0.662c3.503-3.505,9.207-3.507,12.714,0c1.698,1.698,2.633,3.956,2.633,6.357c0,2.4-0.935,4.658-2.634,6.357L244.81,79.229
			c-9.804,4.386-16.748,14.055-17.172,25.37c-3.54-1.007-7.319-1.343-11.156-0.915c-3.843-0.428-7.618-0.091-11.157,0.915
			c-0.425-11.314-7.369-20.983-17.172-25.369l-11.104-11.103C173.542,64.622,173.542,58.918,177.046,55.414z M123.43,99.552
			c3.505-3.506,9.207-3.506,12.713,0l14.149,14.149c2.86,2.859,7.161,3.713,10.898,2.168c3.736-1.548,6.173-5.194,6.173-9.239v-0.93
			c0-4.957,4.033-8.99,8.99-8.99c4.958,0,8.991,4.033,8.991,8.99v20.694c0,4.896,3.544,9.071,8.374,9.867
			c4.831,0.794,9.526-2.021,11.098-6.659c1.399-4.132,5.696-6.694,9.989-5.967c1.109,0.189,2.242,0.189,3.352,0
			c4.298-0.727,8.59,1.836,9.989,5.967c1.57,4.638,6.265,7.451,11.098,6.659c4.83-0.796,8.374-4.972,8.374-9.867V105.7
			c0-4.957,4.033-8.99,8.99-8.99c4.957,0,8.99,4.033,8.99,8.99v0.93c0,4.045,2.437,7.69,6.173,9.238
			c3.734,1.548,8.037,0.694,10.898-2.167l14.15-14.149c3.508-3.506,9.21-3.505,12.713,0c1.698,1.697,2.633,3.955,2.633,6.357
			c0,2.401-0.935,4.658-2.633,6.356L296.9,124.891c-11.88,3.329-20.704,14.047-21.161,26.867c-4.91-1.42-10.246-1.562-15.499-0.154
			c-6.163,1.652-11.413,5.295-15.19,10.087c-2.325-13.671-14.247-24.117-28.572-24.117c-13.935,0-25.602,9.886-28.366,23.011
			c-3.72-4.291-8.673-7.45-14.382-8.981c-5.254-1.407-10.588-1.266-15.498,0.154c-0.474-13.304-9.961-24.347-22.522-27.213
			l-12.281-12.281c-1.698-1.698-2.633-3.955-2.633-6.356C120.797,103.507,121.732,101.249,123.43,99.552z M73.497,199.578
			c0-4.957,4.033-8.99,8.99-8.99h0.931c4.045,0,7.69-2.437,9.238-6.173c1.548-3.737,0.693-8.038-2.167-10.898l-14.149-14.15
			c-3.505-3.505-3.505-9.208,0-12.713c1.698-1.698,3.955-2.633,6.356-2.633s4.659,0.936,6.357,2.634l14.149,14.149
			c2.86,2.86,7.16,3.714,10.898,2.168c3.736-1.548,6.173-5.194,6.173-9.239v-0.931c0-4.957,4.033-8.99,8.99-8.99
			c4.957,0,8.99,4.033,8.99,8.99v20.695c0,4.896,3.544,9.071,8.374,9.867c4.833,0.793,9.527-2.021,11.098-6.659
			c1.512-4.466,6.27-7.009,10.831-5.785c1.289,0.345,2.444,0.971,3.428,1.793c-3.298,1.409-6.39,3.445-9.078,6.131
			c-11.056,11.055-11.297,28.893-0.726,40.244c-4.477,2.469-8.349,6.142-11.068,10.852c-1.099,1.904-1.962,3.892-2.595,5.925
			l-36.771,9.329c-0.043,0.012-0.086,0.022-0.13,0.034c-4.785,1.284-9.727-1.568-11.011-6.357
			c-1.222-4.562,1.319-9.319,5.785-10.832c4.637-1.57,7.455-6.267,6.659-11.098c-0.796-4.83-4.972-8.374-9.867-8.374H82.487
			C77.531,208.568,73.497,204.535,73.497,199.578z M137.382,265.99l9.33,53.116c-11.4-2.679-23.863-4.096-36.708-4.096
			c-13.335,0-26.256,1.529-38.004,4.411L59.171,265.99H137.382z M39.006,365.506c0-14.396,30.363-30.499,70.997-30.499
			c40.634,0,70.997,16.102,70.997,30.499c0,14.396-30.363,30.499-70.997,30.499C69.369,396.005,39.006,379.904,39.006,365.506z
			 M176.384,478.927c-17.108,8.212-39.926,12.817-64.428,13.051h-1.953c-0.122,0-0.241,0.014-0.362,0.018
			c-25.105-0.044-48.54-4.68-66.018-13.069c-15.008-7.204-23.616-16.288-23.616-24.925c0-8.637,8.607-17.721,23.615-24.925
			c17.563-8.431,41.139-13.073,66.381-13.073c25.242,0,48.817,4.644,66.381,13.073c15.008,7.204,23.615,16.288,23.615,24.925
			C199.999,462.639,191.393,471.724,176.384,478.927z M194.188,491.979c11.996-7.388,20.058-16.289,23.659-26.058
			c-2.269,9.93-1.54,18.997,0.001,26.058H194.188z M219.369,460.504c0.416-2.136,0.631-4.305,0.631-6.502
			c0-2.9-0.375-5.75-1.097-8.54c1.907,1.061,3.925,2.06,6.083,2.969C222.517,452.51,220.692,456.555,219.369,460.504z
			 M275.15,469.096c-0.002,0.003-0.004,0.006-0.006,0.01c-1.049,2.086-2.308,4.145-3.74,6.118
			c-9.941,13.681-23.248,16.438-31.173,16.755h-1.731v0c-2.487-7.527-4.826-21.879,5.774-36.467
			c0.528-0.727,1.081-1.428,1.644-2.115c1.184,0.071,2.354,0.116,3.5,0.116c12.222,0,22.222-3.864,29.401-7.961
			C279.789,451.917,279.566,460.302,275.15,469.096z M283.556,491.979c0.173-0.195,0.349-0.375,0.521-0.574
			c0.17,0.197,0.343,0.381,0.513,0.574H283.556z M278.728,412.942c-4.521-4.583-9.256-11.493-10.845-21.193
			c-0.001-0.007-0.001-0.014-0.002-0.021c-0.374-2.295-0.564-4.69-0.564-7.119c0-18.204,10.602-28.488,16.74-32.918
			c6.435,4.618,16.794,14.857,16.794,32.918c0,0.872-0.033,1.738-0.082,2.599C289.077,394.67,282.447,404.691,278.728,412.942z
			 M329.654,491.979h-1.858c-7.915-0.341-21.146-3.131-31.044-16.754c-0.521-0.717-1.009-1.448-1.482-2.184
			c5.063-12.899,4.531-24.894,2.69-33.749c6.352,1.045,14.253,3.851,21.249,10.764c1.664,1.645,3.236,3.48,4.672,5.457
			C334.479,470.1,332.141,484.451,329.654,491.979z M420.794,491.979h-70.483c2.412-11.049,2.852-27.041-7.139-43.544
			c31.41-13.223,35.527-44.199,35.695-45.58c0.384-3.171-0.77-6.296-3.036-8.451c-0.791-0.784-2.201-2.103-4.17-3.668l7.156-40.738
			h74.117L420.794,491.979z M375.129,393.796c0.303,0.237,0.533,0.445,0.673,0.579C375.587,394.173,375.363,393.98,375.129,393.796z
			 M457.461,329.999H382.33l11.242-64.011h13.547c0.009,0,0.018,0.001,0.027,0.001c0.012,0,0.023-0.001,0.035-0.001h64.77
			L457.461,329.999z M491.296,180.461l-14.832,65.525h-56.809l17.601-77.758c2.877-12.71,13.987-21.587,27.02-21.587
			c8.47,0,16.357,3.795,21.644,10.412C491.207,163.669,493.166,172.201,491.296,180.461z"/>
	</g>
</g>
<g>
	<g>
		<path d="M97.924,464.623c-31.231-3.54-43.849-14.12-43.849-17.937c0-5.522-4.478-10-10-10c-5.522,0-10,4.478-10,10
			c0,19.015,23.603,33.503,61.596,37.809c0.383,0.043,0.762,0.064,1.139,0.064c5.018,0,9.345-3.77,9.924-8.875
			C107.356,470.198,103.412,465.245,97.924,464.623z"/>
	</g>
</g>
<g>
	<g>
		<path d="M132.291,464.659c-5.522,0-10,4.478-10,10c0,5.522,4.477,10,9.999,10h0.045c5.522,0,9.978-4.478,9.978-10
			C142.313,469.137,137.813,464.659,132.291,464.659z"/>
	</g>
</g>
<g>
</g>
<g>
</g>
<g>
</g>
<g>
</g>
<g>
</g>
<g>
</g>
<g>
</g>
<g>
</g>
<g>
</g>
<g>
</g>
<g>
</g>
<g>
</g>
<g>
</g>
<g>
</g>
<g>
</g>
</svg>
