<svg id="Capa_1" enable-background="new 0 0 412 412" height="512" viewBox="0 0 412 412" width="512" xmlns="http://www.w3.org/2000/svg"><path d="m206 247c22.644 0 41-18.356 41-41s-18.356-41-41-41-41 18.356-41 41c.026 22.633 18.367 40.974 41 41zm0-70c16.016 0 29 12.984 29 29s-12.984 29-29 29-29-12.984-29-29c.018-16.009 12.991-28.982 29-29z"/><path d="m206 370.971c22.644 0 41-18.356 41-41s-18.356-41-41-41-41 18.356-41 41c.025 22.633 18.367 40.975 41 41zm0-70c16.016 0 29 12.984 29 29s-12.984 29-29 29-29-12.984-29-29c.018-16.009 12.991-28.982 29-29z"/><path d="m206 123.029c22.644 0 41-18.356 41-41s-18.356-41-41-41-41 18.356-41 41c.026 22.633 18.367 40.974 41 41zm0-70c16.016 0 29 12.984 29 29s-12.984 29-29 29-29-12.984-29-29c.018-16.009 12.991-28.982 29-29z"/><path d="m23.918 324.971c24.514 0 44.457 19.738 44.457 44 0 3.314 2.686 6 6 6h15.625v11.029c.017 14.353 11.647 25.983 26 26h180c14.353-.017 25.983-11.647 26-26v-11.029h15.625c3.314 0 6-2.686 6-6 0-24.262 19.943-44 44.457-44 3.314 0 6-2.686 6-6v-24c0-3.314-2.686-6-6-6h-66.082v-37.971h15.625c3.314 0 6-2.686 6-6 0-24.262 19.943-44 44.457-44 3.314 0 6-2.686 6-6v-24c0-3.314-2.686-6-6-6h-66.082v-37.971h15.625c3.314 0 6-2.686 6-6 0-24.262 19.943-44 44.457-44 3.314 0 6-2.686 6-6v-24c0-3.314-2.686-6-6-6h-66.082v-15.029c-.017-14.353-11.647-25.983-26-26h-180c-14.353.017-25.983 11.647-26 26v15.029h-66.082c-3.314 0-6 2.686-6 6v24c0 3.314 2.686 6 6 6 24.514 0 44.457 19.738 44.457 44 0 3.314 2.686 6 6 6h15.625v37.971h-66.082c-3.314 0-6 2.686-6 6v24c0 3.314 2.686 6 6 6 24.514 0 44.457 19.738 44.457 44 0 3.314 2.686 6 6 6h15.625v37.971h-66.082c-3.314 0-6 2.686-6 6v24c0 3.314 2.686 6 6 6zm358.164-24v12.314c-26.303 2.741-47.158 23.409-50.136 49.686h-9.946v-62zm0-123.971v12.314c-26.303 2.741-47.158 23.409-50.136 49.686h-9.946v-62zm0-123.971v12.314c-26.303 2.741-47.158 23.409-50.136 49.686h-9.946v-62zm-280.082-27.029c.008-7.729 6.271-13.992 14-14h180c7.729.008 13.992 6.271 14 14v360c-.008 7.729-6.271 13.992-14 14h-180c-7.729-.008-13.992-6.271-14-14zm-21.946 89.029c-2.978-26.277-23.833-46.945-50.136-49.686v-12.314h60.082v62zm0 123.971c-2.978-26.277-23.833-46.945-50.136-49.686v-12.314h60.082v62zm-50.136 61.971h60.082v62h-9.946c-2.978-26.277-23.833-46.945-50.136-49.686z"/></svg>