<svg id="icons" enable-background="new 0 0 64 64" height="512" viewBox="0 0 64 64" width="512" xmlns="http://www.w3.org/2000/svg"><path d="m49 0h-24c-1.654 0-3 1.346-3 3v17.11c-1.271-1.3-3.042-2.11-5-2.11-.553 0-1 .447-1 1v31.289l-.672-.233c-.045-.016-.091-.01-.137-.019-.063-.013-.125-.026-.189-.026-.067 0-.13.013-.195.025-.062.013-.12.024-.178.047-.06.024-.11.058-.164.093-.055.035-.107.069-.154.115-.047.045-.082.098-.119.152-.027.038-.064.066-.086.109l-6 12c-.247.494-.047 1.095.447 1.342.143.072.296.106.446.106.367 0 .72-.202.896-.553l5.607-11.214 20.144 7.006c.001.001.003.001.005.002l.946.329-1.491 2.982c-.247.494-.047 1.095.447 1.342.143.072.296.106.446.106.367 0 .72-.202.896-.553l2-4c.009-.018.007-.036.015-.053.01-.023.026-.042.035-.066.015-.043.009-.087.018-.131.015-.067.028-.133.027-.2 0-.064-.012-.124-.023-.187-.013-.063-.024-.124-.049-.184s-.058-.11-.093-.164-.068-.105-.114-.152-.1-.083-.154-.121c-.038-.025-.065-.063-.108-.084-.021-.01-.043-.009-.064-.018-.02-.008-.033-.025-.055-.032l-.576-.2 10.69-11.855h.556c1.654 0 3-1.346 3-3 2.206 0 4-1.794 4-4 0-1.201-.543-2.267-1.383-3 .84-.734 1.383-1.8 1.383-3.001 0-1.2-.542-2.267-1.382-3 .84-.733 1.382-1.8 1.382-3s-.542-2.266-1.382-2.999c.84-.734 1.382-1.8 1.382-3 0-2.206-1.794-4-4-4v-14c0-1.654-1.346-3-3-3zm-13.298 57.143-17.702-6.158v-30.883c2.279.464 4 2.484 4 4.898v18c0 1.654 1.346 3 3 3h20.752zm13.298-13.143h-24c-.552 0-1-.448-1-1v-40c0-.552.448-1 1-1h24c.552 0 1 .448 1 1v14.142c-1.721.447-3 2-3 3.858 0 1.201.543 2.267 1.383 3-.84.734-1.383 1.8-1.383 3.001 0 1.2.542 2.267 1.382 3-.84.733-1.382 1.8-1.382 3s.542 2.266 1.382 2.999c-.84.734-1.382 1.8-1.382 3 0 1.858 1.279 3.411 3 3.858v.142c0 .552-.448 1-1 1zm3-3h-1c-1.103 0-2-.897-2-2 0-1.101.895-1.997 1.995-2 .002 0 .003.001.005.001s.003-.001.005-.001h.995c1.103 0 2 .897 2 2s-.897 2-2 2zm2-8.001c0 1.103-.897 2-2 2-.002 0-.003.001-.005.001h-.995c-.002 0-.003 0-.005 0-1.1-.002-1.995-.898-1.995-1.999 0-1.103.897-2 2-2 .004 0 .006-.002.01-.002h.99c1.103 0 2 .897 2 2zm-3-4c-.002 0-.004.001-.007.001-1.098-.003-1.993-.898-1.993-1.999 0-1.103.897-2 2-2h1c.002 0 .004-.001.007-.001 1.098.003 1.993.898 1.993 1.999 0 1.103-.897 2-2 2zm3-7.999c0 1.101-.895 1.997-1.995 2-.002 0-.003-.001-.005-.001-.004 0-.006.002-.01.002h-.985c-.002 0-.003-.001-.005-.001-1.103 0-2-.897-2-2s.897-2 2-2h1c1.103 0 2 .897 2 2z"/><path d="m17.02 57c-.552 0-.994.447-.994 1s.452 1 1.005 1c.552 0 1-.447 1-1s-.448-1-1-1z"/><path d="m37 37c-1.654 0-3 1.346-3 3s1.346 3 3 3 3-1.346 3-3-1.346-3-3-3zm0 4c-.552 0-1-.448-1-1s.448-1 1-1 1 .448 1 1-.448 1-1 1z"/><path d="m34.03 6c.552 0 1-.447 1-1s-.448-1-1-1h-.01c-.552 0-.994.447-.994 1s.452 1 1.004 1z"/><path d="m37 6h3c.553 0 1-.447 1-1s-.447-1-1-1h-3c-.553 0-1 .447-1 1s.447 1 1 1z"/><path d="m37.599 14.189c-.016-.012-.034-.014-.051-.024-.061-.041-.126-.066-.194-.092-.055-.021-.105-.046-.162-.057-.066-.014-.132-.011-.199-.011-.062.001-.12-.002-.181.01-.062.012-.116.037-.175.061-.064.025-.127.05-.186.089-.017.011-.036.013-.052.024l-4.401 3.301v-1.5c0-.553-.447-1-1-1s-1 .447-1 1v3l-1.6 1.2c-.442.331-.532.958-.2 1.399.196.263.496.4.801.4.209 0 .419-.065.599-.2l.4-.3v6.501c-.553.001-.999.447-.999 1s.447 1 1 1h14c.553 0 1-.447 1-1s-.446-.999-.999-1v-6.5l.4.3c.18.135.39.2.599.2.305 0 .604-.138.801-.4.332-.441.242-1.068-.2-1.399zm4.401 13.802h-4.001v-2c0-.553-.447-1-1-1s-1 .447-1 1v2h-4.001v-8.002l5.001-3.751 5.001 3.751z"/></svg>