<svg height="511pt" viewBox="0 -34 511.998 511" width="511pt" xmlns="http://www.w3.org/2000/svg"><path d="m420.148438 62.992188c-3.996094-1.089844-8.121094 1.257812-9.214844 5.253906-1.09375 3.992187 1.253906 8.117187 5.25 9.214844 50.605468 13.867187 80.816406 33.546874 80.816406 52.636718v.109375c0 7.644531-5.082031 19.554688-29.292969 32.867188-19.105469 10.503906-46.171875 19.503906-78.578125 26.15625-2.160156.441406-4.34375.875-6.550781 1.296875-3.53125.675781-6.089844 3.769531-6.089844 7.367187v68.144531c-12.578125-2.1875-25.707031-4.011718-39.214843-5.476562l3.066406-43.84375c.289062-4.132812-2.824219-7.714844-6.957032-8.003906-4.125-.285156-7.714843 2.824218-8.003906 6.957031l-4.085937 58.417969c-.578125 8.191406-7.457031 14.609375-15.65625 14.609375h-3.988281c-3.878907 0-7.117188 2.957031-7.46875 6.820312l-12.179688 133.855469h-52l-12.175781-133.855469c-.351563-3.863281-3.589844-6.820312-7.46875-6.820312h-3.988281c-8.203126 0-15.078126-6.417969-15.65625-14.597657l-7.949219-113.621093c-.726563-10.402344 2.792969-20.332031 9.902343-27.957031 7.109376-7.621094 16.761719-11.816407 27.179688-11.816407h72.3125c10.417969 0 20.070312 4.195313 27.179688 11.816407 7.113281 7.625 10.632812 17.554687 9.90625 27.953124l-1.761719 25.167969c-.289063 4.132813 2.824219 7.714844 6.957031 8.003907 4.121094.277343 7.714844-2.824219 8.003906-6.957032l1.761719-25.167968c1.003906-14.386719-4.0625-28.683594-13.898437-39.230469-9.066407-9.714844-21.59375-15.601563-34.785157-16.460938 12.519531-10.953125 20.472657-26.996093 20.578125-44.871093 25.183594 2.011718 49.285156 5.269531 71.394532 9.730468 4.0625.816406 8.015624-1.8125 8.832031-5.871094.820312-4.058593-1.804688-8.015624-5.867188-8.832031-23.578125-4.757812-49.328125-8.1875-76.21875-10.21875-6.6875-26.191406-30.710937-45.269531-58.238281-45.269531s-51.546875 19.078125-58.230469 45.246094c-44.921875 3.382812-86.203125 10.667968-119.757812 21.335937-51.035157 16.226563-78.011719 38.015625-78.011719 63.015625v212.78125c0 21.183594 20.15625 36.710938 37.0625 46.011719 21.742188 11.953125 52.703125 21.996094 89.539062 29.042969.46875.089844.941407.132812 1.410157.132812 1.730469 0 3.421875-.597656 4.777343-1.71875 1.722657-1.425781 2.722657-3.542968 2.722657-5.78125v-52.78125c0-4.140625-3.359375-7.496094-7.5-7.496094s-7.5 3.355469-7.5 7.496094v43.628906c-31.363281-6.597656-57.582031-15.417968-76.222657-25.667968-24.210937-13.3125-29.289062-25.222656-29.289062-32.867188v-182.367187c.003906.007812.011719.011719.019531.019531.761719.730469 1.546875 1.441406 2.339844 2.140625.105469.09375.210937.191406.320313.28125.765624.667969 1.542968 1.320313 2.332031 1.960937.144531.117188.289062.234376.4375.351563.785156.632813 1.582031 1.25 2.386719 1.851563.125.09375.253906.1875.382812.28125.839844.625 1.6875 1.242187 2.542969 1.835937.007812.003906.015625.011719.023437.019531.859375.59375 1.722656 1.171875 2.585938 1.738282.117187.082031.238281.160156.359375.242187.832031.539063 1.660156 1.0625 2.492187 1.574219.148438.09375.300782.183594.449219.277344.828125.507812 1.65625 1 2.476563 1.480468.121093.066406.238281.132813.355468.203125.859375.496094 1.714844.980469 2.558594 1.445313 11.550781 6.351562 25.703125 12.164062 41.953125 17.273437 5.417969 1.703125 11.066406 3.324219 16.933594 4.867188 3.910156 1.027343 7.914062 2.019531 12.011719 2.96875 4.09375.949219 8.28125 1.863281 12.550781 2.734375v123.730468c0 4.144532 3.359375 7.5 7.5 7.5s7.5-3.355468 7.5-7.5v-46.515624c12.875-2.304688 26.359375-4.226563 40.269531-5.746094 1.234375 14.863281 13.09375 26.660156 27.710938 28.035156l12.191406 133.992188c.351562 3.863281 3.589844 6.820312 7.46875 6.820312h65.691406c3.878906 0 7.117188-2.957031 7.46875-6.820312l12.191406-133.992188c14.617188-1.378906 26.472656-13.167969 27.710938-28.035156 13.914062 1.519531 27.394531 3.441406 40.273437 5.746094v129.296874c0 2.234376.996094 4.351563 2.71875 5.777344 1.355469 1.121094 3.050781 1.722656 4.777344 1.722656.46875 0 .941406-.046874 1.410156-.136718 36.839844-7.046875 67.800781-17.089844 89.539063-29.042969 16.910156-9.296875 37.0625-24.828125 37.0625-46.011719v-212.78125c.003906-27.039062-32.617188-50.871094-91.847656-67.105468zm-208.761719-9.019532c3.222656-21.9375 22.402343-38.476562 44.613281-38.476562s41.390625 16.539062 44.621094 38.503906c.320312 2.140625.484375 4.359375.484375 6.601562 0 24.871094-20.234375 45.105469-45.105469 45.105469s-45.105469-20.234375-45.105469-45.105469c0-2.242187.164063-4.460937.492188-6.628906zm-81.964844 136.554688c-35.3125-6.753906-64.75-16.25-85.128906-27.457032-24.214844-13.3125-29.292969-25.21875-29.292969-32.863281v-.109375c0-17.058594 25.253906-35.273437 67.554688-48.722656 31.75-10.097656 70.765624-17.066406 113.351562-20.445312.09375 17.886718 8.050781 33.941406 20.578125 44.898437-13.195313.863281-25.722656 6.746094-34.785156 16.464844-9.835938 10.542969-14.902344 24.84375-13.902344 39.230469l6.929687 99.039062c-13.503906 1.464844-26.636718 3.289062-39.214843 5.476562v-68.144531c0-3.597656-2.554688-6.691406-6.089844-7.367187zm367.578125 152.351562c0 7.644532-5.082031 19.554688-29.292969 32.867188-18.640625 10.25-44.859375 19.070312-76.21875 25.667968v-197.355468c34.164063-6.96875 62.917969-16.554688 83.449219-27.84375.839844-.460938 1.6875-.941406 2.542969-1.4375.125-.074219.253906-.144532.378906-.21875.816406-.472656 1.636719-.964844 2.460937-1.464844.15625-.097656.308594-.191406.464844-.289062.828125-.507813 1.65625-1.03125 2.480469-1.570313.125-.078125.246094-.160156.371094-.242187.859375-.5625 1.71875-1.140626 2.574219-1.734376.007812-.007812.019531-.015624.03125-.023437.851562-.59375 1.695312-1.207031 2.539062-1.828125.128906-.097656.257812-.191406.386719-.289062.800781-.601563 1.59375-1.21875 2.382812-1.847657.144531-.117187.292969-.238281.441407-.355469.785156-.640624 1.5625-1.289062 2.328124-1.957031.109376-.09375.21875-.191406.328126-.289062.785156-.695313 1.5625-1.398438 2.316406-2.121094.011718-.011719.027344-.023437.039062-.03125v182.363281zm0 0"/></svg>