<svg id="Layer_3" enable-background="new 0 0 64 64" height="512" viewBox="0 0 64 64" width="512" xmlns="http://www.w3.org/2000/svg"><path d="m32 17c-8.271 0-15 6.729-15 15s6.729 15 15 15 15-6.729 15-15-6.729-15-15-15zm0 28c-7.168 0-13-5.832-13-13s5.832-13 13-13 13 5.832 13 13-5.832 13-13 13z"/><path d="m19.186 10.53c3.859-2.309 8.291-3.53 12.814-3.53s8.955 1.221 12.814 3.53c.16.095.337.142.514.142.258 0 .515-.1.707-.293l7.672-7.671-1.414-1.414-7.129 7.128c-4.008-2.241-8.541-3.422-13.164-3.422s-9.156 1.181-13.164 3.421l-7.129-7.128-1.414 1.414 7.672 7.671c.324.325.826.387 1.221.152z"/><path d="m59 32c0-4.88-1.308-9.633-3.788-13.798l7.495-7.495-1.414-1.414-8.054 8.053c-.332.332-.389.849-.137 1.244 2.55 4.004 3.898 8.641 3.898 13.41s-1.348 9.406-3.897 13.41c-.252.396-.195.913.137 1.244l8.054 8.053 1.414-1.414-7.495-7.495c2.479-4.165 3.787-8.918 3.787-13.798z"/><path d="m10.897 45.41c-2.549-4.004-3.897-8.641-3.897-13.41s1.348-9.406 3.897-13.41c.252-.396.195-.913-.137-1.244l-8.053-8.053-1.414 1.414 7.495 7.495c-2.48 4.165-3.788 8.918-3.788 13.798s1.308 9.633 3.788 13.798l-7.495 7.495 1.414 1.414 8.054-8.053c.332-.332.388-.849.136-1.244z"/><path d="m44.814 53.47c-3.859 2.309-8.291 3.53-12.814 3.53s-8.955-1.221-12.814-3.53c-.395-.234-.896-.173-1.221.151l-7.672 7.671 1.414 1.414 7.129-7.128c4.008 2.241 8.541 3.422 13.164 3.422s9.156-1.181 13.164-3.421l7.129 7.128 1.414-1.414-7.672-7.671c-.324-.325-.826-.387-1.221-.152z"/><path d="m11 32v.042l2-.042c0-1.233.119-2.467.354-3.667l-1.963-.384c-.259 1.326-.391 2.689-.391 4.051z"/><path d="m14.454 39.304c-.478-1.146-.843-2.344-1.085-3.559l-1.961.391c.268 1.344.671 2.669 1.2 3.938z"/><path d="m20.283 14.57c-1.136.765-2.203 1.646-3.171 2.62l1.418 1.41c.877-.881 1.842-1.679 2.87-2.372z"/><path d="m43.681 49.455c1.139-.764 2.207-1.643 3.177-2.613l-1.414-1.414c-.878.878-1.846 1.675-2.876 2.366z"/><path d="m18.586 45.457c-.882-.879-1.679-1.846-2.368-2.874l-1.66 1.114c.762 1.136 1.643 2.205 2.616 3.175z"/><path d="m28.313 50.643-.385 1.963c1.334.261 2.703.394 4.072.394h.021l-.021-2c-1.239 0-2.479-.12-3.687-.357z"/><path d="m14.424 24.77c.473-1.147 1.062-2.253 1.749-3.285l-1.664-1.109c-.761 1.142-1.411 2.364-1.935 3.633z"/><path d="m23.988 51.417.764-1.849c-1.146-.473-2.25-1.062-3.285-1.752l-1.109 1.664c1.143.763 2.365 1.415 3.63 1.937z"/><path d="m36.115 52.597c1.345-.268 2.67-.67 3.938-1.197l-.768-1.847c-1.146.476-2.344.84-3.561 1.082z"/><path d="m53 32v-.085l-2 .085c0 1.246-.121 2.493-.361 3.706l1.963.388c.264-1.341.398-2.719.398-4.094z"/><path d="m49.53 24.659c.479 1.143.847 2.339 1.092 3.557l1.961-.396c-.271-1.346-.678-2.67-1.209-3.935z"/><path d="m27.842 11.412c-1.346.27-2.671.675-3.937 1.205l.771 1.845c1.145-.479 2.342-.845 3.558-1.089z"/><path d="m51.409 40.033-1.848-.765c-.474 1.143-1.064 2.248-1.756 3.282l1.662 1.112c.765-1.143 1.419-2.365 1.942-3.629z"/><path d="m35.646 13.349.381-1.963c-1.317-.256-2.673-.386-4.027-.386h-.063l.063 2c1.227 0 2.453.118 3.646.349z"/><path d="m39.972 12.566-.76 1.85c1.146.471 2.252 1.058 3.289 1.746l1.105-1.667c-1.145-.76-2.369-1.409-3.634-1.929z"/><path d="m49.417 20.266c-.765-1.135-1.647-2.202-2.623-3.17l-1.408 1.419c.883.876 1.681 1.842 2.373 2.868z"/><path d="m48.414 12.586h4v2h-4z" transform="matrix(.707 -.707 .707 .707 5.159 39.627)"/><path d="m54.071 6.929h4v2h-4z" transform="matrix(.707 -.707 .707 .707 10.816 41.97)"/><path d="m12.586 11.586h2v4h-2z" transform="matrix(.707 -.707 .707 .707 -5.627 13.584)"/><path d="m6.929 5.929h2v4h-2z" transform="matrix(.707 -.707 .707 .707 -3.284 7.928)"/><path d="m5.937 55.068h3.991v2h-3.991z" transform="matrix(.707 -.707 .707 .707 -37.323 22.031)"/><path d="m11.586 49.414h4v2h-4z" transform="matrix(.707 -.707 .707 .707 -31.669 24.373)"/><path d="m55.046 54.082h2v3.93h-2z" transform="matrix(.707 -.707 .707 .707 -23.216 56.053)"/><path d="m49.414 48.414h2v4h-2z" transform="matrix(.707 -.707 .707 .707 -20.882 50.408)"/></svg>