<?xml version="1.0" encoding="UTF-8" standalone="no"?>
<svg
   xmlns:dc="http://purl.org/dc/elements/1.1/"
   xmlns:cc="http://creativecommons.org/ns#"
   xmlns:rdf="http://www.w3.org/1999/02/22-rdf-syntax-ns#"
   xmlns:svg="http://www.w3.org/2000/svg"
   xmlns="http://www.w3.org/2000/svg"
   height="401.9957"
   width="739.63"
   version="1.1"
   viewBox="0 0 739.63 401.9957"
   data-name="Слой 1"
   id="Слой_1">
  <metadata
     id="metadata883">
    <rdf:RDF>
      <cc:Work
         rdf:about="">
        <dc:format>image/svg+xml</dc:format>
        <dc:type
           rdf:resource="http://purl.org/dc/dcmitype/StillImage" />
        <dc:title>ТЦ_2</dc:title>
      </cc:Work>
    </rdf:RDF>
  </metadata>
  <defs
     id="defs520">
    <style
       id="style2">.cls-1{fill:none;}.cls-2{fill:#316dc9;}.cls-3{fill:#e9f2ff;}.cls-4{fill:#3474f7;}.cls-5{fill:#a7c8fe;}.cls-6{fill:#fff;}.cls-7{fill:#538ff9;}.cls-8{fill:#d7e7ff;}.cls-9{fill:url(#Новый_образец_узора_2);}.cls-10{fill:url(#Новый_образец_узора_2-17);}.cls-11{fill:url(#Новый_образец_узора_2-19);}.cls-12{fill:url(#Новый_образец_узора_2-21);}.cls-13{fill:url(#Новый_образец_узора_2-23);}.cls-14{fill:url(#Новый_образец_узора_2-25);}.cls-15{fill:url(#Новый_образец_узора_2-27);}.cls-16{fill:url(#Новый_образец_узора_2-29);}.cls-17{fill:url(#Новый_образец_узора_2-31);}.cls-18{fill:url(#Новый_образец_узора_2-33);}.cls-19{fill:url(#Новый_образец_узора_2-35);}.cls-20{fill:url(#Новый_образец_узора_2-37);}</style>
    <pattern
       viewBox="0 0 9 9"
       patternUnits="userSpaceOnUse"
       patternTransform="translate(7.95 5.96)"
       height="9"
       width="9"
       data-name="Новый образец узора 2"
       id="Новый_образец_узора_2">
      <rect
         id="rect4"
         height="9"
         width="9"
         class="cls-1" />
      <circle
         id="circle6"
         r="0.58"
         cy="1.15"
         cx="1.15"
         class="cls-2" />
      <circle
         id="circle8"
         r="0.58"
         cy="1.15"
         cx="3.38"
         class="cls-2" />
      <circle
         id="circle10"
         r="0.58"
         cy="1.15"
         cx="5.62"
         class="cls-2" />
      <circle
         id="circle12"
         r="0.58"
         cy="1.15"
         cx="7.85"
         class="cls-2" />
      <circle
         id="circle14"
         r="0.58"
         cy="1.15"
         cx="1.15"
         class="cls-2" />
      <circle
         id="circle16"
         r="0.58"
         cy="3.38"
         cx="1.15"
         class="cls-2" />
      <circle
         id="circle18"
         r="0.58"
         cy="5.62"
         cx="1.15"
         class="cls-2" />
      <circle
         id="circle20"
         r="0.58"
         cy="7.85"
         cx="1.15"
         class="cls-2" />
      <circle
         id="circle22"
         r="0.58"
         cy="1.15"
         cx="3.38"
         class="cls-2" />
      <circle
         id="circle24"
         r="0.58"
         cy="3.38"
         cx="3.38"
         class="cls-2" />
      <circle
         id="circle26"
         r="0.58"
         cy="5.62"
         cx="3.38"
         class="cls-2" />
      <circle
         id="circle28"
         r="0.58"
         cy="7.85"
         cx="3.38"
         class="cls-2" />
      <circle
         id="circle30"
         r="0.58"
         cy="1.15"
         cx="5.62"
         class="cls-2" />
      <circle
         id="circle32"
         r="0.58"
         cy="3.38"
         cx="5.62"
         class="cls-2" />
      <circle
         id="circle34"
         r="0.58"
         cy="5.62"
         cx="5.62"
         class="cls-2" />
      <circle
         id="circle36"
         r="0.58"
         cy="7.85"
         cx="5.62"
         class="cls-2" />
      <circle
         id="circle38"
         r="0.58"
         cy="1.15"
         cx="7.85"
         class="cls-2" />
      <circle
         id="circle40"
         r="0.58"
         cy="3.38"
         cx="7.85"
         class="cls-2" />
      <circle
         id="circle42"
         r="0.58"
         cy="5.62"
         cx="7.85"
         class="cls-2" />
      <circle
         id="circle44"
         r="0.58"
         cy="7.85"
         cx="7.85"
         class="cls-2" />
    </pattern>
    <pattern
       viewBox="0 0 9 9"
       patternUnits="userSpaceOnUse"
       patternTransform="translate(7.87 -9.6) scale(1.64)"
       height="9"
       width="9"
       data-name="Новый образец узора 2"
       id="Новый_образец_узора_2-17">
      <rect
         id="rect47"
         height="9"
         width="9"
         class="cls-1" />
      <circle
         id="circle49"
         r="0.58"
         cy="1.15"
         cx="1.15"
         class="cls-2" />
      <circle
         id="circle51"
         r="0.58"
         cy="1.15"
         cx="3.38"
         class="cls-2" />
      <circle
         id="circle53"
         r="0.58"
         cy="1.15"
         cx="5.62"
         class="cls-2" />
      <circle
         id="circle55"
         r="0.58"
         cy="1.15"
         cx="7.85"
         class="cls-2" />
      <circle
         id="circle57"
         r="0.58"
         cy="1.15"
         cx="1.15"
         class="cls-2" />
      <circle
         id="circle59"
         r="0.58"
         cy="3.38"
         cx="1.15"
         class="cls-2" />
      <circle
         id="circle61"
         r="0.58"
         cy="5.62"
         cx="1.15"
         class="cls-2" />
      <circle
         id="circle63"
         r="0.58"
         cy="7.85"
         cx="1.15"
         class="cls-2" />
      <circle
         id="circle65"
         r="0.58"
         cy="1.15"
         cx="3.38"
         class="cls-2" />
      <circle
         id="circle67"
         r="0.58"
         cy="3.38"
         cx="3.38"
         class="cls-2" />
      <circle
         id="circle69"
         r="0.58"
         cy="5.62"
         cx="3.38"
         class="cls-2" />
      <circle
         id="circle71"
         r="0.58"
         cy="7.85"
         cx="3.38"
         class="cls-2" />
      <circle
         id="circle73"
         r="0.58"
         cy="1.15"
         cx="5.62"
         class="cls-2" />
      <circle
         id="circle75"
         r="0.58"
         cy="3.38"
         cx="5.62"
         class="cls-2" />
      <circle
         id="circle77"
         r="0.58"
         cy="5.62"
         cx="5.62"
         class="cls-2" />
      <circle
         id="circle79"
         r="0.58"
         cy="7.85"
         cx="5.62"
         class="cls-2" />
      <circle
         id="circle81"
         r="0.58"
         cy="1.15"
         cx="7.85"
         class="cls-2" />
      <circle
         id="circle83"
         r="0.58"
         cy="3.38"
         cx="7.85"
         class="cls-2" />
      <circle
         id="circle85"
         r="0.58"
         cy="5.62"
         cx="7.85"
         class="cls-2" />
      <circle
         id="circle87"
         r="0.58"
         cy="7.85"
         cx="7.85"
         class="cls-2" />
    </pattern>
    <pattern
       viewBox="0 0 9 9"
       patternUnits="userSpaceOnUse"
       patternTransform="matrix(-1.6, 0, 0, 1.6, -25.58, -68.85)"
       height="9"
       width="9"
       data-name="Новый образец узора 2"
       id="Новый_образец_узора_2-19">
      <rect
         id="rect90"
         height="9"
         width="9"
         class="cls-1" />
      <circle
         id="circle92"
         r="0.58"
         cy="1.15"
         cx="1.15"
         class="cls-2" />
      <circle
         id="circle94"
         r="0.58"
         cy="1.15"
         cx="3.38"
         class="cls-2" />
      <circle
         id="circle96"
         r="0.58"
         cy="1.15"
         cx="5.62"
         class="cls-2" />
      <circle
         id="circle98"
         r="0.58"
         cy="1.15"
         cx="7.85"
         class="cls-2" />
      <circle
         id="circle100"
         r="0.58"
         cy="1.15"
         cx="1.15"
         class="cls-2" />
      <circle
         id="circle102"
         r="0.58"
         cy="3.38"
         cx="1.15"
         class="cls-2" />
      <circle
         id="circle104"
         r="0.58"
         cy="5.62"
         cx="1.15"
         class="cls-2" />
      <circle
         id="circle106"
         r="0.58"
         cy="7.85"
         cx="1.15"
         class="cls-2" />
      <circle
         id="circle108"
         r="0.58"
         cy="1.15"
         cx="3.38"
         class="cls-2" />
      <circle
         id="circle110"
         r="0.58"
         cy="3.38"
         cx="3.38"
         class="cls-2" />
      <circle
         id="circle112"
         r="0.58"
         cy="5.62"
         cx="3.38"
         class="cls-2" />
      <circle
         id="circle114"
         r="0.58"
         cy="7.85"
         cx="3.38"
         class="cls-2" />
      <circle
         id="circle116"
         r="0.58"
         cy="1.15"
         cx="5.62"
         class="cls-2" />
      <circle
         id="circle118"
         r="0.58"
         cy="3.38"
         cx="5.62"
         class="cls-2" />
      <circle
         id="circle120"
         r="0.58"
         cy="5.62"
         cx="5.62"
         class="cls-2" />
      <circle
         id="circle122"
         r="0.58"
         cy="7.85"
         cx="5.62"
         class="cls-2" />
      <circle
         id="circle124"
         r="0.58"
         cy="1.15"
         cx="7.85"
         class="cls-2" />
      <circle
         id="circle126"
         r="0.58"
         cy="3.38"
         cx="7.85"
         class="cls-2" />
      <circle
         id="circle128"
         r="0.58"
         cy="5.62"
         cx="7.85"
         class="cls-2" />
      <circle
         id="circle130"
         r="0.58"
         cy="7.85"
         cx="7.85"
         class="cls-2" />
    </pattern>
    <pattern
       viewBox="0 0 9 9"
       patternUnits="userSpaceOnUse"
       patternTransform="matrix(-1.6, 0, 0, 1.6, -43.58, -55.28)"
       height="9"
       width="9"
       data-name="Новый образец узора 2"
       id="Новый_образец_узора_2-21">
      <rect
         id="rect133"
         height="9"
         width="9"
         class="cls-1" />
      <circle
         id="circle135"
         r="0.58"
         cy="1.15"
         cx="1.15"
         class="cls-2" />
      <circle
         id="circle137"
         r="0.58"
         cy="1.15"
         cx="3.38"
         class="cls-2" />
      <circle
         id="circle139"
         r="0.58"
         cy="1.15"
         cx="5.62"
         class="cls-2" />
      <circle
         id="circle141"
         r="0.58"
         cy="1.15"
         cx="7.85"
         class="cls-2" />
      <circle
         id="circle143"
         r="0.58"
         cy="1.15"
         cx="1.15"
         class="cls-2" />
      <circle
         id="circle145"
         r="0.58"
         cy="3.38"
         cx="1.15"
         class="cls-2" />
      <circle
         id="circle147"
         r="0.58"
         cy="5.62"
         cx="1.15"
         class="cls-2" />
      <circle
         id="circle149"
         r="0.58"
         cy="7.85"
         cx="1.15"
         class="cls-2" />
      <circle
         id="circle151"
         r="0.58"
         cy="1.15"
         cx="3.38"
         class="cls-2" />
      <circle
         id="circle153"
         r="0.58"
         cy="3.38"
         cx="3.38"
         class="cls-2" />
      <circle
         id="circle155"
         r="0.58"
         cy="5.62"
         cx="3.38"
         class="cls-2" />
      <circle
         id="circle157"
         r="0.58"
         cy="7.85"
         cx="3.38"
         class="cls-2" />
      <circle
         id="circle159"
         r="0.58"
         cy="1.15"
         cx="5.62"
         class="cls-2" />
      <circle
         id="circle161"
         r="0.58"
         cy="3.38"
         cx="5.62"
         class="cls-2" />
      <circle
         id="circle163"
         r="0.58"
         cy="5.62"
         cx="5.62"
         class="cls-2" />
      <circle
         id="circle165"
         r="0.58"
         cy="7.85"
         cx="5.62"
         class="cls-2" />
      <circle
         id="circle167"
         r="0.58"
         cy="1.15"
         cx="7.85"
         class="cls-2" />
      <circle
         id="circle169"
         r="0.58"
         cy="3.38"
         cx="7.85"
         class="cls-2" />
      <circle
         id="circle171"
         r="0.58"
         cy="5.62"
         cx="7.85"
         class="cls-2" />
      <circle
         id="circle173"
         r="0.58"
         cy="7.85"
         cx="7.85"
         class="cls-2" />
    </pattern>
    <pattern
       viewBox="0 0 9 9"
       patternUnits="userSpaceOnUse"
       patternTransform="matrix(-1.6, 0, 0, 1.6, -25.56, -60.06)"
       height="9"
       width="9"
       data-name="Новый образец узора 2"
       id="Новый_образец_узора_2-23">
      <rect
         id="rect176"
         height="9"
         width="9"
         class="cls-1" />
      <circle
         id="circle178"
         r="0.58"
         cy="1.15"
         cx="1.15"
         class="cls-2" />
      <circle
         id="circle180"
         r="0.58"
         cy="1.15"
         cx="3.38"
         class="cls-2" />
      <circle
         id="circle182"
         r="0.58"
         cy="1.15"
         cx="5.62"
         class="cls-2" />
      <circle
         id="circle184"
         r="0.58"
         cy="1.15"
         cx="7.85"
         class="cls-2" />
      <circle
         id="circle186"
         r="0.58"
         cy="1.15"
         cx="1.15"
         class="cls-2" />
      <circle
         id="circle188"
         r="0.58"
         cy="3.38"
         cx="1.15"
         class="cls-2" />
      <circle
         id="circle190"
         r="0.58"
         cy="5.62"
         cx="1.15"
         class="cls-2" />
      <circle
         id="circle192"
         r="0.58"
         cy="7.85"
         cx="1.15"
         class="cls-2" />
      <circle
         id="circle194"
         r="0.58"
         cy="1.15"
         cx="3.38"
         class="cls-2" />
      <circle
         id="circle196"
         r="0.58"
         cy="3.38"
         cx="3.38"
         class="cls-2" />
      <circle
         id="circle198"
         r="0.58"
         cy="5.62"
         cx="3.38"
         class="cls-2" />
      <circle
         id="circle200"
         r="0.58"
         cy="7.85"
         cx="3.38"
         class="cls-2" />
      <circle
         id="circle202"
         r="0.58"
         cy="1.15"
         cx="5.62"
         class="cls-2" />
      <circle
         id="circle204"
         r="0.58"
         cy="3.38"
         cx="5.62"
         class="cls-2" />
      <circle
         id="circle206"
         r="0.58"
         cy="5.62"
         cx="5.62"
         class="cls-2" />
      <circle
         id="circle208"
         r="0.58"
         cy="7.85"
         cx="5.62"
         class="cls-2" />
      <circle
         id="circle210"
         r="0.58"
         cy="1.15"
         cx="7.85"
         class="cls-2" />
      <circle
         id="circle212"
         r="0.58"
         cy="3.38"
         cx="7.85"
         class="cls-2" />
      <circle
         id="circle214"
         r="0.58"
         cy="5.62"
         cx="7.85"
         class="cls-2" />
      <circle
         id="circle216"
         r="0.58"
         cy="7.85"
         cx="7.85"
         class="cls-2" />
    </pattern>
    <pattern
       viewBox="0 0 9 9"
       patternUnits="userSpaceOnUse"
       patternTransform="matrix(-1.83, 0, 0, 1.83, -51.09, -71.9)"
       height="9"
       width="9"
       data-name="Новый образец узора 2"
       id="Новый_образец_узора_2-25">
      <rect
         id="rect219"
         height="9"
         width="9"
         class="cls-1" />
      <circle
         id="circle221"
         r="0.58"
         cy="1.15"
         cx="1.15"
         class="cls-2" />
      <circle
         id="circle223"
         r="0.58"
         cy="1.15"
         cx="3.38"
         class="cls-2" />
      <circle
         id="circle225"
         r="0.58"
         cy="1.15"
         cx="5.62"
         class="cls-2" />
      <circle
         id="circle227"
         r="0.58"
         cy="1.15"
         cx="7.85"
         class="cls-2" />
      <circle
         id="circle229"
         r="0.58"
         cy="1.15"
         cx="1.15"
         class="cls-2" />
      <circle
         id="circle231"
         r="0.58"
         cy="3.38"
         cx="1.15"
         class="cls-2" />
      <circle
         id="circle233"
         r="0.58"
         cy="5.62"
         cx="1.15"
         class="cls-2" />
      <circle
         id="circle235"
         r="0.58"
         cy="7.85"
         cx="1.15"
         class="cls-2" />
      <circle
         id="circle237"
         r="0.58"
         cy="1.15"
         cx="3.38"
         class="cls-2" />
      <circle
         id="circle239"
         r="0.58"
         cy="3.38"
         cx="3.38"
         class="cls-2" />
      <circle
         id="circle241"
         r="0.58"
         cy="5.62"
         cx="3.38"
         class="cls-2" />
      <circle
         id="circle243"
         r="0.58"
         cy="7.85"
         cx="3.38"
         class="cls-2" />
      <circle
         id="circle245"
         r="0.58"
         cy="1.15"
         cx="5.62"
         class="cls-2" />
      <circle
         id="circle247"
         r="0.58"
         cy="3.38"
         cx="5.62"
         class="cls-2" />
      <circle
         id="circle249"
         r="0.58"
         cy="5.62"
         cx="5.62"
         class="cls-2" />
      <circle
         id="circle251"
         r="0.58"
         cy="7.85"
         cx="5.62"
         class="cls-2" />
      <circle
         id="circle253"
         r="0.58"
         cy="1.15"
         cx="7.85"
         class="cls-2" />
      <circle
         id="circle255"
         r="0.58"
         cy="3.38"
         cx="7.85"
         class="cls-2" />
      <circle
         id="circle257"
         r="0.58"
         cy="5.62"
         cx="7.85"
         class="cls-2" />
      <circle
         id="circle259"
         r="0.58"
         cy="7.85"
         cx="7.85"
         class="cls-2" />
    </pattern>
    <pattern
       viewBox="0 0 9 9"
       patternUnits="userSpaceOnUse"
       patternTransform="matrix(-1.6, 0, 0, 1.6, -29.77, -43.11)"
       height="9"
       width="9"
       data-name="Новый образец узора 2"
       id="Новый_образец_узора_2-27">
      <rect
         id="rect262"
         height="9"
         width="9"
         class="cls-1" />
      <circle
         id="circle264"
         r="0.58"
         cy="1.15"
         cx="1.15"
         class="cls-2" />
      <circle
         id="circle266"
         r="0.58"
         cy="1.15"
         cx="3.38"
         class="cls-2" />
      <circle
         id="circle268"
         r="0.58"
         cy="1.15"
         cx="5.62"
         class="cls-2" />
      <circle
         id="circle270"
         r="0.58"
         cy="1.15"
         cx="7.85"
         class="cls-2" />
      <circle
         id="circle272"
         r="0.58"
         cy="1.15"
         cx="1.15"
         class="cls-2" />
      <circle
         id="circle274"
         r="0.58"
         cy="3.38"
         cx="1.15"
         class="cls-2" />
      <circle
         id="circle276"
         r="0.58"
         cy="5.62"
         cx="1.15"
         class="cls-2" />
      <circle
         id="circle278"
         r="0.58"
         cy="7.85"
         cx="1.15"
         class="cls-2" />
      <circle
         id="circle280"
         r="0.58"
         cy="1.15"
         cx="3.38"
         class="cls-2" />
      <circle
         id="circle282"
         r="0.58"
         cy="3.38"
         cx="3.38"
         class="cls-2" />
      <circle
         id="circle284"
         r="0.58"
         cy="5.62"
         cx="3.38"
         class="cls-2" />
      <circle
         id="circle286"
         r="0.58"
         cy="7.85"
         cx="3.38"
         class="cls-2" />
      <circle
         id="circle288"
         r="0.58"
         cy="1.15"
         cx="5.62"
         class="cls-2" />
      <circle
         id="circle290"
         r="0.58"
         cy="3.38"
         cx="5.62"
         class="cls-2" />
      <circle
         id="circle292"
         r="0.58"
         cy="5.62"
         cx="5.62"
         class="cls-2" />
      <circle
         id="circle294"
         r="0.58"
         cy="7.85"
         cx="5.62"
         class="cls-2" />
      <circle
         id="circle296"
         r="0.58"
         cy="1.15"
         cx="7.85"
         class="cls-2" />
      <circle
         id="circle298"
         r="0.58"
         cy="3.38"
         cx="7.85"
         class="cls-2" />
      <circle
         id="circle300"
         r="0.58"
         cy="5.62"
         cx="7.85"
         class="cls-2" />
      <circle
         id="circle302"
         r="0.58"
         cy="7.85"
         cx="7.85"
         class="cls-2" />
    </pattern>
    <pattern
       viewBox="0 0 9 9"
       patternUnits="userSpaceOnUse"
       patternTransform="matrix(-1.64, 0, 0, 1.64, 20.03, 4.26)"
       height="9"
       width="9"
       data-name="Новый образец узора 2"
       id="Новый_образец_узора_2-29">
      <rect
         id="rect305"
         height="9"
         width="9"
         class="cls-1" />
      <circle
         id="circle307"
         r="0.58"
         cy="1.15"
         cx="1.15"
         class="cls-2" />
      <circle
         id="circle309"
         r="0.58"
         cy="1.15"
         cx="3.38"
         class="cls-2" />
      <circle
         id="circle311"
         r="0.58"
         cy="1.15"
         cx="5.62"
         class="cls-2" />
      <circle
         id="circle313"
         r="0.58"
         cy="1.15"
         cx="7.85"
         class="cls-2" />
      <circle
         id="circle315"
         r="0.58"
         cy="1.15"
         cx="1.15"
         class="cls-2" />
      <circle
         id="circle317"
         r="0.58"
         cy="3.38"
         cx="1.15"
         class="cls-2" />
      <circle
         id="circle319"
         r="0.58"
         cy="5.62"
         cx="1.15"
         class="cls-2" />
      <circle
         id="circle321"
         r="0.58"
         cy="7.85"
         cx="1.15"
         class="cls-2" />
      <circle
         id="circle323"
         r="0.58"
         cy="1.15"
         cx="3.38"
         class="cls-2" />
      <circle
         id="circle325"
         r="0.58"
         cy="3.38"
         cx="3.38"
         class="cls-2" />
      <circle
         id="circle327"
         r="0.58"
         cy="5.62"
         cx="3.38"
         class="cls-2" />
      <circle
         id="circle329"
         r="0.58"
         cy="7.85"
         cx="3.38"
         class="cls-2" />
      <circle
         id="circle331"
         r="0.58"
         cy="1.15"
         cx="5.62"
         class="cls-2" />
      <circle
         id="circle333"
         r="0.58"
         cy="3.38"
         cx="5.62"
         class="cls-2" />
      <circle
         id="circle335"
         r="0.58"
         cy="5.62"
         cx="5.62"
         class="cls-2" />
      <circle
         id="circle337"
         r="0.58"
         cy="7.85"
         cx="5.62"
         class="cls-2" />
      <circle
         id="circle339"
         r="0.58"
         cy="1.15"
         cx="7.85"
         class="cls-2" />
      <circle
         id="circle341"
         r="0.58"
         cy="3.38"
         cx="7.85"
         class="cls-2" />
      <circle
         id="circle343"
         r="0.58"
         cy="5.62"
         cx="7.85"
         class="cls-2" />
      <circle
         id="circle345"
         r="0.58"
         cy="7.85"
         cx="7.85"
         class="cls-2" />
    </pattern>
    <pattern
       viewBox="0 0 9 9"
       patternUnits="userSpaceOnUse"
       patternTransform="matrix(-1.64, 0, 0, 1.64, 21.27, -8.26)"
       height="9"
       width="9"
       data-name="Новый образец узора 2"
       id="Новый_образец_узора_2-31">
      <rect
         id="rect348"
         height="9"
         width="9"
         class="cls-1" />
      <circle
         id="circle350"
         r="0.58"
         cy="1.15"
         cx="1.15"
         class="cls-2" />
      <circle
         id="circle352"
         r="0.58"
         cy="1.15"
         cx="3.38"
         class="cls-2" />
      <circle
         id="circle354"
         r="0.58"
         cy="1.15"
         cx="5.62"
         class="cls-2" />
      <circle
         id="circle356"
         r="0.58"
         cy="1.15"
         cx="7.85"
         class="cls-2" />
      <circle
         id="circle358"
         r="0.58"
         cy="1.15"
         cx="1.15"
         class="cls-2" />
      <circle
         id="circle360"
         r="0.58"
         cy="3.38"
         cx="1.15"
         class="cls-2" />
      <circle
         id="circle362"
         r="0.58"
         cy="5.62"
         cx="1.15"
         class="cls-2" />
      <circle
         id="circle364"
         r="0.58"
         cy="7.85"
         cx="1.15"
         class="cls-2" />
      <circle
         id="circle366"
         r="0.58"
         cy="1.15"
         cx="3.38"
         class="cls-2" />
      <circle
         id="circle368"
         r="0.58"
         cy="3.38"
         cx="3.38"
         class="cls-2" />
      <circle
         id="circle370"
         r="0.58"
         cy="5.62"
         cx="3.38"
         class="cls-2" />
      <circle
         id="circle372"
         r="0.58"
         cy="7.85"
         cx="3.38"
         class="cls-2" />
      <circle
         id="circle374"
         r="0.58"
         cy="1.15"
         cx="5.62"
         class="cls-2" />
      <circle
         id="circle376"
         r="0.58"
         cy="3.38"
         cx="5.62"
         class="cls-2" />
      <circle
         id="circle378"
         r="0.58"
         cy="5.62"
         cx="5.62"
         class="cls-2" />
      <circle
         id="circle380"
         r="0.58"
         cy="7.85"
         cx="5.62"
         class="cls-2" />
      <circle
         id="circle382"
         r="0.58"
         cy="1.15"
         cx="7.85"
         class="cls-2" />
      <circle
         id="circle384"
         r="0.58"
         cy="3.38"
         cx="7.85"
         class="cls-2" />
      <circle
         id="circle386"
         r="0.58"
         cy="5.62"
         cx="7.85"
         class="cls-2" />
      <circle
         id="circle388"
         r="0.58"
         cy="7.85"
         cx="7.85"
         class="cls-2" />
    </pattern>
    <pattern
       viewBox="0 0 9 9"
       patternUnits="userSpaceOnUse"
       patternTransform="matrix(-1.6, 0, 0, 1.6, -21.74, -34.89)"
       height="9"
       width="9"
       data-name="Новый образец узора 2"
       id="Новый_образец_узора_2-33">
      <rect
         id="rect391"
         height="9"
         width="9"
         class="cls-1" />
      <circle
         id="circle393"
         r="0.58"
         cy="1.15"
         cx="1.15"
         class="cls-2" />
      <circle
         id="circle395"
         r="0.58"
         cy="1.15"
         cx="3.38"
         class="cls-2" />
      <circle
         id="circle397"
         r="0.58"
         cy="1.15"
         cx="5.62"
         class="cls-2" />
      <circle
         id="circle399"
         r="0.58"
         cy="1.15"
         cx="7.85"
         class="cls-2" />
      <circle
         id="circle401"
         r="0.58"
         cy="1.15"
         cx="1.15"
         class="cls-2" />
      <circle
         id="circle403"
         r="0.58"
         cy="3.38"
         cx="1.15"
         class="cls-2" />
      <circle
         id="circle405"
         r="0.58"
         cy="5.62"
         cx="1.15"
         class="cls-2" />
      <circle
         id="circle407"
         r="0.58"
         cy="7.85"
         cx="1.15"
         class="cls-2" />
      <circle
         id="circle409"
         r="0.58"
         cy="1.15"
         cx="3.38"
         class="cls-2" />
      <circle
         id="circle411"
         r="0.58"
         cy="3.38"
         cx="3.38"
         class="cls-2" />
      <circle
         id="circle413"
         r="0.58"
         cy="5.62"
         cx="3.38"
         class="cls-2" />
      <circle
         id="circle415"
         r="0.58"
         cy="7.85"
         cx="3.38"
         class="cls-2" />
      <circle
         id="circle417"
         r="0.58"
         cy="1.15"
         cx="5.62"
         class="cls-2" />
      <circle
         id="circle419"
         r="0.58"
         cy="3.38"
         cx="5.62"
         class="cls-2" />
      <circle
         id="circle421"
         r="0.58"
         cy="5.62"
         cx="5.62"
         class="cls-2" />
      <circle
         id="circle423"
         r="0.58"
         cy="7.85"
         cx="5.62"
         class="cls-2" />
      <circle
         id="circle425"
         r="0.58"
         cy="1.15"
         cx="7.85"
         class="cls-2" />
      <circle
         id="circle427"
         r="0.58"
         cy="3.38"
         cx="7.85"
         class="cls-2" />
      <circle
         id="circle429"
         r="0.58"
         cy="5.62"
         cx="7.85"
         class="cls-2" />
      <circle
         id="circle431"
         r="0.58"
         cy="7.85"
         cx="7.85"
         class="cls-2" />
    </pattern>
    <pattern
       viewBox="0 0 9 9"
       patternUnits="userSpaceOnUse"
       patternTransform="matrix(-1.6, 0, 0, 1.6, -39.86, -10.48)"
       height="9"
       width="9"
       data-name="Новый образец узора 2"
       id="Новый_образец_узора_2-35">
      <rect
         id="rect434"
         height="9"
         width="9"
         class="cls-1" />
      <circle
         id="circle436"
         r="0.58"
         cy="1.15"
         cx="1.15"
         class="cls-2" />
      <circle
         id="circle438"
         r="0.58"
         cy="1.15"
         cx="3.38"
         class="cls-2" />
      <circle
         id="circle440"
         r="0.58"
         cy="1.15"
         cx="5.62"
         class="cls-2" />
      <circle
         id="circle442"
         r="0.58"
         cy="1.15"
         cx="7.85"
         class="cls-2" />
      <circle
         id="circle444"
         r="0.58"
         cy="1.15"
         cx="1.15"
         class="cls-2" />
      <circle
         id="circle446"
         r="0.58"
         cy="3.38"
         cx="1.15"
         class="cls-2" />
      <circle
         id="circle448"
         r="0.58"
         cy="5.62"
         cx="1.15"
         class="cls-2" />
      <circle
         id="circle450"
         r="0.58"
         cy="7.85"
         cx="1.15"
         class="cls-2" />
      <circle
         id="circle452"
         r="0.58"
         cy="1.15"
         cx="3.38"
         class="cls-2" />
      <circle
         id="circle454"
         r="0.58"
         cy="3.38"
         cx="3.38"
         class="cls-2" />
      <circle
         id="circle456"
         r="0.58"
         cy="5.62"
         cx="3.38"
         class="cls-2" />
      <circle
         id="circle458"
         r="0.58"
         cy="7.85"
         cx="3.38"
         class="cls-2" />
      <circle
         id="circle460"
         r="0.58"
         cy="1.15"
         cx="5.62"
         class="cls-2" />
      <circle
         id="circle462"
         r="0.58"
         cy="3.38"
         cx="5.62"
         class="cls-2" />
      <circle
         id="circle464"
         r="0.58"
         cy="5.62"
         cx="5.62"
         class="cls-2" />
      <circle
         id="circle466"
         r="0.58"
         cy="7.85"
         cx="5.62"
         class="cls-2" />
      <circle
         id="circle468"
         r="0.58"
         cy="1.15"
         cx="7.85"
         class="cls-2" />
      <circle
         id="circle470"
         r="0.58"
         cy="3.38"
         cx="7.85"
         class="cls-2" />
      <circle
         id="circle472"
         r="0.58"
         cy="5.62"
         cx="7.85"
         class="cls-2" />
      <circle
         id="circle474"
         r="0.58"
         cy="7.85"
         cx="7.85"
         class="cls-2" />
    </pattern>
    <pattern
       viewBox="0 0 9 9"
       patternUnits="userSpaceOnUse"
       patternTransform="matrix(-1.6, 0, 0, 1.6, -41.36, -5.28)"
       height="9"
       width="9"
       data-name="Новый образец узора 2"
       id="Новый_образец_узора_2-37">
      <rect
         id="rect477"
         height="9"
         width="9"
         class="cls-1" />
      <circle
         id="circle479"
         r="0.58"
         cy="1.15"
         cx="1.15"
         class="cls-2" />
      <circle
         id="circle481"
         r="0.58"
         cy="1.15"
         cx="3.38"
         class="cls-2" />
      <circle
         id="circle483"
         r="0.58"
         cy="1.15"
         cx="5.62"
         class="cls-2" />
      <circle
         id="circle485"
         r="0.58"
         cy="1.15"
         cx="7.85"
         class="cls-2" />
      <circle
         id="circle487"
         r="0.58"
         cy="1.15"
         cx="1.15"
         class="cls-2" />
      <circle
         id="circle489"
         r="0.58"
         cy="3.38"
         cx="1.15"
         class="cls-2" />
      <circle
         id="circle491"
         r="0.58"
         cy="5.62"
         cx="1.15"
         class="cls-2" />
      <circle
         id="circle493"
         r="0.58"
         cy="7.85"
         cx="1.15"
         class="cls-2" />
      <circle
         id="circle495"
         r="0.58"
         cy="1.15"
         cx="3.38"
         class="cls-2" />
      <circle
         id="circle497"
         r="0.58"
         cy="3.38"
         cx="3.38"
         class="cls-2" />
      <circle
         id="circle499"
         r="0.58"
         cy="5.62"
         cx="3.38"
         class="cls-2" />
      <circle
         id="circle501"
         r="0.58"
         cy="7.85"
         cx="3.38"
         class="cls-2" />
      <circle
         id="circle503"
         r="0.58"
         cy="1.15"
         cx="5.62"
         class="cls-2" />
      <circle
         id="circle505"
         r="0.58"
         cy="3.38"
         cx="5.62"
         class="cls-2" />
      <circle
         id="circle507"
         r="0.58"
         cy="5.62"
         cx="5.62"
         class="cls-2" />
      <circle
         id="circle509"
         r="0.58"
         cy="7.85"
         cx="5.62"
         class="cls-2" />
      <circle
         id="circle511"
         r="0.58"
         cy="1.15"
         cx="7.85"
         class="cls-2" />
      <circle
         id="circle513"
         r="0.58"
         cy="3.38"
         cx="7.85"
         class="cls-2" />
      <circle
         id="circle515"
         r="0.58"
         cy="5.62"
         cx="7.85"
         class="cls-2" />
      <circle
         id="circle517"
         r="0.58"
         cy="7.85"
         cx="7.85"
         class="cls-2" />
    </pattern>
  </defs>
  <title
     id="title522">ТЦ_2</title>
  <path
     style="fill:#e9f2ff"
     id="path524"
     d="M 720.07,190.58 646.3,147.99 a 29.75,29.75 0 0 0 -3.71,-2.51 L 459.78,39.96 a 76.87,76.87 0 0 0 -76.93,0 l -44.27,25.63 a 50.7,50.7 0 0 1 -50.76,0 L 261.01,50.25 a 93.46,93.46 0 0 0 -93.55,0.06 L 24.52,133 c -28.92,16.74 -28.9,58.51 0.05,75.21 l 14.21,8.2 a 13.16,13.16 0 0 1 -0.69,23.17 v 0 c -22.55,11.28 -23.5,43.1 -1.67,55.7 l 155,89.42 a 129.14,129.14 0 0 0 129.12,0 l 25.93,-15 a 54.11,54.11 0 0 1 54.11,0 l 25.76,14.87 a 74.91,74.91 0 0 0 74.93,0 l 218.8,-126.32 c 26.08,-15 26.08,-52.64 0,-67.67 z"
     class="cls-3" />
  <path
     style="fill:#3474f7"
     id="path526"
     d="m 389.22,65.7 v 31.12 c 0,2.1 2,3.81 4.43,3.81 2.43,0 4.44,-1.71 4.44,-3.81 V 65.7 Z"
     class="cls-4" />
  <path
     style="fill:#316dc9"
     id="path528"
     d="m 393.65,101.13 c -2.72,0 -4.93,-1.93 -4.93,-4.31 V 65.7 a 0.5,0.5 0 0 1 0.5,-0.5 h 8.85 a 0.5,0.5 0 0 1 0.5,0.5 v 31.12 c 0.02,2.43 -2.2,4.31 -4.92,4.31 z m -3.93,-34.88 v 30.62 c 0,1.83 1.76,3.31 3.93,3.31 2.17,0 3.94,-1.48 3.94,-3.31 V 66.25 Z"
     class="cls-2" />
  <ellipse
     style="fill:#a7c8fe"
     id="ellipse530"
     ry="3.8199999"
     rx="4.4299998"
     cy="65.699997"
     cx="393.65002"
     class="cls-5" />
  <path
     style="fill:#316dc9"
     id="path532"
     d="m 393.65,70.02 c -2.72,0 -4.93,-1.94 -4.93,-4.32 0,-2.38 2.21,-4.32 4.93,-4.32 2.72,0 4.94,1.94 4.94,4.32 0,2.38 -2.22,4.32 -4.94,4.32 z m 0,-7.64 c -2.17,0 -3.93,1.49 -3.93,3.32 0,1.83 1.76,3.32 3.93,3.32 2.17,0 3.94,-1.49 3.94,-3.32 0,-1.83 -1.77,-3.32 -3.94,-3.32 z"
     class="cls-2" />
  <path
     style="fill:#e9f2ff"
     id="path534"
     d="m 393.65,13.25 a 1.81,1.81 0 0 0 -1.93,1.66 v 50.44 a 2,2 0 0 0 3.86,0 V 14.88 a 1.81,1.81 0 0 0 -1.93,-1.63 z"
     class="cls-3" />
  <path
     style="fill:#316dc9"
     id="path536"
     d="m 393.65,67.52 a 2.31,2.31 0 0 1 -2.43,-2.17 V 14.88 a 2.45,2.45 0 0 1 4.86,0 v 50.47 a 2.31,2.31 0 0 1 -2.43,2.17 z m 0,-53.8 a 1.32,1.32 0 0 0 -1.43,1.16 v 50.47 a 1.46,1.46 0 0 0 2.86,0 V 14.88 a 1.32,1.32 0 0 0 -1.43,-1.16 z"
     class="cls-2" />
  <ellipse
     style="fill:#3474f7"
     id="ellipse538"
     ry="3.8199999"
     rx="4.4299998"
     cy="14.880005"
     cx="393.65002"
     class="cls-4" />
  <path
     style="fill:#316dc9"
     id="path540"
     d="m 393.65,19.19 c -2.72,0 -4.93,-1.93 -4.93,-4.31 0,-2.38 2.21,-4.32 4.93,-4.32 2.72,0 4.94,1.94 4.94,4.32 0,2.38 -2.22,4.31 -4.94,4.31 z m 0,-7.63 c -2.17,0 -3.93,1.49 -3.93,3.32 0,1.83 1.76,3.31 3.93,3.31 2.17,0 3.94,-1.48 3.94,-3.31 0,-1.83 -1.77,-3.32 -3.94,-3.32 z"
     class="cls-2" />
  <circle
     style="fill:#ffffff"
     id="circle542"
     r="7.96"
     cy="8.4600067"
     cx="393.65002"
     class="cls-6" />
  <path
     style="fill:#316dc9"
     id="path544"
     d="m 393.65,16.92 a 8.46,8.46 0 1 1 8.46,-8.46 8.47,8.47 0 0 1 -8.46,8.46 z M 393.65,1 A 7.46,7.46 0 1 0 401.11,8.46 7.47,7.47 0 0 0 393.65,1 Z"
     class="cls-2" />
  <path
     style="fill:#e9f2ff"
     id="path546"
     d="m 346.6,99.34 c 0,-3.17 0.46,-12.6 -5.9,-12.6 l -32,-2.27 -32.28,-7.3 a 68.83,68.83 0 0 0 -49.35,7.38 l -2.41,1.38 v 0 a 4.82,4.82 0 0 1 -4.82,0 L 205,77.25 a 1.91,1.91 0 0 1 -0.32,-0.24 l -0.28,22.88 20.05,11.57 2.63,-1.5 a 68.94,68.94 0 0 1 49.37,-7.39 l 32.28,7.31 38,2.68 -0.08,-0.16 z"
     class="cls-3" />
  <path
     style="fill:#316dc9"
     id="path548"
     d="m 346.68,113.04 v 0 l -38,-2.68 -32.36,-7.32 a 68.43,68.43 0 0 0 -49,7.33 l -2.63,1.51 a 0.5,0.5 0 0 1 -0.5,0 L 204.14,100.3 a 0.48,0.48 0 0 1 -0.25,-0.43 l 0.28,-22.88 a 0.51,0.51 0 0 1 0.3,-0.46 0.51,0.51 0 0 1 0.54,0.09 1,1 0 0 0 0.23,0.18 l 14.83,8.66 a 4.33,4.33 0 0 0 4.32,0 l 0.14,-0.05 2.27,-1.3 a 69.34,69.34 0 0 1 49.73,-7.44 l 32.28,7.31 31.9,2.25 v 0 a 5.16,5.16 0 0 1 3.77,1.51 c 2.66,2.68 2.62,8.09 2.6,11 v 0.59 13 a 0.5,0.5 0 0 1 -0.05,0.49 0.48,0.48 0 0 1 -0.35,0.22 z m -85.42,-12.68 a 69.07,69.07 0 0 1 15.3,1.71 l 32.28,7.3 37.23,2.63 V 98.74 c 0,-2.57 0.06,-7.9 -2.31,-10.28 a 4.14,4.14 0 0 0 -3.1,-1.22 l -32,-2.27 -32.36,-7.31 a 68.27,68.27 0 0 0 -49,7.33 l -2.41,1.38 a 0.44,0.44 0 0 1 -0.15,0 5.31,5.31 0 0 1 -5.17,-0.1 l -14.43,-8.41 -0.27,21.67 19.55,11.29 2.38,-1.36 a 69.42,69.42 0 0 1 34.46,-9.1 z"
     class="cls-2" />
  <path
     style="fill:#538ff9"
     id="path550"
     d="m 377.07,74.98 c 0,-6.07 -5.23,-6.09 -7.13,-6.23 l -28.39,18 v 0 c 4.72,0.68 5.09,7.19 5.1,10.94 l 0.16,0.34 v 0 l 0.12,14.45 30.36,-17.78 c 0,0 -0.22,-22.1 -0.22,-19.72 z"
     class="cls-7" />
  <path
     style="fill:#316dc9"
     id="path552"
     d="m 346.9,113.04 a 0.54,0.54 0 0 1 -0.25,-0.06 0.5,0.5 0 0 1 -0.25,-0.43 L 346.28,98.25 346.16,98 a 0.54,0.54 0 0 1 -0.05,-0.21 c 0,-6.58 -1.54,-10 -4.67,-10.45 a 0.48,0.48 0 0 1 -0.38,-0.29 0.51,0.51 0 0 1 0.17,-0.65 l 28.4,-18 a 0.46,0.46 0 0 1 0.3,-0.08 h 0.29 c 2,0.13 7.21,0.46 7.29,6.55 v 0 0.16 a 0.59,0.59 0 0 1 0,0.13 c 0,0.52 0.05,1.38 0.06,2.8 l 0.2,16.84 a 0.52,0.52 0 0 1 -0.25,0.44 l -30.36,17.79 a 0.54,0.54 0 0 1 -0.26,0.01 z m 0.38,-14.88 0.11,13.52 29.36,-17.21 c -0.06,-6.33 -0.19,-17.59 -0.23,-19.4 v -0.09 c 0,-5.31 -4.3,-5.58 -6.37,-5.71 h -0.08 l -27.3,17.35 c 4.31,1.64 4.38,8.5 4.39,11 l 0.07,0.15 a 0.55,0.55 0 0 1 0.05,0.39 z"
     class="cls-2" />
  <path
     style="fill:#d7e7ff"
     id="path554"
     d="m 341.5,86.79 28.39,-18 v 0 l -58.24,-4.12 -30.79,-7 a 88.87,88.87 0 0 0 -63.72,9.53 l -12.07,6.93 v 0 l -0.13,0.1 -0.17,0.1 v 0 a 1.79,1.79 0 0 0 0.26,2.91 l 14.85,8.66 a 4.82,4.82 0 0 0 4.82,0 v 0 l 2.37,-1.35 a 68.83,68.83 0 0 1 49.37,-7.38 l 32.28,7.3 32.77,2.32 z"
     class="cls-8" />
  <path
     style="fill:#316dc9"
     id="path556"
     d="m 341.5,87.25 v 0 l -32.77,-2.32 -32.36,-7.31 a 68.27,68.27 0 0 0 -49,7.33 l -2.41,1.38 a 0.44,0.44 0 0 1 -0.15,0 5.31,5.31 0 0 1 -5.17,-0.1 l -14.86,-8.66 a 2.26,2.26 0 0 1 -1.12,-1.76 2.34,2.34 0 0 1 0.67,-1.85 0.52,0.52 0 0 1 0.18,-0.18 l 0.16,-0.09 a 0.49,0.49 0 0 1 0.13,-0.1 0.42,0.42 0 0 1 0.14,-0.06 l 12,-6.86 a 89.39,89.39 0 0 1 64.08,-9.59 l 30.79,7 58.12,4.17 a 0.5,0.5 0 0 1 0.45,0.38 0.48,0.48 0 0 1 -0.22,0.54 l -28.39,18.08 a 0.43,0.43 0 0 1 -0.27,0 z M 261.26,74.93 a 69.67,69.67 0 0 1 15.3,1.71 l 32.28,7.31 32.53,2.3 27,-17.14 -56.72,-4 -30.87,-7 a 88.32,88.32 0 0 0 -63.36,9.48 l -12.12,6.93 h -0.08 v 0 0 h -0.05 a 1.33,1.33 0 0 0 -0.45,1.11 1.26,1.26 0 0 0 0.64,1 l 14.71,8.83 a 4.33,4.33 0 0 0 4.32,0 l 0.14,-0.05 2.27,-1.3 a 69.42,69.42 0 0 1 34.46,-9.14 z"
     class="cls-2" />
  <path
     style="fill:#538ff9"
     id="path558"
     d="m 206.93,170.49 20.49,12.29 a 90.49,90.49 0 0 0 46.51,12.87 h 42.54 a 137.79,137.79 0 0 1 25.31,2.34 l 32.08,6 a 16.73,16.73 0 0 1 13.6,15.26 v 0 a 44.25,44.25 0 0 0 5.27,17.91 l 8.34,15.32 c 1.12,2 5.28,8.56 10.16,16.07 20,30.83 54.58,49.48 91.32,48.37 a 133.34,133.34 0 0 0 39.79,-7.36 l 0.54,-0.19 a 107.75,107.75 0 0 0 58.86,-49.63 v 0 a 43.75,43.75 0 0 0 -9.65,-54.23 l -29.79,-25.8 a 142.9,142.9 0 0 0 -47,-27.08 l -46,-15.84 a 192.54,192.54 0 0 0 -49.12,-10 l -112.81,-8 -32.94,-7.46 a 59.89,59.89 0 0 0 -42.92,6.42 l -24.23,13.86 a 22.53,22.53 0 0 0 -0.35,38.88 z"
     class="cls-7" />
  <path
     style="fill:#316dc9"
     id="path560"
     d="m 499.52,317.46 c -35.29,0 -69,-18.43 -88.67,-48.64 -5.77,-8.88 -9.2,-14.3 -10.18,-16.1 l -8.38,-15.37 a 44.36,44.36 0 0 1 -5.33,-18.1 16.23,16.23 0 0 0 -13.19,-14.75 l -32.08,-6 a 136.82,136.82 0 0 0 -25.22,-2.34 h -42.54 a 91,91 0 0 1 -46.76,-12.91 l -20.5,-12.29 a 23,23 0 0 1 0.41,-39.75 l 24.22,-13.85 a 60.19,60.19 0 0 1 43.28,-6.48 l 32.94,7.46 112.74,8 a 193.13,193.13 0 0 1 49.25,10.05 l 46,15.84 a 142.78,142.78 0 0 1 47.16,27.17 l 29.79,25.8 a 44.48,44.48 0 0 1 9.76,54.86 108.13,108.13 0 0 1 -59.15,49.78 l -0.54,0.19 a 133.72,133.72 0 0 1 -39.94,7.39 c -1.01,0.03 -2.04,0.04 -3.07,0.04 z m -292.34,-147.4 20.5,12.29 a 90,90 0 0 0 46.25,12.8 h 42.54 a 138.69,138.69 0 0 1 25.4,2.35 l 32.08,6 a 17.24,17.24 0 0 1 14,15.66 43.39,43.39 0 0 0 5.21,17.71 l 8.39,15.38 c 1,1.78 4.38,7.18 10.14,16 20,30.79 54.87,49.25 90.89,48.14 a 133,133 0 0 0 39.64,-7.33 l 0.54,-0.19 a 107.11,107.11 0 0 0 58.58,-49.4 43.45,43.45 0 0 0 -9.53,-53.61 l -29.8,-25.8 a 141.53,141.53 0 0 0 -46.83,-27 l -46,-15.85 a 192,192 0 0 0 -49,-10 l -112.81,-8 -33,-7.47 a 59.18,59.18 0 0 0 -42.56,6.36 l -24.24,13.94 a 22,22 0 0 0 -0.39,38 z"
     class="cls-2" />
  <path
     id="path562"
     d="m 592.14,205.52 c 0.52,0.45 1,0.92 1.53,1.39 -0.5,-0.47 -1.01,-0.94 -1.53,-1.39 z"
     class="cls-9" />
  <path
     style="fill:#316dc9"
     id="path564"
     d="m 593.67,207.41 a 0.52,0.52 0 0 1 -0.35,-0.14 c -0.49,-0.47 -1,-0.92 -1.51,-1.37 a 0.52,0.52 0 0 1 -0.17,-0.38 0.54,0.54 0 0 1 0.12,-0.33 0.51,0.51 0 0 1 0.71,-0.05 c 0.53,0.46 1,0.93 1.54,1.41 v 0 a 0.49,0.49 0 0 1 0,0.7 0.48,0.48 0 0 1 -0.34,0.16 z"
     class="cls-2" />
  <path
     id="path566"
     d="m 554.36,173.25 q 2.73,2 5.37,4.21 -2.66,-2.13 -5.37,-4.21 z"
     class="cls-9" />
  <path
     style="fill:#316dc9"
     id="path568"
     d="m 559.73,178 a 0.48,0.48 0 0 1 -0.32,-0.11 c -1.73,-1.43 -3.53,-2.84 -5.35,-4.2 a 0.51,0.51 0 0 1 -0.2,-0.4 0.47,0.47 0 0 1 0.1,-0.3 0.49,0.49 0 0 1 0.7,-0.1 c 1.83,1.37 3.65,2.79 5.39,4.23 a 0.49,0.49 0 0 1 0.18,0.38 0.47,0.47 0 0 1 -0.12,0.32 0.48,0.48 0 0 1 -0.38,0.18 z"
     class="cls-2" />
  <path
     id="path570"
     d="m 577.24,192.61 -14.9,-12.9 c -0.86,-0.74 -1.73,-1.48 -2.61,-2.21 0.88,0.73 1.75,1.47 2.61,2.21 z"
     class="cls-9" />
  <path
     style="fill:#316dc9"
     id="path572"
     d="m 577.24,193.11 a 0.5,0.5 0 0 1 -0.33,-0.12 l -14.9,-12.9 c -0.86,-0.74 -1.72,-1.48 -2.6,-2.2 a 0.5,0.5 0 0 1 -0.18,-0.39 0.51,0.51 0 0 1 0.11,-0.31 0.5,0.5 0 0 1 0.71,-0.07 c 0.88,0.73 1.75,1.46 2.62,2.21 l 14.89,12.92 a 0.49,0.49 0 0 1 0.18,0.38 0.51,0.51 0 0 1 -0.5,0.5 z"
     class="cls-2" />
  <path
     id="path574"
     d="m 548.8,169.34 c 1.89,1.27 3.74,2.58 5.56,4 -1.82,-1.42 -3.67,-2.73 -5.56,-4 z"
     class="cls-9" />
  <path
     style="fill:#316dc9"
     id="path576"
     d="m 554.36,173.79 a 0.57,0.57 0 0 1 -0.3,-0.1 c -1.8,-1.35 -3.66,-2.67 -5.54,-3.94 a 0.51,0.51 0 0 1 -0.22,-0.42 0.51,0.51 0 0 1 0.09,-0.28 0.51,0.51 0 0 1 0.69,-0.13 c 1.89,1.28 3.77,2.61 5.58,4 a 0.48,0.48 0 0 1 0.2,0.4 0.49,0.49 0 0 1 -0.1,0.3 0.51,0.51 0 0 1 -0.4,0.17 z"
     class="cls-2" />
  <path
     id="path578"
     d="m 207.32,131.61 24.23,-13.86 a 59.85,59.85 0 0 1 29.11,-7.89 59.85,59.85 0 0 0 -29.11,7.89 l -24.23,13.86 a 22.23,22.23 0 0 0 -9.69,11 22.23,22.23 0 0 1 9.69,-11 z"
     class="cls-9" />
  <path
     style="fill:#316dc9"
     id="path580"
     d="m 197.63,143.13 h -0.19 a 0.51,0.51 0 0 1 -0.31,-0.47 0.46,0.46 0 0 1 0,-0.19 22.71,22.71 0 0 1 9.94,-11.3 l 24.22,-13.85 a 60.39,60.39 0 0 1 29.36,-8 v 0 a 0.5,0.5 0 0 1 0.5,0.49 v 0 a 0.5,0.5 0 0 1 -0.49,0.5 59.45,59.45 0 0 0 -28.87,7.83 l -24.22,13.9 a 22.3,22.3 0 0 0 -4.88,3.75 v 0 0 0 0 l -0.14,0.14 v 0 l -0.08,0.09 v 0 a 21.5,21.5 0 0 0 -3,4.08 20.24,20.24 0 0 0 -1.26,2.61 0.51,0.51 0 0 1 -0.58,0.42 z"
     class="cls-2" />
  <path
     id="path582"
     d="m 593.71,206.95 c 0.48,0.47 1,0.94 1.42,1.42 a 107.67,107.67 0 0 1 -45.66,46.22 l -0.51,0.27 a 133.21,133.21 0 0 1 -38.25,13.2 c -36.17,6.58 -73.11,-6.72 -97.51,-34.22 -5.94,-6.7 -11,-12.52 -12.44,-14.38 l -10.57,-13.95 a 44.26,44.26 0 0 1 -7.89,-16.93 16.71,16.71 0 0 0 -15.71,-13 l -32.62,-1.15 a 138.09,138.09 0 0 0 -25.37,1.45 l -42.07,6.37 a 90.49,90.49 0 0 1 -47.9,-5.8 l -5.86,-2.41 14.65,8.78 a 90.49,90.49 0 0 0 46.51,12.87 h 42.54 a 137.79,137.79 0 0 1 25.31,2.34 l 32.08,6 a 16.73,16.73 0 0 1 13.6,15.22 44.25,44.25 0 0 0 5.27,17.91 l 8.34,15.32 c 1.12,2 5.28,8.56 10.16,16.07 20,30.83 54.58,49.48 91.32,48.37 a 133.34,133.34 0 0 0 39.79,-7.36 l 0.54,-0.19 a 107.75,107.75 0 0 0 58.86,-49.63 v 0 a 43.75,43.75 0 0 0 -8.03,-52.79 z"
     class="cls-9" />
  <path
     style="fill:#316dc9"
     id="path584"
     d="m 499.52,317.46 c -35.29,0 -69,-18.43 -88.67,-48.64 -5.76,-8.87 -9.19,-14.29 -10.18,-16.1 l -8.38,-15.37 a 44.36,44.36 0 0 1 -5.33,-18.1 16.23,16.23 0 0 0 -13.19,-14.75 l -32.08,-6 a 136.82,136.82 0 0 0 -25.22,-2.34 h -42.54 a 91,91 0 0 1 -46.76,-12.91 l -14.65,-8.78 a 0.5,0.5 0 0 1 -0.19,-0.66 0.48,0.48 0 0 1 0.63,-0.23 l 5.86,2.41 a 90,90 0 0 0 47.64,5.76 l 42.07,-6.33 a 138.25,138.25 0 0 1 25.46,-1.46 l 32.62,1.15 a 17.23,17.23 0 0 1 16.18,13.4 43.62,43.62 0 0 0 7.79,16.74 l 10.58,14 c 1.23,1.62 5.4,6.45 12.42,14.35 24.36,27.46 61.55,40.52 97,34.06 a 132.85,132.85 0 0 0 38.11,-13.15 l 0.5,-0.27 a 106.65,106.65 0 0 0 45.29,-45.69 c -0.38,-0.39 -0.76,-0.77 -1.16,-1.15 a 0.5,0.5 0 0 1 0.69,-0.72 44.26,44.26 0 0 1 8.17,53.4 108.13,108.13 0 0 1 -59.11,49.76 l -0.54,0.19 a 133.72,133.72 0 0 1 -39.94,7.39 c -1.01,0.03 -2.04,0.04 -3.07,0.04 z M 218.75,177 l 8.93,5.35 a 90,90 0 0 0 46.25,12.8 h 42.54 a 138.69,138.69 0 0 1 25.4,2.35 l 32.08,6 a 17.24,17.24 0 0 1 14,15.66 43.39,43.39 0 0 0 5.21,17.71 l 8.39,15.38 c 1,1.79 4.39,7.19 10.14,16 20,30.79 54.84,49.24 90.89,48.14 a 133,133 0 0 0 39.64,-7.33 l 0.54,-0.19 a 107.11,107.11 0 0 0 58.58,-49.4 43.26,43.26 0 0 0 -6.09,-50.22 107.61,107.61 0 0 1 -45.55,45.8 l -0.51,0.27 a 133.19,133.19 0 0 1 -38.39,13.25 101.51,101.51 0 0 1 -18.27,1.68 107.09,107.09 0 0 1 -79.7,-36 c -7,-7.92 -11.22,-12.77 -12.47,-14.41 l -10.57,-13.95 a 44.35,44.35 0 0 1 -8,-17.12 16.24,16.24 0 0 0 -15.25,-12.62 L 333.93,175 a 138.05,138.05 0 0 0 -25.29,1.44 l -42.06,6.34 A 91,91 0 0 1 218.75,177 Z"
     class="cls-2" />
  <path
     id="path586"
     d="m 515.34,152.63 c 4.31,1.49 8.55,3.18 12.68,5.06 -4.13,-1.88 -8.37,-3.57 -12.68,-5.06 l -23,-7.92 z"
     class="cls-9" />
  <path
     style="fill:#316dc9"
     id="path588"
     d="m 528.07,158.19 a 0.45,0.45 0 0 1 -0.2,0 c -4.11,-1.88 -8.37,-3.57 -12.64,-5 l -23,-7.93 a 0.49,0.49 0 0 1 -0.34,-0.47 0.45,0.45 0 0 1 0,-0.16 0.51,0.51 0 0 1 0.64,-0.31 l 23,7.92 c 4.3,1.48 8.58,3.19 12.72,5.08 a 0.48,0.48 0 0 1 0.29,0.45 0.52,0.52 0 0 1 0,0.21 0.51,0.51 0 0 1 -0.47,0.21 z"
     class="cls-2" />
  <polygon
     transform="translate(-269.93,-148.75)"
     id="polygon590"
     points="577.34,267.54 560.87,263.81 577.34,267.54 690.15,275.52 "
     class="cls-9" />
  <path
     style="fill:#316dc9"
     id="path592"
     d="m 420.22,127.25 v 0 l -112.81,-8 h -0.08 l -16.47,-3.73 a 0.5,0.5 0 0 1 -0.39,-0.49 0.41,0.41 0 0 1 0,-0.11 0.5,0.5 0 0 1 0.6,-0.38 l 16.42,3.71 112.77,8 a 0.5,0.5 0 0 1 0.46,0.5 v 0 a 0.5,0.5 0 0 1 -0.5,0.5 z"
     class="cls-2" />
  <path
     style="fill:#e9f2ff"
     id="path594"
     d="M 548.91,92.4 C 379.99,115.78 311.07,287.89 152.57,362.7 L 91.85,327.83 C 250.37,253.01 319.27,80.91 488.19,57.53 Z"
     class="cls-3" />
  <ellipse
     id="ellipse596"
     ry="13.42"
     rx="16.549999"
     cy="120.04999"
     cx="176.23001"
     class="cls-10" />
  <circle
     style="fill:#ffffff"
     id="circle598"
     r="19.629999"
     cy="112.60999"
     cx="184.77002"
     class="cls-6" />
  <path
     style="fill:#316dc9"
     id="path600"
     d="m 184.77,132.74 a 20.13,20.13 0 1 1 20.13,-20.13 20.15,20.15 0 0 1 -20.13,20.13 z m 0,-39.26 a 19.13,19.13 0 1 0 19.13,19.13 19.15,19.15 0 0 0 -19.13,-19.13 z"
     class="cls-2" />
  <circle
     style="fill:#e9f2ff"
     id="circle602"
     r="4.4699998"
     cy="100.63"
     cx="189.25"
     class="cls-3" />
  <path
     style="fill:#a7c8fe"
     id="path604"
     d="m 184.77,126.55 c -10.31,0 -18.74,-6.84 -19.55,-15.53 0,0.53 -0.08,1.05 -0.08,1.59 a 19.63,19.63 0 0 0 39.26,0 c 0,-0.54 0,-1.06 -0.08,-1.59 -0.81,8.69 -9.25,15.53 -19.55,15.53 z"
     class="cls-5" />
  <path
     style="fill:#316dc9"
     id="path606"
     d="m 184.77,132.74 a 20.15,20.15 0 0 1 -20.13,-20.13 c 0,-0.55 0,-1.09 0.08,-1.63 a 0.51,0.51 0 0 1 0.5,-0.46 v 0 a 0.51,0.51 0 0 1 0.5,0.46 c 0.78,8.45 9.15,15.07 19.05,15.07 9.9,0 18.27,-6.62 19.05,-15.07 a 0.51,0.51 0 0 1 0.5,-0.46 v 0 a 0.51,0.51 0 0 1 0.5,0.46 c 0,0.54 0.08,1.08 0.08,1.63 a 20.15,20.15 0 0 1 -20.13,20.13 z m -18.9,-17.13 a 19.14,19.14 0 0 0 37.8,0 c -2.85,6.68 -10.33,11.44 -18.9,11.44 -8.57,0 -16.05,-4.8 -18.9,-11.44 z"
     class="cls-2" />
  <path
     style="fill:#a7c8fe"
     id="path608"
     d="M 152.57,357.69 C 311.07,282.88 379.99,110.77 548.91,87.39 v 5 C 379.99,115.78 311.07,287.89 152.57,362.7 Z"
     class="cls-5" />
  <path
     style="fill:#316dc9"
     id="path610"
     d="m 152.57,363.25 a 0.56,0.56 0 0 1 -0.27,-0.08 0.5,0.5 0 0 1 -0.23,-0.42 v -5 a 0.49,0.49 0 0 1 0.29,-0.45 C 220.2,325.3 271.72,275.3 321.54,227 388.7,161.86 452.13,100.34 548.84,87 a 0.46,0.46 0 0 1 0.39,0.12 0.49,0.49 0 0 1 0.18,0.37 v 5 a 0.51,0.51 0 0 1 -0.43,0.5 c -96.38,13.26 -159.71,74.66 -226.75,139.67 -49.87,48.38 -101.45,98.4 -169.44,130.49 a 0.59,0.59 0 0 1 -0.22,0.1 z m 0.5,-5.19 v 3.9 c 67.49,-32 118.82,-81.81 168.47,-130 67.06,-65 130.4,-126.48 226.87,-140 v -4 c -96.07,13.5 -159.27,74.8 -226.18,139.69 -49.8,48.31 -101.31,98.26 -169.16,130.36 z"
     class="cls-2" />
  <path
     style="fill:#a7c8fe"
     id="path612"
     d="M 91.85,322.94 C 250.37,248.13 319.27,76.02 488.19,52.64 v 5 C 319.27,81.03 250.37,253.13 91.85,327.95 Z"
     class="cls-5" />
  <path
     style="fill:#316dc9"
     id="path614"
     d="m 91.85,328.45 a 0.52,0.52 0 0 1 -0.5,-0.5 v -5 a 0.51,0.51 0 0 1 0.29,-0.45 c 67.84,-32 119.36,-82 169.18,-130.3 67.16,-65.14 130.6,-126.66 227.3,-140 a 0.52,0.52 0 0 1 0.4,0.11 0.52,0.52 0 0 1 0.17,0.38 v 5 a 0.5,0.5 0 0 1 -0.43,0.49 C 391.88,71.52 328.56,132.93 261.52,197.95 211.64,246.25 160.07,296.31 92.07,328.4 a 0.54,0.54 0 0 1 -0.22,0.05 z m 0.5,-5.19 v 3.9 c 67.5,-32 118.82,-81.82 168.47,-130 67.06,-65 130.4,-126.47 226.87,-140 v -4 c -96.07,13.5 -159.27,74.79 -226.17,139.69 -49.81,48.4 -101.32,98.31 -169.17,130.4 z"
     class="cls-2" />
  <ellipse
     id="ellipse616"
     ry="13.15"
     rx="16.219999"
     cy="114.91"
     cx="547.91998"
     class="cls-11" />
  <path
     style="fill:#a7c8fe"
     id="path618"
     d="m 539.94,92.25 a 1.87,1.87 0 0 1 2,1.71 v 29.38 a 2,2 0 0 1 -4,0 v -29.4 a 1.87,1.87 0 0 1 2,-1.69 z"
     class="cls-5" />
  <path
     style="fill:#316dc9"
     id="path620"
     d="m 539.94,125.53 a 2.36,2.36 0 0 1 -2.48,-2.21 V 93.94 a 2.5,2.5 0 0 1 5,0 v 29.38 a 2.37,2.37 0 0 1 -2.52,2.21 z m 0,-32.8 a 1.36,1.36 0 0 0 -1.48,1.21 v 29.38 a 1.52,1.52 0 0 0 3,0 V 93.94 a 1.37,1.37 0 0 0 -1.52,-1.21 z"
     class="cls-2" />
  <path
     style="fill:#ffffff"
     id="path622"
     d="m 539.36,40.16 a 3.68,3.68 0 0 1 0.58,0 3.58,3.58 0 0 1 0.58,0 c 13.77,1 19.32,35.27 19.32,43.63 0,9.46 -8.91,17.13 -19.9,17.13 -10.99,0 -19.87,-7.67 -19.87,-17.13 0,-8.36 5.53,-42.68 19.29,-43.63 z"
     class="cls-6" />
  <path
     style="fill:#316dc9"
     id="path624"
     d="m 539.94,101.42 c -11.24,0 -20.39,-7.91 -20.39,-17.63 0,-7.54 5.14,-43.09 19.76,-44.13 a 4.64,4.64 0 0 1 1.29,0 c 14.59,1 19.74,36.59 19.74,44.13 0,9.72 -9.15,17.63 -20.4,17.63 z m 0,-60.81 a 4,4 0 0 0 -0.5,0 v 0 c -13,0.9 -18.85,33.4 -18.85,43.14 0,9.17 8.7,16.63 19.39,16.63 10.69,0 19.4,-7.46 19.4,-16.63 0,-9.74 -5.88,-42.24 -18.85,-43.14 a 5.48,5.48 0 0 0 -0.59,0 z m -0.58,-0.45 z"
     class="cls-2" />
  <path
     style="fill:#a7c8fe"
     id="path626"
     d="m 526.99,91.89 c 10.87,1.64 20.82,-4.61 22.23,-14 0.85,-5.67 0.94,-23.77 -3.42,-35.57 9.92,7.83 14,34.24 14,41.43 0,9.46 -8.91,17.13 -19.9,17.13 -8.28,0 -15.37,-4.36 -18.37,-10.55 a 22.72,22.72 0 0 0 5.46,1.56 z"
     class="cls-5" />
  <path
     style="fill:#316dc9"
     id="path628"
     d="m 539.94,101.42 c -8.25,0 -15.63,-4.25 -18.82,-10.83 a 0.5,0.5 0 0 1 0.09,-0.56 0.51,0.51 0 0 1 0.56,-0.12 22.09,22.09 0 0 0 5.29,1.49 c 10.59,1.59 20.29,-4.49 21.66,-13.55 0.8,-5.28 1,-23.55 -3.39,-35.32 a 0.52,0.52 0 0 1 0.18,-0.58 0.51,0.51 0 0 1 0.6,0 c 10.52,8.31 14.23,35.61 14.23,41.83 0,9.73 -9.15,17.64 -20.4,17.64 z m -17.29,-10.1 c 3.29,5.57 9.93,9.1 17.29,9.1 10.7,0 19.4,-7.46 19.4,-16.63 0,-6.89 -3.76,-30.83 -12.44,-39.76 3.82,12 3.6,28.71 2.81,34 -1.45,9.61 -11.67,16.07 -22.79,14.39 a 23.41,23.41 0 0 1 -4.27,-1.1 z"
     class="cls-2" />
  <ellipse
     id="ellipse630"
     ry="13.15"
     rx="16.219999"
     cy="128.48001"
     cx="515.47998"
     class="cls-12" />
  <path
     style="fill:#a7c8fe"
     id="path632"
     d="m 507.5,105.8 a 1.87,1.87 0 0 1 2,1.71 v 29.38 a 2,2 0 0 1 -4,0 v -29.38 a 1.87,1.87 0 0 1 2,-1.71 z"
     class="cls-5" />
  <path
     style="fill:#316dc9"
     id="path634"
     d="m 507.51,139.1 a 2.37,2.37 0 0 1 -2.49,-2.21 v -29.38 a 2.5,2.5 0 0 1 5,0 v 29.38 a 2.36,2.36 0 0 1 -2.51,2.21 z m 0,-32.8 a 1.37,1.37 0 0 0 -1.49,1.21 v 29.38 a 1.52,1.52 0 0 0 3,0 v -29.38 a 1.37,1.37 0 0 0 -1.51,-1.21 z"
     class="cls-2" />
  <path
     style="fill:#ffffff"
     id="path636"
     d="m 506.92,53.72 a 4.3,4.3 0 0 1 1.17,0 c 13.76,1 19.31,35.28 19.31,43.64 0,9.46 -8.91,17.13 -19.9,17.13 -10.99,0 -19.89,-7.67 -19.89,-17.13 0,-8.36 5.55,-42.68 19.31,-43.64 z"
     class="cls-6" />
  <path
     style="fill:#316dc9"
     id="path638"
     d="m 507.51,114.99 c -11.25,0 -20.4,-7.91 -20.4,-17.63 0,-7.54 5.15,-43.09 19.76,-44.13 a 4.65,4.65 0 0 1 1.29,0 c 14.59,1 19.74,36.58 19.74,44.13 0,9.72 -9.15,17.63 -20.39,17.63 z m 0,-60.81 a 4.06,4.06 0 0 0 -0.51,0 v 0 c -13,0.9 -18.85,33.4 -18.85,43.14 0,9.17 8.7,16.63 19.4,16.63 10.7,0 19.39,-7.46 19.39,-16.63 0,-9.74 -5.87,-42.24 -18.85,-43.14 -0.24,0.07 -0.41,0 -0.58,0 z m -0.59,-0.46 z"
     class="cls-2" />
  <path
     style="fill:#a7c8fe"
     id="path640"
     d="m 494.55,105.46 c 10.87,1.64 20.82,-4.61 22.23,-14 0.85,-5.66 0.94,-23.76 -3.42,-35.56 9.93,7.83 14,34.24 14,41.43 0,9.46 -8.91,17.13 -19.9,17.13 -8.27,0 -15.37,-4.36 -18.36,-10.55 a 22.51,22.51 0 0 0 5.45,1.55 z"
     class="cls-5" />
  <path
     style="fill:#316dc9"
     id="path642"
     d="m 507.51,114.99 c -8.25,0 -15.64,-4.25 -18.82,-10.83 a 0.48,0.48 0 0 1 0.08,-0.56 0.51,0.51 0 0 1 0.56,-0.12 22,22 0 0 0 5.3,1.49 v 0 c 10.57,1.59 20.29,-4.49 21.65,-13.55 0.8,-5.29 1,-23.55 -3.38,-35.32 a 0.5,0.5 0 0 1 0.17,-0.58 0.51,0.51 0 0 1 0.6,0 c 10.52,8.31 14.23,35.61 14.23,41.83 0,9.73 -9.15,17.64 -20.39,17.64 z m -17.3,-10.1 c 3.3,5.57 9.93,9.1 17.3,9.1 10.69,0 19.39,-7.46 19.39,-16.63 0,-6.89 -3.76,-30.83 -12.43,-39.76 3.81,12 3.59,28.7 2.8,34 -1.45,9.61 -11.67,16.07 -22.79,14.39 v 0 a 23.41,23.41 0 0 1 -4.27,-1.1 z"
     class="cls-2" />
  <ellipse
     id="ellipse644"
     ry="13.15"
     rx="16.219999"
     cy="181.42999"
     cx="28.369987"
     class="cls-13" />
  <path
     style="fill:#a7c8fe"
     id="path646"
     d="m 20.4,158.75 a 1.86,1.86 0 0 1 2,1.71 v 29.38 a 2,2 0 0 1 -4,0 v -29.38 a 1.87,1.87 0 0 1 2,-1.71 z"
     class="cls-5" />
  <path
     style="fill:#316dc9"
     id="path648"
     d="m 20.4,192.05 a 2.37,2.37 0 0 1 -2.49,-2.21 v -29.38 a 2.5,2.5 0 0 1 5,0 v 29.38 a 2.36,2.36 0 0 1 -2.51,2.21 z m 0,-32.8 a 1.37,1.37 0 0 0 -1.49,1.21 v 29.38 a 1.52,1.52 0 0 0 3,0 v -29.38 a 1.36,1.36 0 0 0 -1.51,-1.21 z"
     class="cls-2" />
  <path
     style="fill:#ffffff"
     id="path650"
     d="m 19.82,106.67 a 4.23,4.23 0 0 1 1.16,0 c 13.77,1 19.32,35.28 19.32,43.64 0,9.46 -8.91,17.13 -19.9,17.13 -10.99,0 -19.9,-7.67 -19.9,-17.13 0,-8.36 5.57,-42.68 19.32,-43.64 z"
     class="cls-6" />
  <path
     style="fill:#316dc9"
     id="path652"
     d="M 20.4,167.94 C 9.15,167.94 0,160.03 0,150.31 0,142.77 5.15,107.22 19.77,106.18 a 4.57,4.57 0 0 1 1.28,0 c 14.59,1 19.75,36.58 19.75,44.13 0,9.72 -9.15,17.63 -20.4,17.63 z m 0,-60.81 a 4.21,4.21 0 0 0 -0.51,0 v 0 c -13,0.9 -18.85,33.4 -18.85,43.14 0,9.17 8.7,16.63 19.4,16.63 10.7,0 19.4,-7.46 19.4,-16.63 0,-9.74 -5.88,-42.24 -18.86,-43.14 -0.24,0.02 -0.41,0 -0.58,0 z m -0.58,-0.46 z"
     class="cls-2" />
  <path
     style="fill:#a7c8fe"
     id="path654"
     d="m 7.45,158.41 c 10.86,1.64 20.81,-4.61 22.22,-14 0.86,-5.67 0.95,-23.77 -3.41,-35.57 9.92,7.83 14,34.24 14,41.43 0,9.46 -8.91,17.13 -19.9,17.13 -8.28,0 -15.37,-4.36 -18.37,-10.55 a 22.72,22.72 0 0 0 5.46,1.56 z"
     class="cls-5" />
  <path
     style="fill:#316dc9"
     id="path656"
     d="m 20.4,167.94 c -8.25,0 -15.64,-4.25 -18.82,-10.83 a 0.49,0.49 0 0 1 0.09,-0.56 0.49,0.49 0 0 1 0.55,-0.12 22.17,22.17 0 0 0 5.3,1.49 21,21 0 0 0 14.32,-2.79 15.43,15.43 0 0 0 7.34,-10.76 c 0.79,-5.29 1,-23.55 -3.39,-35.32 a 0.5,0.5 0 0 1 0.17,-0.58 0.53,0.53 0 0 1 0.61,0 c 10.51,8.31 14.23,35.61 14.23,41.83 0,9.73 -9.15,17.64 -20.4,17.64 z M 3.07,157.84 c 3.3,5.57 9.93,9.1 17.3,9.1 10.69,0 19.4,-7.46 19.4,-16.63 0,-6.89 -3.76,-30.83 -12.44,-39.76 3.82,12 3.6,28.7 2.81,34 a 16.41,16.41 0 0 1 -7.8,11.45 22,22 0 0 1 -15,2.94 23.83,23.83 0 0 1 -4.27,-1.1 z"
     class="cls-2" />
  <ellipse
     id="ellipse658"
     ry="15.02"
     rx="18.530001"
     cy="162.41"
     cx="139.27002"
     class="cls-14" />
  <path
     style="fill:#a7c8fe"
     id="path660"
     d="m 130.16,136.5 a 2.13,2.13 0 0 1 2.27,1.95 v 33.57 a 2.3,2.3 0 0 1 -4.54,0 v -33.57 a 2.12,2.12 0 0 1 2.27,-1.95 z"
     class="cls-5" />
  <path
     style="fill:#316dc9"
     id="path662"
     d="m 130.16,174.47 a 2.63,2.63 0 0 1 -2.77,-2.45 v -33.57 a 2.79,2.79 0 0 1 5.54,0 v 33.57 a 2.63,2.63 0 0 1 -2.77,2.45 z m 0,-37.47 a 1.63,1.63 0 0 0 -1.77,1.45 v 33.57 a 1.81,1.81 0 0 0 3.54,0 V 138.45 A 1.64,1.64 0 0 0 130.16,137 Z"
     class="cls-2" />
  <path
     style="fill:#ffffff"
     id="path664"
     d="m 129.49,76.99 a 4.91,4.91 0 0 1 0.67,-0.05 4.65,4.65 0 0 1 0.66,0.05 c 15.73,1.09 22.07,40.31 22.07,49.87 0,10.8 -10.18,19.56 -22.73,19.56 -12.55,0 -22.74,-8.76 -22.74,-19.56 0,-9.56 6.34,-48.78 22.07,-49.87 z"
     class="cls-6" />
  <path
     style="fill:#316dc9"
     id="path666"
     d="m 130.16,146.92 c -12.82,0 -23.24,-9 -23.24,-20.06 0,-8.62 5.87,-49.19 22.52,-50.37 a 5.42,5.42 0 0 1 1.45,0 c 16.63,1.15 22.5,41.75 22.5,50.37 0,11.06 -10.42,20.06 -23.23,20.06 z m 0,-69.48 a 5.47,5.47 0 0 0 -0.59,0 v 0 c -14.87,1 -21.61,38.22 -21.61,49.37 0,10.51 10,19.06 22.24,19.06 12.24,0 22.23,-8.55 22.23,-19.06 0,-11.15 -6.73,-48.34 -21.6,-49.37 a 4.83,4.83 0 0 0 -0.67,0 z m -0.67,-0.45 z"
     class="cls-2" />
  <path
     style="fill:#a7c8fe"
     id="path668"
     d="m 115.36,136.11 c 12.41,1.87 23.78,-5.27 25.39,-16 1,-6.47 1.08,-27.16 -3.9,-40.65 11.34,9 16,39.13 16,47.36 0,10.8 -10.18,19.56 -22.73,19.56 -9.46,0 -17.57,-5 -21,-12.05 a 25.72,25.72 0 0 0 6.24,1.78 z"
     class="cls-5" />
  <path
     style="fill:#316dc9"
     id="path670"
     d="m 130.16,146.92 c -9.4,0 -17.82,-4.84 -21.44,-12.33 a 0.49,0.49 0 0 1 0.08,-0.56 0.51,0.51 0 0 1 0.56,-0.12 26,26 0 0 0 6.07,1.71 v 0 c 12.12,1.82 23.26,-5.15 24.83,-15.54 0.91,-6.05 1.09,-26.94 -3.88,-40.4 a 0.52,0.52 0 0 1 0.18,-0.58 0.49,0.49 0 0 1 0.6,0 c 12,9.47 16.23,40.64 16.23,47.75 0,11.07 -10.42,20.07 -23.23,20.07 z m -19.92,-11.59 c 3.74,6.47 11.4,10.59 19.92,10.59 12.26,0 22.23,-8.55 22.23,-19.06 0,-7.95 -4.36,-35.65 -14.44,-45.71 4.45,13.76 4.21,33 3.3,39.07 -1.65,10.95 -13.31,18.3 -26,16.39 v 0 a 26.8,26.8 0 0 1 -5.01,-1.28 z"
     class="cls-2" />
  <ellipse
     id="ellipse672"
     ry="13.15"
     rx="16.219999"
     cy="241.67001"
     cx="53.029991"
     class="cls-15" />
  <path
     style="fill:#a7c8fe"
     id="path674"
     d="m 45.07,219 a 1.86,1.86 0 0 1 2,1.71 v 29.37 a 2,2 0 0 1 -4,0 v -29.37 a 1.86,1.86 0 0 1 2,-1.71 z"
     class="cls-5" />
  <path
     style="fill:#316dc9"
     id="path676"
     d="m 45.07,252.25 a 2.36,2.36 0 0 1 -2.48,-2.21 v -29.33 a 2.5,2.5 0 0 1 5,0 v 29.37 a 2.37,2.37 0 0 1 -2.52,2.17 z m 0,-32.79 a 1.36,1.36 0 0 0 -1.48,1.21 v 29.37 a 1.52,1.52 0 0 0 3,0 v -29.33 a 1.37,1.37 0 0 0 -1.52,-1.21 z"
     class="cls-2" />
  <path
     style="fill:#ffffff"
     id="path678"
     d="m 44.47,166.92 a 3.68,3.68 0 0 1 0.58,-0.05 3.58,3.58 0 0 1 0.58,0.05 c 13.77,0.95 19.32,35.28 19.32,43.64 0,9.46 -8.91,17.12 -19.9,17.12 -10.99,0 -19.89,-7.66 -19.89,-17.12 0,-8.31 5.55,-42.69 19.31,-43.64 z"
     class="cls-6" />
  <path
     style="fill:#316dc9"
     id="path680"
     d="m 45.07,228.18 c -11.24,0 -20.4,-7.9 -20.4,-17.62 0,-7.55 5.15,-43.1 19.77,-44.14 a 5,5 0 0 1 1.28,0 c 14.6,1 19.75,36.59 19.75,44.14 -0.02,9.69 -9.17,17.62 -20.4,17.62 z m 0,-60.8 a 2.92,2.92 0 0 0 -0.51,0 v 0 c -13,0.9 -18.86,33.39 -18.86,43.14 0,9.17 8.71,16.62 19.4,16.62 10.69,0 19.4,-7.45 19.4,-16.62 0,-9.75 -5.88,-42.24 -18.85,-43.14 a 3.56,3.56 0 0 0 -0.58,0 z m -0.58,-0.46 z"
     class="cls-2" />
  <path
     style="fill:#a7c8fe"
     id="path682"
     d="m 32.07,218.66 c 10.86,1.64 20.82,-4.62 22.22,-14 0.86,-5.67 0.95,-23.77 -3.41,-35.57 9.92,7.83 14,34.24 14,41.44 0,9.46 -8.91,17.12 -19.9,17.12 -8.28,0 -15.37,-4.35 -18.37,-10.54 a 23.2,23.2 0 0 0 5.46,1.55 z"
     class="cls-5" />
  <path
     style="fill:#316dc9"
     id="path684"
     d="m 45.07,228.18 c -8.25,0 -15.63,-4.25 -18.82,-10.82 a 0.52,0.52 0 0 1 0.09,-0.57 0.49,0.49 0 0 1 0.55,-0.11 22.75,22.75 0 0 0 5.3,1.48 c 10.59,1.59 20.29,-4.48 21.66,-13.54 0.8,-5.29 1,-23.56 -3.39,-35.33 a 0.49,0.49 0 0 1 0.18,-0.57 0.48,0.48 0 0 1 0.6,0 c 10.51,8.3 14.23,35.6 14.23,41.83 -0.02,9.7 -9.17,17.63 -20.4,17.63 z M 27.78,218.09 c 3.29,5.56 9.93,9.09 17.29,9.09 10.7,0 19.4,-7.45 19.4,-16.62 0,-6.9 -3.76,-30.84 -12.44,-39.77 3.82,12 3.6,28.71 2.81,34 -1.45,9.61 -11.67,16.07 -22.8,14.39 a 22.69,22.69 0 0 1 -4.28,-1.09 z"
     class="cls-2" />
  <path
     style="fill:#ffffff"
     id="path686"
     d="m 204.71,74.31 -0.39,0.6 a 5.5,5.5 0 0 0 -0.93,3 l -0.23,22.56 a 3.06,3.06 0 0 0 1.53,2.68 l 15.74,9.1 c 0,0 1.64,0.69 4,-0.81 l 0.22,-25.51 z"
     class="cls-6" />
  <path
     style="fill:#316dc9"
     id="path688"
     d="m 221.47,112.91 a 3.56,3.56 0 0 1 -1.24,-0.2 l -15.79,-9.12 a 3.58,3.58 0 0 1 -1.78,-3.12 l 0.23,-22.55 a 6,6 0 0 1 1,-3.28 l 0.4,-0.61 a 0.49,0.49 0 0 1 0.67,-0.15 l 20,11.62 a 0.52,0.52 0 0 1 0.25,0.44 l -0.22,25.51 a 0.49,0.49 0 0 1 -0.24,0.42 6.07,6.07 0 0 1 -3.28,1.04 z m -0.79,-1.1 a 4.13,4.13 0 0 0 3.27,-0.65 l 0.21,-24.94 -19.29,-11.24 -0.14,0.21 a 5,5 0 0 0 -0.84,2.74 l -0.23,22.55 a 2.57,2.57 0 0 0 1.28,2.25 z"
     class="cls-2" />
  <path
     style="fill:#3474f7"
     id="path690"
     d="m 98.18,285.05 v 0 -0.05 l -1.41,0.8 a 3.75,3.75 0 0 1 -1.89,0.51 v 20.71 l 13.12,-7.57 0.27,-20.89 z"
     class="cls-4" />
  <path
     style="fill:#316dc9"
     id="path692"
     d="m 94.88,307.52 a 0.54,0.54 0 0 1 -0.25,-0.06 0.5,0.5 0 0 1 -0.25,-0.44 v -20.71 a 0.5,0.5 0 0 1 0.5,-0.5 3.22,3.22 0 0 0 1.64,-0.44 l 1.41,-0.81 a 0.55,0.55 0 0 1 0.18,-0.06 l 9.89,-6.36 a 0.5,0.5 0 0 1 0.77,0.43 l -0.27,20.88 a 0.5,0.5 0 0 1 -0.25,0.43 l -13.12,7.58 a 0.57,0.57 0 0 1 -0.25,0.06 z m 0.5,-20.74 v 19.38 l 12.12,-7 0.26,-19.68 -9.31,6 a 0.55,0.55 0 0 1 -0.24,0.07 l -1.14,0.7 a 4.29,4.29 0 0 1 -1.69,0.53 z"
     class="cls-2" />
  <path
     style="fill:#ffffff"
     id="path694"
     d="m 92.98,285.8 -2.65,-1.55 v 0.05 0 l -45.52,-27 0.24,20.89 49.83,28.83 v -20.71 a 3.79,3.79 0 0 1 -1.9,-0.51 z"
     class="cls-6" />
  <path
     style="fill:#316dc9"
     id="path696"
     d="m 94.88,307.52 a 0.54,0.54 0 0 1 -0.25,-0.06 L 44.8,278.62 a 0.5,0.5 0 0 1 -0.25,-0.42 l -0.24,-20.89 a 0.52,0.52 0 0 1 0.25,-0.44 0.52,0.52 0 0 1 0.51,0 l 45.33,26.91 0.18,0.06 2.65,1.53 a 3.29,3.29 0 0 0 1.65,0.44 0.51,0.51 0 0 1 0.5,0.5 v 20.71 a 0.52,0.52 0 0 1 -0.25,0.44 0.57,0.57 0 0 1 -0.25,0.06 z M 45.55,277.9 94.38,306.16 v -19.38 a 4.4,4.4 0 0 1 -1.65,-0.54 v 0 l -2.47,-1.43 a 0.35,0.35 0 0 1 -0.19,-0.06 L 45.32,258.19 Z"
     class="cls-2" />
  <path
     style="fill:#a7c8fe"
     id="path698"
     d="m 56.31,249.97 -10.9,6.28 a 1.2,1.2 0 0 0 0,2.08 l 47.57,27.46 a 3.78,3.78 0 0 0 3.79,0 l 10.9,-6.29 a 1.2,1.2 0 0 0 0,-2.08 l -47.6,-27.45 a 3.78,3.78 0 0 0 -3.76,0 z"
     class="cls-5" />
  <path
     style="fill:#316dc9"
     id="path700"
     d="m 94.88,286.81 a 4.32,4.32 0 0 1 -2.15,-0.57 L 45.16,258.77 a 1.67,1.67 0 0 1 -0.85,-1.47 1.69,1.69 0 0 1 0.85,-1.47 l 10.9,-6.29 a 4.27,4.27 0 0 1 4.29,0 L 107.92,277 a 1.7,1.7 0 0 1 0,2.95 l -10.85,6.3 a 4.29,4.29 0 0 1 -2.19,0.56 z M 58.21,249.96 a 3.34,3.34 0 0 0 -1.65,0.44 v 0 l -10.9,6.29 a 0.71,0.71 0 0 0 0,1.22 l 47.57,27.46 a 3.28,3.28 0 0 0 3.29,0 l 10.9,-6.29 a 0.69,0.69 0 0 0 0.35,-0.61 0.68,0.68 0 0 0 -0.35,-0.6 L 59.85,250.4 a 3.31,3.31 0 0 0 -1.64,-0.44 z m -1.9,0 z"
     class="cls-2" />
  <path
     style="fill:#a7c8fe"
     id="path702"
     d="m 636.07,210.14 a 73,73 0 0 1 -1.36,16.26 c -0.07,0.38 -0.15,0.75 -0.23,1.13 q -0.24,1.1 -0.51,2.19 l -0.21,0.88 c -0.56,2.13 -1.2,4.24 -2,6.33 v 0 a 71,71 0 0 1 -4.6,10.32 136.63,136.63 0 0 1 -37.09,42.87 v 0 a 136.71,136.71 0 0 1 -37.61,20.13 l -0.51,0.18 a 162.42,162.42 0 0 1 -48.48,9 c -1.34,0 -2.67,0.06 -4,0.06 v 0 a 133,133 0 0 1 -80.4,-27.06 v 0 a 136.83,136.83 0 0 1 -13.9,-12.08 0.69,0.69 0 0 0 -1.19,0.56 v 23.69 a 4.36,4.36 0 0 0 1.19,2.23 133.23,133.23 0 0 0 94.28,39.13 v 0 c 1.33,0 2.66,0 4,-0.06 a 162.1,162.1 0 0 0 48.48,-9 l 0.51,-0.19 a 136.56,136.56 0 0 0 74.7,-63 72.17,72.17 0 0 0 9,-34.88 v 0 -28.72 z"
     class="cls-5" />
  <path
     style="fill:#316dc9"
     id="path704"
     d="m 499.47,346.46 a 133.25,133.25 0 0 1 -94.65,-39.28 4.72,4.72 0 0 1 -1.34,-2.58 v -23.69 a 1.29,1.29 0 0 1 0.77,-1.2 1.19,1.19 0 0 1 1.29,0.28 134.91,134.91 0 0 0 13.84,12 131.68,131.68 0 0 0 80.08,27 c 1.33,0 2.66,0 4,-0.06 a 162,162 0 0 0 48.32,-8.94 l 0.52,-0.18 a 136.18,136.18 0 0 0 74.42,-62.76 70.14,70.14 0 0 0 4.64,-10.24 v 0 c 0.73,-2 1.38,-4.13 1.94,-6.29 l 0.22,-0.87 c 0.18,-0.72 0.35,-1.45 0.5,-2.18 0.08,-0.37 0.16,-0.74 0.23,-1.12 a 72.53,72.53 0 0 0 1.35,-16.15 0.48,0.48 0 0 1 0.29,-0.46 v 0 a 0.51,0.51 0 0 1 0.48,0 0.49,0.49 0 0 1 0.24,0.42 v 28.76 a 0.45,0.45 0 0 1 0,0.16 73,73 0 0 1 -9,35 137.12,137.12 0 0 1 -75,63.22 l -0.52,0.18 a 162.72,162.72 0 0 1 -48.62,9 q -2,-0.02 -4,-0.02 z m -94.79,-65.83 h -0.05 a 0.28,0.28 0 0 0 -0.15,0.27 v 23.69 a 3.83,3.83 0 0 0 1.06,1.88 132.21,132.21 0 0 0 93.92,39 c 1.33,0 2.66,0 4,-0.06 a 161.67,161.67 0 0 0 48.32,-8.94 l 0.52,-0.18 a 136.06,136.06 0 0 0 74.42,-62.75 72,72 0 0 0 8.91,-34.64 0.45,0.45 0 0 1 0,-0.16 v -14.49 c -0.13,0.77 -0.27,1.53 -0.42,2.3 -0.07,0.38 -0.15,0.75 -0.23,1.13 -0.16,0.74 -0.33,1.48 -0.51,2.21 l -0.22,0.88 c -0.57,2.18 -1.22,4.31 -2,6.34 0,0 0,0 0,0 a 71.61,71.61 0 0 1 -4.71,10.43 137.11,137.11 0 0 1 -75,63.21 l -0.52,0.18 a 163,163 0 0 1 -48.62,9 q -2,0.06 -4,0.06 a 132.67,132.67 0 0 1 -80.69,-27.15 135.94,135.94 0 0 1 -14,-12.13 0.2,0.2 0 0 0 -0.03,-0.08 z m 227.16,-43.7 z"
     class="cls-2" />
  <path
     style="fill:#e9f2ff"
     id="path706"
     d="m 598.78,172.9 -16.92,-14.65 v 0 L 568.21,146.43 A 151.87,151.87 0 0 0 541.9,128.12 c -1.92,1.21 -3.09,5 -3.09,6.34 v 18.49 0 a 151.25,151.25 0 0 1 29.41,20 l 29.85,25.76 a 52.56,52.56 0 0 1 16.48,26.72 53.07,53.07 0 0 0 -15.77,-52.53 z"
     class="cls-3" />
  <path
     style="fill:#316dc9"
     id="path708"
     d="m 614.5,225.93 v 0 a 0.5,0.5 0 0 1 -0.49,-0.37 51.82,51.82 0 0 0 -16.31,-26.47 l -29.8,-25.84 a 151.28,151.28 0 0 0 -29.31,-19.91 0.51,0.51 0 0 1 -0.26,-0.54 v -18.35 c 0,-1.36 1.17,-5.41 3.32,-6.76 a 0.49,0.49 0 0 1 0.51,0 152.32,152.32 0 0 1 26.4,18.36 l 13.65,11.82 0.1,0.12 16.76,14.54 v 0 a 53.87,53.87 0 0 1 15.87,53 0.5,0.5 0 0 1 -0.44,0.4 z m -75.17,-73.29 a 152.29,152.29 0 0 1 29.23,19.89 l 29.79,25.8 a 52.77,52.77 0 0 1 16.11,25.09 52.87,52.87 0 0 0 -16,-50.14 l -16.91,-14.65 a 0.52,0.52 0 0 1 -0.1,-0.11 L 567.91,146.8 a 151.32,151.32 0 0 0 -26,-18.1 c -1.61,1.25 -2.62,4.58 -2.62,5.75 z"
     class="cls-2" />
  <path
     style="fill:#d7e7ff"
     id="path710"
     d="m 611.12,157.1 -29.79,-25.8 a 172.76,172.76 0 0 0 -14.72,-11.4 c -4.52,-3.07 -7.69,-1.06 -8.37,-0.9 -0.68,0.16 -14.38,7.91 -16.31,9.11 v 0 a 151.87,151.87 0 0 1 26.31,18.31 l 29.83,25.83 a 53,53 0 0 1 11.64,65.39 116.61,116.61 0 0 1 -63.78,53.77 l -0.53,0.19 a 142.55,142.55 0 0 1 -42.49,7.86 c -1.13,0 -2.26,0.05 -3.39,0.05 v 0 A 113.21,113.21 0 0 1 423.3,269.95 v 0 a 1,1 0 0 0 -1.21,-0.07 c 0,0 -14.66,8.37 -17.62,10.29 0.29,-0.21 0.71,0.18 0.71,0.18 a 133.31,133.31 0 0 0 94.28,39.13 v 0 c 1.33,0 2.66,0 4,-0.06 a 162.42,162.42 0 0 0 48.48,-9 l 0.51,-0.18 a 136.6,136.6 0 0 0 74.7,-63 73.1,73.1 0 0 0 -16.03,-90.14 z"
     class="cls-8" />
  <path
     style="fill:#316dc9"
     id="path712"
     d="M 499.47,319.98 A 133.23,133.23 0 0 1 404.83,280.7 l -0.14,-0.08 a 0.49,0.49 0 0 1 -0.63,-0.17 0.5,0.5 0 0 1 0.12,-0.69 v 0 c 3,-2 17,-10 17.56,-10.31 a 1.55,1.55 0 0 1 1.69,0 l 0.12,0.08 a 112.76,112.76 0 0 0 75.88,29.43 q 1.7,0 3.39,-0.06 a 141.47,141.47 0 0 0 42.33,-7.82 l 0.54,-0.19 a 116.08,116.08 0 0 0 63.5,-53.54 52.5,52.5 0 0 0 -11.52,-64.77 l -29.8,-25.8 a 151.26,151.26 0 0 0 -26.22,-18.25 0.49,0.49 0 0 1 -0.26,-0.44 0.49,0.49 0 0 1 0.27,-0.44 c 1.39,-0.87 15.59,-9 16.44,-9.16 a 1.7,1.7 0 0 0 0.32,-0.12 c 1.18,-0.47 4.3,-1.71 8.44,1.1 a 171.18,171.18 0 0 1 14.76,11.44 l 29.79,25.8 a 73.6,73.6 0 0 1 16.16,90.8 137.06,137.06 0 0 1 -75,63.21 l -0.52,0.18 a 163,163 0 0 1 -48.62,9 q -1.96,0.08 -3.96,0.08 z m -93.88,-39.93 a 132.24,132.24 0 0 0 93.87,38.93 c 1.33,0 2.66,0 4,-0.06 a 162,162 0 0 0 48.32,-8.94 l 0.52,-0.18 a 136.08,136.08 0 0 0 74.42,-62.76 72.59,72.59 0 0 0 -15.93,-89.56 L 581,131.68 a 172.66,172.66 0 0 0 -14.67,-11.37 c -3.7,-2.51 -6.37,-1.44 -7.51,-1 l -0.47,0.17 c -0.78,0.26 -12.07,6.63 -15.43,8.61 a 152,152 0 0 1 25.64,17.94 l 29.79,25.8 a 53.49,53.49 0 0 1 11.74,66 117.06,117.06 0 0 1 -64,54 l -0.54,0.19 a 142.53,142.53 0 0 1 -42.63,7.88 113.57,113.57 0 0 1 -79.9,-29.56 l -0.08,-0.06 a 0.52,0.52 0 0 0 -0.61,0 c -0.19,0.1 -12.57,7.17 -16.74,9.77 z"
     class="cls-2" />
  <path
     style="fill:#3474f7"
     id="path714"
     d="m 118.64,266.92 v 31.12 c 0,2.11 2,3.82 4.43,3.82 2.43,0 4.44,-1.71 4.44,-3.82 v -31.12 z"
     class="cls-4" />
  <path
     style="fill:#316dc9"
     id="path716"
     d="m 123.07,302.36 c -2.72,0 -4.93,-1.94 -4.93,-4.32 v -31.12 a 0.5,0.5 0 0 1 0.5,-0.5 h 8.87 a 0.51,0.51 0 0 1 0.5,0.5 v 31.12 c 0,2.38 -2.22,4.32 -4.94,4.32 z m -3.93,-34.94 v 30.62 c 0,1.83 1.76,3.32 3.93,3.32 2.17,0 3.94,-1.49 3.94,-3.32 v -30.62 z"
     class="cls-2" />
  <ellipse
     style="fill:#a7c8fe"
     id="ellipse718"
     ry="3.8199999"
     rx="4.4299998"
     cy="266.92001"
     cx="123.07"
     class="cls-5" />
  <path
     style="fill:#316dc9"
     id="path720"
     d="m 123.07,271.25 c -2.72,0 -4.93,-1.94 -4.93,-4.32 0,-2.38 2.21,-4.31 4.93,-4.31 2.72,0 4.94,1.93 4.94,4.31 0,2.38 -2.22,4.32 -4.94,4.32 z m 0,-7.63 c -2.17,0 -3.93,1.48 -3.93,3.31 0,1.83 1.76,3.32 3.93,3.32 2.17,0 3.94,-1.49 3.94,-3.32 0,-1.83 -1.77,-3.32 -3.94,-3.32 z"
     class="cls-2" />
  <path
     style="fill:#e9f2ff"
     id="path722"
     d="m 123.07,214.44 a 1.81,1.81 0 0 0 -1.93,1.66 v 50.48 a 2,2 0 0 0 3.86,0 V 216.1 a 1.81,1.81 0 0 0 -1.93,-1.66 z"
     class="cls-3" />
  <path
     style="fill:#316dc9"
     id="path724"
     d="m 123.07,268.74 a 2.31,2.31 0 0 1 -2.43,-2.16 V 216.1 a 2.45,2.45 0 0 1 4.86,0 v 50.48 a 2.31,2.31 0 0 1 -2.43,2.16 z m 0,-53.8 a 1.32,1.32 0 0 0 -1.43,1.16 v 50.48 a 1.46,1.46 0 0 0 2.86,0 V 216.1 a 1.32,1.32 0 0 0 -1.43,-1.16 z"
     class="cls-2" />
  <ellipse
     style="fill:#3474f7"
     id="ellipse726"
     ry="3.8199999"
     rx="4.4299998"
     cy="216.10001"
     cx="123.07"
     class="cls-4" />
  <path
     style="fill:#316dc9"
     id="path728"
     d="m 123.07,220.42 c -2.72,0 -4.93,-1.94 -4.93,-4.32 0,-2.38 2.21,-4.32 4.93,-4.32 2.72,0 4.94,1.94 4.94,4.32 0,2.38 -2.22,4.32 -4.94,4.32 z m 0,-7.64 c -2.17,0 -3.93,1.49 -3.93,3.32 0,1.83 1.76,3.32 3.93,3.32 2.17,0 3.94,-1.49 3.94,-3.32 0,-1.83 -1.77,-3.32 -3.94,-3.32 z"
     class="cls-2" />
  <circle
     style="fill:#ffffff"
     id="circle730"
     r="7.96"
     cy="209.67999"
     cx="123.07"
     class="cls-6" />
  <path
     style="fill:#316dc9"
     id="path732"
     d="m 123.07,218.14 a 8.46,8.46 0 1 1 8.46,-8.46 8.47,8.47 0 0 1 -8.46,8.46 z m 0,-15.89 a 7.46,7.46 0 1 0 7.46,7.45 7.46,7.46 0 0 0 -7.46,-7.45 z"
     class="cls-2" />
  <path
     style="fill:#3474f7"
     id="path734"
     d="m 228.19,176.25 v 31.12 c 0,2.11 2,3.81 4.44,3.81 2.44,0 4.43,-1.7 4.43,-3.81 v -31.12 z"
     class="cls-4" />
  <path
     style="fill:#316dc9"
     id="path736"
     d="m 232.63,211.65 c -2.72,0 -4.94,-1.93 -4.94,-4.31 v -31.09 a 0.5,0.5 0 0 1 0.5,-0.5 h 8.88 a 0.5,0.5 0 0 1 0.5,0.5 v 31.12 c -0.01,2.35 -2.22,4.28 -4.94,4.28 z m -3.94,-34.93 v 30.62 c 0,1.83 1.77,3.31 3.94,3.31 2.17,0 3.93,-1.48 3.93,-3.31 v -30.62 z"
     class="cls-2" />
  <ellipse
     style="fill:#a7c8fe"
     id="ellipse738"
     ry="3.8199999"
     rx="4.4299998"
     cy="176.22"
     cx="232.63"
     class="cls-5" />
  <path
     style="fill:#316dc9"
     id="path740"
     d="m 232.63,180.54 c -2.72,0 -4.94,-1.94 -4.94,-4.32 0,-2.38 2.22,-4.32 4.94,-4.32 2.72,0 4.93,1.94 4.93,4.32 0,2.38 -2.21,4.32 -4.93,4.32 z m 0,-7.64 c -2.17,0 -3.94,1.49 -3.94,3.32 0,1.83 1.77,3.32 3.94,3.32 2.17,0 3.93,-1.49 3.93,-3.32 0,-1.83 -1.76,-3.32 -3.93,-3.32 z"
     class="cls-2" />
  <path
     style="fill:#e9f2ff"
     id="path742"
     d="m 232.63,123.74 a 1.81,1.81 0 0 0 -1.93,1.66 v 50.48 a 2,2 0 0 0 3.86,0 V 125.4 a 1.81,1.81 0 0 0 -1.93,-1.66 z"
     class="cls-3" />
  <path
     style="fill:#316dc9"
     id="path744"
     d="m 232.63,178.04 a 2.31,2.31 0 0 1 -2.43,-2.16 V 125.4 a 2.45,2.45 0 0 1 4.86,0 v 50.48 a 2.31,2.31 0 0 1 -2.43,2.16 z m 0,-53.8 a 1.32,1.32 0 0 0 -1.43,1.16 v 50.48 a 1.46,1.46 0 0 0 2.86,0 V 125.4 a 1.32,1.32 0 0 0 -1.43,-1.15 z"
     class="cls-2" />
  <ellipse
     style="fill:#3474f7"
     id="ellipse746"
     ry="3.8199999"
     rx="4.4299998"
     cy="125.39999"
     cx="232.63"
     class="cls-4" />
  <path
     style="fill:#316dc9"
     id="path748"
     d="m 232.63,129.71 c -2.72,0 -4.94,-1.93 -4.94,-4.31 0,-2.38 2.22,-4.32 4.94,-4.32 2.72,0 4.93,1.94 4.93,4.32 0,2.38 -2.21,4.31 -4.93,4.31 z m 0,-7.63 c -2.17,0 -3.94,1.49 -3.94,3.32 0,1.83 1.77,3.31 3.94,3.31 2.17,0 3.93,-1.48 3.93,-3.31 0,-1.83 -1.76,-3.32 -3.93,-3.32 z"
     class="cls-2" />
  <circle
     style="fill:#ffffff"
     id="circle750"
     r="7.96"
     cy="118.98001"
     cx="232.63"
     class="cls-6" />
  <path
     style="fill:#316dc9"
     id="path752"
     d="m 232.63,127.44 a 8.46,8.46 0 1 1 8.46,-8.46 8.46,8.46 0 0 1 -8.46,8.46 z m 0,-15.92 a 7.46,7.46 0 1 0 7.46,7.46 7.47,7.47 0 0 0 -7.46,-7.46 z"
     class="cls-2" />
  <path
     style="fill:#3474f7"
     id="path754"
     d="m 198.73,325.77 v 31.12 c 0,2.11 2,3.82 4.43,3.82 2.43,0 4.44,-1.71 4.44,-3.82 v -31.12 z"
     class="cls-4" />
  <path
     style="fill:#316dc9"
     id="path756"
     d="m 203.16,361.25 c -2.72,0 -4.93,-1.94 -4.93,-4.32 v -31.16 a 0.5,0.5 0 0 1 0.5,-0.5 h 8.87 a 0.51,0.51 0 0 1 0.5,0.5 v 31.12 c -0.03,2.36 -2.22,4.36 -4.94,4.36 z m -3.93,-35 v 30.62 c 0,1.83 1.76,3.32 3.93,3.32 2.17,0 3.94,-1.49 3.94,-3.32 v -30.62 z"
     class="cls-2" />
  <ellipse
     style="fill:#a7c8fe"
     id="ellipse758"
     ry="3.8199999"
     rx="4.4299998"
     cy="325.76999"
     cx="203.16"
     class="cls-5" />
  <path
     style="fill:#316dc9"
     id="path760"
     d="m 203.16,330.09 c -2.72,0 -4.93,-1.94 -4.93,-4.32 0,-2.38 2.21,-4.31 4.93,-4.31 2.72,0 4.94,1.93 4.94,4.31 0,2.38 -2.22,4.32 -4.94,4.32 z m 0,-7.63 c -2.17,0 -3.93,1.49 -3.93,3.31 0,1.82 1.76,3.32 3.93,3.32 2.17,0 3.94,-1.49 3.94,-3.32 0,-1.83 -1.77,-3.31 -3.94,-3.31 z"
     class="cls-2" />
  <path
     style="fill:#e9f2ff"
     id="path762"
     d="m 203.16,273.25 a 1.81,1.81 0 0 0 -1.93,1.66 v 50.48 a 2,2 0 0 0 3.86,0 v -50.44 a 1.81,1.81 0 0 0 -1.93,-1.7 z"
     class="cls-3" />
  <path
     style="fill:#316dc9"
     id="path764"
     d="m 203.16,327.59 a 2.31,2.31 0 0 1 -2.43,-2.16 v -50.48 a 2.45,2.45 0 0 1 4.86,0 v 50.48 a 2.31,2.31 0 0 1 -2.43,2.16 z m 0,-53.8 a 1.32,1.32 0 0 0 -1.43,1.16 v 50.48 a 1.46,1.46 0 0 0 2.86,0 v -50.48 a 1.32,1.32 0 0 0 -1.43,-1.16 z"
     class="cls-2" />
  <ellipse
     style="fill:#3474f7"
     id="ellipse766"
     ry="3.8199999"
     rx="4.4299998"
     cy="274.95001"
     cx="203.16"
     class="cls-4" />
  <path
     style="fill:#316dc9"
     id="path768"
     d="m 203.16,279.25 c -2.72,0 -4.93,-1.94 -4.93,-4.32 0,-2.38 2.21,-4.31 4.93,-4.31 2.72,0 4.94,1.93 4.94,4.31 0,2.38 -2.22,4.32 -4.94,4.32 z m 0,-7.63 c -2.17,0 -3.93,1.48 -3.93,3.31 0,1.83 1.76,3.32 3.93,3.32 2.17,0 3.94,-1.49 3.94,-3.32 0,-1.83 -1.77,-3.29 -3.94,-3.29 z"
     class="cls-2" />
  <circle
     style="fill:#ffffff"
     id="circle770"
     r="7.96"
     cy="268.54001"
     cx="203.16"
     class="cls-6" />
  <path
     style="fill:#316dc9"
     id="path772"
     d="m 203.16,276.99 a 8.46,8.46 0 1 1 8.46,-8.45 8.47,8.47 0 0 1 -8.46,8.45 z m 0,-15.91 a 7.46,7.46 0 1 0 7.46,7.46 7.47,7.47 0 0 0 -7.46,-7.46 z"
     class="cls-2" />
  <path
     style="fill:#3474f7"
     id="path774"
     d="m 319.38,237.6 v 31.12 c 0,2.11 2,3.81 4.43,3.81 2.43,0 4.44,-1.7 4.44,-3.81 V 237.6 Z"
     class="cls-4" />
  <path
     style="fill:#316dc9"
     id="path776"
     d="m 323.81,273.04 c -2.72,0 -4.93,-1.94 -4.93,-4.32 V 237.6 a 0.5,0.5 0 0 1 0.5,-0.5 h 8.86 a 0.5,0.5 0 0 1 0.5,0.5 v 31.12 c 0,2.38 -2.21,4.32 -4.93,4.32 z m -3.93,-34.94 v 30.62 c 0,1.83 1.76,3.32 3.93,3.32 2.17,0 3.93,-1.49 3.93,-3.32 V 238.1 Z"
     class="cls-2" />
  <ellipse
     style="fill:#a7c8fe"
     id="ellipse778"
     ry="3.8199999"
     rx="4.4299998"
     cy="237.60001"
     cx="323.81"
     class="cls-5" />
  <path
     style="fill:#316dc9"
     id="path780"
     d="m 323.81,241.92 c -2.72,0 -4.93,-1.94 -4.93,-4.32 0,-2.38 2.19,-4.35 4.93,-4.35 2.74,0 4.93,1.93 4.93,4.31 0,2.38 -2.21,4.36 -4.93,4.36 z m 0,-7.63 c -2.17,0 -3.93,1.48 -3.93,3.31 0,1.83 1.76,3.32 3.93,3.32 2.17,0 3.93,-1.49 3.93,-3.32 0,-1.83 -1.76,-3.35 -3.93,-3.35 z"
     class="cls-2" />
  <path
     style="fill:#e9f2ff"
     id="path782"
     d="m 323.81,185.12 a 1.81,1.81 0 0 0 -1.93,1.66 v 50.47 a 2,2 0 0 0 3.86,0 v -50.47 a 1.81,1.81 0 0 0 -1.93,-1.66 z"
     class="cls-3" />
  <path
     style="fill:#316dc9"
     id="path784"
     d="m 323.81,239.42 a 2.31,2.31 0 0 1 -2.43,-2.16 v -50.48 a 2.45,2.45 0 0 1 4.86,0 v 50.47 a 2.31,2.31 0 0 1 -2.43,2.17 z m 0,-53.8 a 1.32,1.32 0 0 0 -1.43,1.16 v 50.47 a 1.46,1.46 0 0 0 2.86,0 v -50.47 a 1.32,1.32 0 0 0 -1.43,-1.16 z"
     class="cls-2" />
  <ellipse
     style="fill:#3474f7"
     id="ellipse786"
     ry="3.8199999"
     rx="4.4299998"
     cy="186.78"
     cx="323.81"
     class="cls-4" />
  <path
     style="fill:#316dc9"
     id="path788"
     d="m 323.81,191.1 c -2.72,0 -4.93,-1.94 -4.93,-4.32 0,-2.38 2.21,-4.32 4.93,-4.32 2.72,0 4.93,1.94 4.93,4.32 0,2.38 -2.21,4.32 -4.93,4.32 z m 0,-7.64 c -2.17,0 -3.93,1.49 -3.93,3.32 0,1.83 1.76,3.32 3.93,3.32 2.17,0 3.93,-1.49 3.93,-3.32 0,-1.83 -1.76,-3.32 -3.93,-3.32 z"
     class="cls-2" />
  <circle
     style="fill:#ffffff"
     id="circle790"
     r="7.96"
     cy="180.35999"
     cx="323.81"
     class="cls-6" />
  <path
     style="fill:#316dc9"
     id="path792"
     d="m 323.81,188.82 a 8.46,8.46 0 1 1 8.46,-8.46 8.47,8.47 0 0 1 -8.46,8.46 z m 0,-15.92 a 7.46,7.46 0 1 0 7.46,7.46 7.47,7.47 0 0 0 -7.46,-7.46 z"
     class="cls-2" />
  <path
     style="fill:#3474f7"
     id="path794"
     d="m 657.6,211.68 v 31.11 c 0,2.11 2,3.82 4.43,3.82 2.43,0 4.44,-1.71 4.44,-3.82 v -31.11 z"
     class="cls-4" />
  <path
     style="fill:#316dc9"
     id="path796"
     d="m 662.07,247.11 c -2.72,0 -4.93,-1.94 -4.93,-4.32 v -31.11 a 0.5,0.5 0 0 1 0.5,-0.5 h 8.87 a 0.5,0.5 0 0 1 0.5,0.5 v 31.11 c -0.04,2.38 -2.26,4.32 -4.94,4.32 z m -4,-34.93 v 30.61 c 0,1.83 1.76,3.32 3.93,3.32 2.17,0 3.94,-1.49 3.94,-3.32 v -30.61 z"
     class="cls-2" />
  <ellipse
     style="fill:#a7c8fe"
     id="ellipse798"
     ry="3.8199999"
     rx="4.4299998"
     cy="211.67999"
     cx="662.03003"
     class="cls-5" />
  <path
     style="fill:#316dc9"
     id="path800"
     d="m 662.07,215.99 c -2.72,0 -4.93,-1.93 -4.93,-4.31 0,-2.38 2.21,-4.32 4.93,-4.32 2.72,0 4.94,1.94 4.94,4.32 0,2.38 -2.26,4.31 -4.94,4.31 z m 0,-7.63 c -2.17,0 -3.93,1.49 -3.93,3.32 0,1.83 1.76,3.31 3.93,3.31 2.17,0 3.94,-1.49 3.94,-3.31 0,-1.82 -1.81,-3.32 -3.94,-3.32 z"
     class="cls-2" />
  <path
     style="fill:#e9f2ff"
     id="path802"
     d="m 662.07,159.19 a 1.82,1.82 0 0 0 -2,1.66 v 50.48 a 2,2 0 0 0 3.86,0 v -50.48 a 1.81,1.81 0 0 0 -1.86,-1.66 z"
     class="cls-3" />
  <path
     style="fill:#316dc9"
     id="path804"
     d="m 662.07,213.49 a 2.31,2.31 0 0 1 -2.43,-2.16 v -50.48 a 2.45,2.45 0 0 1 4.86,0 v 50.48 a 2.31,2.31 0 0 1 -2.43,2.16 z m 0,-53.8 a 1.32,1.32 0 0 0 -1.43,1.16 v 50.48 a 1.46,1.46 0 0 0 2.86,0 v -50.48 a 1.32,1.32 0 0 0 -1.43,-1.16 z"
     class="cls-2" />
  <ellipse
     style="fill:#3474f7"
     id="ellipse806"
     ry="3.8199999"
     rx="4.4299998"
     cy="160.85001"
     cx="662.03003"
     class="cls-4" />
  <path
     style="fill:#316dc9"
     id="path808"
     d="m 662.07,165.17 c -2.72,0 -4.93,-1.94 -4.93,-4.32 0,-2.38 2.21,-4.31 4.93,-4.31 2.72,0 4.94,1.93 4.94,4.31 0,2.38 -2.26,4.32 -4.94,4.32 z m 0,-7.63 c -2.17,0 -3.93,1.49 -3.93,3.31 0,1.82 1.76,3.32 3.93,3.32 2.17,0 3.94,-1.49 3.94,-3.32 0,-1.83 -1.81,-3.31 -3.94,-3.31 z"
     class="cls-2" />
  <circle
     style="fill:#ffffff"
     id="circle810"
     r="7.96"
     cy="154.44"
     cx="662.03003"
     class="cls-6" />
  <path
     style="fill:#316dc9"
     id="path812"
     d="m 662.07,162.9 a 8.46,8.46 0 1 1 8.46,-8.46 8.47,8.47 0 0 1 -8.46,8.46 z m 0,-15.92 a 7.46,7.46 0 1 0 7.46,7.46 7.46,7.46 0 0 0 -7.46,-7.46 z"
     class="cls-2" />
  <ellipse
     id="ellipse814"
     ry="13.42"
     rx="16.549999"
     cy="369.52002"
     cx="224.14999"
     class="cls-16" />
  <circle
     style="fill:#ffffff"
     id="circle816"
     r="19.629999"
     cy="362.09"
     cx="215.61002"
     class="cls-6" />
  <path
     style="fill:#316dc9"
     id="path818"
     d="m 215.61,382.25 a 20.13,20.13 0 1 1 20.13,-20.13 20.15,20.15 0 0 1 -20.13,20.13 z m 0,-39.26 a 19.13,19.13 0 1 0 19.13,19.13 19.15,19.15 0 0 0 -19.13,-19.16 z"
     class="cls-2" />
  <circle
     style="fill:#e9f2ff"
     id="circle820"
     r="4.4699998"
     cy="350.10999"
     cx="211.13"
     class="cls-3" />
  <path
     style="fill:#a7c8fe"
     id="path822"
     d="m 215.61,376.03 c 10.31,0 18.74,-6.84 19.55,-15.53 0,0.53 0.08,1.05 0.08,1.59 a 19.63,19.63 0 0 1 -39.26,0 c 0,-0.54 0,-1.06 0.08,-1.59 0.81,8.69 9.24,15.53 19.55,15.53 z"
     class="cls-5" />
  <path
     style="fill:#316dc9"
     id="path824"
     d="m 215.61,382.25 a 20.15,20.15 0 0 1 -20.13,-20.13 c 0,-0.55 0,-1.09 0.08,-1.63 a 0.5,0.5 0 0 1 0.5,-0.46 v 0 a 0.51,0.51 0 0 1 0.5,0.46 c 0.78,8.45 9.15,15.07 19.05,15.07 9.9,0 18.27,-6.62 19,-15.07 a 0.51,0.51 0 0 1 0.5,-0.46 v 0 a 0.5,0.5 0 0 1 0.5,0.46 c 0,0.54 0.08,1.08 0.08,1.63 a 20.15,20.15 0 0 1 -20.08,20.13 z m -18.9,-17.13 a 19.14,19.14 0 0 0 37.8,0 c -2.85,6.68 -10.33,11.44 -18.9,11.44 -8.57,0 -16.05,-4.79 -18.9,-11.47 z"
     class="cls-2" />
  <ellipse
     id="ellipse826"
     ry="13.42"
     rx="16.549999"
     cy="224.47"
     cx="711.35999"
     class="cls-17" />
  <circle
     style="fill:#ffffff"
     id="circle828"
     r="19.629999"
     cy="217.03"
     cx="702.82001"
     class="cls-6" />
  <path
     style="fill:#316dc9"
     id="path830"
     d="m 702.82,237.16 a 20.13,20.13 0 1 1 20.14,-20.13 20.15,20.15 0 0 1 -20.14,20.13 z m 0,-39.26 a 19.13,19.13 0 1 0 19.14,19.13 19.16,19.16 0 0 0 -19.14,-19.13 z"
     class="cls-2" />
  <circle
     style="fill:#e9f2ff"
     id="circle832"
     r="4.4699998"
     cy="205.06"
     cx="698.35004"
     class="cls-3" />
  <path
     style="fill:#a7c8fe"
     id="path834"
     d="m 702.82,230.98 c 10.31,0 18.75,-6.84 19.56,-15.53 0,0.52 0.08,1.05 0.08,1.58 a 19.64,19.64 0 0 1 -39.27,0 c 0,-0.53 0,-1.06 0.08,-1.58 0.8,8.69 9.25,15.53 19.55,15.53 z"
     class="cls-5" />
  <path
     style="fill:#316dc9"
     id="path836"
     d="m 702.82,237.16 a 20.15,20.15 0 0 1 -20.13,-20.13 c 0,-0.55 0,-1.09 0.09,-1.62 a 0.49,0.49 0 0 1 0.49,-0.46 v 0 a 0.49,0.49 0 0 1 0.5,0.45 c 0.79,8.45 9.16,15.08 19,15.08 9.84,0 18.27,-6.63 19.06,-15.08 a 0.49,0.49 0 0 1 0.5,-0.45 v 0 a 0.49,0.49 0 0 1 0.49,0.46 c 0.05,0.53 0.09,1.07 0.09,1.62 a 20.15,20.15 0 0 1 -20.09,20.13 z m -18.89,-17.13 a 19.13,19.13 0 0 0 37.79,0 c -2.84,6.69 -10.32,11.45 -18.9,11.45 -8.58,0 -16.05,-4.76 -18.89,-11.45 z"
     class="cls-2" />
  <ellipse
     id="ellipse838"
     ry="13.15"
     rx="16.219999"
     cy="249.89999"
     cx="364.14001"
     class="cls-18" />
  <path
     style="fill:#a7c8fe"
     id="path840"
     d="m 356.16,227.25 a 1.87,1.87 0 0 1 2,1.71 v 29.37 a 2,2 0 0 1 -4,0 v -29.4 a 1.87,1.87 0 0 1 2,-1.68 z"
     class="cls-5" />
  <path
     style="fill:#316dc9"
     id="path842"
     d="m 356.16,260.51 a 2.37,2.37 0 0 1 -2.49,-2.21 v -29.37 a 2.51,2.51 0 0 1 5,0 v 29.37 a 2.37,2.37 0 0 1 -2.51,2.21 z m 0,-32.79 a 1.37,1.37 0 0 0 -1.49,1.21 v 29.37 a 1.52,1.52 0 0 0 3,0 v -29.37 a 1.37,1.37 0 0 0 -1.51,-1.21 z"
     class="cls-2" />
  <path
     style="fill:#ffffff"
     id="path844"
     d="m 355.58,175.14 a 4.23,4.23 0 0 1 1.16,0 c 13.77,0.95 19.32,35.28 19.32,43.64 0,9.46 -8.91,17.13 -19.9,17.13 -10.99,0 -19.9,-7.67 -19.9,-17.13 0,-8.36 5.55,-42.69 19.32,-43.64 z"
     class="cls-6" />
  <path
     style="fill:#316dc9"
     id="path846"
     d="m 356.16,236.41 c -11.25,0 -20.4,-7.91 -20.4,-17.63 0,-7.54 5.15,-43.09 19.77,-44.13 a 4.57,4.57 0 0 1 1.28,0 c 14.59,1 19.75,36.58 19.75,44.13 0,9.72 -9.15,17.63 -20.4,17.63 z m 0,-60.81 a 2.78,2.78 0 0 0 -0.51,0 v 0 c -13,0.9 -18.85,33.4 -18.85,43.14 0,9.17 8.7,16.63 19.4,16.63 10.7,0 19.4,-7.46 19.4,-16.63 0,-9.74 -5.88,-42.24 -18.85,-43.14 a 3.65,3.65 0 0 0 -0.59,0 z m -0.58,-0.46 z"
     class="cls-2" />
  <path
     style="fill:#a7c8fe"
     id="path848"
     d="m 343.21,226.88 c 10.86,1.64 20.81,-4.62 22.22,-14 0.86,-5.66 0.95,-23.76 -3.41,-35.57 9.92,7.84 14,34.24 14,41.44 0,9.46 -8.91,17.13 -19.9,17.13 -8.28,0 -15.37,-4.36 -18.37,-10.55 a 22.72,22.72 0 0 0 5.46,1.55 z"
     class="cls-5" />
  <path
     style="fill:#316dc9"
     id="path850"
     d="m 356.16,236.41 c -8.25,0 -15.64,-4.25 -18.82,-10.83 a 0.49,0.49 0 0 1 0.09,-0.56 0.49,0.49 0 0 1 0.55,-0.12 23.13,23.13 0 0 0 5.3,1.49 v 0 c 10.58,1.59 20.29,-4.49 21.66,-13.55 0.79,-5.29 1,-23.55 -3.39,-35.32 a 0.49,0.49 0 0 1 0.18,-0.58 0.5,0.5 0 0 1 0.6,0 c 10.51,8.3 14.23,35.6 14.23,41.83 0,9.73 -9.15,17.64 -20.4,17.64 z m -17.29,-10.1 c 3.29,5.57 9.92,9.1 17.29,9.1 10.69,0 19.4,-7.46 19.4,-16.63 0,-6.89 -3.76,-30.83 -12.44,-39.76 3.82,12 3.6,28.7 2.81,34 -1.45,9.61 -11.67,16.06 -22.8,14.39 v 0 a 23.52,23.52 0 0 1 -4.26,-1.1 z"
     class="cls-2" />
  <ellipse
     id="ellipse852"
     ry="13.15"
     rx="16.219999"
     cy="303.17001"
     cx="302.72003"
     class="cls-19" />
  <path
     style="fill:#a7c8fe"
     id="path854"
     d="m 294.74,280.49 a 1.87,1.87 0 0 1 2,1.71 v 29.38 a 2,2 0 0 1 -4,0 v -29.33 a 1.86,1.86 0 0 1 2,-1.76 z"
     class="cls-5" />
  <path
     style="fill:#316dc9"
     id="path856"
     d="m 294.74,313.79 a 2.36,2.36 0 0 1 -2.48,-2.21 v -29.33 a 2.5,2.5 0 0 1 5,0 v 29.38 a 2.37,2.37 0 0 1 -2.52,2.16 z m 0,-32.8 a 1.36,1.36 0 0 0 -1.48,1.21 v 29.38 a 1.52,1.52 0 0 0 3,0 v -29.33 a 1.37,1.37 0 0 0 -1.52,-1.26 z"
     class="cls-2" />
  <path
     style="fill:#ffffff"
     id="path858"
     d="m 294.16,228.41 a 4.23,4.23 0 0 1 1.16,0 c 13.77,1 19.32,35.28 19.32,43.64 0,9.46 -8.91,17.13 -19.9,17.13 -10.99,0 -19.9,-7.67 -19.9,-17.13 0,-8.36 5.55,-42.68 19.32,-43.64 z"
     class="cls-6" />
  <path
     style="fill:#316dc9"
     id="path860"
     d="m 294.74,289.68 c -11.25,0 -20.4,-7.91 -20.4,-17.63 0,-7.54 5.15,-43.09 19.77,-44.13 a 4.57,4.57 0 0 1 1.28,0 c 14.59,1 19.75,36.58 19.75,44.13 0,9.72 -9.15,17.63 -20.4,17.63 z m 0,-60.81 a 4.21,4.21 0 0 0 -0.51,0 v 0 c -13,0.9 -18.85,33.4 -18.85,43.14 0,9.17 8.71,16.63 19.4,16.63 10.69,0 19.4,-7.46 19.4,-16.63 0,-9.74 -5.88,-42.24 -18.85,-43.14 a 5.48,5.48 0 0 0 -0.59,0 z m -0.58,-0.45 z"
     class="cls-2" />
  <path
     style="fill:#a7c8fe"
     id="path862"
     d="m 281.79,280.15 c 10.86,1.64 20.81,-4.61 22.22,-14 0.86,-5.67 0.95,-23.77 -3.41,-35.57 9.92,7.83 14,34.24 14,41.43 0,9.46 -8.91,17.13 -19.9,17.13 -8.28,0 -15.37,-4.36 -18.37,-10.55 a 22.72,22.72 0 0 0 5.46,1.56 z"
     class="cls-5" />
  <path
     style="fill:#316dc9"
     id="path864"
     d="m 294.74,289.68 c -8.25,0 -15.64,-4.25 -18.82,-10.83 a 0.49,0.49 0 0 1 0.09,-0.56 0.49,0.49 0 0 1 0.55,-0.12 22.17,22.17 0 0 0 5.3,1.49 c 10.58,1.59 20.29,-4.49 21.66,-13.55 0.8,-5.28 1,-23.55 -3.39,-35.32 a 0.5,0.5 0 0 1 0.18,-0.58 0.51,0.51 0 0 1 0.6,0 c 10.51,8.31 14.23,35.61 14.23,41.83 0,9.73 -9.15,17.64 -20.4,17.64 z m -17.29,-10.1 c 3.29,5.57 9.93,9.1 17.29,9.1 10.7,0 19.4,-7.46 19.4,-16.63 0,-6.89 -3.76,-30.83 -12.44,-39.76 3.82,12 3.6,28.71 2.81,34 -1.45,9.61 -11.67,16.07 -22.8,14.39 v 0 a 23.52,23.52 0 0 1 -4.26,-1.1 z"
     class="cls-2" />
  <ellipse
     id="ellipse866"
     ry="13.15"
     rx="16.219999"
     cy="322.81"
     cx="272.35999"
     class="cls-20" />
  <path
     style="fill:#a7c8fe"
     id="path868"
     d="m 264.38,300.13 a 1.87,1.87 0 0 1 2,1.71 v 29.41 a 2,2 0 0 1 -4,0 v -29.41 a 1.86,1.86 0 0 1 2,-1.71 z"
     class="cls-5" />
  <path
     style="fill:#316dc9"
     id="path870"
     d="m 264.38,333.42 a 2.36,2.36 0 0 1 -2.48,-2.21 v -29.37 a 2.5,2.5 0 0 1 5,0 v 29.41 a 2.37,2.37 0 0 1 -2.52,2.17 z m 0,-32.79 a 1.36,1.36 0 0 0 -1.48,1.21 v 29.41 a 1.52,1.52 0 0 0 3,0 v -29.41 a 1.37,1.37 0 0 0 -1.52,-1.21 z"
     class="cls-2" />
  <path
     style="fill:#ffffff"
     id="path872"
     d="m 263.8,248.05 a 4.23,4.23 0 0 1 1.16,0 c 13.77,0.95 19.32,35.28 19.32,43.64 0,9.46 -8.91,17.13 -19.9,17.13 -10.99,0 -19.9,-7.67 -19.9,-17.13 0,-8.36 5.59,-42.69 19.32,-43.64 z"
     class="cls-6" />
  <path
     style="fill:#316dc9"
     id="path874"
     d="m 264.38,309.32 c -11.25,0 -20.4,-7.91 -20.4,-17.63 0,-7.54 5.15,-43.09 19.77,-44.13 a 4.57,4.57 0 0 1 1.28,0 c 14.59,1 19.75,36.58 19.75,44.13 0,9.72 -9.15,17.63 -20.4,17.63 z m 0,-60.81 a 2.92,2.92 0 0 0 -0.51,0 v 0 c -13,0.9 -18.86,33.4 -18.86,43.14 0,9.17 8.71,16.63 19.4,16.63 10.69,0 19.4,-7.46 19.4,-16.63 0,-9.74 -5.88,-42.24 -18.85,-43.14 a 3.56,3.56 0 0 0 -0.58,0 z m -0.58,-0.46 z"
     class="cls-2" />
  <path
     style="fill:#a7c8fe"
     id="path876"
     d="m 251.43,299.79 c 10.86,1.64 20.82,-4.62 22.22,-14 0.86,-5.66 0.95,-23.76 -3.41,-35.57 9.92,7.84 14,34.24 14,41.44 0,9.46 -8.91,17.13 -19.9,17.13 -8.28,0 -15.37,-4.36 -18.37,-10.55 a 22.72,22.72 0 0 0 5.46,1.55 z"
     class="cls-5" />
  <path
     style="fill:#316dc9"
     id="path878"
     d="m 264.38,309.32 c -8.25,0 -15.64,-4.25 -18.82,-10.83 a 0.5,0.5 0 0 1 0.09,-0.56 0.49,0.49 0 0 1 0.55,-0.12 23.13,23.13 0 0 0 5.3,1.49 21,21 0 0 0 14.32,-2.8 15.39,15.39 0 0 0 7.34,-10.75 c 0.8,-5.29 1,-23.55 -3.39,-35.32 a 0.5,0.5 0 0 1 0.18,-0.58 0.49,0.49 0 0 1 0.6,0 c 10.51,8.3 14.23,35.6 14.23,41.83 0,9.73 -9.15,17.64 -20.4,17.64 z m -17.31,-10.07 c 3.29,5.57 9.93,9.1 17.29,9.1 10.7,0 19.4,-7.46 19.4,-16.63 0,-6.89 -3.76,-30.83 -12.44,-39.76 3.82,12 3.6,28.7 2.81,34 a 16.4,16.4 0 0 1 -7.8,11.45 22,22 0 0 1 -15,2.94 v 0 a 23.52,23.52 0 0 1 -4.26,-1.1 z"
     class="cls-2" />
</svg>
