<?xml version="1.0" encoding="UTF-8" standalone="no"?>
<svg
   xmlns:dc="http://purl.org/dc/elements/1.1/"
   xmlns:cc="http://creativecommons.org/ns#"
   xmlns:rdf="http://www.w3.org/1999/02/22-rdf-syntax-ns#"
   xmlns:svg="http://www.w3.org/2000/svg"
   xmlns="http://www.w3.org/2000/svg"
   height="578.8772"
   width="842.6167"
   version="1.1"
   viewBox="0 0 842.6167 578.8772"
   data-name="Слой 1"
   id="Слой_1">
  <metadata
     id="metadata564">
    <rdf:RDF>
      <cc:Work
         rdf:about="">
        <dc:format>image/svg+xml</dc:format>
        <dc:type
           rdf:resource="http://purl.org/dc/dcmitype/StillImage" />
        <dc:title>ТЦ_2</dc:title>
      </cc:Work>
    </rdf:RDF>
  </metadata>
  <defs
     id="defs133">
    <style
       id="style2">.cls-1{fill:none;}.cls-2{fill:#316dc9;}.cls-3{fill:#e9f2ff;}.cls-4{fill:#d7e7ff;}.cls-5{fill:#a7c8fe;}.cls-6{fill:#538ff9;}.cls-7{fill:#fff;}.cls-8{fill:url(#Новый_образец_узора_2);}.cls-9{fill:#c0daff;}.cls-10{fill:url(#Новый_образец_узора_2-3);}.cls-11{fill:url(#Новый_образец_узора_2-9);}.cls-12{fill:#3474f7;}.cls-13{isolation:isolate;}</style>
    <pattern
       viewBox="0 0 9 9"
       patternUnits="userSpaceOnUse"
       height="9"
       width="9"
       data-name="Новый образец узора 2"
       id="Новый_образец_узора_2">
      <rect
         id="rect4"
         height="9"
         width="9"
         class="cls-1" />
      <circle
         id="circle6"
         r="0.58"
         cy="1.15"
         cx="1.15"
         class="cls-2" />
      <circle
         id="circle8"
         r="0.58"
         cy="1.15"
         cx="3.38"
         class="cls-2" />
      <circle
         id="circle10"
         r="0.58"
         cy="1.15"
         cx="5.62"
         class="cls-2" />
      <circle
         id="circle12"
         r="0.58"
         cy="1.15"
         cx="7.85"
         class="cls-2" />
      <circle
         id="circle14"
         r="0.58"
         cy="1.15"
         cx="1.15"
         class="cls-2" />
      <circle
         id="circle16"
         r="0.58"
         cy="3.38"
         cx="1.15"
         class="cls-2" />
      <circle
         id="circle18"
         r="0.58"
         cy="5.62"
         cx="1.15"
         class="cls-2" />
      <circle
         id="circle20"
         r="0.58"
         cy="7.85"
         cx="1.15"
         class="cls-2" />
      <circle
         id="circle22"
         r="0.58"
         cy="1.15"
         cx="3.38"
         class="cls-2" />
      <circle
         id="circle24"
         r="0.58"
         cy="3.38"
         cx="3.38"
         class="cls-2" />
      <circle
         id="circle26"
         r="0.58"
         cy="5.62"
         cx="3.38"
         class="cls-2" />
      <circle
         id="circle28"
         r="0.58"
         cy="7.85"
         cx="3.38"
         class="cls-2" />
      <circle
         id="circle30"
         r="0.58"
         cy="1.15"
         cx="5.62"
         class="cls-2" />
      <circle
         id="circle32"
         r="0.58"
         cy="3.38"
         cx="5.62"
         class="cls-2" />
      <circle
         id="circle34"
         r="0.58"
         cy="5.62"
         cx="5.62"
         class="cls-2" />
      <circle
         id="circle36"
         r="0.58"
         cy="7.85"
         cx="5.62"
         class="cls-2" />
      <circle
         id="circle38"
         r="0.58"
         cy="1.15"
         cx="7.85"
         class="cls-2" />
      <circle
         id="circle40"
         r="0.58"
         cy="3.38"
         cx="7.85"
         class="cls-2" />
      <circle
         id="circle42"
         r="0.58"
         cy="5.62"
         cx="7.85"
         class="cls-2" />
      <circle
         id="circle44"
         r="0.58"
         cy="7.85"
         cx="7.85"
         class="cls-2" />
    </pattern>
    <pattern
       viewBox="0 0 9 9"
       patternUnits="userSpaceOnUse"
       patternTransform="matrix(-1.6, 0, 0, 1.6, -25.58, -68.85)"
       height="9"
       width="9"
       data-name="Новый образец узора 2"
       id="Новый_образец_узора_2-3">
      <rect
         id="rect47"
         height="9"
         width="9"
         class="cls-1" />
      <circle
         id="circle49"
         r="0.58"
         cy="1.15"
         cx="1.15"
         class="cls-2" />
      <circle
         id="circle51"
         r="0.58"
         cy="1.15"
         cx="3.38"
         class="cls-2" />
      <circle
         id="circle53"
         r="0.58"
         cy="1.15"
         cx="5.62"
         class="cls-2" />
      <circle
         id="circle55"
         r="0.58"
         cy="1.15"
         cx="7.85"
         class="cls-2" />
      <circle
         id="circle57"
         r="0.58"
         cy="1.15"
         cx="1.15"
         class="cls-2" />
      <circle
         id="circle59"
         r="0.58"
         cy="3.38"
         cx="1.15"
         class="cls-2" />
      <circle
         id="circle61"
         r="0.58"
         cy="5.62"
         cx="1.15"
         class="cls-2" />
      <circle
         id="circle63"
         r="0.58"
         cy="7.85"
         cx="1.15"
         class="cls-2" />
      <circle
         id="circle65"
         r="0.58"
         cy="1.15"
         cx="3.38"
         class="cls-2" />
      <circle
         id="circle67"
         r="0.58"
         cy="3.38"
         cx="3.38"
         class="cls-2" />
      <circle
         id="circle69"
         r="0.58"
         cy="5.62"
         cx="3.38"
         class="cls-2" />
      <circle
         id="circle71"
         r="0.58"
         cy="7.85"
         cx="3.38"
         class="cls-2" />
      <circle
         id="circle73"
         r="0.58"
         cy="1.15"
         cx="5.62"
         class="cls-2" />
      <circle
         id="circle75"
         r="0.58"
         cy="3.38"
         cx="5.62"
         class="cls-2" />
      <circle
         id="circle77"
         r="0.58"
         cy="5.62"
         cx="5.62"
         class="cls-2" />
      <circle
         id="circle79"
         r="0.58"
         cy="7.85"
         cx="5.62"
         class="cls-2" />
      <circle
         id="circle81"
         r="0.58"
         cy="1.15"
         cx="7.85"
         class="cls-2" />
      <circle
         id="circle83"
         r="0.58"
         cy="3.38"
         cx="7.85"
         class="cls-2" />
      <circle
         id="circle85"
         r="0.58"
         cy="5.62"
         cx="7.85"
         class="cls-2" />
      <circle
         id="circle87"
         r="0.58"
         cy="7.85"
         cx="7.85"
         class="cls-2" />
    </pattern>
    <pattern
       viewBox="0 0 9 9"
       patternUnits="userSpaceOnUse"
       patternTransform="matrix(-1.64, 0, 0, 1.64, 21.27, -8.26)"
       height="9"
       width="9"
       data-name="Новый образец узора 2"
       id="Новый_образец_узора_2-9">
      <rect
         id="rect90"
         height="9"
         width="9"
         class="cls-1" />
      <circle
         id="circle92"
         r="0.58"
         cy="1.15"
         cx="1.15"
         class="cls-2" />
      <circle
         id="circle94"
         r="0.58"
         cy="1.15"
         cx="3.38"
         class="cls-2" />
      <circle
         id="circle96"
         r="0.58"
         cy="1.15"
         cx="5.62"
         class="cls-2" />
      <circle
         id="circle98"
         r="0.58"
         cy="1.15"
         cx="7.85"
         class="cls-2" />
      <circle
         id="circle100"
         r="0.58"
         cy="1.15"
         cx="1.15"
         class="cls-2" />
      <circle
         id="circle102"
         r="0.58"
         cy="3.38"
         cx="1.15"
         class="cls-2" />
      <circle
         id="circle104"
         r="0.58"
         cy="5.62"
         cx="1.15"
         class="cls-2" />
      <circle
         id="circle106"
         r="0.58"
         cy="7.85"
         cx="1.15"
         class="cls-2" />
      <circle
         id="circle108"
         r="0.58"
         cy="1.15"
         cx="3.38"
         class="cls-2" />
      <circle
         id="circle110"
         r="0.58"
         cy="3.38"
         cx="3.38"
         class="cls-2" />
      <circle
         id="circle112"
         r="0.58"
         cy="5.62"
         cx="3.38"
         class="cls-2" />
      <circle
         id="circle114"
         r="0.58"
         cy="7.85"
         cx="3.38"
         class="cls-2" />
      <circle
         id="circle116"
         r="0.58"
         cy="1.15"
         cx="5.62"
         class="cls-2" />
      <circle
         id="circle118"
         r="0.58"
         cy="3.38"
         cx="5.62"
         class="cls-2" />
      <circle
         id="circle120"
         r="0.58"
         cy="5.62"
         cx="5.62"
         class="cls-2" />
      <circle
         id="circle122"
         r="0.58"
         cy="7.85"
         cx="5.62"
         class="cls-2" />
      <circle
         id="circle124"
         r="0.58"
         cy="1.15"
         cx="7.85"
         class="cls-2" />
      <circle
         id="circle126"
         r="0.58"
         cy="3.38"
         cx="7.85"
         class="cls-2" />
      <circle
         id="circle128"
         r="0.58"
         cy="5.62"
         cx="7.85"
         class="cls-2" />
      <circle
         id="circle130"
         r="0.58"
         cy="7.85"
         cx="7.85"
         class="cls-2" />
    </pattern>
  </defs>
  <title
     id="title135">ТЦ_2</title>
  <path
     style="fill:#e9f2ff"
     id="path137"
     d="m 341.21403,569.33699 493,-289.84 a 16.79,16.79 0 0 0 0,-29.09 l -261.52,-151.000003 a 71.39,71.39 0 0 0 -71.29,0 L 8.4040344,389.25699 a 16.78,16.78 0 0 0 0,29.08 l 261.5199956,151 a 71.36,71.36 0 0 0 71.29,0 z"
     class="cls-3" />
  <path
     style="fill:#d7e7ff"
     id="path139"
     d="m 223.44403,271.76699 c -1.35,3.13 -1.54,7 -0.36,11.38 4.34,16.18 25.45,34 47.17,39.84 18.91,5.06 32,-0.66 32.24,-12.9 a 21.34,21.34 0 0 0 -0.78,-5.87 c -0.07,-0.28 -0.17,-0.57 -0.25,-0.85 l -12.15,-79.27 -63.44,37.3 z"
     class="cls-4" />
  <path
     style="fill:#d7e7ff"
     id="path141"
     d="m 396.69403,255.70699 a 21,21 0 0 0 -0.78,-5.87 c -0.07,-0.28 -0.16,-0.56 -0.25,-0.85 l -12.29,-80.18 -63,37.05 -2.71,11.53 c -1.34,3.13 -1.54,7 -0.36,11.38 4.34,16.19 25.46,34 47.17,39.84 18.89,5.07 32.01,-0.65 32.22,-12.9 z"
     class="cls-4" />
  <path
     style="fill:#d7e7ff"
     id="path143"
     d="m 176.05403,377.35699 c 18.9,5.07 32,-0.65 32.24,-12.9 a 21.32,21.32 0 0 0 -0.78,-5.86 c -0.07,-0.29 -0.17,-0.57 -0.25,-0.85 l -12,-78.35 -63.85,37.54 -2.16,9.2 c -1.35,3.13 -1.55,7 -0.36,11.39 4.33,16.18 25.44,34.02 47.16,39.83 z"
     class="cls-4" />
  <path
     style="fill:#d7e7ff"
     id="path145"
     d="m 411.84403,163.00699 c -1.34,3.13 -1.54,7 -0.36,11.39 4.34,16.18 25.46,34 47.17,39.83 18.91,5.07 32,-0.65 32.24,-12.9 a 21.29,21.29 0 0 0 -0.78,-5.83 c -0.08,-0.29 -0.17,-0.57 -0.26,-0.85 l -12.42,-81.15 -62.61,36.81 z"
     class="cls-4" />
  <path
     style="fill:#e9f2ff"
     id="path147"
     d="m 353.97403,62.496987 -33.62,143.360003 63,-37.05 -17.34,-113.250003 z m 106.24,-61.3099997 -12,7 -33.39,142.1300027 62.61,-36.82 z m -200.44,115.7000027 -33.9,144.51 63.44,-37.3 -17.5,-114.16 z m -94.2,54.38 -34.17,145.67 63.85,-37.54 -17.64,-115.08 z"
     class="cls-3" />
  <polygon
     transform="translate(-246.88597,-74.503013)"
     style="fill:#e9f2ff"
     id="polygon149"
     points="737.63,265.78 377.63,473.63 567.21,583.08 927.21,375.23 "
     class="cls-3" />
  <path
     style="fill:#316dc9"
     id="path151"
     d="m 320.32403,509.07699 a 0.47,0.47 0 0 1 -0.25,-0.07 l -189.58,-109.45 a 0.5,0.5 0 0 1 0,-0.87 l 360,-207.84 a 0.5,0.5 0 0 1 0.5,0 l 189.58,109.45 a 0.48,0.48 0 0 1 0.25,0.43 0.5,0.5 0 0 1 -0.25,0.44 l -360,207.84 a 0.45,0.45 0 0 1 -0.25,0.07 z m -188.58,-110 188.58,108.92 359,-207.27 -188.58,-108.87 z"
     class="cls-2" />
  <polygon
     transform="translate(-246.88597,-74.503013)"
     style="fill:#a7c8fe"
     id="polygon153"
     points="776.77,288.38 416.77,496.22 528.07,560.48 888.07,352.64 "
     class="cls-5" />
  <path
     style="fill:#316dc9"
     id="path155"
     d="m 281.18403,486.49699 a 0.47,0.47 0 0 1 -0.25,-0.07 l -111.3,-64.26 a 0.49,0.49 0 0 1 -0.25,-0.43 0.5,0.5 0 0 1 0.25,-0.43 l 360,-207.85 a 0.5,0.5 0 0 1 0.5,0 l 111.3,64.26 a 0.5,0.5 0 0 1 0.25,0.44 0.48,0.48 0 0 1 -0.25,0.43 l -360,207.84 a 0.43,0.43 0 0 1 -0.25,0.07 z m -110.3,-64.76 110.3,63.68 359,-207.26 -110.3,-63.66 z"
     class="cls-2" />
  <polygon
     transform="translate(-246.88597,-74.503013)"
     style="fill:#538ff9"
     id="polygon157"
     points="712.4,325.54 481.14,459.06 592.44,523.32 823.71,389.8 "
     class="cls-6" />
  <path
     style="fill:#316dc9"
     id="path159"
     d="m 345.55403,449.31699 a 0.45,0.45 0 0 1 -0.25,-0.07 l -111.3,-64.26 a 0.49,0.49 0 0 1 0,-0.86 l 231.27,-133.53 a 0.55,0.55 0 0 1 0.5,0 l 111.34,64.27 a 0.49,0.49 0 0 1 0.25,0.43 0.5,0.5 0 0 1 -0.25,0.43 l -231.31,133.52 a 0.45,0.45 0 0 1 -0.25,0.07 z m -110.3,-64.76 110.3,63.68 230.27,-132.94 -110.3,-63.69 z"
     class="cls-2" />
  <polygon
     transform="translate(-246.88597,-74.503013)"
     style="fill:#e9f2ff"
     id="polygon161"
     points="514.26,285.62 517,287.2 508.79,334.38 506.06,332.81 "
     class="cls-3" />
  <path
     style="fill:#316dc9"
     id="path163"
     d="m 261.90403,260.38699 a 0.59,0.59 0 0 1 -0.25,-0.07 l -2.73,-1.58 a 0.5,0.5 0 0 1 -0.25,-0.52 l 8.21,-47.19 a 0.51,0.51 0 0 1 0.28,-0.36 0.52,0.52 0 0 1 0.47,0 l 2.73,1.58 a 0.49,0.49 0 0 1 0.24,0.52 l -8.21,47.18 a 0.48,0.48 0 0 1 -0.28,0.37 0.46,0.46 0 0 1 -0.21,0.07 z m -2.18,-2.34 1.81,1 8,-46.13 -1.81,-1 z"
     class="cls-2" />
  <polygon
     transform="translate(-246.88597,-74.503013)"
     style="fill:#316dc9"
     id="polygon165"
     points="519.07,288.39 516.98,287.19 508.79,334.38 511.34,332.92 "
     class="cls-2" />
  <path
     style="fill:#316dc9"
     id="path167"
     d="m 261.90403,260.38699 a 0.47,0.47 0 0 1 -0.28,-0.09 0.52,0.52 0 0 1 -0.21,-0.5 l 8.19,-47.2 a 0.49,0.49 0 0 1 0.28,-0.36 0.5,0.5 0 0 1 0.46,0 l 2.09,1.2 a 0.51,0.51 0 0 1 0.24,0.52 l -7.73,44.54 a 0.49,0.49 0 0 1 -0.24,0.35 l -2.59,1.47 a 0.52,0.52 0 0 1 -0.21,0.07 z m 8.56,-46.89 -7.88,45.44 1.42,-0.82 7.62,-44 z"
     class="cls-2" />
  <polygon
     transform="translate(-246.88597,-74.503013)"
     style="fill:#ffffff"
     id="polygon169"
     points="494.5,297.17 497.24,298.75 489.03,345.94 486.29,344.36 "
     class="cls-7" />
  <path
     style="fill:#316dc9"
     id="path171"
     d="m 242.11403,271.93699 a 0.45,0.45 0 0 1 -0.25,-0.07 l -2.75,-1.58 a 0.51,0.51 0 0 1 -0.24,-0.52 l 8.24,-47.18 a 0.51,0.51 0 0 1 0.28,-0.37 0.5,0.5 0 0 1 0.46,0 l 2.74,1.58 a 0.5,0.5 0 0 1 0.24,0.52 l -8.2,47.18 a 0.49,0.49 0 0 1 -0.28,0.37 0.54,0.54 0 0 1 -0.24,0.07 z m -2.18,-2.34 1.81,1 8,-46.14 -1.76,-0.96 z"
     class="cls-2" />
  <polygon
     transform="translate(-246.88597,-74.503013)"
     style="fill:#ffffff"
     id="polygon173"
     points="512.44,307.53 515.18,309.11 537.37,373.85 534.64,372.27 "
     class="cls-7" />
  <path
     style="fill:#316dc9"
     id="path175"
     d="m 290.48403,299.84699 a 0.47,0.47 0 0 1 -0.25,-0.07 l -2.73,-1.58 a 0.47,0.47 0 0 1 -0.23,-0.27 l -22.16,-64.74 a 0.5,0.5 0 0 1 0.15,-0.55 0.5,0.5 0 0 1 0.57,0 l 2.74,1.58 a 0.49,0.49 0 0 1 0.22,0.27 l 22.19,64.74 a 0.49,0.49 0 0 1 -0.15,0.54 0.47,0.47 0 0 1 -0.35,0.08 z m -2.32,-2.42 1.42,0.82 -21.7,-63.3 -1.42,-0.82 z"
     class="cls-2" />
  <polygon
     transform="translate(-246.88597,-74.503013)"
     style="fill:#ffffff"
     id="polygon177"
     points="494.5,294.82 515.18,306.75 515.18,309.11 494.5,297.17 "
     class="cls-7" />
  <path
     style="fill:#316dc9"
     id="path179"
     d="m 268.29403,235.10699 a 0.43,0.43 0 0 1 -0.25,-0.07 l -20.68,-11.93 a 0.52,0.52 0 0 1 -0.25,-0.44 v -2.35 a 0.5,0.5 0 0 1 0.25,-0.43 0.5,0.5 0 0 1 0.5,0 l 20.68,11.93 a 0.52,0.52 0 0 1 0.25,0.44 v 2.35 a 0.5,0.5 0 0 1 -0.25,0.43 0.47,0.47 0 0 1 -0.25,0.07 z m -20.18,-12.72 19.68,11.35 v -1.24 l -19.68,-11.31 z"
     class="cls-2" />
  <polygon
     transform="translate(-246.88597,-74.503013)"
     style="fill:#316dc9"
     id="polygon181"
     points="499.3,299.95 497.22,298.74 489.03,345.94 491.58,344.47 "
     class="cls-2" />
  <path
     style="fill:#316dc9"
     id="path183"
     d="m 242.11403,271.93699 a 0.52,0.52 0 0 1 -0.29,-0.09 0.49,0.49 0 0 1 -0.2,-0.5 l 8.19,-47.19 a 0.51,0.51 0 0 1 0.28,-0.37 0.5,0.5 0 0 1 0.46,0 l 2.08,1.2 a 0.5,0.5 0 0 1 0.25,0.52 l -7.73,44.52 a 0.52,0.52 0 0 1 -0.24,0.35 l -2.55,1.47 a 0.45,0.45 0 0 1 -0.25,0.09 z m 8.56,-46.91 -7.85,45.47 1.41,-0.82 7.63,-43.95 z"
     class="cls-2" />
  <polygon
     transform="translate(-246.88597,-74.503013)"
     style="fill:#538ff9"
     id="polygon185"
     points="537.37,373.85 539.92,372.38 517.72,307.64 515.18,309.11 "
     class="cls-6" />
  <path
     style="fill:#316dc9"
     id="path187"
     d="m 290.48403,299.84699 a 0.47,0.47 0 0 1 -0.17,0 0.51,0.51 0 0 1 -0.3,-0.31 l -22.2,-64.74 a 0.51,0.51 0 0 1 0.23,-0.59 l 2.54,-1.47 a 0.5,0.5 0 0 1 0.43,0 0.51,0.51 0 0 1 0.3,0.31 l 22.19,64.74 a 0.5,0.5 0 0 1 -0.22,0.59 l -2.55,1.47 a 0.45,0.45 0 0 1 -0.25,0 z m -21.59,-65 21.87,63.77 1.66,-1 -21.86,-63.77 z"
     class="cls-2" />
  <polygon
     transform="translate(-246.88597,-74.503013)"
     style="fill:#e9f2ff"
     id="polygon189"
     points="532.2,295.98 534.94,297.56 557.13,362.3 554.4,360.72 "
     class="cls-3" />
  <path
     style="fill:#316dc9"
     id="path191"
     d="m 310.24403,288.29699 a 0.59,0.59 0 0 1 -0.25,-0.07 l -2.73,-1.58 a 0.45,0.45 0 0 1 -0.22,-0.27 l -22.2,-64.74 a 0.48,0.48 0 0 1 0.16,-0.55 0.5,0.5 0 0 1 0.56,0 l 2.74,1.58 a 0.53,0.53 0 0 1 0.22,0.27 l 22.2,64.74 a 0.5,0.5 0 0 1 -0.16,0.55 0.47,0.47 0 0 1 -0.32,0.07 z m -2.32,-2.42 1.42,0.82 -21.7,-63.3 -1.42,-0.82 z"
     class="cls-2" />
  <polygon
     transform="translate(-246.88597,-74.503013)"
     style="fill:#538ff9"
     id="polygon193"
     points="557.13,362.3 559.68,360.82 537.49,296.09 534.94,297.56 "
     class="cls-6" />
  <path
     style="fill:#316dc9"
     id="path195"
     d="m 310.24403,288.29699 a 0.47,0.47 0 0 1 -0.17,0 0.5,0.5 0 0 1 -0.3,-0.3 l -22.19,-64.74 a 0.5,0.5 0 0 1 0.22,-0.6 l 2.55,-1.47 a 0.51,0.51 0 0 1 0.42,0 0.5,0.5 0 0 1 0.3,0.3 l 22.19,64.74 a 0.5,0.5 0 0 1 -0.22,0.6 l -2.55,1.47 a 0.52,0.52 0 0 1 -0.25,0 z m -21.58,-65 21.86,63.78 1.66,-1 -21.86,-63.78 z"
     class="cls-2" />
  <polygon
     transform="translate(-246.88597,-74.503013)"
     style="fill:#a7c8fe"
     id="polygon197"
     points="537.49,293.73 515.18,306.75 494.5,294.82 516.81,281.8 "
     class="cls-5" />
  <path
     style="fill:#316dc9"
     id="path199"
     d="m 268.29403,232.75699 a 0.52,0.52 0 0 1 -0.25,-0.07 l -20.68,-11.94 a 0.49,0.49 0 0 1 0,-0.86 l 22.31,-13 a 0.5,0.5 0 0 1 0.5,0 l 20.68,11.94 a 0.49,0.49 0 0 1 0,0.86 l -22.31,13 a 0.59,0.59 0 0 1 -0.25,0.07 z m -19.68,-12.44 19.68,11.36 21.31,-12.45 -19.68,-11.36 z"
     class="cls-2" />
  <path
     id="path201"
     d="m 249.87403,271.06699 13,-7.59 a 6.78,6.78 0 0 1 6.84,0 l 29.74,17.61 a 4,4 0 0 1 0,6.9 l -13,7.59 a 6.73,6.73 0 0 1 -6.84,0 l -29.74,-17.6 a 4,4 0 0 1 0,-6.91 z"
     class="cls-8" />
  <path
     style="fill:#538ff9"
     id="path203"
     d="m 247.61403,220.31699 22.31,-13 -8.42,-17.1 a 26,26 0 0 0 -11.61,3.06 c -8.89,4.63 -10.7,10 -10.7,10 z"
     class="cls-6" />
  <path
     style="fill:#316dc9"
     id="path205"
     d="m 247.61403,220.81699 h -0.14 a 0.57,0.57 0 0 1 -0.31,-0.26 l -8.41,-17.1 a 0.5,0.5 0 0 1 0,-0.38 c 0.08,-0.22 2,-5.57 10.94,-10.25 a 26.4,26.4 0 0 1 11.86,-3.11 0.5,0.5 0 0 1 0.43,0.28 l 8.42,17.09 a 0.5,0.5 0 0 1 -0.2,0.66 l -22.31,13 a 0.43,0.43 0 0 1 -0.28,0.07 z m -7.87,-17.62 8.08,16.42 21.45,-12.52 -8.08,-16.4 a 26.51,26.51 0 0 0 -11.07,3 c -7.69,4.01 -10.01,8.55 -10.38,9.5 z"
     class="cls-2" />
  <path
     style="fill:#ffffff"
     id="path207"
     d="m 272.37403,228.83699 a 2.89,2.89 0 0 0 -0.29,-4.63 l -32.68,-21 8.21,17.1 2.74,1.58 -4.87,-10.2 a 0.68,0.68 0 0 1 1,-0.86 l 23,14.84 a 1.07,1.07 0 0 1 0.1,1.74 l -4,3.26 2.74,1.58 z"
     class="cls-7" />
  <path
     style="fill:#316dc9"
     id="path209"
     d="m 268.29403,232.75699 a 0.55,0.55 0 0 1 -0.25,-0.07 l -2.74,-1.58 a 0.52,0.52 0 0 1 -0.25,-0.4 0.49,0.49 0 0 1 0.19,-0.42 l 4,-3.26 a 0.59,0.59 0 0 0 0.22,-0.48 0.57,0.57 0 0 0 -0.27,-0.45 l -23,-14.84 a 0.18,0.18 0 0 0 -0.26,0.22 l 4.87,10.2 a 0.52,0.52 0 0 1 -0.11,0.59 0.51,0.51 0 0 1 -0.59,0.06 l -2.74,-1.58 a 0.58,0.58 0 0 1 -0.2,-0.21 l -8.21,-17.1 a 0.51,0.51 0 0 1 0.12,-0.59 0.5,0.5 0 0 1 0.6,-0.05 l 32.68,21 a 3.37,3.37 0 0 1 1.54,2.63 3.33,3.33 0 0 1 -1.2,2.8 v 0 l -4.08,3.42 a 0.49,0.49 0 0 1 -0.32,0.11 z m -1.86,-2.15 1.8,1 3.81,-3.19 a 2.39,2.39 0 0 0 -0.23,-3.83 l -31.19,-20 7.38,15.36 1.2,0.7 -4.17,-8.75 a 1.17,1.17 0 0 1 1.7,-1.49 l 23,14.84 a 1.58,1.58 0 0 1 0.14,2.55 z m 5.94,-1.77 z"
     class="cls-2" />
  <path
     style="fill:#ffffff"
     id="path211"
     d="m 294.67403,215.81699 a 2.88,2.88 0 0 0 -0.28,-4.63 l -32.68,-21 8.21,17.1 2.74,1.58 -4.87,-10.21 a 0.68,0.68 0 0 1 1,-0.86 l 23,14.85 a 1.08,1.08 0 0 1 0.1,1.74 l -4,3.25 2.74,1.58 z"
     class="cls-7" />
  <path
     style="fill:#316dc9"
     id="path213"
     d="m 290.60403,219.72699 a 0.51,0.51 0 0 1 -0.25,-0.06 l -2.74,-1.59 a 0.48,0.48 0 0 1 -0.25,-0.39 0.52,0.52 0 0 1 0.19,-0.43 l 4,-3.25 a 0.57,0.57 0 0 0 0.21,-0.48 0.55,0.55 0 0 0 -0.26,-0.45 l -23,-14.85 a 0.17,0.17 0 0 0 -0.22,0 0.17,0.17 0 0 0 0,0.21 l 4.87,10.2 a 0.5,0.5 0 0 1 -0.7,0.65 l -2.74,-1.58 a 0.47,0.47 0 0 1 -0.2,-0.22 l -8.21,-17.09 a 0.5,0.5 0 0 1 0.12,-0.6 0.51,0.51 0 0 1 0.6,0 l 32.68,21 a 3.38,3.38 0 0 1 0.34,5.43 v 0 l -4.08,3.42 a 0.56,0.56 0 0 1 -0.36,0.08 z m -1.86,-2.15 1.8,1 3.81,-3.19 a 2.38,2.38 0 0 0 -0.23,-3.82 l -31.19,-20 7.38,15.37 1.2,0.7 -4.17,-8.75 a 1.16,1.16 0 0 1 0.28,-1.39 1.19,1.19 0 0 1 1.42,-0.11 l 23,14.85 a 1.57,1.57 0 0 1 0.14,2.54 z m 5.93,-1.76 z"
     class="cls-2" />
  <polygon
     transform="translate(-246.88597,-74.503013)"
     style="fill:#e9f2ff"
     id="polygon215"
     points="537.49,296.09 537.49,293.73 515.18,306.75 515.18,309.11 "
     class="cls-3" />
  <path
     style="fill:#316dc9"
     id="path217"
     d="m 268.29403,235.10699 a 0.45,0.45 0 0 1 -0.25,-0.07 0.48,0.48 0 0 1 -0.25,-0.43 v -2.35 a 0.5,0.5 0 0 1 0.25,-0.44 l 22.3,-13 a 0.52,0.52 0 0 1 0.51,0 0.5,0.5 0 0 1 0.25,0.43 v 2.36 a 0.52,0.52 0 0 1 -0.25,0.43 l -22.31,13 a 0.47,0.47 0 0 1 -0.25,0.07 z m 0.5,-2.57 v 1.2 l 21.32,-12.44 v -1.2 z"
     class="cls-2" />
  <polygon
     transform="translate(-246.88597,-74.503013)"
     style="fill:#c0daff"
     id="polygon219"
     points="536.17,361.53 553.43,351.51 550.7,349.92 535.28,358.87 "
     class="cls-9" />
  <path
     style="fill:#316dc9"
     id="path221"
     d="m 289.28403,287.49699 a 0.38,0.38 0 0 1 -0.17,0 0.5,0.5 0 0 1 -0.3,-0.3 l -0.9,-2.66 a 0.51,0.51 0 0 1 0.23,-0.59 l 15.42,-8.95 a 0.5,0.5 0 0 1 0.5,0 l 2.73,1.59 a 0.5,0.5 0 0 1 0,0.87 l -17.25,10 a 0.59,0.59 0 0 1 -0.26,0.04 z m -0.29,-2.93 0.57,1.69 16,-9.28 -1.74,-1 z"
     class="cls-2" />
  <polygon
     transform="translate(-246.88597,-74.503013)"
     style="fill:#c0daff"
     id="polygon223"
     points="532.74,351.51 550,341.5 547.27,339.91 531.84,348.86 "
     class="cls-9" />
  <path
     style="fill:#316dc9"
     id="path225"
     d="m 285.85403,277.49699 h -0.18 a 0.45,0.45 0 0 1 -0.29,-0.31 l -0.9,-2.65 a 0.5,0.5 0 0 1 0.22,-0.59 l 15.41,-8.97 a 0.5,0.5 0 0 1 0.5,0 l 2.73,1.59 a 0.5,0.5 0 0 1 0.25,0.43 0.49,0.49 0 0 1 -0.25,0.43 l -17.23,10.07 a 0.54,0.54 0 0 1 -0.26,0 z m -0.29,-2.92 0.57,1.68 16,-9.27 -1.73,-1 z"
     class="cls-2" />
  <polygon
     transform="translate(-246.88597,-74.503013)"
     style="fill:#c0daff"
     id="polygon227"
     points="529.31,341.5 546.56,331.49 543.83,329.9 528.41,338.85 "
     class="cls-9" />
  <path
     style="fill:#316dc9"
     id="path229"
     d="m 282.42403,267.49699 h -0.18 a 0.51,0.51 0 0 1 -0.3,-0.31 l -0.9,-2.65 a 0.51,0.51 0 0 1 0.23,-0.6 l 15.42,-8.94 a 0.52,0.52 0 0 1 0.51,0 l 2.73,1.59 a 0.5,0.5 0 0 1 0.24,0.43 0.48,0.48 0 0 1 -0.25,0.43 l -17.25,10 a 0.47,0.47 0 0 1 -0.25,0.05 z m -0.3,-2.93 0.57,1.69 16,-9.27 -1.74,-1 z"
     class="cls-2" />
  <polygon
     transform="translate(-246.88597,-74.503013)"
     style="fill:#c0daff"
     id="polygon231"
     points="525.87,331.49 543.13,321.48 540.4,319.88 524.97,328.83 "
     class="cls-9" />
  <path
     style="fill:#316dc9"
     id="path233"
     d="m 278.98403,257.49699 a 0.47,0.47 0 0 1 -0.17,0 0.51,0.51 0 0 1 -0.3,-0.31 l -0.9,-2.66 a 0.5,0.5 0 0 1 0.22,-0.59 l 15.43,-8.95 a 0.5,0.5 0 0 1 0.5,0 l 2.73,1.59 a 0.5,0.5 0 0 1 0,0.87 l -17.26,10 a 0.55,0.55 0 0 1 -0.25,0.05 z m -0.29,-2.93 0.57,1.69 16,-9.28 -1.73,-1 z"
     class="cls-2" />
  <polygon
     transform="translate(-246.88597,-74.503013)"
     style="fill:#c0daff"
     id="polygon235"
     points="522.44,321.47 539.7,311.46 536.97,309.87 521.54,318.82 "
     class="cls-9" />
  <path
     style="fill:#316dc9"
     id="path237"
     d="m 275.55403,247.49699 h -0.18 a 0.49,0.49 0 0 1 -0.3,-0.31 l -0.89,-2.65 a 0.48,0.48 0 0 1 0.22,-0.59 l 15.42,-8.95 a 0.52,0.52 0 0 1 0.51,0 l 2.78,1.5 a 0.5,0.5 0 0 1 0,0.87 l -17.26,10 a 0.57,0.57 0 0 1 -0.3,0.13 z m -0.3,-2.92 0.57,1.68 16,-9.27 -1.74,-1 z"
     class="cls-2" />
  <ellipse
     id="ellipse239"
     ry="13.15"
     rx="16.219999"
     cy="116.12699"
     cx="545.19403"
     class="cls-10" />
  <path
     style="fill:#a7c8fe"
     id="path241"
     d="m 537.21403,93.496987 a 1.87,1.87 0 0 1 2,1.71 v 29.290003 a 2,2 0 0 1 -4,0 V 95.156987 a 1.87,1.87 0 0 1 2,-1.66 z"
     class="cls-5" />
  <path
     style="fill:#316dc9"
     id="path243"
     d="m 537.21403,126.74699 a 2.36,2.36 0 0 1 -2.48,-2.21 V 95.156987 a 2.5,2.5 0 0 1 5,0 v 29.340003 a 2.37,2.37 0 0 1 -2.52,2.25 z m 0,-32.800003 a 1.37,1.37 0 0 0 -1.48,1.21 v 29.340003 a 1.52,1.52 0 0 0 3,0 V 95.156987 a 1.38,1.38 0 0 0 -1.52,-1.21 z"
     class="cls-2" />
  <path
     style="fill:#ffffff"
     id="path245"
     d="m 536.63403,41.376987 a 3.68,3.68 0 0 1 0.58,0 3.48,3.48 0 0 1 0.58,0 c 13.77,1 19.32,35.27 19.32,43.63 0,9.46 -8.91,17.130003 -19.9,17.130003 -10.99,0 -19.89,-7.670003 -19.89,-17.130003 0,-8.36 5.55,-42.68 19.31,-43.63 z"
     class="cls-7" />
  <path
     style="fill:#316dc9"
     id="path247"
     d="m 537.21403,102.63699 c -11.24,0 -20.39,-7.910003 -20.39,-17.620003 0,-7.55 5.15,-43.1 19.76,-44.14 a 4.65,4.65 0 0 1 1.29,0 c 14.59,1 19.74,36.59 19.74,44.14 0,9.71 -9.15,17.620003 -20.4,17.620003 z m 0,-60.810003 a 4,4 0 0 0 -0.5,0 v 0 c -13,0.9 -18.85,33.4 -18.85,43.15 0,9.16 8.7,16.620003 19.39,16.620003 10.69,0 19.4,-7.460003 19.4,-16.620003 0,-9.75 -5.88,-42.25 -18.85,-43.15 a 5.48,5.48 0 0 0 -0.59,0 z m -0.58,-0.45 z"
     class="cls-2" />
  <path
     style="fill:#a7c8fe"
     id="path249"
     d="m 524.26403,93.106987 c 10.87,1.64 20.82,-4.61 22.23,-14 0.85,-5.67 0.94,-23.77 -3.42,-35.57 9.92,7.83 14,34.24 14,41.43 0,9.46 -8.91,17.130003 -19.9,17.130003 -8.27,0 -15.37,-4.360003 -18.37,-10.550003 a 22.72,22.72 0 0 0 5.46,1.56 z"
     class="cls-5" />
  <path
     style="fill:#316dc9"
     id="path251"
     d="m 537.21403,102.63699 c -8.24,0 -15.63,-4.250003 -18.82,-10.830003 a 0.5,0.5 0 0 1 0.09,-0.56 0.51,0.51 0 0 1 0.56,-0.12 22,22 0 0 0 5.3,1.49 v 0 c 10.58,1.6 20.29,-4.48 21.65,-13.55 0.8,-5.28 1,-23.55 -3.39,-35.32 a 0.52,0.52 0 0 1 0.18,-0.58 0.51,0.51 0 0 1 0.6,0 c 10.52,8.31 14.23,35.61 14.23,41.84 0,9.72 -9.15,17.630003 -20.4,17.630003 z m -17.29,-10.140003 c 3.3,5.57 9.93,9.100003 17.29,9.100003 10.7,0 19.4,-7.460003 19.4,-16.620003 0,-6.9 -3.76,-30.84 -12.43,-39.77 3.81,12 3.59,28.71 2.8,34 -1.45,9.61 -11.68,16.06 -22.79,14.39 a 23.41,23.41 0 0 1 -4.27,-1.1 z"
     class="cls-2" />
  <ellipse
     id="ellipse253"
     ry="13.15"
     rx="16.219999"
     cy="129.67699"
     cx="573.06403"
     class="cls-10" />
  <path
     style="fill:#a7c8fe"
     id="path255"
     d="m 565.11403,106.99699 a 1.87,1.87 0 0 1 2,1.71 v 29.38 a 2,2 0 0 1 -4,0 v -29.38 a 1.87,1.87 0 0 1 2,-1.71 z"
     class="cls-5" />
  <path
     style="fill:#316dc9"
     id="path257"
     d="m 565.11403,140.28699 a 2.37,2.37 0 0 1 -2.49,-2.21 v -29.37 a 2.5,2.5 0 0 1 5,0 v 29.37 a 2.36,2.36 0 0 1 -2.51,2.21 z m 0,-32.79 a 1.37,1.37 0 0 0 -1.49,1.21 v 29.37 a 1.52,1.52 0 0 0 3,0 v -29.37 a 1.36,1.36 0 0 0 -1.51,-1.21 z"
     class="cls-2" />
  <path
     style="fill:#ffffff"
     id="path259"
     d="m 564.51403,54.916987 a 5.28,5.28 0 0 1 0.58,0 5.46,5.46 0 0 1 0.58,0 c 13.76,1 19.31,35.28 19.31,43.64 0,9.460003 -8.9,17.130003 -19.89,17.130003 -10.99,0 -19.9,-7.67 -19.9,-17.130003 0,-8.36 5.55,-42.68 19.32,-43.64 z"
     class="cls-7" />
  <path
     style="fill:#316dc9"
     id="path261"
     d="m 565.11403,116.18699 c -11.25,0 -20.4,-7.91 -20.4,-17.630003 0,-7.54 5.15,-43.09 19.76,-44.13 a 4.64,4.64 0 0 1 1.29,0 c 14.59,1 19.74,36.58 19.74,44.13 -0.02,9.720003 -9.17,17.630003 -20.39,17.630003 z m 0,-60.810003 a 2.78,2.78 0 0 0 -0.51,0 v 0 c -13,0.9 -18.85,33.4 -18.85,43.14 0,9.170003 8.7,16.630003 19.4,16.630003 10.7,0 19.39,-7.46 19.39,-16.630003 0,-9.74 -5.87,-42.24 -18.85,-43.14 a 3.53,3.53 0 0 0 -0.58,0 z m -0.58,-0.46 z"
     class="cls-2" />
  <path
     style="fill:#a7c8fe"
     id="path263"
     d="m 552.11403,106.65699 c 10.87,1.64 20.82,-4.62 22.23,-14.000003 0.85,-5.66 0.94,-23.76 -3.41,-35.57 9.92,7.84 14,34.24 14,41.44 0,9.460003 -8.9,17.130003 -19.89,17.130003 -8.28,0 -15.38,-4.36 -18.37,-10.55 a 22.51,22.51 0 0 0 5.44,1.55 z"
     class="cls-5" />
  <path
     style="fill:#316dc9"
     id="path265"
     d="m 565.11403,116.18699 c -8.25,0 -15.64,-4.25 -18.82,-10.83 a 0.5,0.5 0 0 1 0.08,-0.56 0.51,0.51 0 0 1 0.56,-0.12 22.5,22.5 0 0 0 5.3,1.49 v 0 c 10.57,1.59 20.29,-4.49 21.65,-13.550003 0.8,-5.29 1,-23.55 -3.38,-35.32 a 0.5,0.5 0 0 1 0.17,-0.58 0.51,0.51 0 0 1 0.61,0 c 10.51,8.3 14.22,35.6 14.22,41.83 -0.02,9.730003 -9.17,17.640003 -20.39,17.640003 z m -17.3,-10.1 c 3.3,5.57 9.93,9.1 17.3,9.1 10.69,0 19.39,-7.46 19.39,-16.630003 0,-6.89 -3.76,-30.83 -12.43,-39.76 3.81,12 3.6,28.7 2.8,34 -1.44,9.610003 -11.68,16.060003 -22.79,14.390003 a 23.62,23.62 0 0 1 -4.29,-1.1 z"
     class="cls-2" />
  <ellipse
     id="ellipse267"
     ry="13.15"
     rx="16.219999"
     cy="366.11697"
     cx="103.72402"
     class="cls-10" />
  <path
     style="fill:#a7c8fe"
     id="path269"
     d="m 95.744034,343.43699 a 1.87,1.87 0 0 1 2,1.71 v 29.35 a 2,2 0 0 1 -4,0 v -29.35 a 1.87,1.87 0 0 1 2,-1.71 z"
     class="cls-5" />
  <path
     style="fill:#316dc9"
     id="path271"
     d="m 95.744034,376.73699 a 2.36,2.36 0 0 1 -2.48,-2.21 v -29.38 a 2.5,2.5 0 0 1 5,0 v 29.35 a 2.37,2.37 0 0 1 -2.52,2.24 z m 0,-32.8 a 1.36,1.36 0 0 0 -1.48,1.21 v 29.35 a 1.52,1.52 0 0 0 3,0 v -29.35 a 1.37,1.37 0 0 0 -1.52,-1.21 z"
     class="cls-2" />
  <path
     style="fill:#ffffff"
     id="path273"
     d="m 95.164034,291.35699 a 5.46,5.46 0 0 1 0.58,0 5.28,5.28 0 0 1 0.58,0 c 13.769996,1 19.319996,35.28 19.319996,43.64 0,9.46 -8.91,17.13 -19.899996,17.13 -10.99,0 -19.89,-7.63 -19.89,-17.13 0,-8.36 5.55,-42.68 19.31,-43.64 z"
     class="cls-7" />
  <path
     style="fill:#316dc9"
     id="path275"
     d="m 95.744034,352.62699 c -11.24,0 -20.39,-7.91 -20.39,-17.63 0,-7.54 5.14,-43.09 19.76,-44.13 a 4.64,4.64 0 0 1 1.29,0 c 14.589996,1.01 19.709996,36.63 19.709996,44.13 0,9.72 -9.12,17.63 -20.369996,17.63 z m 0,-60.81 a 4.38,4.38 0 0 0 -0.51,0 v 0 c -13,0.9 -18.85,33.4 -18.85,43.14 0,9.17 8.7,16.63 19.39,16.63 10.689996,0 19.339996,-7.42 19.339996,-16.59 0,-9.74 -5.88,-42.24 -18.849996,-43.14 a 5.48,5.48 0 0 0 -0.52,-0.04 z m -0.58,-0.46 z"
     class="cls-2" />
  <path
     style="fill:#a7c8fe"
     id="path277"
     d="m 82.794034,343.09699 c 10.87,1.64 20.819996,-4.61 22.229996,-14 0.85,-5.66 0.94,-23.76 -3.42,-35.56 9.92,7.83 14,34.24 14,41.43 0,9.46 -8.91,17.13 -19.899996,17.13 -8.28,0 -15.37,-4.36 -18.37,-10.55 a 22.72,22.72 0 0 0 5.46,1.55 z"
     class="cls-5" />
  <path
     style="fill:#316dc9"
     id="path279"
     d="m 95.744034,352.62699 c -8.25,0 -15.63,-4.25 -18.82,-10.83 a 0.5,0.5 0 0 1 0.09,-0.56 0.51,0.51 0 0 1 0.56,-0.12 22,22 0 0 0 5.29,1.49 21,21 0 0 0 14.32,-2.79 15.4,15.4 0 0 0 7.339996,-10.76 c 0.8,-5.29 1,-23.55 -3.39,-35.32 a 0.52,0.52 0 0 1 0.18,-0.58 0.49,0.49 0 0 1 0.6,0 c 10.52,8.34 14.2,35.62 14.2,41.84 0,9.72 -9.12,17.63 -20.369996,17.63 z m -17.29,-10.13 c 3.29,5.57 9.93,9.1 17.29,9.1 10.699996,0 19.399996,-7.46 19.399996,-16.63 0,-6.89 -3.76,-30.83 -12.44,-39.76 3.82,12 3.6,28.7 2.81,34 a 16.37,16.37 0 0 1 -7.789996,11.45 22,22 0 0 1 -15,2.94 23.41,23.41 0 0 1 -4.27,-1.1 z"
     class="cls-2" />
  <ellipse
     id="ellipse281"
     ry="13.42"
     rx="16.549999"
     cy="159.24699"
     cx="624.63403"
     class="cls-11" />
  <circle
     style="fill:#ffffff"
     id="circle283"
     r="19.629999"
     cy="151.80699"
     cx="616.104"
     class="cls-7" />
  <path
     style="fill:#316dc9"
     id="path285"
     d="m 616.11403,171.93699 a 20.13,20.13 0 1 1 20.13,-20.13 20.15,20.15 0 0 1 -20.13,20.13 z m 0,-39.26 a 19.13,19.13 0 1 0 19.13,19.13 19.16,19.16 0 0 0 -19.13,-19.13 z"
     class="cls-2" />
  <circle
     style="fill:#e9f2ff"
     id="circle287"
     r="4.4699998"
     cy="139.83699"
     cx="611.62402"
     class="cls-3" />
  <path
     style="fill:#a7c8fe"
     id="path289"
     d="m 616.11403,165.75699 c 10.3,0 18.74,-6.84 19.55,-15.53 0,0.52 0.08,1.05 0.08,1.58 a 19.63,19.63 0 1 1 -39.26,0 c 0,-0.53 0,-1.06 0.08,-1.58 0.8,8.69 9.23,15.53 19.55,15.53 z"
     class="cls-5" />
  <path
     style="fill:#316dc9"
     id="path291"
     d="m 616.11403,171.93699 a 20.15,20.15 0 0 1 -20.13,-20.13 c 0,-0.54 0,-1.08 0.08,-1.62 a 0.49,0.49 0 0 1 0.49,-0.46 v 0 a 0.5,0.5 0 0 1 0.49,0.45 c 0.79,8.46 9.16,15.08 19.06,15.08 9.9,0 18.26,-6.62 19,-15.08 a 0.5,0.5 0 0 1 0.5,-0.45 v 0 a 0.5,0.5 0 0 1 0.5,0.46 c 0,0.54 0.08,1.08 0.08,1.62 a 20.15,20.15 0 0 1 -20.07,20.13 z m -18.9,-17.13 a 19.13,19.13 0 0 0 37.79,0 c -2.89,6.69 -10.33,11.45 -18.89,11.45 -8.56,0 -16.07,-4.76 -18.91,-11.45 z"
     class="cls-2" />
  <ellipse
     id="ellipse293"
     ry="13.42"
     rx="16.549999"
     cy="259.81699"
     cx="796.55396"
     class="cls-11" />
  <circle
     style="fill:#ffffff"
     id="circle295"
     r="19.629999"
     cy="252.377"
     cx="788.02405"
     class="cls-7" />
  <path
     style="fill:#316dc9"
     id="path297"
     d="m 788.02403,272.49699 a 20.13,20.13 0 1 1 20.09,-20.12 20.15,20.15 0 0 1 -20.09,20.12 z m 0,-39.26 a 19.13,19.13 0 1 0 19.09,19.14 19.15,19.15 0 0 0 -19.09,-19.13 z"
     class="cls-2" />
  <circle
     style="fill:#e9f2ff"
     id="circle299"
     r="4.4699998"
     cy="240.407"
     cx="783.54407"
     class="cls-3" />
  <path
     style="fill:#a7c8fe"
     id="path301"
     d="m 788.02403,266.32699 c 10.3,0 18.74,-6.84 19.55,-15.53 0,0.52 0.08,1.05 0.08,1.58 a 19.63,19.63 0 1 1 -39.26,0 c 0,-0.53 0,-1.06 0.08,-1.58 0.8,8.7 9.24,15.53 19.55,15.53 z"
     class="cls-5" />
  <path
     style="fill:#316dc9"
     id="path303"
     d="m 788.02403,272.49699 a 20.15,20.15 0 0 1 -20.13,-20.13 c 0,-0.55 0,-1.09 0.08,-1.62 a 0.49,0.49 0 0 1 0.49,-0.46 v 0 a 0.49,0.49 0 0 1 0.49,0.45 c 0.79,8.45 9.16,15.08 19.06,15.08 9.9,0 18.26,-6.63 19,-15.08 a 0.49,0.49 0 0 1 0.5,-0.45 v 0 a 0.49,0.49 0 0 1 0.49,0.46 c 0,0.53 0.09,1.07 0.09,1.62 a 20.15,20.15 0 0 1 -20.07,20.13 z m -18.91,-17.12 a 19.13,19.13 0 0 0 37.79,0 c -2.84,6.69 -10.32,11.45 -18.89,11.45 -8.57,0 -16.05,-4.76 -18.9,-11.45 z"
     class="cls-2" />
  <path
     style="fill:#316dc9"
     id="path305"
     d="m 500.32403,405.15699 a 0.59,0.59 0 0 1 -0.25,-0.07 l -189.58,-109.45 a 0.51,0.51 0 0 1 -0.18,-0.69 0.5,0.5 0 0 1 0.68,-0.18 l 189.58,109.45 a 0.51,0.51 0 0 1 0.18,0.69 0.5,0.5 0 0 1 -0.43,0.25 z"
     class="cls-2" />
  <path
     style="fill:#316dc9"
     id="path307"
     d="m 289.90403,417.18699 a 0.5,0.5 0 0 1 -0.25,-0.93 l 231.27,-133.53 a 0.51,0.51 0 0 1 0.68,0.19 0.49,0.49 0 0 1 -0.18,0.68 l -231.31,133.52 a 0.47,0.47 0 0 1 -0.21,0.07 z"
     class="cls-2" />
  <polygon
     transform="translate(-246.88597,-74.503013)"
     style="fill:#ffffff"
     id="polygon309"
     points="556.4,340.37 559.04,341.9 559.04,372.68 556.4,371.15 "
     class="cls-7" />
  <path
     style="fill:#316dc9"
     id="path311"
     d="m 312.11403,298.67699 a 0.55,0.55 0 0 1 -0.25,-0.07 l -2.64,-1.53 a 0.48,0.48 0 0 1 -0.25,-0.43 v -30.78 a 0.48,0.48 0 0 1 0.25,-0.43 0.5,0.5 0 0 1 0.5,0 l 2.64,1.53 a 0.48,0.48 0 0 1 0.25,0.43 v 30.78 a 0.5,0.5 0 0 1 -0.25,0.43 0.55,0.55 0 0 1 -0.25,0.07 z m -2.14,-2.32 1.64,0.95 v -29.62 l -1.64,-0.95 z"
     class="cls-2" />
  <polygon
     transform="translate(-246.88597,-74.503013)"
     style="fill:#a7c8fe"
     id="polygon313"
     points="745.71,450.12 748.35,448.59 745.71,447.06 743.07,448.59 "
     class="cls-5" />
  <path
     style="fill:#316dc9"
     id="path315"
     d="m 498.82403,376.11699 a 0.55,0.55 0 0 1 -0.25,-0.07 l -2.64,-1.55 a 0.47,0.47 0 0 1 -0.25,-0.43 0.48,0.48 0 0 1 0.25,-0.43 l 2.64,-1.53 a 0.5,0.5 0 0 1 0.5,0 l 2.64,1.53 a 0.48,0.48 0 0 1 0.25,0.43 0.47,0.47 0 0 1 -0.25,0.43 l -2.6,1.55 a 0.59,0.59 0 0 1 -0.29,0.07 z m -1.64,-2 1.64,1 1.64,-1 -1.64,-0.95 z"
     class="cls-2" />
  <polygon
     transform="translate(-246.88597,-74.503013)"
     style="fill:#3474f7"
     id="polygon317"
     points="561.68,340.43 559.04,341.96 559.04,372.74 561.68,371.21 "
     class="cls-12" />
  <path
     style="fill:#316dc9"
     id="path319"
     d="m 312.11403,298.72699 a 0.54,0.54 0 0 1 -0.25,-0.06 0.52,0.52 0 0 1 -0.25,-0.44 v -30.73 a 0.49,0.49 0 0 1 0.25,-0.43 l 2.64,-1.53 a 0.5,0.5 0 0 1 0.5,0 0.48,0.48 0 0 1 0.25,0.43 v 30.78 a 0.48,0.48 0 0 1 -0.25,0.43 l -2.64,1.53 a 0.54,0.54 0 0 1 -0.25,0.02 z m 0.5,-31 v 29.62 l 1.64,-0.95 v -29.6 z"
     class="cls-2" />
  <polygon
     transform="translate(-246.88597,-74.503013)"
     style="fill:#a7c8fe"
     id="polygon321"
     points="559.04,341.96 561.68,340.43 559.04,338.91 556.4,340.43 "
     class="cls-5" />
  <path
     style="fill:#316dc9"
     id="path323"
     d="m 312.11403,267.95699 a 0.45,0.45 0 0 1 -0.25,-0.07 l -2.64,-1.52 a 0.5,0.5 0 0 1 -0.25,-0.44 0.48,0.48 0 0 1 0.25,-0.43 l 2.64,-1.53 a 0.5,0.5 0 0 1 0.5,0 l 2.64,1.53 a 0.48,0.48 0 0 1 0.25,0.43 0.5,0.5 0 0 1 -0.25,0.44 l -2.64,1.52 a 0.45,0.45 0 0 1 -0.25,0.07 z m -1.64,-2 1.64,0.95 1.64,-0.95 -1.64,-0.95 z"
     class="cls-2" />
  <polygon
     transform="translate(-246.88597,-74.503013)"
     style="fill:#3474f7"
     id="polygon325"
     points="748.35,448.25 745.71,449.78 745.71,480.55 748.35,479.03 "
     class="cls-12" />
  <path
     style="fill:#316dc9"
     id="path327"
     d="m 498.82403,406.54699 a 0.54,0.54 0 0 1 -0.25,-0.06 0.5,0.5 0 0 1 -0.25,-0.44 v -30.77 a 0.47,0.47 0 0 1 0.25,-0.43 l 2.64,-1.53 a 0.5,0.5 0 0 1 0.5,0 0.48,0.48 0 0 1 0.25,0.43 v 30.75 a 0.48,0.48 0 0 1 -0.25,0.43 l -2.6,1.57 a 0.57,0.57 0 0 1 -0.29,0.05 z m 0.5,-31 v 29.62 l 1.64,-0.95 v -29.6 z"
     class="cls-2" />
  <polygon
     transform="translate(-246.88597,-74.503013)"
     style="fill:#ffffff"
     id="polygon329"
     points="743.09,448.61 745.71,450.12 745.71,480.55 743.09,479.04 "
     class="cls-7" />
  <path
     style="fill:#316dc9"
     id="path331"
     d="m 498.82403,406.54699 a 0.54,0.54 0 0 1 -0.25,-0.06 l -2.62,-1.51 a 0.52,0.52 0 0 1 -0.25,-0.44 v -30.43 a 0.5,0.5 0 0 1 0.75,-0.43 l 2.62,1.5 a 0.52,0.52 0 0 1 0.25,0.44 v 30.43 a 0.52,0.52 0 0 1 -0.25,0.44 0.57,0.57 0 0 1 -0.25,0.06 z m -2.12,-2.29 1.62,0.93 v -29.28 l -1.62,-0.94 z"
     class="cls-2" />
  <path
     style="fill:#316dc9"
     id="path333"
     d="m 496.20403,378.33699 a 0.47,0.47 0 0 1 -0.25,-0.07 l -182.65,-105.45 a 0.5,0.5 0 1 1 0.5,-0.86 l 182.65,105.45 a 0.5,0.5 0 0 1 -0.25,0.93 z"
     class="cls-2" />
  <path
     style="fill:#316dc9"
     id="path335"
     d="m 496.20403,382.16699 a 0.47,0.47 0 0 1 -0.25,-0.07 l -182.65,-105.45 a 0.49,0.49 0 0 1 -0.18,-0.68 0.51,0.51 0 0 1 0.68,-0.19 l 182.65,105.46 a 0.5,0.5 0 0 1 -0.25,0.93 z"
     class="cls-2" />
  <path
     style="fill:#316dc9"
     id="path337"
     d="m 496.20403,385.99699 a 0.47,0.47 0 0 1 -0.25,-0.07 l -182.65,-105.43 a 0.50172203,0.50172203 0 0 1 0.5,-0.87 l 182.65,105.44 a 0.49,0.49 0 0 1 0.19,0.68 0.5,0.5 0 0 1 -0.44,0.25 z"
     class="cls-2" />
  <path
     style="fill:#316dc9"
     id="path339"
     d="m 496.20403,389.82699 a 0.59,0.59 0 0 1 -0.25,-0.07 l -182.65,-105.46 a 0.5,0.5 0 1 1 0.5,-0.86 l 182.65,105.45 a 0.51,0.51 0 0 1 0.19,0.69 0.5,0.5 0 0 1 -0.44,0.25 z"
     class="cls-2" />
  <path
     style="fill:#316dc9"
     id="path341"
     d="m 496.20403,393.64699 a 0.57,0.57 0 0 1 -0.25,-0.06 l -182.65,-105.46 a 0.5,0.5 0 1 1 0.5,-0.86 l 182.65,105.45 a 0.5,0.5 0 0 1 -0.25,0.93 z"
     class="cls-2" />
  <path
     style="fill:#316dc9"
     id="path343"
     d="m 496.20403,397.49699 a 0.47,0.47 0 0 1 -0.25,-0.07 l -182.65,-105.47 a 0.49,0.49 0 0 1 -0.18,-0.68 0.51,0.51 0 0 1 0.68,-0.19 l 182.65,105.46 a 0.5,0.5 0 0 1 -0.25,0.93 z"
     class="cls-2" />
  <path
     style="fill:#316dc9"
     id="path345"
     d="m 496.20403,401.30699 a 0.47,0.47 0 0 1 -0.25,-0.07 l -182.65,-105.45 a 0.50172203,0.50172203 0 0 1 0.5,-0.87 l 182.65,105.46 a 0.5,0.5 0 0 1 -0.25,0.93 z"
     class="cls-2" />
  <path
     style="fill:#316dc9"
     id="path347"
     d="m 317.43403,298.08699 a 0.5,0.5 0 0 1 -0.5,-0.5 v -23 a 0.5,0.5 0 0 1 0.5,-0.5 0.5,0.5 0 0 1 0.5,0.5 v 23 a 0.5,0.5 0 0 1 -0.5,0.5 z"
     class="cls-2" />
  <path
     style="fill:#316dc9"
     id="path349"
     d="m 321.69403,300.54699 a 0.5,0.5 0 0 1 -0.5,-0.5 v -23 a 0.5,0.5 0 0 1 0.5,-0.5 0.51,0.51 0 0 1 0.5,0.5 v 23 a 0.5,0.5 0 0 1 -0.5,0.5 z"
     class="cls-2" />
  <path
     style="fill:#316dc9"
     id="path351"
     d="m 325.95403,303.00699 a 0.5,0.5 0 0 1 -0.5,-0.5 v -23.01 a 0.5,0.5 0 0 1 0.5,-0.5 0.51,0.51 0 0 1 0.5,0.5 v 23 a 0.5,0.5 0 0 1 -0.5,0.51 z"
     class="cls-2" />
  <path
     style="fill:#316dc9"
     id="path353"
     d="m 330.20403,305.49699 a 0.5,0.5 0 0 1 -0.5,-0.5 v -23 a 0.51,0.51 0 0 1 0.5,-0.5 0.5,0.5 0 0 1 0.5,0.5 v 23 a 0.5,0.5 0 0 1 -0.5,0.5 z"
     class="cls-2" />
  <path
     style="fill:#316dc9"
     id="path355"
     d="m 334.46403,307.92699 a 0.5,0.5 0 0 1 -0.5,-0.5 v -22.93 a 0.51,0.51 0 0 1 0.5,-0.5 0.5,0.5 0 0 1 0.5,0.5 v 23 a 0.5,0.5 0 0 1 -0.5,0.43 z"
     class="cls-2" />
  <path
     style="fill:#316dc9"
     id="path357"
     d="m 338.72403,310.38699 a 0.51,0.51 0 0 1 -0.5,-0.5 v -23 a 0.5,0.5 0 0 1 0.5,-0.5 0.5,0.5 0 0 1 0.5,0.5 v 23 a 0.5,0.5 0 0 1 -0.5,0.5 z"
     class="cls-2" />
  <path
     style="fill:#316dc9"
     id="path359"
     d="m 342.98403,312.84699 a 0.51,0.51 0 0 1 -0.5,-0.5 v -23 a 0.5,0.5 0 0 1 0.5,-0.5 0.5,0.5 0 0 1 0.5,0.5 v 23 a 0.5,0.5 0 0 1 -0.5,0.5 z"
     class="cls-2" />
  <path
     style="fill:#316dc9"
     id="path361"
     d="m 347.24403,315.30699 a 0.51,0.51 0 0 1 -0.5,-0.5 v -23 a 0.5,0.5 0 0 1 0.5,-0.5 0.5,0.5 0 0 1 0.5,0.5 v 23 a 0.5,0.5 0 0 1 -0.5,0.5 z"
     class="cls-2" />
  <path
     style="fill:#316dc9"
     id="path363"
     d="m 351.50403,317.76699 a 0.51,0.51 0 0 1 -0.5,-0.5 v -23 a 0.5,0.5 0 0 1 0.5,-0.5 0.5,0.5 0 0 1 0.5,0.5 v 23 a 0.5,0.5 0 0 1 -0.5,0.5 z"
     class="cls-2" />
  <path
     style="fill:#316dc9"
     id="path365"
     d="m 355.76403,320.22699 a 0.51,0.51 0 0 1 -0.5,-0.5 v -23 a 0.5,0.5 0 0 1 0.5,-0.5 0.5,0.5 0 0 1 0.5,0.5 v 23 a 0.5,0.5 0 0 1 -0.5,0.5 z"
     class="cls-2" />
  <path
     style="fill:#316dc9"
     id="path367"
     d="m 360.02403,322.67699 a 0.5,0.5 0 0 1 -0.5,-0.5 v -23 a 0.5,0.5 0 0 1 1,0 v 23 a 0.5,0.5 0 0 1 -0.5,0.5 z"
     class="cls-2" />
  <path
     style="fill:#316dc9"
     id="path369"
     d="m 364.28403,325.13699 a 0.5,0.5 0 0 1 -0.5,-0.5 v -23 a 0.5,0.5 0 1 1 1,0 v 23 a 0.5,0.5 0 0 1 -0.5,0.5 z"
     class="cls-2" />
  <path
     style="fill:#316dc9"
     id="path371"
     d="m 368.54403,327.59699 a 0.5,0.5 0 0 1 -0.5,-0.5 v -23 a 0.5,0.5 0 0 1 1,0 v 23 a 0.5,0.5 0 0 1 -0.5,0.5 z"
     class="cls-2" />
  <path
     style="fill:#316dc9"
     id="path373"
     d="m 372.80403,330.05699 a 0.5,0.5 0 0 1 -0.5,-0.5 v -23 a 0.5,0.5 0 1 1 1,0 v 23 a 0.5,0.5 0 0 1 -0.5,0.5 z"
     class="cls-2" />
  <path
     style="fill:#316dc9"
     id="path375"
     d="m 377.11403,332.49699 a 0.5,0.5 0 0 1 -0.5,-0.5 v -23 a 0.5,0.5 0 1 1 1,0 v 23 a 0.5,0.5 0 0 1 -0.5,0.5 z"
     class="cls-2" />
  <path
     style="fill:#316dc9"
     id="path377"
     d="m 381.32403,334.97699 a 0.5,0.5 0 0 1 -0.5,-0.5 v -22.98 a 0.5,0.5 0 0 1 1,0 v 23 a 0.5,0.5 0 0 1 -0.5,0.48 z"
     class="cls-2" />
  <path
     style="fill:#316dc9"
     id="path379"
     d="m 385.58403,337.43699 a 0.5,0.5 0 0 1 -0.5,-0.5 v -23 a 0.5,0.5 0 0 1 0.5,-0.5 0.51,0.51 0 0 1 0.5,0.5 v 23 a 0.5,0.5 0 0 1 -0.5,0.5 z"
     class="cls-2" />
  <path
     style="fill:#316dc9"
     id="path381"
     d="m 389.84403,339.89699 a 0.5,0.5 0 0 1 -0.5,-0.5 v -23 a 0.5,0.5 0 0 1 0.5,-0.5 0.5,0.5 0 0 1 0.5,0.5 v 23 a 0.5,0.5 0 0 1 -0.5,0.5 z"
     class="cls-2" />
  <path
     style="fill:#316dc9"
     id="path383"
     d="m 394.11403,342.35699 a 0.5,0.5 0 0 1 -0.5,-0.5 v -23 a 0.5,0.5 0 0 1 0.5,-0.5 0.5,0.5 0 0 1 0.5,0.5 v 23 a 0.51,0.51 0 0 1 -0.5,0.5 z"
     class="cls-2" />
  <path
     style="fill:#316dc9"
     id="path385"
     d="m 398.36403,344.81699 a 0.5,0.5 0 0 1 -0.5,-0.5 v -23 a 0.5,0.5 0 0 1 0.5,-0.5 0.5,0.5 0 0 1 0.5,0.5 v 23 a 0.51,0.51 0 0 1 -0.5,0.5 z"
     class="cls-2" />
  <path
     style="fill:#316dc9"
     id="path387"
     d="m 402.62403,347.27699 a 0.5,0.5 0 0 1 -0.5,-0.5 v -23 a 0.5,0.5 0 0 1 0.5,-0.5 0.5,0.5 0 0 1 0.5,0.5 v 23 a 0.51,0.51 0 0 1 -0.5,0.5 z"
     class="cls-2" />
  <path
     style="fill:#316dc9"
     id="path389"
     d="m 406.88403,349.73699 a 0.5,0.5 0 0 1 -0.5,-0.5 v -23 a 0.5,0.5 0 0 1 0.5,-0.5 0.5,0.5 0 0 1 0.5,0.5 v 23 a 0.51,0.51 0 0 1 -0.5,0.5 z"
     class="cls-2" />
  <path
     style="fill:#316dc9"
     id="path391"
     d="m 411.11403,352.18699 a 0.5,0.5 0 0 1 -0.5,-0.5 v -23 a 0.5,0.5 0 0 1 0.5,-0.5 0.5,0.5 0 0 1 0.5,0.5 v 23 a 0.5,0.5 0 0 1 -0.5,0.5 z"
     class="cls-2" />
  <path
     style="fill:#316dc9"
     id="path393"
     d="m 415.39403,354.64699 a 0.5,0.5 0 0 1 -0.5,-0.5 v -23 a 0.5,0.5 0 0 1 0.5,-0.5 0.5,0.5 0 0 1 0.5,0.5 v 23 a 0.5,0.5 0 0 1 -0.5,0.5 z"
     class="cls-2" />
  <path
     style="fill:#316dc9"
     id="path395"
     d="m 419.65403,357.10699 a 0.5,0.5 0 0 1 -0.5,-0.5 v -23 a 0.5,0.5 0 0 1 0.5,-0.5 0.5,0.5 0 0 1 0.5,0.5 v 23 a 0.5,0.5 0 0 1 -0.5,0.5 z"
     class="cls-2" />
  <path
     style="fill:#316dc9"
     id="path397"
     d="m 423.91403,359.56699 a 0.5,0.5 0 0 1 -0.5,-0.5 v -23 a 0.5,0.5 0 0 1 0.5,-0.5 0.5,0.5 0 0 1 0.5,0.5 v 23 a 0.5,0.5 0 0 1 -0.5,0.5 z"
     class="cls-2" />
  <path
     style="fill:#316dc9"
     id="path399"
     d="m 428.17403,362.02699 a 0.5,0.5 0 0 1 -0.5,-0.5 v -23 a 0.51,0.51 0 0 1 0.5,-0.5 0.5,0.5 0 0 1 0.5,0.5 v 23 a 0.5,0.5 0 0 1 -0.5,0.5 z"
     class="cls-2" />
  <path
     style="fill:#316dc9"
     id="path401"
     d="m 432.43403,364.49699 a 0.5,0.5 0 0 1 -0.5,-0.5 v -23 a 0.51,0.51 0 0 1 0.5,-0.5 0.5,0.5 0 0 1 0.5,0.5 v 23 a 0.5,0.5 0 0 1 -0.5,0.5 z"
     class="cls-2" />
  <path
     style="fill:#316dc9"
     id="path403"
     d="m 436.69403,366.94699 a 0.5,0.5 0 0 1 -0.5,-0.5 v -22.95 a 0.5,0.5 0 1 1 1,0 v 23 a 0.5,0.5 0 0 1 -0.5,0.45 z"
     class="cls-2" />
  <path
     style="fill:#316dc9"
     id="path405"
     d="m 440.95403,369.40699 a 0.5,0.5 0 0 1 -0.5,-0.5 v -23 a 0.5,0.5 0 1 1 1,0 v 23 a 0.5,0.5 0 0 1 -0.5,0.5 z"
     class="cls-2" />
  <path
     style="fill:#316dc9"
     id="path407"
     d="m 445.21403,371.86699 a 0.5,0.5 0 0 1 -0.5,-0.5 v -23 a 0.5,0.5 0 0 1 1,0 v 23 a 0.5,0.5 0 0 1 -0.5,0.5 z"
     class="cls-2" />
  <path
     style="fill:#316dc9"
     id="path409"
     d="m 449.47403,374.32699 a 0.5,0.5 0 0 1 -0.5,-0.5 v -23 a 0.5,0.5 0 0 1 1,0 v 23 a 0.5,0.5 0 0 1 -0.5,0.5 z"
     class="cls-2" />
  <path
     style="fill:#316dc9"
     id="path411"
     d="m 453.73403,376.78699 a 0.5,0.5 0 0 1 -0.5,-0.5 v -23 a 0.5,0.5 0 0 1 1,0 v 23 a 0.5,0.5 0 0 1 -0.5,0.5 z"
     class="cls-2" />
  <path
     style="fill:#316dc9"
     id="path413"
     d="m 457.99403,379.24699 a 0.5,0.5 0 0 1 -0.5,-0.5 v -23 a 0.5,0.5 0 1 1 1,0 v 23 a 0.5,0.5 0 0 1 -0.5,0.5 z"
     class="cls-2" />
  <path
     style="fill:#316dc9"
     id="path415"
     d="m 462.25403,381.70699 a 0.5,0.5 0 0 1 -0.5,-0.5 v -23 a 0.5,0.5 0 0 1 0.5,-0.5 0.5,0.5 0 0 1 0.5,0.5 v 23 a 0.51,0.51 0 0 1 -0.5,0.5 z"
     class="cls-2" />
  <path
     style="fill:#316dc9"
     id="path417"
     d="m 466.51403,384.15699 a 0.5,0.5 0 0 1 -0.5,-0.5 v -23 a 0.5,0.5 0 0 1 0.5,-0.5 0.5,0.5 0 0 1 0.5,0.5 v 23 a 0.5,0.5 0 0 1 -0.5,0.5 z"
     class="cls-2" />
  <path
     style="fill:#316dc9"
     id="path419"
     d="m 470.77403,386.61699 a 0.5,0.5 0 0 1 -0.5,-0.5 v -23 a 0.5,0.5 0 0 1 0.5,-0.5 0.5,0.5 0 0 1 0.5,0.5 v 23 a 0.5,0.5 0 0 1 -0.5,0.5 z"
     class="cls-2" />
  <path
     style="fill:#316dc9"
     id="path421"
     d="m 475.03403,389.07699 a 0.5,0.5 0 0 1 -0.5,-0.5 v -23 a 0.5,0.5 0 0 1 0.5,-0.5 0.51,0.51 0 0 1 0.5,0.5 v 23 a 0.5,0.5 0 0 1 -0.5,0.5 z"
     class="cls-2" />
  <path
     style="fill:#316dc9"
     id="path423"
     d="m 479.29403,391.49699 a 0.5,0.5 0 0 1 -0.5,-0.5 v -23 a 0.5,0.5 0 0 1 0.5,-0.5 0.51,0.51 0 0 1 0.5,0.5 v 23 a 0.5,0.5 0 0 1 -0.5,0.5 z"
     class="cls-2" />
  <path
     style="fill:#316dc9"
     id="path425"
     d="m 483.55403,393.99699 a 0.5,0.5 0 0 1 -0.5,-0.5 v -23 a 0.5,0.5 0 0 1 0.5,-0.5 0.51,0.51 0 0 1 0.5,0.5 v 23 a 0.5,0.5 0 0 1 -0.5,0.5 z"
     class="cls-2" />
  <path
     style="fill:#316dc9"
     id="path427"
     d="m 487.80403,396.49699 a 0.5,0.5 0 0 1 -0.5,-0.5 v -23 a 0.51,0.51 0 0 1 0.5,-0.5 0.5,0.5 0 0 1 0.5,0.5 v 23 a 0.5,0.5 0 0 1 -0.5,0.5 z"
     class="cls-2" />
  <path
     style="fill:#316dc9"
     id="path429"
     d="m 492.11403,398.91699 a 0.5,0.5 0 0 1 -0.5,-0.5 v -22.92 a 0.51,0.51 0 0 1 0.5,-0.5 0.5,0.5 0 0 1 0.5,0.5 v 23 a 0.5,0.5 0 0 1 -0.5,0.42 z"
     class="cls-2" />
  <path
     style="fill:#ffffff"
     id="path431"
     d="m 117.82403,195.49699 a 5.15,5.15 0 0 0 -2.81,4.58 v 136.52 c 0,0.34 0.61,0.62 1.37,0.62 0.76,0 1.36,-0.28 1.36,-0.62 v -134.62 a 5.13,5.13 0 0 1 2.58,-4.45 l 50.06,-28.77 z"
     class="cls-7" />
  <path
     style="fill:#316dc9"
     id="path433"
     d="m 116.38403,337.71699 c -1.08,0 -1.87,-0.47 -1.87,-1.12 v -136.49 a 5.63,5.63 0 0 1 3.08,-5 v 0 l 52.52,-26.79 a 0.49,0.49 0 0 1 0.66,0.2 0.51,0.51 0 0 1 -0.19,0.68 l -50.05,28.76 a 4.66,4.66 0 0 0 -2.33,4 v 134.64 c 0.04,0.65 -0.74,1.12 -1.82,1.12 z m -0.87,-1.22 a 1.61,1.61 0 0 0 0.87,0.19 1.57,1.57 0 0 0 0.86,-0.19 v -134.52 a 5.67,5.67 0 0 1 2.84,-4.89 l 32.9,-18.91 -34.93,17.79 a 4.62,4.62 0 0 0 -2.54,4.14 z"
     class="cls-2" />
  <g
     transform="translate(-246.88597,-74.503013)"
     style="isolation:isolate"
     id="g447"
     class="cls-13">
    <polygon
       style="fill:#a7c8fe"
       id="polygon435"
       points="423.28,238.13 423.29,240.92 424.5,241.62 424.49,238.83 "
       class="cls-5" />
    <path
       style="fill:#316dc9"
       id="path437"
       d="m 424.5,242.12 a 0.59,0.59 0 0 1 -0.26,-0.07 l -1.2,-0.7 a 0.5,0.5 0 0 1 -0.25,-0.43 v -2.79 a 0.5,0.5 0 0 1 0.25,-0.43 0.5,0.5 0 0 1 0.5,0 l 1.21,0.7 a 0.5,0.5 0 0 1 0.25,0.43 v 2.79 a 0.52,0.52 0 0 1 -0.25,0.43 0.59,0.59 0 0 1 -0.25,0.07 z m -0.71,-1.49 0.2,0.12 v -1.63 L 423.78,239 Z"
       class="cls-2" />
    <polygon
       style="fill:#ffffff"
       id="polygon439"
       points="411.24,245.08 411.25,247.87 423.29,240.92 423.28,238.13 "
       class="cls-7" />
    <path
       style="fill:#316dc9"
       id="path441"
       d="m 411.25,248.37 a 0.45,0.45 0 0 1 -0.25,-0.07 0.5,0.5 0 0 1 -0.25,-0.43 v -2.79 a 0.5,0.5 0 0 1 0.25,-0.43 l 12,-7 a 0.5,0.5 0 0 1 0.5,0 0.48,0.48 0 0 1 0.25,0.43 v 2.79 a 0.5,0.5 0 0 1 -0.25,0.43 l -12,7 a 0.45,0.45 0 0 1 -0.25,0.07 z m 0.49,-3 V 247 l 11,-6.37 V 239 Z"
       class="cls-2" />
    <polygon
       style="fill:#3474f7"
       id="polygon443"
       points="424.5,241.62 423.29,240.92 411.25,247.87 412.45,248.57 "
       class="cls-12" />
    <path
       style="fill:#316dc9"
       id="path445"
       d="M 412.46,249.07 A 0.48,0.48 0 0 1 412.2,249 l -1.2,-0.7 a 0.48,0.48 0 0 1 -0.25,-0.43 0.52,0.52 0 0 1 0.25,-0.44 l 12,-7 a 0.5,0.5 0 0 1 0.5,0 l 1.21,0.7 a 0.52,0.52 0 0 1 0.25,0.44 0.5,0.5 0 0 1 -0.25,0.43 l -12,6.95 a 0.47,0.47 0 0 1 -0.25,0.12 z m -0.21,-1.2 0.21,0.12 11,-6.37 -0.21,-0.13 z"
       class="cls-2" />
  </g>
  <g
     transform="translate(-246.88597,-74.503013)"
     style="isolation:isolate"
     id="g461"
     class="cls-13">
    <polygon
       style="fill:#a7c8fe"
       id="polygon449"
       points="420.13,238.56 420.13,241.34 421.34,242.04 421.33,239.26 "
       class="cls-5" />
    <path
       style="fill:#316dc9"
       id="path451"
       d="m 421.34,242.54 a 0.51,0.51 0 0 1 -0.25,-0.06 l -1.21,-0.71 a 0.49,0.49 0 0 1 -0.25,-0.43 v -2.78 a 0.48,0.48 0 0 1 0.25,-0.44 0.5,0.5 0 0 1 0.5,0 l 1.2,0.7 a 0.5,0.5 0 0 1 0.25,0.44 V 242 a 0.52,0.52 0 0 1 -0.25,0.44 0.57,0.57 0 0 1 -0.24,0.1 z m -0.71,-1.49 0.21,0.12 v -1.63 l -0.2,-0.11 z"
       class="cls-2" />
    <polygon
       style="fill:#ffffff"
       id="polygon453"
       points="410.04,244.38 410.04,247.17 420.13,241.34 420.13,238.56 "
       class="cls-7" />
    <path
       style="fill:#316dc9"
       id="path455"
       d="m 410,247.67 a 0.47,0.47 0 0 1 -0.25,-0.07 0.5,0.5 0 0 1 -0.25,-0.43 v -2.79 a 0.47,0.47 0 0 1 0.25,-0.43 l 10.09,-5.83 a 0.48,0.48 0 0 1 0.49,0 0.53,0.53 0 0 1 0.26,0.44 v 2.78 a 0.5,0.5 0 0 1 -0.25,0.44 l -10.09,5.82 a 0.43,0.43 0 0 1 -0.25,0.07 z m 0.5,-3 v 1.63 l 9.09,-5.25 v -1.63 z"
       class="cls-2" />
    <polygon
       style="fill:#3474f7"
       id="polygon457"
       points="421.34,242.04 420.13,241.34 410.04,247.17 411.25,247.87 "
       class="cls-12" />
    <path
       style="fill:#316dc9"
       id="path459"
       d="M 411.25,248.37 A 0.45,0.45 0 0 1 411,248.3 l -1.21,-0.7 a 0.5,0.5 0 0 1 -0.25,-0.43 0.52,0.52 0 0 1 0.25,-0.44 l 10.09,-5.82 a 0.5,0.5 0 0 1 0.5,0 l 1.21,0.7 a 0.5,0.5 0 0 1 0,0.87 l -10.09,5.82 a 0.47,0.47 0 0 1 -0.25,0.07 z m -0.21,-1.2 0.21,0.12 9.09,-5.25 -0.21,-0.12 z"
       class="cls-2" />
  </g>
  <path
     style="fill:#316dc9"
     id="path463"
     d="m 130.74403,399.62699 a 0.5,0.5 0 0 1 -0.43,-0.25 0.51,0.51 0 0 1 0.18,-0.69 l 360,-207.84 a 0.5,0.5 0 1 1 0.5,0.86 l -360,207.85 a 0.55,0.55 0 0 1 -0.25,0.07 z"
     class="cls-2" />
  <path
     style="fill:#ffffff"
     id="path465"
     d="m 400.42403,32.396987 a 5.14,5.14 0 0 0 -2.8,4.58 V 173.49699 c 0,0.35 0.61,0.63 1.36,0.63 0.75,0 1.37,-0.28 1.37,-0.63 V 38.856987 a 5.12,5.12 0 0 1 2.58,-4.46 l 50,-28.7699997 z"
     class="cls-7" />
  <path
     style="fill:#316dc9"
     id="path467"
     d="m 398.98403,174.59699 c -1.1,0 -1.86,-0.47 -1.86,-1.13 V 36.976987 a 5.63,5.63 0 0 1 3.08,-5 v 0 l 52.55,-26.7599997 a 0.51,0.51 0 0 1 0.67,0.21 0.5,0.5 0 0 1 -0.19,0.67 l -50,28.7599997 a 4.66,4.66 0 0 0 -2.33,4 V 173.49699 c -0.05,0.62 -0.79,1.1 -1.92,1.1 z m -0.86,-1.2 a 1.54,1.54 0 0 0 0.86,0.2 1.58,1.58 0 0 0 0.87,-0.2 V 38.856987 a 5.66,5.66 0 0 1 2.83,-4.9 l 32.91,-18.91 -34.94,17.79 a 4.64,4.64 0 0 0 -2.53,4.14 z"
     class="cls-2" />
  <g
     transform="translate(-246.88597,-74.503013)"
     style="isolation:isolate"
     id="g481"
     class="cls-13">
    <polygon
       style="fill:#a7c8fe"
       id="polygon469"
       points="705.89,75 705.9,77.79 707.1,78.49 707.09,75.7 "
       class="cls-5" />
    <path
       style="fill:#316dc9"
       id="path471"
       d="m 707.1,79 a 0.45,0.45 0 0 1 -0.25,-0.07 l -1.21,-0.7 A 0.5,0.5 0 0 1 705.4,77.8 V 75 a 0.48,0.48 0 0 1 0.25,-0.43 0.5,0.5 0 0 1 0.5,0 l 1.2,0.7 a 0.48,0.48 0 0 1 0.25,0.43 v 2.79 a 0.48,0.48 0 0 1 -0.25,0.43 0.45,0.45 0 0 1 -0.25,0.08 z m -0.71,-1.49 0.21,0.12 V 76 l -0.2,-0.12 z"
       class="cls-2" />
    <polygon
       style="fill:#ffffff"
       id="polygon473"
       points="693.85,81.95 693.86,84.74 705.9,77.79 705.89,75 "
       class="cls-7" />
    <path
       style="fill:#316dc9"
       id="path475"
       d="m 693.86,85.24 a 0.43,0.43 0 0 1 -0.25,-0.07 0.48,0.48 0 0 1 -0.25,-0.43 V 82 a 0.5,0.5 0 0 1 0.25,-0.43 l 12,-7 a 0.5,0.5 0 0 1 0.5,0 0.5,0.5 0 0 1 0.25,0.43 v 2.79 a 0.5,0.5 0 0 1 -0.25,0.43 l -12,7 a 0.47,0.47 0 0 1 -0.25,0.02 z m 0.49,-3 v 1.63 l 11,-6.37 v -1.63 z"
       class="cls-2" />
    <polygon
       style="fill:#3474f7"
       id="polygon477"
       points="707.1,78.49 705.9,77.79 693.86,84.74 695.06,85.44 "
       class="cls-12" />
    <path
       style="fill:#316dc9"
       id="path479"
       d="m 695.06,85.94 a 0.45,0.45 0 0 1 -0.25,-0.07 l -1.21,-0.7 a 0.5,0.5 0 0 1 -0.24,-0.43 0.48,0.48 0 0 1 0.25,-0.43 l 12,-7 a 0.52,0.52 0 0 1 0.5,0 l 1.2,0.7 a 0.49,0.49 0 0 1 0,0.86 l -12,7 a 0.45,0.45 0 0 1 -0.25,0.07 z m -0.21,-1.2 0.21,0.12 11,-6.37 -0.21,-0.12 z"
       class="cls-2" />
  </g>
  <g
     transform="translate(-246.88597,-74.503013)"
     style="isolation:isolate"
     id="g495"
     class="cls-13">
    <polygon
       style="fill:#a7c8fe"
       id="polygon483"
       points="702.73,75.43 702.74,78.21 703.94,78.91 703.94,76.13 "
       class="cls-5" />
    <path
       style="fill:#316dc9"
       id="path485"
       d="m 703.94,79.41 a 0.57,0.57 0 0 1 -0.25,-0.06 l -1.2,-0.7 a 0.5,0.5 0 0 1 -0.25,-0.44 V 75.43 A 0.49,0.49 0 0 1 703,75 l 1.21,0.7 a 0.49,0.49 0 0 1 0.25,0.43 v 2.78 a 0.48,0.48 0 0 1 -0.25,0.44 0.51,0.51 0 0 1 -0.27,0.06 z m -0.7,-1.48 0.2,0.11 v -1.62 l -0.21,-0.12 z"
       class="cls-2" />
    <polygon
       style="fill:#ffffff"
       id="polygon487"
       points="692.64,81.25 692.65,84.04 702.74,78.21 702.73,75.43 "
       class="cls-7" />
    <path
       style="fill:#316dc9"
       id="path489"
       d="m 692.65,84.54 a 0.45,0.45 0 0 1 -0.25,-0.07 0.48,0.48 0 0 1 -0.25,-0.43 v -2.79 a 0.52,0.52 0 0 1 0.25,-0.43 L 702.48,75 a 0.55,0.55 0 0 1 0.5,0 0.5,0.5 0 0 1 0.25,0.44 v 2.78 a 0.52,0.52 0 0 1 -0.25,0.44 l -10.08,5.81 a 0.45,0.45 0 0 1 -0.25,0.07 z m 0.49,-3 v 1.63 l 9.09,-5.24 v -1.64 z"
       class="cls-2" />
    <polygon
       style="fill:#3474f7"
       id="polygon491"
       points="703.94,78.91 702.74,78.21 692.65,84.04 693.86,84.74 "
       class="cls-12" />
    <path
       style="fill:#316dc9"
       id="path493"
       d="m 693.85,85.24 a 0.47,0.47 0 0 1 -0.25,-0.07 l -1.2,-0.7 a 0.48,0.48 0 0 1 -0.25,-0.43 0.47,0.47 0 0 1 0.25,-0.43 l 10.09,-5.83 a 0.5,0.5 0 0 1 0.5,0 l 1.21,0.7 a 0.51,0.51 0 0 1 0.24,0.44 0.5,0.5 0 0 1 -0.25,0.43 l -10.09,5.82 a 0.43,0.43 0 0 1 -0.25,0.07 z m -0.2,-1.2 0.21,0.12 9.14,-5.25 -0.21,-0.12 z"
       class="cls-2" />
  </g>
  <path
     style="fill:#ffffff"
     id="path497"
     d="m 305.93403,86.766987 a 5.15,5.15 0 0 0 -2.82,4.59 V 227.84699 c 0,0.34 0.61,0.62 1.37,0.62 0.76,0 1.38,-0.28 1.38,-0.62 V 93.226987 a 5.13,5.13 0 0 1 2.59,-4.46 l 50.29,-28.76 z"
     class="cls-7" />
  <path
     style="fill:#316dc9"
     id="path499"
     d="m 304.48403,228.96699 c -1.1,0 -1.87,-0.46 -1.87,-1.12 V 91.356987 a 5.61,5.61 0 0 1 3.09,-5 l 0.23,0.44 -0.23,-0.44 52.82,-26.77 a 0.5,0.5 0 0 1 0.47,0.88 l -50.29,28.77 a 4.62,4.62 0 0 0 -2.34,4 V 227.84699 c 0,0.65 -0.77,1.12 -1.88,1.12 z m -0.87,-1.2 a 1.58,1.58 0 0 0 0.87,0.2 1.63,1.63 0 0 0 0.88,-0.2 V 93.226987 a 5.65,5.65 0 0 1 2.84,-4.89 l 33.08,-18.92 -35.12,17.8 a 4.61,4.61 0 0 0 -2.55,4.14 z"
     class="cls-2" />
  <g
     transform="translate(-246.88597,-74.503013)"
     style="isolation:isolate"
     id="g513"
     class="cls-13">
    <polygon
       style="fill:#a7c8fe"
       id="polygon501"
       points="611.68,129.38 611.69,132.16 612.9,132.86 612.89,130.08 "
       class="cls-5" />
    <path
       style="fill:#316dc9"
       id="path503"
       d="m 612.9,133.36 a 0.54,0.54 0 0 1 -0.25,-0.06 l -1.21,-0.7 a 0.5,0.5 0 0 1 -0.25,-0.43 v -2.79 a 0.5,0.5 0 0 1 0.75,-0.43 l 1.21,0.7 a 0.47,0.47 0 0 1 0.25,0.43 v 2.78 a 0.52,0.52 0 0 1 -0.25,0.44 0.54,0.54 0 0 1 -0.25,0.06 z m -0.71,-1.48 0.21,0.12 v -1.63 l -0.21,-0.12 z"
       class="cls-2" />
    <polygon
       style="fill:#ffffff"
       id="polygon505"
       points="599.58,136.33 599.59,139.12 611.69,132.16 611.68,129.38 "
       class="cls-7" />
    <path
       style="fill:#316dc9"
       id="path507"
       d="m 599.59,139.62 a 0.55,0.55 0 0 1 -0.25,-0.07 0.5,0.5 0 0 1 -0.25,-0.43 v -2.79 a 0.49,0.49 0 0 1 0.25,-0.43 l 12.1,-7 a 0.55,0.55 0 0 1 0.5,0 0.52,0.52 0 0 1 0.25,0.44 v 2.78 a 0.52,0.52 0 0 1 -0.25,0.44 l -12.1,7 a 0.59,0.59 0 0 1 -0.25,0.06 z m 0.49,-3 v 1.63 l 11.1,-6.38 v -1.63 z"
       class="cls-2" />
    <polygon
       style="fill:#3474f7"
       id="polygon509"
       points="612.9,132.86 611.69,132.16 599.59,139.12 600.8,139.82 "
       class="cls-12" />
    <path
       style="fill:#316dc9"
       id="path511"
       d="m 600.8,140.32 a 0.55,0.55 0 0 1 -0.25,-0.07 l -1.21,-0.7 a 0.5,0.5 0 0 1 0,-0.87 l 12.1,-7 a 0.5,0.5 0 0 1 0.5,0 l 1.21,0.7 a 0.5,0.5 0 0 1 0,0.87 l -12.1,6.95 a 0.55,0.55 0 0 1 -0.25,0.12 z m -0.21,-1.2 0.21,0.12 11.1,-6.38 -0.21,-0.12 z"
       class="cls-2" />
  </g>
  <g
     transform="translate(-246.88597,-74.503013)"
     style="isolation:isolate"
     id="g527"
     class="cls-13">
    <polygon
       style="fill:#a7c8fe"
       id="polygon515"
       points="608.51,129.8 608.52,132.59 609.73,133.29 609.72,130.5 "
       class="cls-5" />
    <path
       style="fill:#316dc9"
       id="path517"
       d="m 609.73,133.79 a 0.43,0.43 0 0 1 -0.25,-0.07 l -1.21,-0.7 a 0.48,0.48 0 0 1 -0.25,-0.43 v -2.78 a 0.5,0.5 0 0 1 0.75,-0.44 l 1.21,0.7 a 0.5,0.5 0 0 1 0.25,0.43 v 2.79 a 0.5,0.5 0 0 1 -0.25,0.43 0.47,0.47 0 0 1 -0.25,0.07 z m -0.73,-1.49 0.22,0.12 v -1.63 l -0.21,-0.12 z"
       class="cls-2" />
    <polygon
       style="fill:#ffffff"
       id="polygon519"
       points="598.37,135.63 598.38,138.41 608.52,132.59 608.51,129.8 "
       class="cls-7" />
    <path
       style="fill:#316dc9"
       id="path521"
       d="m 598.38,138.92 a 0.52,0.52 0 0 1 -0.25,-0.07 0.5,0.5 0 0 1 -0.25,-0.43 v -2.79 a 0.48,0.48 0 0 1 0.25,-0.43 l 10.14,-5.83 a 0.5,0.5 0 0 1 0.5,0 0.5,0.5 0 0 1 0.25,0.43 v 2.79 a 0.49,0.49 0 0 1 -0.26,0.43 l -10.13,5.83 a 0.59,0.59 0 0 1 -0.25,0.07 z m 0.49,-3 v 1.63 L 608,132.3 v -1.63 z"
       class="cls-2" />
    <polygon
       style="fill:#3474f7"
       id="polygon523"
       points="609.73,133.29 608.52,132.59 598.38,138.41 599.59,139.12 "
       class="cls-12" />
    <path
       style="fill:#316dc9"
       id="path525"
       d="m 599.59,139.62 a 0.52,0.52 0 0 1 -0.25,-0.07 l -1.21,-0.7 a 0.5,0.5 0 0 1 0,-0.87 l 10.14,-5.82 a 0.5,0.5 0 0 1 0.5,0 l 1.21,0.7 a 0.5,0.5 0 0 1 0.25,0.43 0.49,0.49 0 0 1 -0.25,0.43 l -10.14,5.83 a 0.59,0.59 0 0 1 -0.25,0.07 z m -0.21,-1.2 0.21,0.12 9.14,-5.25 -0.22,-0.12 z"
       class="cls-2" />
  </g>
  <path
     style="fill:#ffffff"
     id="path529"
     d="m 212.02403,141.14699 a 5.15,5.15 0 0 0 -2.81,4.58 v 136.49 c 0,0.35 0.61,0.63 1.37,0.63 0.76,0 1.37,-0.28 1.37,-0.63 v -134.61 a 5.14,5.14 0 0 1 2.58,-4.46 l 50.05,-28.76 z"
     class="cls-7" />
  <path
     style="fill:#316dc9"
     id="path531"
     d="m 210.58403,283.34699 c -1.08,0 -1.87,-0.48 -1.87,-1.13 v -136.49 a 5.6,5.6 0 0 1 3.08,-5 l 52.56,-26.77 a 0.51,0.51 0 0 1 0.67,0.21 0.51,0.51 0 0 1 -0.19,0.67 l -50.06,28.76 a 4.67,4.67 0 0 0 -2.32,4 v 134.62 c 0,0.65 -0.79,1.13 -1.87,1.13 z m -0.87,-1.2 a 2,2 0 0 0 1.74,0 v -134.54 a 5.63,5.63 0 0 1 2.83,-4.89 l 32.9,-18.91 -34.93,17.79 v 0 a 4.6,4.6 0 0 0 -2.54,4.13 z m 2.31,-141 z"
     class="cls-2" />
  <g
     transform="translate(-246.88597,-74.503013)"
     style="isolation:isolate"
     id="g545"
     class="cls-13">
    <polygon
       style="fill:#a7c8fe"
       id="polygon533"
       points="517.48,183.75 517.49,186.54 518.7,187.24 518.69,184.46 "
       class="cls-5" />
    <path
       style="fill:#316dc9"
       id="path535"
       d="m 518.7,187.74 a 0.43,0.43 0 0 1 -0.25,-0.07 l -1.21,-0.7 a 0.5,0.5 0 0 1 -0.25,-0.43 v -2.78 a 0.52,0.52 0 0 1 0.25,-0.44 0.52,0.52 0 0 1 0.51,0 l 1.2,0.7 a 0.52,0.52 0 0 1 0.25,0.43 v 2.79 a 0.5,0.5 0 0 1 -0.25,0.43 0.47,0.47 0 0 1 -0.25,0.07 z m -0.71,-1.49 0.2,0.12 v -1.63 l -0.2,-0.12 z"
       class="cls-2" />
    <polygon
       style="fill:#ffffff"
       id="polygon537"
       points="505.44,190.71 505.45,193.49 517.49,186.54 517.48,183.75 "
       class="cls-7" />
    <path
       style="fill:#316dc9"
       id="path539"
       d="m 505.45,194 a 0.57,0.57 0 0 1 -0.25,-0.06 0.52,0.52 0 0 1 -0.25,-0.44 v -2.78 a 0.52,0.52 0 0 1 0.25,-0.44 l 12,-7 a 0.5,0.5 0 0 1 0.5,0 0.48,0.48 0 0 1 0.25,0.43 v 2.79 a 0.48,0.48 0 0 1 -0.25,0.43 l -12,6.95 a 0.45,0.45 0 0 1 -0.25,0.12 z m 0.5,-3 v 1.64 l 11,-6.38 v -1.63 z"
       class="cls-2" />
    <polygon
       style="fill:#3474f7"
       id="polygon541"
       points="518.7,187.24 517.49,186.54 505.45,193.49 506.66,194.19 "
       class="cls-12" />
    <path
       style="fill:#316dc9"
       id="path543"
       d="m 506.66,194.69 a 0.43,0.43 0 0 1 -0.25,-0.07 l -1.21,-0.7 a 0.49,0.49 0 0 1 0,-0.86 l 12,-6.95 a 0.5,0.5 0 0 1 0.5,0 l 1.21,0.7 a 0.49,0.49 0 0 1 0,0.86 l -12,7 a 0.57,0.57 0 0 1 -0.25,0.02 z m -0.21,-1.2 0.21,0.12 11,-6.37 -0.21,-0.12 z"
       class="cls-2" />
  </g>
  <g
     transform="translate(-246.88597,-74.503013)"
     style="isolation:isolate"
     id="g559"
     class="cls-13">
    <polygon
       style="fill:#a7c8fe"
       id="polygon547"
       points="514.33,184.18 514.34,186.97 515.54,187.67 515.53,184.88 "
       class="cls-5" />
    <path
       style="fill:#316dc9"
       id="path549"
       d="m 515.54,188.17 a 0.55,0.55 0 0 1 -0.25,-0.07 l -1.21,-0.7 a 0.5,0.5 0 0 1 -0.24,-0.43 v -2.79 a 0.48,0.48 0 0 1 0.25,-0.43 0.5,0.5 0 0 1 0.5,0 l 1.2,0.7 a 0.48,0.48 0 0 1 0.25,0.43 v 2.79 a 0.5,0.5 0 0 1 -0.25,0.43 0.55,0.55 0 0 1 -0.25,0.07 z m -0.71,-1.49 0.21,0.12 v -1.63 l -0.2,-0.12 z"
       class="cls-2" />
    <polygon
       style="fill:#ffffff"
       id="polygon551"
       points="504.24,190.01 504.25,192.79 514.34,186.97 514.33,184.18 "
       class="cls-7" />
    <path
       style="fill:#316dc9"
       id="path553"
       d="m 504.25,193.29 a 0.51,0.51 0 0 1 -0.25,-0.06 0.5,0.5 0 0 1 -0.25,-0.44 V 190 a 0.5,0.5 0 0 1 0.25,-0.44 l 10.09,-5.82 a 0.5,0.5 0 0 1 0.5,0 0.5,0.5 0 0 1 0.25,0.43 V 187 a 0.52,0.52 0 0 1 -0.25,0.44 l -10.09,5.82 a 0.47,0.47 0 0 1 -0.25,0.03 z m 0.49,-3 v 1.64 l 9.09,-5.25 V 185 Z"
       class="cls-2" />
    <polygon
       style="fill:#3474f7"
       id="polygon555"
       points="515.54,187.67 514.34,186.97 504.25,192.79 505.45,193.49 "
       class="cls-12" />
    <path
       style="fill:#316dc9"
       id="path557"
       d="m 505.45,194 a 0.45,0.45 0 0 1 -0.25,-0.07 l -1.21,-0.7 a 0.5,0.5 0 0 1 -0.24,-0.43 0.48,0.48 0 0 1 0.25,-0.43 l 10.09,-5.83 a 0.5,0.5 0 0 1 0.5,0 l 1.2,0.7 a 0.5,0.5 0 0 1 0.25,0.44 0.48,0.48 0 0 1 -0.25,0.43 l -10.09,5.82 a 0.45,0.45 0 0 1 -0.25,0.07 z m -0.21,-1.2 0.21,0.12 9.09,-5.24 -0.21,-0.13 z"
       class="cls-2" />
  </g>
</svg>
