<?xml version="1.0" encoding="utf-8"?>
<!-- Generator: Adobe Illustrator 22.0.0, SVG Export Plug-In . SVG Version: 6.00 Build 0)  -->
<svg version="1.1" id="Слой_1" xmlns="http://www.w3.org/2000/svg" xmlns:xlink="http://www.w3.org/1999/xlink" x="0px" y="0px"
	 viewBox="0 0 1280 700" style="enable-background:new 0 0 1280 700;" xml:space="preserve">
<style type="text/css">
	.st0{fill:none;}
	.st1{fill:#E09480;}
	.st2{fill:#F9E1DC;}
	.st3{fill:#FFFFFF;}
	.st4{fill:#EAA496;stroke:#825441;stroke-linecap:round;stroke-linejoin:round;stroke-miterlimit:10;}
	.st5{fill:#B7674B;stroke:#825441;stroke-linecap:round;stroke-linejoin:round;stroke-miterlimit:10;}
	.st6{fill:#FFFFFF;stroke:#825441;stroke-linecap:round;stroke-linejoin:round;stroke-miterlimit:10;}
	.st7{fill:#E09480;stroke:#825441;stroke-linecap:round;stroke-linejoin:round;stroke-miterlimit:10;}
	.st8{fill:#FFFFFF;stroke:#825441;stroke-miterlimit:10;}
	.st9{fill:none;stroke:#825441;stroke-linecap:round;stroke-linejoin:round;stroke-miterlimit:10;}
	.st10{fill:#F9E1DC;stroke:#825441;stroke-miterlimit:10;}
	.st11{fill:#F9E1DC;stroke:#825441;stroke-linecap:round;stroke-linejoin:round;stroke-miterlimit:10;}
	.st12{fill:#F2C2B8;stroke:#825441;stroke-linecap:round;stroke-linejoin:round;stroke-miterlimit:10;}
	.st13{fill:#D88575;stroke:#825441;stroke-linecap:round;stroke-linejoin:round;stroke-miterlimit:10;}
	.st14{fill:url(#Новый_образец_узора_1);}
	.st15{enable-background:new    ;}
	.st16{clip-path:url(#SVGID_2_);fill:#FFFFFF;stroke:#825441;stroke-linecap:round;stroke-linejoin:round;stroke-miterlimit:10;}
	.st17{clip-path:url(#SVGID_4_);fill:#B7674B;stroke:#825441;stroke-linecap:round;stroke-linejoin:round;stroke-miterlimit:10;}
	
		.st18{fill:url(#Новый_образец_узора_1);stroke:#825441;stroke-linecap:round;stroke-linejoin:round;stroke-miterlimit:10;}
	.st19{clip-path:url(#SVGID_6_);enable-background:new    ;}
	.st20{clip-path:url(#SVGID_8_);enable-background:new    ;}
	.st21{clip-path:url(#SVGID_10_);enable-background:new    ;}
	.st22{clip-path:url(#SVGID_12_);enable-background:new    ;}
	.st23{clip-path:url(#SVGID_14_);}
	.st24{clip-path:url(#SVGID_16_);enable-background:new    ;}
	.st25{clip-path:url(#SVGID_18_);enable-background:new    ;}
	.st26{fill:#D88575;}
</style>
<pattern  x="-951.1" y="-1482.1" width="11" height="11" patternUnits="userSpaceOnUse" id="Новый_образец_узора_1" viewBox="1.1 -12.1 11 11" style="overflow:visible;">
	<g>
		<rect x="1.1" y="-12.1" class="st0" width="11" height="11"/>
		<g>
			<path class="st1" d="M11.2-0.9c0,0.5,0.4,0.9,0.9,0.9s0.9-0.4,0.9-0.9c0-0.5-0.4-0.9-0.9-0.9S11.2-1.4,11.2-0.9z"/>
			<path class="st1" d="M12.2,0c0.5,0,0.9-0.4,0.9-0.9c0-0.5-0.4-0.9-0.9-0.9s-0.9,0.4-0.9,0.9C11.2-0.4,11.7,0,12.2,0z"/>
		</g>
		<g>
			<path class="st1" d="M11-0.9C11-0.4,11.4,0,11.9,0c0.5,0,0.9-0.4,0.9-0.9c0-0.5-0.4-0.9-0.9-0.9C11.4-1.9,11-1.4,11-0.9z"/>
			<path class="st1" d="M7.4-0.9C7.4-0.4,7.8,0,8.3,0c0.5,0,0.9-0.4,0.9-0.9c0-0.5-0.4-0.9-0.9-0.9C7.8-1.9,7.4-1.4,7.4-0.9z"/>
			<path class="st1" d="M3.8-0.9C3.8-0.4,4.2,0,4.8,0c0.5,0,0.9-0.4,0.9-0.9c0-0.5-0.4-0.9-0.9-0.9C4.2-1.9,3.8-1.4,3.8-0.9z"/>
			<path class="st1" d="M0.2-0.9C0.2-0.4,0.7,0,1.2,0s0.9-0.4,0.9-0.9c0-0.5-0.4-0.9-0.9-0.9S0.2-1.4,0.2-0.9z"/>
			<path class="st1" d="M11.9,0c0.5,0,0.9-0.4,0.9-0.9c0-0.5-0.4-0.9-0.9-0.9c-0.5,0-0.9,0.4-0.9,0.9C11-0.4,11.4,0,11.9,0z"/>
			<path class="st1" d="M8.3,0c0.5,0,0.9-0.4,0.9-0.9c0-0.5-0.4-0.9-0.9-0.9c-0.5,0-0.9,0.4-0.9,0.9C7.4-0.4,7.8,0,8.3,0z"/>
			<path class="st1" d="M4.8,0c0.5,0,0.9-0.4,0.9-0.9c0-0.5-0.4-0.9-0.9-0.9c-0.5,0-0.9,0.4-0.9,0.9C3.8-0.4,4.2,0,4.8,0z"/>
			<path class="st1" d="M1.2,0c0.5,0,0.9-0.4,0.9-0.9c0-0.5-0.4-0.9-0.9-0.9S0.2-1.4,0.2-0.9C0.2-0.4,0.7,0,1.2,0z"/>
		</g>
		<g>
			<path class="st1" d="M0-0.9C0-0.4,0.4,0,0.9,0c0.5,0,0.9-0.4,0.9-0.9c0-0.5-0.4-0.9-0.9-0.9C0.4-1.9,0-1.4,0-0.9z"/>
			<path class="st1" d="M0.9,0c0.5,0,0.9-0.4,0.9-0.9c0-0.5-0.4-0.9-0.9-0.9C0.4-1.9,0-1.4,0-0.9C0-0.4,0.4,0,0.9,0z"/>
		</g>
		<g>
			<path class="st1" d="M11.2-11.9c0,0.5,0.4,0.9,0.9,0.9s0.9-0.4,0.9-0.9c0-0.5-0.4-0.9-0.9-0.9S11.2-12.4,11.2-11.9z"/>
			<path class="st1" d="M12.2-11c0.5,0,0.9-0.4,0.9-0.9c0-0.5-0.4-0.9-0.9-0.9s-0.9,0.4-0.9,0.9C11.2-11.4,11.7-11,12.2-11z"/>
			<path class="st1" d="M12.2-7.4c0.5,0,0.9-0.4,0.9-0.9s-0.4-0.9-0.9-0.9s-0.9,0.4-0.9,0.9S11.7-7.4,12.2-7.4z"/>
			<path class="st1" d="M12.2-3.8c0.5,0,0.9-0.4,0.9-0.9c0-0.5-0.4-0.9-0.9-0.9s-0.9,0.4-0.9,0.9C11.2-4.2,11.7-3.8,12.2-3.8z"/>
			<circle class="st1" cx="12.2" cy="-1.2" r="0.9"/>
		</g>
		<g>
			<path class="st1" d="M11-11.9c0,0.5,0.4,0.9,0.9,0.9c0.5,0,0.9-0.4,0.9-0.9c0-0.5-0.4-0.9-0.9-0.9C11.4-12.9,11-12.4,11-11.9z"/>
			<path class="st1" d="M7.4-11.9c0,0.5,0.4,0.9,0.9,0.9c0.5,0,0.9-0.4,0.9-0.9c0-0.5-0.4-0.9-0.9-0.9C7.8-12.9,7.4-12.4,7.4-11.9z"
				/>
			<path class="st1" d="M3.8-11.9c0,0.5,0.4,0.9,0.9,0.9c0.5,0,0.9-0.4,0.9-0.9c0-0.5-0.4-0.9-0.9-0.9C4.2-12.9,3.8-12.4,3.8-11.9z"
				/>
			<path class="st1" d="M0.2-11.9c0,0.5,0.4,0.9,0.9,0.9s0.9-0.4,0.9-0.9c0-0.5-0.4-0.9-0.9-0.9S0.2-12.4,0.2-11.9z"/>
			<path class="st1" d="M11.9-11c0.5,0,0.9-0.4,0.9-0.9c0-0.5-0.4-0.9-0.9-0.9c-0.5,0-0.9,0.4-0.9,0.9C11-11.4,11.4-11,11.9-11z"/>
			<path class="st1" d="M11.9-7.4c0.5,0,0.9-0.4,0.9-0.9s-0.4-0.9-0.9-0.9c-0.5,0-0.9,0.4-0.9,0.9S11.4-7.4,11.9-7.4z"/>
			<path class="st1" d="M11.9-3.8c0.5,0,0.9-0.4,0.9-0.9c0-0.5-0.4-0.9-0.9-0.9c-0.5,0-0.9,0.4-0.9,0.9C11-4.2,11.4-3.8,11.9-3.8z"
				/>
			<circle class="st1" cx="11.9" cy="-1.2" r="0.9"/>
			<path class="st1" d="M8.3-11c0.5,0,0.9-0.4,0.9-0.9c0-0.5-0.4-0.9-0.9-0.9c-0.5,0-0.9,0.4-0.9,0.9C7.4-11.4,7.8-11,8.3-11z"/>
			<path class="st1" d="M8.3-7.4c0.5,0,0.9-0.4,0.9-0.9S8.9-9.3,8.3-9.3c-0.5,0-0.9,0.4-0.9,0.9S7.8-7.4,8.3-7.4z"/>
			<path class="st1" d="M8.3-3.8c0.5,0,0.9-0.4,0.9-0.9c0-0.5-0.4-0.9-0.9-0.9c-0.5,0-0.9,0.4-0.9,0.9C7.4-4.2,7.8-3.8,8.3-3.8z"/>
			<path class="st1" d="M8.3-0.2c0.5,0,0.9-0.4,0.9-0.9c0-0.5-0.4-0.9-0.9-0.9c-0.5,0-0.9,0.4-0.9,0.9C7.4-0.7,7.8-0.2,8.3-0.2z"/>
			<path class="st1" d="M4.8-11c0.5,0,0.9-0.4,0.9-0.9c0-0.5-0.4-0.9-0.9-0.9c-0.5,0-0.9,0.4-0.9,0.9C3.8-11.4,4.2-11,4.8-11z"/>
			<path class="st1" d="M4.8-7.4c0.5,0,0.9-0.4,0.9-0.9S5.3-9.3,4.8-9.3c-0.5,0-0.9,0.4-0.9,0.9S4.2-7.4,4.8-7.4z"/>
			<path class="st1" d="M4.8-3.8c0.5,0,0.9-0.4,0.9-0.9c0-0.5-0.4-0.9-0.9-0.9c-0.5,0-0.9,0.4-0.9,0.9C3.8-4.2,4.2-3.8,4.8-3.8z"/>
			<path class="st1" d="M4.8-0.2c0.5,0,0.9-0.4,0.9-0.9c0-0.5-0.4-0.9-0.9-0.9c-0.5,0-0.9,0.4-0.9,0.9C3.8-0.7,4.2-0.2,4.8-0.2z"/>
			<path class="st1" d="M1.2-11c0.5,0,0.9-0.4,0.9-0.9c0-0.5-0.4-0.9-0.9-0.9s-0.9,0.4-0.9,0.9C0.2-11.4,0.7-11,1.2-11z"/>
			<path class="st1" d="M1.2-7.4c0.5,0,0.9-0.4,0.9-0.9S1.7-9.3,1.2-9.3S0.2-8.9,0.2-8.3S0.7-7.4,1.2-7.4z"/>
			<path class="st1" d="M1.2-3.8c0.5,0,0.9-0.4,0.9-0.9c0-0.5-0.4-0.9-0.9-0.9S0.2-5.3,0.2-4.8C0.2-4.2,0.7-3.8,1.2-3.8z"/>
			<circle class="st1" cx="1.2" cy="-1.2" r="0.9"/>
		</g>
		<g>
			<path class="st1" d="M0-11.9C0-11.4,0.4-11,0.9-11c0.5,0,0.9-0.4,0.9-0.9c0-0.5-0.4-0.9-0.9-0.9C0.4-12.9,0-12.4,0-11.9z"/>
			<path class="st1" d="M0.9-11c0.5,0,0.9-0.4,0.9-0.9c0-0.5-0.4-0.9-0.9-0.9c-0.5,0-0.9,0.4-0.9,0.9C0-11.4,0.4-11,0.9-11z"/>
			<path class="st1" d="M0.9-7.4c0.5,0,0.9-0.4,0.9-0.9S1.4-9.3,0.9-9.3C0.4-9.3,0-8.9,0-8.3S0.4-7.4,0.9-7.4z"/>
			<path class="st1" d="M0.9-3.8c0.5,0,0.9-0.4,0.9-0.9c0-0.5-0.4-0.9-0.9-0.9C0.4-5.7,0-5.3,0-4.8C0-4.2,0.4-3.8,0.9-3.8z"/>
			<circle class="st1" cx="0.9" cy="-1.2" r="0.9"/>
		</g>
		<g>
			<circle class="st1" cx="12.2" cy="-12.2" r="0.9"/>
		</g>
		<g>
			<circle class="st1" cx="11.9" cy="-12.2" r="0.9"/>
			<path class="st1" d="M8.3-11.2c0.5,0,0.9-0.4,0.9-0.9c0-0.5-0.4-0.9-0.9-0.9c-0.5,0-0.9,0.4-0.9,0.9C7.4-11.7,7.8-11.2,8.3-11.2z
				"/>
			<path class="st1" d="M4.8-11.2c0.5,0,0.9-0.4,0.9-0.9c0-0.5-0.4-0.9-0.9-0.9c-0.5,0-0.9,0.4-0.9,0.9C3.8-11.7,4.2-11.2,4.8-11.2z
				"/>
			<circle class="st1" cx="1.2" cy="-12.2" r="0.9"/>
		</g>
		<g>
			<circle class="st1" cx="0.9" cy="-12.2" r="0.9"/>
		</g>
	</g>
</pattern>
<g>
	<path class="st2" d="M474.2,516.1l-148.1-85.8c-8.8-5.1-8.7-17.7,0-22.8L469,325.2v-64.5l78.5,45.3l53.8-31l189.5,109.4l0,0
		L954,478.8c8.5,4.9,8.5,17.2,0,22.2L764.7,610.3c-5.9,3.4-13.1,3.4-19,0.1l0,0c-8.2-4.7-18.3-4.6-26.5,0.1l-21.1,12.2
		c-12.2,7-27.1,7-39.3,0L474.2,516.1z"/>
</g>
<polygon class="st4" points="535.3,479.8 509.3,464.8 509.3,432.7 535.3,447.7 "/>
<polygon class="st4" points="783.5,403.8 770.4,411.3 755.4,402.7 755.4,387.6 603.2,299.7 552.1,329.3 519.4,310.4 519.4,323.3 
	406.5,388.3 406.6,388.4 406.4,388.5 496.3,440.2 509.3,432.7 535.3,447.7 524.3,454 524.3,456.4 676.5,544.3 727.7,514.7 
	749.4,527 873,455.7 "/>
<polygon class="st6" points="524.3,454 524.3,456.4 524.3,488.7 676.5,576.6 676.5,544.3 "/>
<polygon class="st5" points="818.1,411.7 663,501.2 663,288.9 818.1,199.3 "/>
<polygon class="st7" points="851.3,455.5 749.3,514.4 749.3,333.2 851.3,274.3 "/>
<g>
	<polygon class="st6" points="783.8,347.4 767.4,356.9 767.4,333.9 783.8,324.5 	"/>
	<polygon class="st6" points="802.1,336.9 792,342.7 792,319.7 802.1,313.9 	"/>
	<polygon class="st6" points="783.8,382.5 767.4,392 767.4,369 783.8,359.6 	"/>
	<polygon class="st6" points="802.1,372 792,377.8 792,354.8 802.1,349 	"/>
	<polygon class="st6" points="783.8,417.6 767.4,427.1 767.4,404.1 783.8,394.6 	"/>
	<polygon class="st6" points="802.1,407 792,412.9 792,389.9 802.1,384.1 	"/>
	<polygon class="st6" points="783.8,452.7 767.4,462.2 767.4,439.2 783.8,429.7 	"/>
	<polygon class="st6" points="802.1,442.1 792,448 792,425 802.1,419.2 	"/>
	<polygon class="st6" points="783.8,487.8 767.4,497.2 767.4,474.3 783.8,464.8 	"/>
	<polygon class="st6" points="802.1,477.2 792,483.1 792,460.1 802.1,454.2 	"/>
	<line class="st6" x1="775.6" y1="329.2" x2="775.6" y2="352.2"/>
	<line class="st6" x1="775.6" y1="364.3" x2="775.6" y2="387.3"/>
	<line class="st6" x1="775.6" y1="399.4" x2="775.6" y2="422.3"/>
	<line class="st6" x1="775.6" y1="434.5" x2="775.6" y2="457.4"/>
	<line class="st6" x1="775.6" y1="469.5" x2="775.6" y2="492.5"/>
	<polygon class="st6" points="851.3,308.5 821.4,325.7 821.4,302.7 851.3,285.5 	"/>
	<polygon class="st6" points="851.3,343.6 821.4,360.8 821.4,337.8 851.3,320.6 	"/>
	<polygon class="st6" points="851.3,378.6 821.4,395.9 821.4,372.9 851.3,355.7 	"/>
	<polygon class="st6" points="851.3,413.7 821.4,431 821.4,408 851.3,390.8 	"/>
	<polygon class="st6" points="851.3,448.8 821.4,466.1 821.4,443.1 851.3,425.8 	"/>
	<line class="st6" x1="829.6" y1="298" x2="829.6" y2="321"/>
	<line class="st6" x1="829.6" y1="333.1" x2="829.6" y2="356.1"/>
	<line class="st6" x1="829.6" y1="368.2" x2="829.6" y2="391.2"/>
	<line class="st6" x1="829.6" y1="403.3" x2="829.6" y2="426.2"/>
	<line class="st6" x1="829.6" y1="438.4" x2="829.6" y2="461.3"/>
</g>
<polygon class="st7" points="663,508.7 441.7,381 441.7,161 663,288.7 "/>
<polygon class="st6" points="562.7,271.9 552.6,266.1 552.6,238.3 562.7,244.2 "/>
<line class="st9" x1="557.6" y1="241.3" x2="557.6" y2="269"/>
<polygon class="st7" points="441.7,202.4 428.4,210.1 496.3,249.2 509.6,241.5 "/>
<polygon class="st6" points="676.5,531.6 535.3,450 535.3,268.8 676.5,350.4 "/>
<polygon class="st6" points="606.9,489.3 590.5,479.9 590.5,452.4 606.9,461.9 "/>
<line class="st9" x1="598.7" y1="457.1" x2="598.7" y2="484.6"/>
<polygon class="st6" points="628.3,501.7 611.9,492.2 611.9,464.8 628.3,474.2 "/>
<line class="st9" x1="620.1" y1="469.5" x2="620.1" y2="497"/>
<polygon class="st7" points="611.9,510.9 611.9,513.3 628.3,503.9 628.3,501.5 "/>
<polygon class="st6" points="611.9,513.3 574.1,491.5 574.1,489.1 611.9,510.9 "/>
<polygon class="st6" points="611.9,510.9 574.1,489.1 590.5,479.7 628.3,501.5 "/>
<polygon class="st18" points="611.9,510.9 574.1,489.1 590.5,479.7 628.3,501.5 "/>
<polygon class="st5" points="628.3,489.3 611.9,498.7 611.9,510.9 628.3,501.5 "/>
<polygon class="st5" points="574.1,476.9 590.5,467.5 590.5,479.7 574.1,489.1 "/>
<polygon class="st6" points="574.1,476.9 611.9,498.7 611.9,510.9 574.1,489.1 "/>
<polygon class="st6" points="606.9,454.2 590.5,444.7 590.5,417.3 606.9,426.7 "/>
<line class="st9" x1="598.7" y1="422" x2="598.7" y2="449.5"/>
<polygon class="st6" points="628.3,466.6 611.9,457.1 611.9,429.6 628.3,439.1 "/>
<line class="st9" x1="620.1" y1="434.4" x2="620.1" y2="461.8"/>
<polygon class="st7" points="611.9,475.8 611.9,478.2 628.3,468.8 628.3,466.3 "/>
<polygon class="st6" points="611.9,478.2 574.1,456.4 574.1,454 611.9,475.8 "/>
<polygon class="st6" points="611.9,475.8 574.1,454 590.5,444.5 628.3,466.3 "/>
<polygon class="st18" points="611.9,475.8 574.1,454 590.5,444.5 628.3,466.3 "/>
<polygon class="st5" points="628.3,454.2 611.9,463.6 611.9,475.8 628.3,466.3 "/>
<polygon class="st5" points="574.1,441.8 590.5,432.4 590.5,444.5 574.1,454 "/>
<polygon class="st6" points="574.1,441.8 611.9,463.6 611.9,475.8 574.1,454 "/>
<polygon class="st6" points="606.9,419.1 590.5,409.6 590.5,382.2 606.9,391.6 "/>
<line class="st9" x1="598.7" y1="386.9" x2="598.7" y2="414.3"/>
<polygon class="st6" points="628.3,431.4 611.9,422 611.9,394.5 628.3,404 "/>
<line class="st9" x1="620.1" y1="399.2" x2="620.1" y2="426.7"/>
<polygon class="st7" points="611.9,440.7 611.9,443.1 628.3,433.6 628.3,431.2 "/>
<polygon class="st6" points="611.9,443.1 574.1,421.3 574.1,418.9 611.9,440.7 "/>
<polygon class="st6" points="611.9,440.6 574.1,418.8 590.5,409.4 628.3,431.2 "/>
<polygon class="st18" points="611.9,440.6 574.1,418.8 590.5,409.4 628.3,431.2 "/>
<polygon class="st5" points="628.3,419 611.9,428.5 611.9,440.6 628.3,431.2 "/>
<polygon class="st5" points="574.1,406.7 590.5,397.2 590.5,409.4 574.1,418.9 "/>
<polygon class="st6" points="574.1,406.7 611.9,428.5 611.9,440.6 574.1,418.9 "/>
<polygon class="st6" points="628.3,398.5 590.5,376.6 590.5,374.2 628.3,396 "/>
<polygon class="st6" points="606.9,383.9 590.5,374.5 590.5,347 606.9,356.5 "/>
<line class="st9" x1="598.7" y1="351.8" x2="598.7" y2="379.2"/>
<polygon class="st6" points="628.3,396.3 611.9,386.8 611.9,359.4 628.3,368.8 "/>
<line class="st9" x1="620.1" y1="364.1" x2="620.1" y2="391.6"/>
<polygon class="st7" points="611.9,405.5 611.9,408 628.3,398.5 628.3,396.1 "/>
<polygon class="st6" points="611.9,408 574.1,386.1 574.1,383.7 611.9,405.5 "/>
<polygon class="st6" points="611.9,405.5 574.1,383.7 590.5,374.3 628.3,396.1 "/>
<polygon class="st18" points="611.9,405.5 574.1,383.7 590.5,374.3 628.3,396.1 "/>
<polygon class="st5" points="628.3,383.9 611.9,393.3 611.9,405.5 628.3,396.1 "/>
<polygon class="st5" points="574.1,371.6 590.5,362.1 590.5,374.3 574.1,383.7 "/>
<polygon class="st6" points="574.1,371.6 611.9,393.3 611.9,405.5 574.1,383.7 "/>
<polygon class="st12" points="728,501.9 676.5,531.6 676.5,350.4 728,320.7 "/>
<polygon class="st6" points="676.5,384.5 706.4,367.3 706.4,344.3 676.5,361.6 "/>
<polygon class="st6" points="676.5,419.6 706.4,402.4 706.4,379.4 676.5,396.7 "/>
<polygon class="st6" points="676.5,454.7 706.4,437.5 706.4,414.5 676.5,431.7 "/>
<polygon class="st6" points="676.5,489.8 706.4,472.6 706.4,449.6 676.5,466.8 "/>
<polygon class="st6" points="676.5,524.9 706.4,507.6 706.4,484.7 676.5,501.9 "/>
<line class="st9" x1="698.2" y1="349.1" x2="698.2" y2="372"/>
<line class="st9" x1="698.2" y1="384.1" x2="698.2" y2="407.1"/>
<line class="st9" x1="698.2" y1="419.2" x2="698.2" y2="442.2"/>
<line class="st9" x1="698.2" y1="454.3" x2="698.2" y2="477.3"/>
<line class="st9" x1="698.2" y1="489.4" x2="698.2" y2="512.4"/>
<polygon class="st6" points="763,271.7 792.9,254.4 792.9,231.5 763,248.7 "/>
<line class="st9" x1="784.7" y1="236.2" x2="784.7" y2="259.2"/>
<polygon class="st6" points="527.5,283 517.4,277.2 517.4,254.2 527.5,260 "/>
<polygon class="st6" points="527.5,318.1 517.4,312.3 517.4,289.3 527.5,295.1 "/>
<polygon class="st6" points="527.5,353.2 517.4,347.3 517.4,324.4 527.5,330.2 "/>
<polygon class="st6" points="527.5,388.3 517.4,382.4 517.4,359.5 527.5,365.3 "/>
<polygon class="st6" points="527.5,423.4 517.4,417.5 517.4,394.5 527.5,400.4 "/>
<polygon class="st5" points="496.3,427.5 428.4,388.3 428.4,207.1 496.3,246.3 "/>
<g>
	<polygon class="st6" points="462.3,260.8 445.9,251.4 445.9,228.4 462.3,237.9 	"/>
	<polygon class="st6" points="480.6,271.4 470.4,265.6 470.4,242.6 480.6,248.4 	"/>
	<polygon class="st6" points="462.3,295.9 445.9,286.5 445.9,263.5 462.3,272.9 	"/>
	<polygon class="st6" points="480.6,306.5 470.4,300.6 470.4,277.7 480.6,283.5 	"/>
	<polygon class="st6" points="462.3,331 445.9,321.5 445.9,298.6 462.3,308 	"/>
	<polygon class="st6" points="480.6,341.6 470.4,335.7 470.4,312.8 480.6,318.6 	"/>
	<polygon class="st6" points="462.3,366.1 445.9,356.6 445.9,333.7 462.3,343.1 	"/>
	<polygon class="st6" points="480.6,376.7 470.4,370.8 470.4,347.8 480.6,353.7 	"/>
	<polygon class="st6" points="462.3,401.2 445.9,391.7 445.9,368.7 462.3,378.2 	"/>
	<polygon class="st6" points="480.6,411.7 470.4,405.9 470.4,382.9 480.6,388.8 	"/>
	<line class="st6" x1="454.1" y1="233.1" x2="454.1" y2="256.1"/>
	<line class="st6" x1="454.1" y1="268.2" x2="454.1" y2="291.2"/>
	<line class="st6" x1="454.1" y1="303.3" x2="454.1" y2="326.3"/>
	<line class="st6" x1="454.1" y1="338.4" x2="454.1" y2="361.4"/>
	<line class="st6" x1="454.1" y1="373.5" x2="454.1" y2="396.4"/>
</g>
<polygon class="st6" points="567.4,321.5 551,312.1 551,289.1 567.4,298.5 "/>
<polygon class="st6" points="567.4,356.6 551,347.1 551,324.2 567.4,333.6 "/>
<polygon class="st6" points="567.4,391.7 551,382.2 551,359.3 567.4,368.7 "/>
<polygon class="st6" points="567.4,426.8 551,417.3 551,394.3 567.4,403.8 "/>
<polygon class="st6" points="567.4,461.9 551,452.4 551,429.4 567.4,438.9 "/>
<line class="st9" x1="559.2" y1="293.8" x2="559.2" y2="316.8"/>
<polygon class="st6" points="606.9,348.8 590.5,339.4 590.5,311.9 606.9,321.4 "/>
<line class="st9" x1="598.7" y1="316.6" x2="598.7" y2="344.1"/>
<polygon class="st6" points="628.3,361.2 611.9,351.7 611.9,324.2 628.3,333.7 "/>
<line class="st9" x1="620.1" y1="329" x2="620.1" y2="356.4"/>
<line class="st9" x1="559.2" y1="328.9" x2="559.2" y2="351.9"/>
<line class="st9" x1="559.2" y1="364" x2="559.2" y2="387"/>
<line class="st9" x1="559.2" y1="399.1" x2="559.2" y2="422"/>
<line class="st9" x1="559.2" y1="434.2" x2="559.2" y2="457.1"/>
<polygon class="st6" points="676.5,384.5 646.7,367.3 646.7,344.3 676.5,361.6 "/>
<polygon class="st6" points="676.5,419.6 646.7,402.4 646.7,379.4 676.5,396.7 "/>
<polygon class="st6" points="676.5,454.7 646.7,437.5 646.7,414.5 676.5,431.7 "/>
<polygon class="st6" points="676.5,489.8 646.7,472.6 646.7,449.6 676.5,466.8 "/>
<polygon class="st6" points="676.5,524.9 646.7,507.6 646.7,484.7 676.5,501.9 "/>
<line class="st9" x1="654.9" y1="349.1" x2="654.9" y2="372"/>
<line class="st9" x1="654.9" y1="384.1" x2="654.9" y2="407.1"/>
<line class="st9" x1="654.9" y1="419.2" x2="654.9" y2="442.2"/>
<line class="st9" x1="654.9" y1="454.3" x2="654.9" y2="477.3"/>
<line class="st9" x1="654.9" y1="489.4" x2="654.9" y2="512.4"/>
<line class="st9" x1="522.4" y1="257.1" x2="522.4" y2="280.1"/>
<polygon class="st6" points="482.2,225.4 472,219.6 472,191.8 482.2,197.7 "/>
<line class="st9" x1="477.1" y1="194.8" x2="477.1" y2="222.5"/>
<polygon class="st6" points="527.5,248.8 517.4,243 517.4,215.3 527.5,221.1 "/>
<line class="st9" x1="522.4" y1="218.2" x2="522.4" y2="245.9"/>
<polygon class="st6" points="603,295.1 592.8,289.3 592.8,261.6 603,267.4 "/>
<line class="st9" x1="597.9" y1="264.5" x2="597.9" y2="292.2"/>
<polygon class="st6" points="643.2,318.4 633.1,312.6 633.1,284.8 643.2,290.7 "/>
<line class="st9" x1="638.2" y1="287.7" x2="638.2" y2="315.5"/>
<line class="st9" x1="522.4" y1="292.2" x2="522.4" y2="315.2"/>
<line class="st9" x1="522.4" y1="327.3" x2="522.4" y2="350.3"/>
<line class="st9" x1="522.4" y1="362.4" x2="522.4" y2="385.3"/>
<line class="st9" x1="522.4" y1="397.5" x2="522.4" y2="420.4"/>
<polygon class="st5" points="506.1,236.6 496.3,242.3 435.4,207.2 445.3,201.4 441.8,199.5 428.4,207.1 496.3,246.3 509.6,238.6 "/>
<polygon class="st13" points="509.6,419.8 496.3,427.5 496.3,246.3 509.6,238.6 "/>
<polygon class="st7" points="611.9,370.4 611.9,372.8 628.3,363.4 628.3,361 "/>
<polygon class="st6" points="611.9,372.8 574.1,351 574.1,348.6 611.9,370.4 "/>
<polygon class="st6" points="611.9,370.4 574.1,348.6 590.5,339.1 628.3,361 "/>
<polygon class="st18" points="611.9,370.4 574.1,348.6 590.5,339.1 628.3,361 "/>
<polygon class="st5" points="628.3,348.8 611.9,358.2 611.9,370.4 628.3,361 "/>
<polygon class="st5" points="574.1,336.4 590.5,327 590.5,339.1 574.1,348.6 "/>
<polygon class="st6" points="574.1,336.4 611.9,358.2 611.9,370.4 574.1,348.6 "/>
<polygon class="st13" points="445.3,201.4 445.3,204.4 437.8,208.6 435.4,207.2 "/>
<polygon class="st13" points="552.1,262.8 552.1,265.8 544.7,270 542.2,268.5 "/>
<polygon class="st5" points="724.5,318.7 700.3,304.7 696.9,306.7 721.1,320.7 721.1,320.7 676.5,346.4 542.2,268.5 552.1,262.8 
	548.7,260.8 535.3,268.5 676.5,350.4 728,320.7 "/>
<polygon class="st13" points="696.9,306.7 696.9,310.4 717.9,322.5 721.1,320.7 "/>
<polygon class="st4" points="696.9,310.4 696.8,310.5 663,330 663,330.1 549.5,264.3 542.2,268.5 676.5,346.4 703.8,330.7 
	717.3,322.9 "/>
<polygon class="st5" points="749.3,333.4 728,321 728,502.2 749.3,514.6 "/>
<g>
	<path class="st4" d="M749.3,329.9c-5.6-3.2-26.6-15.5-43-25.2c8.4-4.9,27.4-15.9,46.5-26.9c12.7-7.4,25.5-14.7,35-20.3
		c4.8-2.8,8.8-5.1,11.6-6.7c1.2-0.7,2.2-1.3,2.9-1.7c5.6,3.2,26.6,15.5,43,25.2c-8.4,4.9-27.4,15.9-46.5,26.9
		c-12.7,7.4-25.5,14.7-35,20.3c-4.8,2.8-8.8,5.1-11.6,6.7C751,328.9,750,329.4,749.3,329.9z"/>
	<path class="st4" d="M749.3,329.9c-5.6-3.2-26.6-15.5-43-25.2c8.4-4.9,27.4-15.9,46.5-26.9c12.7-7.4,25.5-14.7,35-20.3
		c4.8-2.8,8.8-5.1,11.6-6.7c1.2-0.7,2.2-1.3,2.9-1.7c5.6,3.2,26.6,15.5,43,25.2c-8.4,4.9-27.4,15.9-46.5,26.9
		c-12.7,7.4-25.5,14.7-35,20.3c-4.8,2.8-8.8,5.1-11.6,6.7C751,328.9,750,329.4,749.3,329.9z"/>
</g>
<path class="st5" d="M802.2,245.6c0,0.2-3,1.6-3,1.6s29.7,17.4,46,27c-8.4,4.9-27.4,15.9-46.5,26.9c-12.7,7.4-25.5,14.7-35,20.3
	c-4.8,2.8-8.8,5.1-11.6,6.7c-1.2,0.7-2.2,1.3-2.9,1.7c-5.6-3.2-26.6-15.5-43-25.2l0,0l-3-1.8c-1.9,1.1-3,1.7-3,1.7v0
	c0,0,49.1,28.9,49.1,28.7c0-0.2,101.9-59.1,101.9-59.1v0C851.3,274.3,802.2,245.4,802.2,245.6z"/>
<polygon class="st13" points="799.2,247.3 799.2,251 842.1,276.1 845.3,274.3 "/>
<polygon class="st6" points="731,290.4 714.7,299.9 714.7,276.9 731,267.4 "/>
<polygon class="st6" points="749.3,279.8 739.2,285.7 739.2,262.7 749.3,256.9 "/>
<line class="st6" x1="722.8" y1="272.2" x2="722.8" y2="295.1"/>
<polygon class="st14" points="663,330 709.9,318.4 696.9,310.4 "/>
<polygon class="st14" points="706.7,304.5 820.3,263.5 799.2,250.6 "/>
<polygon class="st6" points="596.8,72.1 441.7,161.2 663,288.7 818.1,199.6 "/>
<g>
	<polygon class="st2" points="452.4,161.2 596.8,78.2 807.5,199.6 663,282.6 	"/>
	<polygon class="st11" points="452.4,161.2 596.8,78.2 807.5,199.6 663,282.6 	"/>
</g>
<polygon class="st9" points="463.1,167.4 663,282.6 796.7,205.7 596.8,90.5 "/>
<polygon class="st7" points="596.8,90.5 796.7,205.7 807.5,199.6 596.8,78.2 452.4,161.2 463.1,167.4 "/>
<polygon class="st5" points="596.8,90.5 596.8,78.2 452.4,161.2 463.1,167.4 "/>
<polygon class="st6" points="531.9,163.1 673.2,244.7 673.2,214.6 531.9,133.1 "/>
<polygon class="st12" points="673.2,244.7 724.6,215 724.6,184.9 673.2,214.6 "/>
<polygon class="st4" points="724.6,184.9 673.2,214.4 531.9,133.1 583.4,103.6 "/>
<polygon class="st5" points="406.6,388.4 406.6,420.7 496.3,472.5 496.3,440.2 "/>
<polygon class="st13" points="509.3,432.7 509.3,465 496.3,472.5 496.3,440.2 "/>
<polygon class="st7" points="727.7,514.7 727.7,547 676.5,576.6 676.5,544.3 "/>
<polygon class="st5" points="749.4,527 749.4,559.4 727.7,547 727.7,514.7 "/>
<polygon class="st5" points="873,455.7 873,488 749.4,559.4 749.4,527 "/>
<g>
	<ellipse class="st14" cx="794.2" cy="569.7" rx="15.1" ry="12.2"/>
	<g>
		<path class="st7" d="M786.8,548.6c1,0,1.8,0.7,1.8,1.6v27.3c0,0.9-0.8,1.6-1.8,1.6c-1,0-1.8-0.7-1.8-1.6v-27.3
			C784.9,549.3,785.7,548.6,786.8,548.6z"/>
		<path class="st6" d="M786.2,500.1c0.2,0,0.4,0,0.5,0c0.2,0,0.4,0,0.5,0c12.8,0.9,18,32.8,18,40.6c0,8.8-8.3,15.9-18.5,15.9
			c-10.2,0-18.5-7.1-18.5-15.9C768.2,533,773.4,501,786.2,500.1z"/>
		<path class="st7" d="M774.7,548.3c10.1,1.5,19.4-4.3,20.7-13c0.8-5.3,0.9-22.1-3.2-33.1c9.2,7.3,13.1,31.9,13.1,38.6
			c0,8.8-8.3,15.9-18.5,15.9c-7.7,0-14.3-4.1-17.1-9.8C771.2,547.6,772.9,548,774.7,548.3z"/>
	</g>
</g>
<g>
	<ellipse class="st14" cx="370" cy="419.5" rx="15.1" ry="12.2"/>
	<g>
		<path class="st7" d="M362.6,398.3c1,0,1.8,0.7,1.8,1.6v27.3c0,0.9-0.8,1.6-1.8,1.6c-1,0-1.8-0.7-1.8-1.6v-27.3
			C360.7,399.1,361.5,398.3,362.6,398.3z"/>
		<path class="st6" d="M362,349.9c0.2,0,0.4,0,0.5,0c0.2,0,0.4,0,0.5,0c12.8,0.9,18,32.8,18,40.6c0,8.8-8.3,15.9-18.5,15.9
			s-18.5-7.1-18.5-15.9C344,382.7,349.2,350.8,362,349.9z"/>
		<path class="st7" d="M350.5,398c10.1,1.5,19.4-4.3,20.7-13c0.8-5.3,0.9-22.1-3.2-33.1c9.2,7.3,13.1,31.9,13.1,38.6
			c0,8.8-8.3,15.9-18.5,15.9c-7.7,0-14.3-4.1-17.1-9.8C347,397.3,348.7,397.8,350.5,398z"/>
	</g>
</g>
<g>
	<ellipse class="st14" cx="835.4" cy="545.2" rx="16.2" ry="13.1"/>
	<g>
		<path class="st7" d="M827.5,522.5c1.1,0,2,0.8,2,1.7v29.4c0,0.9-0.9,1.7-2,1.7c-1.1,0-2-0.8-2-1.7v-29.4
			C825.5,523.3,826.4,522.5,827.5,522.5z"/>
		<path class="st6" d="M826.9,470.4c0.2,0,0.4,0,0.6,0c0.2,0,0.4,0,0.6,0c13.8,1,19.3,35.3,19.3,43.6c0,9.5-8.9,17.1-19.9,17.1
			c-11,0-19.9-7.7-19.9-17.1C807.6,505.7,813.1,471.4,826.9,470.4z"/>
		<path class="st7" d="M814.5,522.2c10.9,1.6,20.8-4.6,22.2-14c0.9-5.7,0.9-23.8-3.4-35.6c9.9,7.8,14,34.2,14,41.4
			c0,9.5-8.9,17.1-19.9,17.1c-8.3,0-15.4-4.4-18.4-10.5C810.8,521.4,812.6,521.9,814.5,522.2z"/>
	</g>
</g>
<g>
	<ellipse class="st14" cx="876.3" cy="521.6" rx="16.2" ry="13.1"/>
	<g>
		<path class="st7" d="M868.3,498.9c1.1,0,2,0.8,2,1.7V530c0,0.9-0.9,1.7-2,1.7c-1.1,0-2-0.8-2-1.7v-29.4
			C866.3,499.6,867.2,498.9,868.3,498.9z"/>
		<path class="st6" d="M867.7,446.8c0.2,0,0.4,0,0.6,0c0.2,0,0.4,0,0.6,0c13.8,1,19.3,35.3,19.3,43.6c0,9.5-8.9,17.1-19.9,17.1
			s-19.9-7.7-19.9-17.1C848.4,482.1,854,447.8,867.7,446.8z"/>
		<path class="st7" d="M855.4,498.5c10.9,1.6,20.8-4.6,22.2-14c0.9-5.7,0.9-23.8-3.4-35.6c9.9,7.8,14,34.2,14,41.4
			c0,9.5-8.9,17.1-19.9,17.1c-8.3,0-15.4-4.4-18.4-10.5C851.6,497.7,853.5,498.3,855.4,498.5z"/>
	</g>
</g>
</svg>
