<?xml version="1.0" encoding="utf-8"?>
<!-- Generator: Adobe Illustrator 22.0.1, SVG Export Plug-In . SVG Version: 6.00 Build 0)  -->
<svg version="1.1" id="Слой_1" xmlns="http://www.w3.org/2000/svg" xmlns:xlink="http://www.w3.org/1999/xlink" x="0px" y="0px"
	 viewBox="0 0 769.7 451.4" style="enable-background:new 0 0 769.7 451.4;" xml:space="preserve">
<style type="text/css">
	.st0{fill:none;}
	.st1{fill:#E09480;}
	.st2{fill:#F9E1DC;}
	.st3{fill:#FFFFFF;stroke:#825441;stroke-linecap:round;stroke-linejoin:round;stroke-miterlimit:10;}
	.st4{fill:url(#SVGID_1_);}
	.st5{fill:#F2C2B8;stroke:#825441;stroke-linecap:round;stroke-linejoin:round;stroke-miterlimit:10;}
	.st6{fill:none;stroke:#825441;stroke-linecap:round;stroke-linejoin:round;stroke-miterlimit:10;}
	.st7{fill:#B7674B;stroke:#825441;stroke-linecap:round;stroke-linejoin:round;stroke-miterlimit:10;}
	.st8{fill:#E09480;stroke:#825441;stroke-linecap:round;stroke-linejoin:round;stroke-miterlimit:10;}
	.st9{fill:#D88575;stroke:#825441;stroke-linecap:round;stroke-linejoin:round;stroke-miterlimit:10;}
	.st10{fill:#F9E1DC;stroke:#825441;stroke-linecap:round;stroke-linejoin:round;stroke-miterlimit:10;}
	.st11{fill:url(#SVGID_2_);}
	.st12{fill:url(#SVGID_3_);}
	.st13{fill:url(#SVGID_4_);}
	.st14{fill:url(#SVGID_5_);}
	.st15{fill:url(#SVGID_6_);}
	.st16{fill:url(#SVGID_7_);}
	.st17{fill:url(#SVGID_8_);}
	.st18{fill:url(#SVGID_9_);}
	.st19{fill:url(#SVGID_10_);}
	.st20{fill:url(#SVGID_11_);}
	.st21{fill:url(#SVGID_12_);}
	.st22{fill:url(#SVGID_13_);}
	.st23{fill:url(#SVGID_14_);}
	.st24{fill:#F9E1DC;stroke:#825441;stroke-miterlimit:10;}
	.st25{fill:#EAA496;stroke:#825441;stroke-linecap:round;stroke-linejoin:round;stroke-miterlimit:10;}
</style>
<pattern  x="-255" y="576" width="11" height="11" patternUnits="userSpaceOnUse" id="Новый_образец_уз" viewBox="1.1 -12 11 11" style="overflow:visible;">
	<g>
		<rect x="1.1" y="-12" class="st0" width="11" height="11"/>
		<g>
			<rect x="1.1" y="-12" class="st0" width="11" height="11"/>
			<g>
				<path class="st1" d="M11.2-12.2c0-0.5,0.4-0.9,0.9-0.9s0.9,0.4,0.9,0.9s-0.4,0.9-0.9,0.9S11.2-11.7,11.2-12.2z"/>
				<path class="st1" d="M12.2-13.1c0.5,0,0.9,0.4,0.9,0.9s-0.4,0.9-0.9,0.9s-0.9-0.4-0.9-0.9C11.2-12.7,11.7-13.1,12.2-13.1z"/>
			</g>
			<g>
				<path class="st1" d="M11-12.2c0-0.5,0.4-0.9,0.9-0.9s0.9,0.4,0.9,0.9s-0.4,0.9-0.9,0.9C11.4-11.2,11-11.7,11-12.2z"/>
				<path class="st1" d="M7.4-12.2c0-0.5,0.4-0.9,0.9-0.9s0.9,0.4,0.9,0.9s-0.4,0.9-0.9,0.9C7.8-11.2,7.4-11.7,7.4-12.2z"/>
				<path class="st1" d="M3.8-12.2c0-0.5,0.4-0.9,1-0.9c0.5,0,0.9,0.4,0.9,0.9s-0.4,0.9-0.9,0.9C4.2-11.2,3.8-11.7,3.8-12.2z"/>
				<path class="st1" d="M0.2-12.2c0-0.5,0.5-0.9,1-0.9s0.9,0.4,0.9,0.9s-0.4,0.9-0.9,0.9S0.2-11.7,0.2-12.2z"/>
				<path class="st1" d="M11.9-13.1c0.5,0,0.9,0.4,0.9,0.9s-0.4,0.9-0.9,0.9S11-11.7,11-12.2S11.4-13.1,11.9-13.1z"/>
				<path class="st1" d="M8.3-13.1c0.5,0,0.9,0.4,0.9,0.9s-0.4,0.9-0.9,0.9s-0.9-0.4-0.9-0.9S7.8-13.1,8.3-13.1z"/>
				<path class="st1" d="M4.8-13.1c0.5,0,0.9,0.4,0.9,0.9s-0.4,0.9-0.9,0.9s-0.9-0.4-0.9-0.9C3.8-12.7,4.2-13.1,4.8-13.1z"/>
				<path class="st1" d="M1.2-13.1c0.5,0,0.9,0.4,0.9,0.9s-0.4,0.9-0.9,0.9s-1-0.4-1-0.9S0.7-13.1,1.2-13.1z"/>
			</g>
			<g>
				<path class="st1" d="M0-12.2c0-0.5,0.4-0.9,0.9-0.9s0.9,0.4,0.9,0.9s-0.4,0.9-0.9,0.9C0.4-11.2,0-11.7,0-12.2z"/>
				<path class="st1" d="M0.9-13.1c0.5,0,0.9,0.4,0.9,0.9s-0.4,0.9-0.9,0.9C0.4-11.2,0-11.7,0-12.2S0.4-13.1,0.9-13.1z"/>
			</g>
			<g>
				<path class="st1" d="M11.2-1.2c0-0.5,0.4-0.9,0.9-0.9S13-1.7,13-1.2s-0.4,0.9-0.9,0.9S11.2-0.7,11.2-1.2z"/>
				<path class="st1" d="M12.2-2.1c0.5,0,0.9,0.4,0.9,0.9s-0.4,0.9-0.9,0.9s-0.9-0.4-0.9-0.9C11.2-1.7,11.7-2.1,12.2-2.1z"/>
				<path class="st1" d="M12.2-5.7c0.5,0,0.9,0.4,0.9,0.9s-0.4,0.9-0.9,0.9s-0.9-0.4-0.9-0.9S11.7-5.7,12.2-5.7z"/>
				<path class="st1" d="M12.2-9.3c0.5,0,0.9,0.4,0.9,0.9s-0.4,0.9-0.9,0.9s-0.9-0.4-0.9-0.9C11.2-8.9,11.7-9.3,12.2-9.3z"/>
				<circle class="st1" cx="12.2" cy="-11.9" r="0.9"/>
			</g>
			<g>
				<path class="st1" d="M11-1.2c0-0.5,0.4-0.9,0.9-0.9s0.9,0.4,0.9,0.9s-0.4,0.9-0.9,0.9C11.4-0.2,11-0.7,11-1.2z"/>
				<path class="st1" d="M7.4-1.2c0-0.5,0.4-0.9,0.9-0.9s0.9,0.4,0.9,0.9S8.8-0.3,8.3-0.3C7.8-0.2,7.4-0.7,7.4-1.2z"/>
				<path class="st1" d="M3.8-1.2c0-0.5,0.4-0.9,0.9-0.9s0.9,0.4,0.9,0.9S5.2-0.3,4.7-0.3C4.2-0.2,3.8-0.7,3.8-1.2z"/>
				<path class="st1" d="M0.2-1.2c0-0.5,0.4-0.9,0.9-0.9S2-1.7,2-1.2S1.6-0.3,1.1-0.3S0.2-0.7,0.2-1.2z"/>
				<path class="st1" d="M11.9-2.1c0.5,0,0.9,0.4,0.9,0.9s-0.4,0.9-0.9,0.9S11-0.7,11-1.2S11.4-2.1,11.9-2.1z"/>
				<path class="st1" d="M11.9-5.7c0.5,0,0.9,0.4,0.9,0.9s-0.4,0.9-0.9,0.9S11-4.3,11-4.8S11.4-5.7,11.9-5.7z"/>
				<path class="st1" d="M11.9-9.3c0.5,0,0.9,0.4,0.9,0.9s-0.4,0.9-0.9,0.9S11-7.9,11-8.4S11.4-9.3,11.9-9.3z"/>
				<circle class="st1" cx="11.9" cy="-11.9" r="0.9"/>
				<path class="st1" d="M8.3-2.1c0.5,0,0.9,0.4,0.9,0.9S8.8-0.3,8.3-0.3S7.4-0.7,7.4-1.2S7.8-2.1,8.3-2.1z"/>
				<path class="st1" d="M8.3-5.7c0.5,0,0.9,0.4,0.9,0.9s-0.3,1-0.9,1c-0.5,0-0.9-0.4-0.9-0.9S7.8-5.7,8.3-5.7z"/>
				<path class="st1" d="M8.3-9.3c0.5,0,0.9,0.4,0.9,0.9S8.8-7.5,8.3-7.5S7.4-7.9,7.4-8.4S7.8-9.3,8.3-9.3z"/>
				<path class="st1" d="M8.3-12.9c0.5,0,0.9,0.4,0.9,0.9s-0.4,0.9-0.9,0.9S7.4-11.5,7.4-12C7.4-12.4,7.8-12.9,8.3-12.9z"/>
				<path class="st1" d="M4.8-2.1c0.5,0,0.9,0.4,0.9,0.9S5.3-0.3,4.8-0.3S3.9-0.7,3.9-1.2C3.8-1.7,4.2-2.1,4.8-2.1z"/>
				<path class="st1" d="M4.8-5.7c0.5,0,0.9,0.4,0.9,0.9s-0.4,1-0.9,1S3.9-4.2,3.9-4.7S4.2-5.7,4.8-5.7z"/>
				<path class="st1" d="M4.8-9.3c0.5,0,0.9,0.4,0.9,0.9S5.3-7.5,4.8-7.5S3.9-7.9,3.9-8.4C3.8-8.9,4.2-9.3,4.8-9.3z"/>
				<path class="st1" d="M4.8-12.9c0.5,0,0.9,0.4,0.9,0.9s-0.4,0.9-0.9,0.9S3.9-11.5,3.9-12C3.8-12.4,4.2-12.9,4.8-12.9z"/>
				<path class="st1" d="M1.2-2.1c0.5,0,0.9,0.4,0.9,0.9S1.7-0.3,1.2-0.3S0.3-0.7,0.3-1.2C0.2-1.7,0.7-2.1,1.2-2.1z"/>
				<path class="st1" d="M1.2-5.7c0.5,0,0.9,0.4,0.9,0.9s-0.4,1-0.9,1s-1-0.4-1-1S0.7-5.7,1.2-5.7z"/>
				<path class="st1" d="M1.2-9.3c0.5,0,0.9,0.4,0.9,0.9S1.7-7.5,1.2-7.5s-1-0.3-1-0.8C0.2-8.9,0.7-9.3,1.2-9.3z"/>
				<circle class="st1" cx="1.2" cy="-11.9" r="0.9"/>
			</g>
			<g>
				<path class="st1" d="M0-1.2c0-0.5,0.4-0.9,0.9-0.9s0.9,0.4,0.9,0.9S1.4-0.3,0.9-0.3C0.4-0.2,0-0.7,0-1.2z"/>
				<path class="st1" d="M0.9-2.1c0.5,0,0.9,0.4,0.9,0.9S1.4-0.3,0.9-0.3S0-0.7,0-1.2S0.4-2.1,0.9-2.1z"/>
				<path class="st1" d="M0.9-5.7c0.5,0,0.9,0.4,0.9,0.9s-0.4,1-0.9,1S0-4.2,0-4.8S0.4-5.7,0.9-5.7z"/>
				<path class="st1" d="M0.9-9.3c0.5,0,0.9,0.4,0.9,0.9S1.4-7.5,0.9-7.5C0.4-7.4,0-7.8,0-8.3C0-8.9,0.4-9.3,0.9-9.3z"/>
				<circle class="st1" cx="0.9" cy="-11.9" r="0.9"/>
			</g>
			<g>
				<circle class="st1" cx="12.2" cy="-0.9" r="0.9"/>
			</g>
			<g>
				<circle class="st1" cx="11.9" cy="-0.9" r="0.9"/>
				<path class="st1" d="M8.3-1.9c0.5,0,0.9,0.4,0.9,0.9S8.8-0.1,8.3-0.1S7.4-0.5,7.4-1C7.4-1.4,7.8-1.9,8.3-1.9z"/>
				<path class="st1" d="M4.8-1.9c0.5,0,0.9,0.4,0.9,0.9S5.3-0.1,4.8-0.1S3.9-0.5,3.9-1C3.8-1.4,4.2-1.9,4.8-1.9z"/>
				<circle class="st1" cx="1.2" cy="-0.9" r="0.9"/>
			</g>
			<g>
				<circle class="st1" cx="0.9" cy="-0.9" r="0.9"/>
			</g>
		</g>
	</g>
</pattern>
<g>
	<path class="st2" d="M755.2,301.8L647.3,239l21.3-12.3L306.9,17.8c-32.7-18.9-72.9-18.9-105.5,0L30.7,116.4
		c-37.7,21.8-37.7,76.2,0,98l329.6,190.3l0.5-0.3c5.6,3.2,11,6.3,16.1,9.3c25.6,14.7,57.1,14.7,82.7-0.2l1-0.6
		c10.1-5.8,22.5-5.9,32.6,0l50.8,29.8c13.2,7.6,29.4,7.6,42.5,0l168.7-97.4C771.9,335.6,771.9,311.5,755.2,301.8z"/>
	<polygon class="st3" points="416.9,270.3 453.5,291.4 471.9,280.9 435.2,259.7 	"/>
	
		<pattern  id="SVGID_1_" xlink:href="#РќРѕРІС‹Р№_РѕР±СЂР°Р·РµС†_СѓР·" patternTransform="matrix(1 0 0 -1 396.9 -15842.1992)">
	</pattern>
	<polygon class="st4" points="460.4,287.5 471.9,280.9 435.2,259.7 423.8,266.3 	"/>
	<path class="st5" d="M362.8,82.4l-64.1-37c-25.4-14.6-56.6-14.6-81.9,0L64,133.6C44.2,145,44.2,173.5,64,185l64.1,37
		c25.4,14.6,56.6,14.6,81.9,0l152.8-88.2C382.5,122.4,382.5,93.9,362.8,82.4z M347.6,118.6l-155,89.4c-14.6,8.4-32.6,8.4-47.2,0
		l-66.3-38.3c-8-4.6-8-16.2,0-20.9L234,59.4c14.6-8.4,32.6-8.4,47.2,0l66.3,38.3C355.6,102.3,355.6,113.9,347.6,118.6z"/>
	<polygon class="st3" points="335.2,108.1 169,204.1 91.5,159.3 257.7,63.3 	"/>
	<g>
		<polygon class="st6" points="185.4,180.2 156.5,196.9 104,166.5 132.8,149.9 		"/>
		<polygon class="st6" points="160.3,185.1 148.2,192 112.3,171.3 124.4,164.3 		"/>
		<line class="st6" x1="174.6" y1="111.3" x2="252.1" y2="156.1"/>
		
			<ellipse transform="matrix(5.419466e-03 -1 1 5.419466e-03 78.4426 346.3566)" class="st6" cx="213.3" cy="133.7" rx="14.6" ry="25.3"/>
		<path class="st6" d="M143.4,156l31.3,18.1c2.4-4.9,0.2-10.4-6.5-14.3C161.5,155.9,151.9,154.6,143.4,156z"/>
		<path class="st6" d="M95.9,161.8c2.4-1.4,2.4-3.7,0-5.1l-4.4,2.5L95.9,161.8z"/>
		<path class="st6" d="M164.6,201.5c2.4-1.4,6.4-1.4,8.8,0L169,204L164.6,201.5z"/>
		<polygon class="st6" points="293.9,117.6 322.7,100.9 270.2,70.6 241.3,87.2 		"/>
		<polygon class="st6" points="302.3,103.1 314.4,96.1 278.5,75.4 266.4,82.4 		"/>
		<path class="st6" d="M252,93.3l31.3,18.1c-8.5,1.4-18,0.1-24.8-3.8C251.8,103.8,249.6,98.3,252,93.3z"/>
		<path class="st6" d="M262.1,65.9c-2.4,1.4-6.4,1.4-8.8,0l4.4-2.5L262.1,65.9z"/>
		<path class="st6" d="M330.8,105.6c-2.4,1.4-2.4,3.7,0,5.1l4.4-2.5L330.8,105.6z"/>
	</g>
	<path class="st6" d="M67.7,137.4L221,48.9c22.7-13.1,50.6-13.1,73.3,0L359,86.2c16.8,9.7,16.8,34,0,43.7l-153.3,88.5
		c-22.7,13.1-50.6,13.1-73.3,0l-64.7-37.3C50.9,171.4,50.9,147.1,67.7,137.4z"/>
	<path class="st7" d="M362.8,82.4l-64.1-37c-25.4-14.6-56.6-14.6-81.9,0L64,133.6C44.2,145,44.2,173.5,64,185l64.1,37
		c25.4,14.6,56.6,14.6,81.9,0l152.8-88.2C382.5,122.4,382.5,93.9,362.8,82.4z M359,130l-153.3,88.5c-22.7,13.1-50.6,13.1-73.3,0
		l-64.7-37.3c-16.8-9.7-16.8-34,0-43.7L221,48.9c22.7-13.1,50.6-13.1,73.3,0L359,86.2C375.8,96,375.8,120.3,359,130z"/>
	<path class="st6" d="M71.5,141.2l153.8-88.8c20-11.5,44.6-11.5,64.6,0l65.2,37.7c13.9,8,13.9,28.1,0,36.1L201.3,215
		c-20,11.5-44.6,11.5-64.6,0l-65.2-37.7C57.6,169.3,57.6,149.3,71.5,141.2z"/>
	<path class="st8" d="M359,86.3L294.3,49c-22.7-13.1-50.6-13.1-73.3,0L67.7,137.5c-16.8,9.7-16.8,34,0,43.7l64.7,37.3
		c22.7,13.1,50.6,13.1,73.3,0L359,130C375.8,120.3,375.8,96,359,86.3z M355.2,126.2L201.3,215c-20,11.5-44.6,11.5-64.6,0l-65.2-37.7
		c-13.9-8-13.9-28.1,0-36.1l153.8-88.8c20-11.5,44.6-11.5,64.6,0l65.2,37.7C369.1,98.1,369.1,118.2,355.2,126.2z"/>
	<path class="st6" d="M75.3,145l154.4-89.1c17.3-10,38.6-10,55.9,0l65.8,38c11,6.3,11,22.2,0,28.5L197,211.5
		c-17.3,10-38.6,10-55.9,0l-65.8-38C64.4,167.2,64.4,151.4,75.3,145z"/>
	<g>
		<polygon class="st3" points="523.9,241.2 388.4,163.1 388.4,234.7 523.9,312.9 		"/>
		<g>
			<polygon class="st3" points="505.6,252.1 483.8,239.5 483.8,227.5 505.6,240.2 			"/>
			<polygon class="st3" points="497.7,247.5 491.7,244.1 491.7,232.1 497.7,235.6 			"/>
		</g>
		<g>
			<polygon class="st3" points="505.6,272.5 483.8,259.9 483.8,247.9 505.6,260.5 			"/>
			<polygon class="st3" points="497.7,267.9 491.7,264.5 491.7,252.5 497.7,255.9 			"/>
		</g>
		<g>
			<polygon class="st3" points="505.6,292.9 483.8,280.2 483.8,268.3 505.6,280.9 			"/>
			<polygon class="st3" points="497.7,288.3 491.7,284.8 491.7,272.9 497.7,276.3 			"/>
		</g>
		<g>
			<polygon class="st3" points="468.3,230.6 446.4,217.9 446.4,206 468.3,218.6 			"/>
			<polygon class="st3" points="460.3,226 454.4,222.5 454.4,210.6 460.3,214 			"/>
		</g>
		<g>
			<polygon class="st3" points="468.3,250.9 446.4,238.3 446.4,226.3 468.3,239 			"/>
			<polygon class="st3" points="460.3,246.3 454.4,242.9 454.4,230.9 460.3,234.4 			"/>
		</g>
		<g>
			<polygon class="st3" points="430.9,209 409.1,196.4 409.1,184.4 430.9,197 			"/>
			<polygon class="st3" points="423,204.4 417,201 417,189 423,192.4 			"/>
		</g>
		<g>
			<polygon class="st3" points="430.9,229.4 409.1,216.8 409.1,204.8 430.9,217.4 			"/>
			<polygon class="st3" points="423,224.8 417,221.3 417,209.4 423,212.8 			"/>
		</g>
		<g>
			<polygon class="st3" points="430.9,249.7 409.1,237.1 409.1,225.2 430.9,237.8 			"/>
			<polygon class="st3" points="423,245.2 417,241.7 417,229.7 423,233.2 			"/>
		</g>
	</g>
	<polygon class="st3" points="523.9,241.2 448,285 448,356.7 523.9,312.8 	"/>
	<polygon class="st7" points="388.4,163.1 312.5,206.9 312.5,278.5 388.4,234.7 	"/>
	<polygon class="st5" points="711.3,306 535.7,407.4 535.7,335.8 711.3,234.4 	"/>
	<g>
		<polygon class="st3" points="578.5,332.5 556.6,345.2 556.6,333.2 578.5,320.6 		"/>
		<polygon class="st3" points="570.5,337.1 564.5,340.6 564.5,328.6 570.5,325.2 		"/>
	</g>
	<g>
		<polygon class="st3" points="615.8,311 593.9,323.6 593.9,311.6 615.8,299 		"/>
		<polygon class="st3" points="607.8,315.6 601.9,319 601.9,307 607.8,303.6 		"/>
	</g>
	<g>
		<polygon class="st3" points="653.1,289.4 631.3,302 631.3,290.1 653.1,277.5 		"/>
		<polygon class="st3" points="645.2,294 639.2,297.5 639.2,285.5 645.2,282 		"/>
	</g>
	<g>
		<polygon class="st3" points="578.5,352.9 556.6,365.5 556.6,353.6 578.5,340.9 		"/>
		<polygon class="st3" points="570.5,357.5 564.5,360.9 564.5,349 570.5,345.5 		"/>
	</g>
	<g>
		<polygon class="st3" points="615.8,331.4 593.9,344 593.9,332 615.8,319.4 		"/>
		<polygon class="st3" points="607.8,335.9 601.9,339.4 601.9,327.4 607.8,324 		"/>
	</g>
	<g>
		<polygon class="st3" points="653.1,309.8 631.3,322.4 631.3,310.4 653.1,297.8 		"/>
		<polygon class="st3" points="645.2,314.4 639.2,317.8 639.2,305.9 645.2,302.4 		"/>
	</g>
	<g>
		<polygon class="st3" points="578.5,373.3 556.6,385.9 556.6,373.9 578.5,361.3 		"/>
		<polygon class="st3" points="570.5,377.9 564.5,381.3 564.5,369.3 570.5,365.9 		"/>
	</g>
	<g>
		<polygon class="st3" points="615.8,351.7 593.9,364.3 593.9,352.4 615.8,339.8 		"/>
		<polygon class="st3" points="607.8,356.3 601.9,359.8 601.9,347.8 607.8,344.3 		"/>
	</g>
	<g>
		<polygon class="st3" points="653.1,330.2 631.3,342.8 631.3,330.8 653.1,318.2 		"/>
		<polygon class="st3" points="645.2,334.8 639.2,338.2 639.2,326.2 645.2,322.8 		"/>
	</g>
	<g>
		<polygon class="st3" points="535.7,407.4 448,356.7 448,285.1 535.7,335.8 		"/>
		<g>
			<polygon class="st3" points="480.1,325.1 466.2,317.1 466.2,305.1 480.1,313.1 			"/>
			<polygon class="st3" points="472.2,320.5 466.2,317.1 466.2,305.1 472.2,308.5 			"/>
			<g>
				<polygon class="st3" points="517.5,346.7 495.6,334 495.6,322.1 517.5,334.7 				"/>
				<polygon class="st3" points="509.5,342.1 503.6,338.6 503.6,326.7 509.5,330.1 				"/>
			</g>
			<polygon class="st3" points="480.1,345.5 466.2,337.4 466.2,325.5 480.1,333.5 			"/>
			<polygon class="st3" points="472.2,340.9 466.2,337.4 466.2,325.5 472.2,328.9 			"/>
			<g>
				<polygon class="st3" points="517.5,367 495.6,354.4 495.6,342.4 517.5,355.1 				"/>
				<polygon class="st3" points="509.5,362.4 503.6,359 503.6,347 509.5,350.5 				"/>
			</g>
			<polygon class="st3" points="480.1,365.8 466.2,357.8 466.2,345.8 480.1,353.9 			"/>
			<polygon class="st3" points="472.2,361.2 466.2,357.8 466.2,345.8 472.2,349.3 			"/>
			<g>
				<polygon class="st3" points="517.5,387.4 495.6,374.8 495.6,362.8 517.5,375.4 				"/>
				<polygon class="st3" points="509.5,382.8 503.6,379.4 503.6,367.4 509.5,370.8 				"/>
			</g>
		</g>
	</g>
	<polygon class="st8" points="312.5,278.5 224.7,227.8 224.7,156.2 312.5,206.9 	"/>
	<g>
		<polygon class="st3" points="256.9,196.2 243,188.2 243,176.2 256.9,184.3 		"/>
		<polygon class="st3" points="248.9,191.6 243,188.2 243,176.2 248.9,179.7 		"/>
		<g>
			<polygon class="st3" points="294.2,217.8 272.4,205.2 272.4,193.2 294.2,205.8 			"/>
			<polygon class="st3" points="286.3,213.2 280.3,209.8 280.3,197.8 286.3,201.2 			"/>
		</g>
		<polygon class="st3" points="256.9,216.6 243,208.6 243,196.6 256.9,204.6 		"/>
		<polygon class="st3" points="248.9,212 243,208.6 243,196.6 248.9,200 		"/>
		<g>
			<polygon class="st3" points="294.2,238.1 272.4,225.5 272.4,213.6 294.2,226.2 			"/>
			<polygon class="st3" points="286.3,233.6 280.3,230.1 280.3,218.2 286.3,221.6 			"/>
		</g>
		<polygon class="st3" points="256.9,237 243,228.9 243,217 256.9,225 		"/>
		<polygon class="st3" points="248.9,232.4 243,228.9 243,217 248.9,220.4 		"/>
		<g>
			<polygon class="st3" points="294.2,258.5 272.4,245.9 272.4,233.9 294.2,246.5 			"/>
			<polygon class="st3" points="286.3,253.9 280.3,250.5 280.3,238.5 286.3,242 			"/>
		</g>
	</g>
	<polygon class="st7" points="388.4,234.7 523.9,312.9 523.9,307.3 388.4,229.2 	"/>
	<polygon class="st9" points="312.5,278.5 388.4,234.7 388.4,229.2 312.5,273 	"/>
	<polygon class="st9" points="535.7,407.4 711.3,306 711.3,300.5 535.7,401.9 	"/>
	<polygon class="st7" points="448,356.7 535.7,407.4 535.7,401.9 448,351.2 	"/>
	<polygon class="st7" points="224.7,227.8 312.5,278.5 312.5,273 224.7,222.3 	"/>
	<g>
		<g>
			<g>
				<polygon class="st3" points="328.6,219.3 350.5,206.7 350.5,194.7 328.6,207.4 				"/>
				<polygon class="st3" points="336.6,214.7 342.5,211.3 342.5,199.3 336.6,202.8 				"/>
			</g>
			<g>
				<polygon class="st3" points="350.5,206.7 372.3,194.1 372.3,182.1 350.5,194.7 				"/>
				<polygon class="st3" points="358.4,202.1 364.4,198.7 364.4,186.7 358.4,190.2 				"/>
			</g>
		</g>
		<g>
			<g>
				<polygon class="st3" points="328.6,239.4 350.5,226.8 350.5,214.8 328.6,227.4 				"/>
				<polygon class="st3" points="336.6,234.8 342.5,231.4 342.5,219.4 336.6,222.8 				"/>
			</g>
			<g>
				<polygon class="st3" points="350.5,226.8 372.3,214.2 372.3,202.2 350.5,214.8 				"/>
				<polygon class="st3" points="358.4,222.2 364.4,218.8 364.4,206.8 358.4,210.2 				"/>
			</g>
		</g>
		<g>
			<g>
				<polygon class="st3" points="328.6,259.5 350.5,246.9 350.5,234.9 328.6,247.5 				"/>
				<polygon class="st3" points="336.6,254.9 342.5,251.4 342.5,239.5 336.6,242.9 				"/>
			</g>
			<g>
				<polygon class="st3" points="350.5,246.9 372.3,234.2 372.3,222.3 350.5,234.9 				"/>
				<polygon class="st3" points="358.4,242.3 364.4,238.8 364.4,226.9 358.4,230.3 				"/>
			</g>
		</g>
	</g>
	<polygon class="st7" points="453.5,268.6 453.5,271.9 471.9,261.3 471.9,258 	"/>
	<polygon class="st8" points="416.9,250.7 453.5,271.9 453.5,268.6 416.9,247.4 	"/>
	<polygon class="st3" points="416.9,247.4 453.5,268.6 471.9,258 435.2,236.8 	"/>
	<g>
		<polygon class="st7" points="423,254.2 423,272.1 426,270.3 426,256 		"/>
		<polygon class="st10" points="420,270.3 423,272.1 423,254.2 420,252.5 		"/>
	</g>
	<g>
		<polygon class="st7" points="448,268.6 448,286.4 451,284.7 451,270.3 		"/>
		<polygon class="st10" points="444.9,284.7 448,286.4 448,268.6 444.9,266.8 		"/>
	</g>
	<polygon class="st3" points="448,288.2 416.9,270.3 416.9,273.8 448,291.7 	"/>
	<g>
		
			<pattern  id="SVGID_2_" xlink:href="#РќРѕРІС‹Р№_РѕР±СЂР°Р·РµС†_СѓР·" patternTransform="matrix(1 0 0 -1 396.9 -15842.1992)">
		</pattern>
		<path class="st11" d="M93.5,101.2c0,3.1-3.1,5.6-7,5.6c-3.8,0-7-2.5-7-5.6s3.1-5.6,7-5.6C90.4,95.5,93.5,98.1,93.5,101.2z"/>
		<g>
			<path class="st8" d="M89.9,91.4c-0.5,0-0.9,0.3-0.9,0.7v12.6c0,0.4,0.4,0.7,0.9,0.7s0.9-0.3,0.9-0.7V92.1
				C90.8,91.8,90.4,91.4,89.9,91.4z"/>
			<path class="st3" d="M90.2,69.1c-0.1,0-0.2,0-0.2,0h-0.2c-5.9,0.4-8.3,15.1-8.3,18.7c0,4.1,3.8,7.4,8.5,7.4s8.5-3.3,8.5-7.4
				C98.5,84.2,96.1,69.5,90.2,69.1z"/>
			<path class="st8" d="M95.5,91.3c-4.7,0.7-8.9-2-9.5-6c-0.4-2.4-0.4-10.2,1.5-15.3c-4.3,3.4-6,14.7-6,17.8c0,4.1,3.8,7.4,8.5,7.4
				c3.6,0,6.6-1.9,7.9-4.5C97.1,90.9,96.3,91.2,95.5,91.3z"/>
		</g>
	</g>
	<g>
		
			<pattern  id="SVGID_3_" xlink:href="#РќРѕРІС‹Р№_РѕР±СЂР°Р·РµС†_СѓР·" patternTransform="matrix(1 0 0 -1 396.9 -15842.1992)">
		</pattern>
		<path class="st12" d="M124.3,85.8c0,3.1-3.1,5.6-7,5.6c-3.8,0-7-2.5-7-5.6s3.1-5.6,7-5.6C121.2,80.1,124.3,82.7,124.3,85.8z"/>
		<g>
			<path class="st8" d="M120.8,76.1c-0.5,0-0.9,0.3-0.9,0.7v12.6c0,0.4,0.4,0.7,0.9,0.7s0.9-0.3,0.9-0.7V76.8
				C121.6,76.4,121.2,76.1,120.8,76.1z"/>
			<path class="st3" d="M121,53.7c-0.1,0-0.2,0-0.2,0h-0.2c-5.9,0.4-8.3,15.1-8.3,18.7c0,4.1,3.8,7.4,8.5,7.4s8.5-3.3,8.5-7.4
				C129.3,68.8,126.9,54.1,121,53.7z"/>
			<path class="st8" d="M126.3,75.9c-4.7,0.7-8.9-2-9.5-6c-0.4-2.4-0.4-10.2,1.5-15.3c-4.3,3.4-6,14.7-6,17.8c0,4.1,3.8,7.4,8.5,7.4
				c3.6,0,6.6-1.9,7.9-4.5C127.9,75.6,127.2,75.8,126.3,75.9z"/>
		</g>
	</g>
	<g>
		
			<pattern  id="SVGID_4_" xlink:href="#РќРѕРІС‹Р№_РѕР±СЂР°Р·РµС†_СѓР·" patternTransform="matrix(1 0 0 -1 396.9 -15842.1992)">
		</pattern>
		<path class="st13" d="M155.1,70.4c0,3.1-3.1,5.6-7,5.6s-7-2.5-7-5.6s3.1-5.6,7-5.6S155.1,67.3,155.1,70.4z"/>
		<g>
			<path class="st8" d="M151.6,60.7c-0.5,0-0.9,0.3-0.9,0.7V74c0,0.4,0.4,0.7,0.9,0.7s0.9-0.3,0.9-0.7V61.4
				C152.5,61,152.1,60.7,151.6,60.7z"/>
			<path class="st3" d="M151.9,38.3c-0.1,0-0.2,0-0.2,0c-0.1,0-0.2,0-0.2,0c-5.9,0.4-8.3,15.1-8.3,18.7c0,4.1,3.8,7.4,8.5,7.4
				s8.5-3.3,8.5-7.4C160.1,53.5,157.8,38.7,151.9,38.3z"/>
			<path class="st8" d="M157.2,60.5c-4.7,0.7-8.9-2-9.5-6c-0.4-2.4-0.4-10.2,1.5-15.3c-4.3,3.4-6,14.7-6,17.8c0,4.1,3.8,7.4,8.5,7.4
				c3.6,0,6.6-1.9,7.9-4.5C158.8,60.2,158,60.4,157.2,60.5z"/>
		</g>
	</g>
	<g>
		
			<pattern  id="SVGID_5_" xlink:href="#РќРѕРІС‹Р№_РѕР±СЂР°Р·РµС†_СѓР·" patternTransform="matrix(1 0 0 -1 396.9 -15842.1992)">
		</pattern>
		<ellipse class="st14" cx="179" cy="55" rx="7" ry="5.6"/>
		<g>
			<path class="st8" d="M182.4,45.3c-0.5,0-0.9,0.3-0.9,0.7v12.6c0,0.4,0.4,0.7,0.9,0.7s0.9-0.3,0.9-0.7V46
				C183.3,45.6,182.9,45.3,182.4,45.3z"/>
			<path class="st3" d="M182.7,22.9c-0.1,0-0.2,0-0.2,0h-0.2c-5.9,0.4-8.3,15.1-8.3,18.7c0,4.1,3.8,7.4,8.5,7.4s8.5-3.3,8.5-7.4
				C191,38.1,188.6,23.3,182.7,22.9z"/>
			<path class="st8" d="M188,45.1c-4.7,0.7-8.9-2-9.5-6c-0.4-2.4-0.4-10.2,1.5-15.3c-4.3,3.4-6,14.7-6,17.8c0,4.1,3.8,7.4,8.5,7.4
				c3.6,0,6.6-1.9,7.9-4.5C189.6,44.8,188.8,45,188,45.1z"/>
		</g>
	</g>
	<g>
		
			<pattern  id="SVGID_6_" xlink:href="#РќРѕРІС‹Р№_РѕР±СЂР°Р·РµС†_СѓР·" patternTransform="matrix(1 0 0 -1 396.9 -15842.1992)">
		</pattern>
		<path class="st15" d="M599.9,410c0,3.7-3.7,6.6-8.2,6.6s-8.2-3-8.2-6.6c0-3.7,3.7-6.6,8.2-6.6C596.2,403.3,599.9,406.3,599.9,410z
			"/>
		<g>
			<path class="st8" d="M595.7,398.5c-0.6,0-1,0.4-1,0.9v14.8c0,0.5,0.4,0.9,1,0.9s1-0.4,1-0.9v-14.8
				C596.7,398.9,596.3,398.5,595.7,398.5z"/>
			<path class="st3" d="M596,372.3c-0.1,0-0.2,0-0.3,0s-0.2,0-0.3,0c-6.9,0.5-9.7,17.8-9.7,22c0,4.8,4.5,8.6,10,8.6s10-3.9,10-8.6
				C605.7,390.1,602.9,372.8,596,372.3z"/>
			<path class="st8" d="M602.2,398.4c-5.5,0.8-10.5-2.3-11.2-7c-0.4-2.9-0.5-12,1.7-17.9c-5,3.9-7.1,17.2-7.1,20.9
				c0,4.8,4.5,8.6,10,8.6c4.2,0,7.7-2.2,9.2-5.3C604.1,398,603.2,398.2,602.2,398.4z"/>
		</g>
	</g>
	<g>
		
			<pattern  id="SVGID_7_" xlink:href="#РќРѕРІС‹Р№_РѕР±СЂР°Р·РµС†_СѓР·" patternTransform="matrix(1 0 0 -1 396.9 -15842.1992)">
		</pattern>
		<ellipse class="st16" cx="250.3" cy="273.5" rx="8.2" ry="6.6"/>
		<g>
			<path class="st8" d="M254.3,262.1c-0.6,0-1,0.4-1,0.9v14.8c0,0.5,0.4,0.9,1,0.9s1-0.4,1-0.9V263
				C255.3,262.5,254.9,262.1,254.3,262.1z"/>
			<path class="st3" d="M254.6,235.9c-0.1,0-0.2,0-0.3,0c-0.1,0-0.2,0-0.3,0c-6.9,0.5-9.7,17.8-9.7,22c0,4.8,4.5,8.6,10,8.6
				c5.5,0,10-3.9,10-8.6C264.3,253.7,261.5,236.4,254.6,235.9z"/>
			<path class="st8" d="M260.8,261.9c-5.5,0.8-10.5-2.3-11.2-7c-0.4-2.9-0.5-12,1.7-17.9c-5,3.9-7.1,17.2-7.1,20.9
				c0,4.8,4.5,8.6,10,8.6c4.2,0,7.7-2.2,9.2-5.3C262.7,261.5,261.8,261.8,260.8,261.9z"/>
		</g>
	</g>
	<g>
		
			<pattern  id="SVGID_8_" xlink:href="#РќРѕРІС‹Р№_РѕР±СЂР°Р·РµС†_СѓР·" patternTransform="matrix(1 0 0 -1 396.9 -15842.1992)">
		</pattern>
		<ellipse class="st17" cx="221.8" cy="260.7" rx="8.2" ry="6.6"/>
		<g>
			<path class="st8" d="M225.8,249.3c-0.6,0-1,0.4-1,0.9V265c0,0.5,0.4,0.9,1,0.9s1-0.4,1-0.9v-14.8
				C226.8,249.6,226.3,249.3,225.8,249.3z"/>
			<path class="st3" d="M226.1,223c-0.1,0-0.2,0-0.3,0c-0.1,0-0.2,0-0.3,0c-6.9,0.5-9.7,17.8-9.7,22c0,4.8,4.5,8.6,10,8.6
				s10-3.9,10-8.6C235.8,240.8,233,223.5,226.1,223z"/>
			<path class="st8" d="M232.3,249.1c-5.5,0.8-10.5-2.3-11.2-7c-0.4-2.9-0.5-12,1.7-17.9c-5,3.9-7.1,17.2-7.1,20.9
				c0,4.8,4.5,8.6,10,8.6c4.2,0,7.7-2.2,9.2-5.3C234.2,248.7,233.3,248.9,232.3,249.1z"/>
		</g>
	</g>
	<g>
		
			<pattern  id="SVGID_9_" xlink:href="#РќРѕРІС‹Р№_РѕР±СЂР°Р·РµС†_СѓР·" patternTransform="matrix(1 0 0 -1 396.9 -15842.1992)">
		</pattern>
		<path class="st18" d="M636,391.9c0,3.7-3.7,6.6-8.2,6.6s-8.2-3-8.2-6.6c0-3.7,3.7-6.6,8.2-6.6C632.4,385.3,636,388.3,636,391.9z"
			/>
		<g>
			<path class="st8" d="M631.9,380.5c-0.6,0-1,0.4-1,0.9v14.8c0,0.5,0.4,0.9,1,0.9s1-0.4,1-0.9v-14.8
				C632.9,380.9,632.4,380.5,631.9,380.5z"/>
			<path class="st3" d="M632.2,354.3c-0.1,0-0.2,0-0.3,0s-0.2,0-0.3,0c-6.9,0.5-9.7,17.8-9.7,22c0,4.8,4.5,8.6,10,8.6s10-3.9,10-8.6
				C641.9,372.1,639.1,354.8,632.2,354.3z"/>
			<path class="st8" d="M638.4,380.3c-5.5,0.8-10.5-2.3-11.2-7c-0.4-2.9-0.5-12,1.7-17.9c-5,3.9-7.1,17.2-7.1,20.9
				c0,4.8,4.5,8.6,10,8.6c4.2,0,7.7-2.2,9.2-5.3C640.3,379.9,639.3,380.2,638.4,380.3z"/>
		</g>
	</g>
	<g>
		
			<pattern  id="SVGID_10_" xlink:href="#РќРѕРІС‹Р№_РѕР±СЂР°Р·РµС†_СѓР·" patternTransform="matrix(1 0 0 -1 396.9 -15842.1992)">
		</pattern>
		<ellipse class="st19" cx="664" cy="373.9" rx="8.2" ry="6.6"/>
		<g>
			<path class="st8" d="M668,362.5c-0.6,0-1,0.4-1,0.9v14.8c0,0.5,0.4,0.9,1,0.9s1-0.4,1-0.9v-14.8C669,362.9,668.6,362.5,668,362.5
				z"/>
			<path class="st3" d="M668.3,336.3c-0.1,0-0.2,0-0.3,0s-0.2,0-0.3,0c-6.9,0.5-9.7,17.8-9.7,22c0,4.8,4.5,8.6,10,8.6s10-3.9,10-8.6
				C678,354,675.2,336.8,668.3,336.3z"/>
			<path class="st8" d="M674.5,362.3c-5.5,0.8-10.5-2.3-11.2-7c-0.4-2.9-0.5-12,1.7-17.9c-5,3.9-7.1,17.2-7.1,20.9
				c0,4.8,4.5,8.6,10,8.6c4.2,0,7.7-2.2,9.2-5.3C676.4,361.9,675.5,362.2,674.5,362.3z"/>
		</g>
	</g>
	<g>
		
			<pattern  id="SVGID_11_" xlink:href="#РќРѕРІС‹Р№_РѕР±СЂР°Р·РµС†_СѓР·" patternTransform="matrix(1 0 0 -1 396.9 -15842.1992)">
		</pattern>
		<path class="st20" d="M462.7,395.4c0,3.7-3.7,6.8-8.3,6.8s-8.3-3-8.3-6.8c0-3.7,3.7-6.8,8.3-6.8S462.7,391.6,462.7,395.4z"/>
		<g>
			<circle class="st3" cx="458.7" cy="391.6" r="9.9"/>
			<circle class="st2" cx="461" cy="385.6" r="2.3"/>
			<path class="st8" d="M458.7,398.6c-5.2,0-9.4-3.4-9.8-7.8c0,0.3,0,0.5,0,0.8c0,5.5,4.4,9.9,9.9,9.9s9.9-4.4,9.9-9.9
				c0-0.3,0-0.5,0-0.8C468.1,395.2,463.9,398.6,458.7,398.6z"/>
		</g>
	</g>
	<g>
		
			<pattern  id="SVGID_12_" xlink:href="#РќРѕРІС‹Р№_РѕР±СЂР°Р·РµС†_СѓР·" patternTransform="matrix(1 0 0 -1 396.9 -15842.1992)">
		</pattern>
		<path class="st21" d="M436.3,406.8c0,3.7-3.7,6.8-8.3,6.8s-8.3-3-8.3-6.8c0-3.7,3.7-6.8,8.3-6.8S436.3,403,436.3,406.8z"/>
		<g>
			<circle class="st3" cx="432.3" cy="403" r="9.9"/>
			<circle class="st2" cx="434.5" cy="397" r="2.3"/>
			<path class="st8" d="M432.3,410c-5.2,0-9.4-3.4-9.8-7.8c0,0.3,0,0.5,0,0.8c0,5.5,4.4,9.9,9.9,9.9s9.9-4.4,9.9-9.9
				c0-0.3,0-0.5,0-0.8C441.7,406.6,437.5,410,432.3,410z"/>
		</g>
	</g>
	<g>
		
			<pattern  id="SVGID_13_" xlink:href="#РќРѕРІС‹Р№_РѕР±СЂР°Р·РµС†_СѓР·" patternTransform="matrix(1 0 0 -1 396.9 -15842.1992)">
		</pattern>
		<ellipse class="st22" cx="277.4" cy="286" rx="8.3" ry="6.8"/>
		<g>
			<circle class="st3" cx="281.7" cy="282.3" r="9.9"/>
			<circle class="st2" cx="284" cy="276.2" r="2.3"/>
			<path class="st8" d="M281.7,289.3c-5.2,0-9.4-3.4-9.8-7.8c0,0.3,0,0.5,0,0.8c0,5.5,4.4,9.9,9.9,9.9s9.9-4.4,9.9-9.9
				c0-0.3,0-0.5,0-0.8C291.2,285.8,286.9,289.3,281.7,289.3z"/>
		</g>
	</g>
	<g>
		
			<pattern  id="SVGID_14_" xlink:href="#РќРѕРІС‹Р№_РѕР±СЂР°Р·РµС†_СѓР·" patternTransform="matrix(1 0 0 -1 396.9 -15842.1992)">
		</pattern>
		<path class="st23" d="M67.2,114.2c0,3.3-3.3,5.9-7.3,5.9s-7.3-2.7-7.3-5.9c0-3.3,3.3-5.9,7.3-5.9
			C63.9,108.3,67.2,110.9,67.2,114.2z"/>
		<g>
			
				<ellipse transform="matrix(0.7071 -0.7071 0.7071 0.7071 -59.7586 77.506)" class="st3" cx="63.7" cy="110.9" rx="8.7" ry="8.7"/>
			<circle class="st2" cx="65.7" cy="105.6" r="2"/>
			<path class="st8" d="M63.7,117.1c-4.6,0-8.3-3-8.6-6.9c0,0.2,0,0.5,0,0.7c0,4.8,3.9,8.7,8.7,8.7c4.8,0,8.7-3.9,8.7-8.7
				c0-0.2,0-0.5,0-0.7C72,114.1,68.2,117.1,63.7,117.1z"/>
		</g>
	</g>
	<polygon class="st8" points="691,272.9 668.5,259.9 668.5,331.5 691,344.5 	"/>
	<polygon class="st3" points="733.9,247.4 711.3,234.4 711.3,306 733.9,319 	"/>
	<path class="st7" d="M691,344.5c0-0.6,42.8-25.5,42.8-25.5v-71.6L691,272.9V344.5z"/>
	<polygon class="st7" points="691,338.2 668.5,325.2 668.5,331.5 691,344.5 	"/>
	<path class="st9" d="M691,344.5c0-0.6,42.8-25.5,42.8-25.5v-6.3L691,338.2V344.5z"/>
	<g>
		<g>
			<polygon class="st3" points="723.4,273 701.5,285.6 701.5,273.6 723.4,261 			"/>
			<polygon class="st3" points="715.4,277.6 709.5,281 709.5,269 715.4,265.6 			"/>
		</g>
		<g>
			<polygon class="st3" points="723.4,293.4 701.5,306 701.5,294 723.4,281.4 			"/>
			<polygon class="st3" points="715.4,297.9 709.5,301.4 709.5,289.4 715.4,286 			"/>
		</g>
		<g>
			<polygon class="st3" points="723.4,313.7 701.5,326.3 701.5,314.4 723.4,301.8 			"/>
			<polygon class="st3" points="715.4,318.3 709.5,321.7 709.5,309.8 715.4,306.3 			"/>
		</g>
	</g>
	<path class="st3" d="M711.3,234.4l-311-180.1L224.7,156.2l87.8,50.7l75.9-43.8l135.5,78.1L448,285.1l87.8,50.7l132.3-76.4l0,0
		l23,13.5c0,0,42.4-25.2,42.8-25.5C734.3,247.2,711.3,234.4,711.3,234.4z"/>
	<path class="st24" d="M725,247.6l-22.8-13.2l0,0L400.4,60.1l-165.6,96.1l77.8,44.9l75.9-43.8L534,241.2l-75.9,43.9l77.8,44.9
		c38-21.6,95.8-54.9,132.3-75.9l22.8,13.1L725,247.6z"/>
	<polygon class="st25" points="400.3,71.6 400.3,60.1 234.7,156.2 244.7,162 	"/>
	<polygon class="st25" points="533.9,252.8 533.9,241.2 458,285.1 468,290.9 	"/>
	<polygon class="st6" points="400.3,60.1 400.3,71.6 714.9,253.4 725,247.6 	"/>
	<g>
		<g>
			<g>
				<ellipse class="st3" cx="502.2" cy="407.4" rx="3.3" ry="2.8"/>
				<line class="st6" x1="502.2" y1="407.4" x2="502.2" y2="274.7"/>
			</g>
			<g>
				<path class="st3" d="M502.2,274.8v8.6v4.6c0,0,2.6,0.3,5,2.5c2.4,2.3,6.7,5,8.5,5.7c-1.8-2.4-1.7-11.3-1.9-12.4
					c-0.2-1.9-2.7-4.1-5.3-5.4C506.1,277.2,504,274.3,502.2,274.8z"/>
				<path class="st3" d="M510.9,288.8c-2.7-2.7-5.7-4.7-8.7-4.9"/>
				<path class="st3" d="M510.9,284.3c-2.7-2.7-5.7-4.7-8.7-4.9"/>
			</g>
		</g>
		<g>
			<g>
				<ellipse class="st3" cx="517.3" cy="416.9" rx="3.3" ry="2.8"/>
				<line class="st6" x1="517.3" y1="416.9" x2="517.3" y2="284.2"/>
			</g>
			<g>
				<path class="st3" d="M517.3,284.2v8.6v4.6c0,0,2.6,0.3,5,2.5c2.4,2.3,6.7,5,8.5,5.7c-1.8-2.4-1.7-11.3-1.9-12.4
					c-0.2-1.9-2.7-4.1-5.3-5.4C521.2,286.7,519,283.8,517.3,284.2z"/>
				<path class="st3" d="M526,298.3c-2.7-2.7-5.7-4.7-8.7-4.9"/>
				<path class="st3" d="M526,293.8c-2.7-2.7-5.7-4.7-8.7-4.9"/>
			</g>
		</g>
		<g>
			<g>
				<path class="st3" d="M535.7,426.4c0,1.6-1.5,2.8-3.3,2.8s-3.3-1.3-3.3-2.8s1.5-2.8,3.3-2.8C534.2,423.5,535.7,424.8,535.7,426.4
					z"/>
				<line class="st6" x1="532.4" y1="426.4" x2="532.4" y2="293.7"/>
			</g>
			<g>
				<path class="st3" d="M532.4,293.7v8.6v4.6c0,0,2.6,0.3,5,2.5c2.4,2.3,6.7,5,8.5,5.7c-1.8-2.4-1.7-11.3-1.9-12.4
					c-0.2-1.9-2.7-4.1-5.3-5.4C536.3,296.2,534.1,293.3,532.4,293.7z"/>
				<path class="st3" d="M541,307.7c-2.7-2.7-5.7-4.7-8.7-4.9"/>
				<path class="st3" d="M541,303.3c-2.7-2.7-5.7-4.7-8.7-4.9"/>
			</g>
		</g>
	</g>
	<polygon class="st3" points="682.8,316.9 676.8,313.5 676.8,279.8 682.8,283.2 	"/>
</g>
</svg>
