<?xml version="1.0" encoding="utf-8"?>
<!-- Generator: Adobe Illustrator 22.0.1, SVG Export Plug-In . SVG Version: 6.00 Build 0)  -->
<svg version="1.1" id="Слой_1" xmlns="http://www.w3.org/2000/svg" xmlns:xlink="http://www.w3.org/1999/xlink" x="0px" y="0px"
	 viewBox="0 0 812.4 487" style="enable-background:new 0 0 812.4 487;" xml:space="preserve">
<style type="text/css">
	.st0{fill:none;}
	.st1{fill:#E09480;}
	.st2{fill:#F9E1DC;}
	.st3{fill:url(#SVGID_1_);}
	.st4{fill:url(#SVGID_2_);}
	.st5{fill:#E09480;stroke:#825441;stroke-linecap:round;stroke-linejoin:round;stroke-miterlimit:10;}
	.st6{fill:url(#SVGID_3_);}
	.st7{fill:#FFFFFF;stroke:#825441;stroke-linecap:round;stroke-linejoin:round;stroke-miterlimit:10;}
	.st8{fill:url(#SVGID_4_);}
	.st9{fill:none;stroke:#825441;stroke-linecap:round;stroke-linejoin:round;stroke-miterlimit:10;}
	.st10{fill:url(#SVGID_5_);}
	.st11{fill:url(#SVGID_6_);}
	.st12{fill:#B7674B;stroke:#825441;stroke-linecap:round;stroke-linejoin:round;stroke-miterlimit:10;}
	.st13{fill:#F9E1DC;stroke:#825441;stroke-linecap:round;stroke-linejoin:round;stroke-miterlimit:10;}
	.st14{fill:#EAA496;stroke:#825441;stroke-linecap:round;stroke-linejoin:round;stroke-miterlimit:10;}
	.st15{fill:url(#SVGID_7_);}
	.st16{fill:url(#SVGID_8_);}
</style>
<pattern  x="-232" y="594" width="11" height="11" patternUnits="userSpaceOnUse" id="Новый_образец_уз" viewBox="1.1 -12 11 11" style="overflow:visible;">
	<g>
		<rect x="1.1" y="-12" class="st0" width="11" height="11"/>
		<g>
			<rect x="1.1" y="-12" class="st0" width="11" height="11"/>
			<g>
				<path class="st1" d="M11.2-12.2c0-0.5,0.4-0.9,0.9-0.9s0.9,0.4,0.9,0.9s-0.4,0.9-0.9,0.9S11.2-11.7,11.2-12.2z"/>
				<path class="st1" d="M12.2-13.1c0.5,0,0.9,0.4,0.9,0.9s-0.4,0.9-0.9,0.9s-0.9-0.4-0.9-0.9C11.2-12.7,11.7-13.1,12.2-13.1z"/>
			</g>
			<g>
				<path class="st1" d="M11-12.2c0-0.5,0.4-0.9,0.9-0.9s0.9,0.4,0.9,0.9s-0.4,0.9-0.9,0.9C11.4-11.2,11-11.7,11-12.2z"/>
				<path class="st1" d="M7.4-12.2c0-0.5,0.4-0.9,0.9-0.9s0.9,0.4,0.9,0.9s-0.4,0.9-0.9,0.9C7.8-11.2,7.4-11.7,7.4-12.2z"/>
				<path class="st1" d="M3.8-12.2c0-0.5,0.4-0.9,1-0.9c0.5,0,0.9,0.4,0.9,0.9s-0.4,0.9-0.9,0.9C4.2-11.2,3.8-11.7,3.8-12.2z"/>
				<path class="st1" d="M0.2-12.2c0-0.5,0.5-0.9,1-0.9s0.9,0.4,0.9,0.9s-0.4,0.9-0.9,0.9S0.2-11.7,0.2-12.2z"/>
				<path class="st1" d="M11.9-13.1c0.5,0,0.9,0.4,0.9,0.9s-0.4,0.9-0.9,0.9S11-11.7,11-12.2S11.4-13.1,11.9-13.1z"/>
				<path class="st1" d="M8.3-13.1c0.5,0,0.9,0.4,0.9,0.9s-0.4,0.9-0.9,0.9s-0.9-0.4-0.9-0.9S7.8-13.1,8.3-13.1z"/>
				<path class="st1" d="M4.8-13.1c0.5,0,0.9,0.4,0.9,0.9s-0.4,0.9-0.9,0.9s-0.9-0.4-0.9-0.9C3.8-12.7,4.2-13.1,4.8-13.1z"/>
				<path class="st1" d="M1.2-13.1c0.5,0,0.9,0.4,0.9,0.9s-0.4,0.9-0.9,0.9s-1-0.4-1-0.9S0.7-13.1,1.2-13.1z"/>
			</g>
			<g>
				<path class="st1" d="M0-12.2c0-0.5,0.4-0.9,0.9-0.9s0.9,0.4,0.9,0.9s-0.4,0.9-0.9,0.9C0.4-11.2,0-11.7,0-12.2z"/>
				<path class="st1" d="M0.9-13.1c0.5,0,0.9,0.4,0.9,0.9s-0.4,0.9-0.9,0.9C0.4-11.2,0-11.7,0-12.2S0.4-13.1,0.9-13.1z"/>
			</g>
			<g>
				<path class="st1" d="M11.2-1.2c0-0.5,0.4-0.9,0.9-0.9S13-1.7,13-1.2s-0.4,0.9-0.9,0.9S11.2-0.7,11.2-1.2z"/>
				<path class="st1" d="M12.2-2.1c0.5,0,0.9,0.4,0.9,0.9s-0.4,0.9-0.9,0.9s-0.9-0.4-0.9-0.9C11.2-1.7,11.7-2.1,12.2-2.1z"/>
				<path class="st1" d="M12.2-5.7c0.5,0,0.9,0.4,0.9,0.9s-0.4,0.9-0.9,0.9s-0.9-0.4-0.9-0.9S11.7-5.7,12.2-5.7z"/>
				<path class="st1" d="M12.2-9.3c0.5,0,0.9,0.4,0.9,0.9s-0.4,0.9-0.9,0.9s-0.9-0.4-0.9-0.9C11.2-8.9,11.7-9.3,12.2-9.3z"/>
				<circle class="st1" cx="12.2" cy="-11.9" r="0.9"/>
			</g>
			<g>
				<path class="st1" d="M11-1.2c0-0.5,0.4-0.9,0.9-0.9s0.9,0.4,0.9,0.9s-0.4,0.9-0.9,0.9C11.4-0.2,11-0.7,11-1.2z"/>
				<path class="st1" d="M7.4-1.2c0-0.5,0.4-0.9,0.9-0.9s0.9,0.4,0.9,0.9S8.8-0.3,8.3-0.3C7.8-0.2,7.4-0.7,7.4-1.2z"/>
				<path class="st1" d="M3.8-1.2c0-0.5,0.4-0.9,0.9-0.9s0.9,0.4,0.9,0.9S5.2-0.3,4.7-0.3C4.2-0.2,3.8-0.7,3.8-1.2z"/>
				<path class="st1" d="M0.2-1.2c0-0.5,0.4-0.9,0.9-0.9S2-1.7,2-1.2S1.6-0.3,1.1-0.3S0.2-0.7,0.2-1.2z"/>
				<path class="st1" d="M11.9-2.1c0.5,0,0.9,0.4,0.9,0.9s-0.4,0.9-0.9,0.9S11-0.7,11-1.2S11.4-2.1,11.9-2.1z"/>
				<path class="st1" d="M11.9-5.7c0.5,0,0.9,0.4,0.9,0.9s-0.4,0.9-0.9,0.9S11-4.3,11-4.8S11.4-5.7,11.9-5.7z"/>
				<path class="st1" d="M11.9-9.3c0.5,0,0.9,0.4,0.9,0.9s-0.4,0.9-0.9,0.9S11-7.9,11-8.4S11.4-9.3,11.9-9.3z"/>
				<circle class="st1" cx="11.9" cy="-11.9" r="0.9"/>
				<path class="st1" d="M8.3-2.1c0.5,0,0.9,0.4,0.9,0.9S8.8-0.3,8.3-0.3S7.4-0.7,7.4-1.2S7.8-2.1,8.3-2.1z"/>
				<path class="st1" d="M8.3-5.7c0.5,0,0.9,0.4,0.9,0.9s-0.3,1-0.9,1c-0.5,0-0.9-0.4-0.9-0.9S7.8-5.7,8.3-5.7z"/>
				<path class="st1" d="M8.3-9.3c0.5,0,0.9,0.4,0.9,0.9S8.8-7.5,8.3-7.5S7.4-7.9,7.4-8.4S7.8-9.3,8.3-9.3z"/>
				<path class="st1" d="M8.3-12.9c0.5,0,0.9,0.4,0.9,0.9s-0.4,0.9-0.9,0.9S7.4-11.5,7.4-12C7.4-12.4,7.8-12.9,8.3-12.9z"/>
				<path class="st1" d="M4.8-2.1c0.5,0,0.9,0.4,0.9,0.9S5.3-0.3,4.8-0.3S3.9-0.7,3.9-1.2C3.8-1.7,4.2-2.1,4.8-2.1z"/>
				<path class="st1" d="M4.8-5.7c0.5,0,0.9,0.4,0.9,0.9s-0.4,1-0.9,1S3.9-4.2,3.9-4.7S4.2-5.7,4.8-5.7z"/>
				<path class="st1" d="M4.8-9.3c0.5,0,0.9,0.4,0.9,0.9S5.3-7.5,4.8-7.5S3.9-7.9,3.9-8.4C3.8-8.9,4.2-9.3,4.8-9.3z"/>
				<path class="st1" d="M4.8-12.9c0.5,0,0.9,0.4,0.9,0.9s-0.4,0.9-0.9,0.9S3.9-11.5,3.9-12C3.8-12.4,4.2-12.9,4.8-12.9z"/>
				<path class="st1" d="M1.2-2.1c0.5,0,0.9,0.4,0.9,0.9S1.7-0.3,1.2-0.3S0.3-0.7,0.3-1.2C0.2-1.7,0.7-2.1,1.2-2.1z"/>
				<path class="st1" d="M1.2-5.7c0.5,0,0.9,0.4,0.9,0.9s-0.4,1-0.9,1s-1-0.4-1-1S0.7-5.7,1.2-5.7z"/>
				<path class="st1" d="M1.2-9.3c0.5,0,0.9,0.4,0.9,0.9S1.7-7.5,1.2-7.5s-1-0.3-1-0.8C0.2-8.9,0.7-9.3,1.2-9.3z"/>
				<circle class="st1" cx="1.2" cy="-11.9" r="0.9"/>
			</g>
			<g>
				<path class="st1" d="M0-1.2c0-0.5,0.4-0.9,0.9-0.9s0.9,0.4,0.9,0.9S1.4-0.3,0.9-0.3C0.4-0.2,0-0.7,0-1.2z"/>
				<path class="st1" d="M0.9-2.1c0.5,0,0.9,0.4,0.9,0.9S1.4-0.3,0.9-0.3S0-0.7,0-1.2S0.4-2.1,0.9-2.1z"/>
				<path class="st1" d="M0.9-5.7c0.5,0,0.9,0.4,0.9,0.9s-0.4,1-0.9,1S0-4.2,0-4.8S0.4-5.7,0.9-5.7z"/>
				<path class="st1" d="M0.9-9.3c0.5,0,0.9,0.4,0.9,0.9S1.4-7.5,0.9-7.5C0.4-7.4,0-7.8,0-8.3C0-8.9,0.4-9.3,0.9-9.3z"/>
				<circle class="st1" cx="0.9" cy="-11.9" r="0.9"/>
			</g>
			<g>
				<circle class="st1" cx="12.2" cy="-0.9" r="0.9"/>
			</g>
			<g>
				<circle class="st1" cx="11.9" cy="-0.9" r="0.9"/>
				<path class="st1" d="M8.3-1.9c0.5,0,0.9,0.4,0.9,0.9S8.8-0.1,8.3-0.1S7.4-0.5,7.4-1C7.4-1.4,7.8-1.9,8.3-1.9z"/>
				<path class="st1" d="M4.8-1.9c0.5,0,0.9,0.4,0.9,0.9S5.3-0.1,4.8-0.1S3.9-0.5,3.9-1C3.8-1.4,4.2-1.9,4.8-1.9z"/>
				<circle class="st1" cx="1.2" cy="-0.9" r="0.9"/>
			</g>
			<g>
				<circle class="st1" cx="0.9" cy="-0.9" r="0.9"/>
			</g>
		</g>
	</g>
</pattern>
<g>
	<path class="st2" d="M292.2,10L15.7,169.6c-16,9.2-16,32.3,0,41.5l462.4,267c14.2,8.2,31.6,8.2,45.8,0l276.5-159.6
		c16-9.2,16-32.3,0-41.5L337.9,10C323.8,1.8,306.3,1.8,292.2,10z"/>
	
		<pattern  id="SVGID_1_" xlink:href="#РќРѕРІС‹Р№_РѕР±СЂР°Р·РµС†_СѓР·" patternTransform="matrix(1 0 0 -1 396.9 -15057)">
	</pattern>
	<path class="st3" d="M555.9,374.9l3-1.7c1.1,0.5,2.8,0.4,3.9-0.2l0,0c1.1-0.7,1.3-1.6,0.4-2.3l8.2-4.8l79.8-46.1
		c2.6-1.5,2.6-3.9,0-5.4s-6-1.4-9.4,0c-7,2.9-76.7,36-90.8,44.2c-2.1,1.2-2.8,2.6-2.9,3.9c-0.8,0-1.6,0.2-2.3,0.6
		c-1.2,0.7-1.3,1.7-0.3,2.3l3.7,2.2c-0.5,0.6-1.5,1.2-2.9,2c-2.6,1.5-61.8,28.7-68.9,32.8c-0.1,0.1-0.3,0.2-0.4,0.3
		c-0.2,0.1-0.4,0.2-0.6,0.3c-4.3,2.5-4.2,6.4,0,8.9c4.3,2.5,11.2,2.5,15.4,0l50.6-29.2L555.9,374.9z"/>
	
		<pattern  id="SVGID_2_" xlink:href="#РќРѕРІС‹Р№_РѕР±СЂР°Р·РµС†_СѓР·" patternTransform="matrix(1 0 0 -1 396.9 -15057)">
	</pattern>
	<path class="st4" d="M529.5,356.5l3.1-1.8c1.1,0.5,2.9,0.4,4.1-0.2c1.2-0.7,1.4-1.7,0.4-2.3l8.5-4.9l82.9-47.9
		c2.7-1.6,2.7-4.1,0-5.6c-2.7-1.6-6.2-1.5-9.8,0c-7.2,3.1-79.6,37.4-94.4,45.9c-2.2,1.3-2.9,2.7-3,4.1c-0.8,0-1.7,0.2-2.4,0.6
		c-1.2,0.7-1.4,1.8-0.3,2.4l3.9,2.2c-0.6,0.6-1.6,1.2-3,2c-2.7,1.6-64.2,29.8-71.5,34c-0.2,0.1-0.3,0.2-0.4,0.3
		c-0.2,0.1-0.4,0.2-0.6,0.3c-4.4,2.5-4.4,6.7,0.1,9.3c4.4,2.6,11.6,2.6,16,0l52.6-30.3L529.5,356.5z"/>
	<ellipse class="st5" cx="394.3" cy="240.8" rx="135.5" ry="116.6"/>
	
		<pattern  id="SVGID_3_" xlink:href="#РќРѕРІС‹Р№_РѕР±СЂР°Р·РµС†_СѓР·" patternTransform="matrix(1 0 0 -1 396.9 -15057)">
	</pattern>
	<ellipse class="st6" cx="400.3" cy="233.3" rx="122.3" ry="105.2"/>
	<ellipse class="st7" cx="394.3" cy="225.6" rx="119.7" ry="103"/>
	<g>
		
			<pattern  id="SVGID_4_" xlink:href="#РќРѕРІС‹Р№_РѕР±СЂР°Р·РµС†_СѓР·" patternTransform="matrix(1 0 0 -1 396.9 -15057)">
		</pattern>
		<ellipse class="st8" cx="663" cy="249.4" rx="31.5" ry="27.1"/>
		<g>
			<g>
				<ellipse class="st7" cx="653.1" cy="254.5" rx="31.5" ry="27.1"/>
				<path class="st7" d="M657.4,244.2v-30.1c0-3.3,2.5-5.3,4.6-6.3c-2.8,0.7-5.8,1.1-9,1.1c-3.1,0-6.1-0.4-9-1.1
					c2.1,1,4.6,2.9,4.6,6.3v30.1"/>
				<path class="st7" d="M625.6,260c-0.5-1.8-0.7-3.6-0.7-5.5"/>
				<path class="st7" d="M681.3,254.5c0,6.3-2.8,12.1-7.4,16.4"/>
				<path class="st7" d="M663.8,232c1.1,0.4,2.1,0.8,3.1,1.3"/>
				<path class="st7" d="M637.7,254.5c3.2,0,11.1-1.5,11.1-10.3"/>
				<path class="st7" d="M668.5,254.5c-3.2,0-11.1-1.5-11.1-10.3"/>
				<ellipse class="st9" cx="653.1" cy="78.8" rx="24.4" ry="21"/>
				<ellipse class="st9" cx="653.1" cy="78.8" rx="22.3" ry="19.2"/>
				<line class="st9" x1="654.5" y1="220.5" x2="654.5" y2="240.2"/>
				<path class="st9" d="M653.1,208.9c-3.1,0-6.1-0.4-9-1.1c2.1,1,4.6,2.9,4.6,6.3v4c1.4-0.6,2.8-0.9,4.3-0.9s2.9,0.3,4.3,0.9v-4
					c0-3.3,2.5-5.3,4.6-6.3C659.2,208.5,656.2,208.9,653.1,208.9z"/>
				<path class="st7" d="M677.5,79.1c-0.2,11.5-11,20.7-24.4,20.7s-24.2-9.3-24.4-20.7c-1.4,14-6.8,68.2-6.8,103
					c0,14.8,14,26.8,31.2,26.8s31.2-12,31.2-26.8C684.3,147.3,678.9,93.1,677.5,79.1z"/>
			</g>
			
				<pattern  id="SVGID_5_" xlink:href="#РќРѕРІС‹Р№_РѕР±СЂР°Р·РµС†_СѓР·" patternTransform="matrix(1 0 0 -1 396.9 -15057)">
			</pattern>
			<path class="st10" d="M625.2,120.2c-0.1-0.2-0.1-0.4-0.2-0.6c-1.6,20.4-3.1,44.1-3.1,62.5c0,12.4,9.8,22.8,23.1,25.9
				C643.5,182,629.9,133.8,625.2,120.2z"/>
			<path class="st7" d="M673,97.4c0,0,5.3,53.3,5.8,68.6"/>
		</g>
	</g>
	<g>
		
			<pattern  id="SVGID_6_" xlink:href="#РќРѕРІС‹Р№_РѕР±СЂР°Р·РµС†_СѓР·" patternTransform="matrix(1 0 0 -1 396.9 -15057)">
		</pattern>
		<ellipse class="st11" cx="593.9" cy="229.4" rx="31.5" ry="27.1"/>
		<g>
			<ellipse class="st7" cx="583.1" cy="234.2" rx="31.5" ry="27.1"/>
			<path class="st7" d="M555.6,239.7c-0.5-1.8-0.7-3.6-0.7-5.5"/>
			<path class="st7" d="M611.4,234.2c0,6.3-2.8,12.1-7.4,16.4"/>
			<path class="st7" d="M593.8,211.7c1.1,0.4,2.1,0.8,3.1,1.3"/>
			<path class="st7" d="M570.2,212.6c3.9-1.7,8.3-2.7,12.9-2.7"/>
			<path class="st9" d="M628.7,141.2c-2.6-17.2-11.7-54.6-15.9-64.4l0,0c1.1,2.8,1.7,5.8,1.7,8.9c0,15-14.1,27.1-31.5,27.1
				s-31.5-12.1-31.5-27.1c0-3.1,0.6-6.1,1.7-8.9l0,0c-4.2,9.8-13.3,47.2-15.9,64.4c-0.4,2.2-0.7,4.5-0.7,6.8
				c0,22,20.7,39.8,46.3,39.8s46.3-17.8,46.3-39.8C629.4,145.7,629.1,143.4,628.7,141.2z"/>
			<path class="st7" d="M587.4,223.9v-30.1c0-5.7,7.4-7.3,7.4-7.3l0,0c-3.7,0.8-7.7,1.3-11.7,1.3s-8-0.4-11.7-1.3l0,0
				c0,0,7.4,1.6,7.4,7.3v30.1"/>
			<path class="st7" d="M567.7,234.2c3.2,0,11.1-1.5,11.1-10.3"/>
			<path class="st7" d="M598.6,234.2c-3.2,0-11.1-1.5-11.1-10.3"/>
			<ellipse class="st5" cx="583.1" cy="132.3" rx="43.4" ry="37.4"/>
			<path class="st5" d="M563.6,147.3c-4.1-4-6.7-9.2-6.7-15c0-5.1,1.9-9.7,5.2-13.5"/>
			<path class="st5" d="M555.4,122.6c1.5-3.3,3.9-6.2,6.7-8.6"/>
			<path class="st5" d="M613.1,132.3c0,2.4-0.4,4.8-1.1,7c-3,9-11.4,16-22.1,18.1"/>
			<path class="st12" d="M628.7,141.2c-0.6-3.8-1.4-8.6-2.5-13.8c0.2,1.6,0.4,3.2,0.4,4.9c0,20.6-19.4,37.4-43.4,37.4
				s-43.4-16.7-43.4-37.4c0-1.7,0.1-3.3,0.4-4.9c-1.1,5.2-2,10-2.5,13.8c-0.4,2.2-0.7,4.5-0.7,6.8c0,22,20.7,39.8,46.3,39.8
				s46.3-17.8,46.3-39.8C629.4,145.7,629.1,143.4,628.7,141.2z"/>
			<ellipse class="st9" cx="583.1" cy="85.6" rx="31.5" ry="27.1"/>
			<ellipse class="st9" cx="583.1" cy="85.6" rx="29.2" ry="25.1"/>
			<path class="st13" d="M578.8,193.8v4c1.4-0.6,2.8-0.9,4.3-0.9s2.9,0.3,4.3,0.9v-4c0-5.7,7.4-7.3,7.4-7.3l0,0
				c-3.7,0.8-7.7,1.3-11.7,1.3s-8-0.4-11.7-1.3l0,0C571.4,186.5,578.8,188.1,578.8,193.8z"/>
			<line class="st9" x1="584.5" y1="200.2" x2="584.5" y2="219.9"/>
		</g>
	</g>
	<g>
		<ellipse class="st7" cx="394.3" cy="223.7" rx="118.4" ry="101.9"/>
		<ellipse class="st7" cx="394.3" cy="223.7" rx="78.6" ry="67.6"/>
		<ellipse class="st7" cx="394.3" cy="226.3" rx="69.2" ry="59.5"/>
		<g>
			<g>
				<ellipse class="st14" cx="394.3" cy="139.9" rx="21.4" ry="8.5"/>
				<ellipse class="st14" cx="394.3" cy="307.4" rx="21.4" ry="8.5"/>
			</g>
			<g>
				<path class="st14" d="M340.6,151.4c3.9,3.3,0.2,11.8-8.2,19.1c-8.4,7.2-18.3,10.4-22.1,7c-3.9-3.3-0.2-11.8,8.2-19.1
					C326.8,151.2,336.7,148.1,340.6,151.4z"/>
				<path class="st14" d="M447.9,296c-3.9-3.3-0.2-11.8,8.2-19.1c8.4-7.2,18.3-10.4,22.1-7s0.2,11.8-8.2,19.1
					C461.7,296.1,451.8,299.3,447.9,296z"/>
			</g>
			<g>
				<ellipse class="st14" cx="296.9" cy="223.7" rx="9.9" ry="18.5"/>
				<ellipse class="st14" cx="491.6" cy="223.7" rx="9.9" ry="18.5"/>
			</g>
			<g>
				
					<ellipse transform="matrix(0.6222 -0.7828 0.7828 0.6222 -98.5837 361.6044)" class="st14" cx="325.4" cy="282.9" rx="9.1" ry="20.1"/>
				
					<ellipse transform="matrix(0.6222 -0.7828 0.7828 0.6222 46.1986 424.5928)" class="st14" cx="463" cy="164.4" rx="9.1" ry="20.1"/>
			</g>
		</g>
		<path class="st5" d="M454.9,197.7c5.4,8.5,8.5,18.3,8.5,28.6c0,32.9-31,59.5-69.2,59.5S325,259.2,325,226.3c0-9.3,2.5-18.2,7-26
			c-2.9-2.1-5.7-4.4-8.1-6.8c-5.3,9.1-8.2,19.3-8.2,30.1c0,37.3,35.2,67.6,78.6,67.6c43.4,0,78.6-30.3,78.6-67.6
			c0-12.1-3.7-23.4-10.2-33.3C460.3,193,457.7,195.4,454.9,197.7z"/>
		<path class="st12" d="M455.3,254.4c-11.6,18.7-34.6,31.5-61,31.5s-49.4-12.8-61-31.5c-5.3-4-10.3-8.5-15-13.5
			c8.8,29,39.5,50.4,76,50.4s67.2-21.4,76-50.4C465.6,245.8,460.6,250.3,455.3,254.4z"/>
		
			<pattern  id="SVGID_7_" xlink:href="#РќРѕРІС‹Р№_РѕР±СЂР°Р·РµС†_СѓР·" patternTransform="matrix(1 0 0 -1 396.9 -15057)">
		</pattern>
		<path class="st15" d="M394.3,275.6c-22.4,0-43.3-7.8-61-21.3c11.6,18.7,34.6,31.5,61,31.5s49.4-12.8,61-31.5
			C437.5,267.8,416.6,275.6,394.3,275.6z"/>
	</g>
	<path class="st7" d="M439,215.5c-7.8-39.4-37-123.7-39.8-128.8c0-2.3-2.2-4.2-4.9-4.2s-4.9,1.9-4.9,4.2
		c-2.8,5.1-32,89.4-39.8,128.8c-1.1,3.4-1.7,6.9-1.7,10.6c0,22,20.8,39.9,46.4,39.9c25.6,0,46.4-17.9,46.4-39.9
		C440.6,222.4,440,218.8,439,215.5z"/>
	<path class="st5" d="M360.1,253c8.5,8,20.7,13,34.2,13c25.6,0,46.4-17.9,46.4-39.9c0-3.7-0.6-7.2-1.7-10.6
		c-7.8-39.4-37-123.7-39.8-128.8C406.4,156.6,356.4,249.1,360.1,253z"/>
	<path class="st12" d="M368.5,259.2c7.4,4.2,16.2,6.7,25.7,6.7c25.6,0,46.4-17.9,46.4-39.9c0-3.7-0.6-7.2-1.7-10.6
		c-7.8-39.4-37-123.7-39.8-128.8C413.6,158.2,364.9,255.3,368.5,259.2z"/>
	<g>
		<path class="st13" d="M556.4,369.5l-13.3-7.7c-1-0.6-0.9-1.6,0.3-2.3l0,0c1.2-0.7,3-0.8,4.1-0.2l13.3,7.7c1,0.6,0.9,1.6-0.3,2.3
			l0,0C559.3,370,557.5,370.1,556.4,369.5z"/>
		<path class="st12" d="M556.1,369.3l-9.2-5.3c-0.5,0.6-1.5,1.2-2.9,2c-2.6,1.5-61.8,28.7-68.9,32.8c-0.1,0.1-0.3,0.2-0.4,0.3
			c-0.2,0.1-0.4,0.2-0.6,0.3c-4.3,2.5-4.2,6.4,0,8.9c4.3,2.5,11.2,2.5,15.4,0l50.6-29.2l13.4-7.7l3-1.7
			C556.5,369.4,556.3,369.4,556.1,369.3z"/>
		<path class="st7" d="M547.8,359.5l12.7,7.3c0.2,0.1,0.3,0.2,0.4,0.3l8.3-4.8l79.8-46.1c2.6-1.5,2.6-3.9,0-5.4s-6-1.4-9.4,0
			c-7,2.9-76.7,36-90.8,44.2c-2.1,1.2-2.9,2.7-2.9,4C546.5,359,547.2,359.1,547.8,359.5z"/>
		<path class="st5" d="M476.9,407c-3.3-1.7-3.5-4.6-0.4-6.4c0.1-0.1,0.3-0.2,0.4-0.2c0.1-0.1,0.3-0.2,0.4-0.2h0.1l0.1-0.1
			c4.3-2.5,29.2-14.1,47.3-22.6c8.4-3.9,14.7-6.9,18.3-8.6c1.3-0.6,3-0.9,4.7-0.7c1.6,0.1,2.8,0.9,2.7,1.8c0,0.2-0.1,0.4-0.3,0.5
			l-62.8,36.3C484.6,408.3,480,408.5,476.9,407z"/>
		<path class="st13" d="M530.2,350.9l-13.8-8c-1.1-0.6-0.9-1.7,0.3-2.4l0,0c1.2-0.7,3.1-0.8,4.2-0.2l13.8,8c1.1,0.6,0.9,1.7-0.3,2.4
			l0,0C533.1,351.5,531.2,351.6,530.2,350.9z"/>
		<path class="st12" d="M529.8,350.8l-9.6-5.5c-0.6,0.6-1.6,1.2-3,2c-2.7,1.6-64.2,29.8-71.5,34c-0.2,0.1-0.3,0.2-0.4,0.3
			c-0.2,0.1-0.4,0.2-0.6,0.3c-4.4,2.5-4.4,6.7,0.1,9.3c4.4,2.6,11.6,2.6,16,0l52.6-30.3l13.9-8l3.1-1.8
			C530.2,350.9,530,350.8,529.8,350.8z"/>
		<path class="st7" d="M521.2,340.5l13.2,7.6c0.2,0.1,0.3,0.2,0.4,0.3l8.6-5l82.9-47.9c2.7-1.6,2.7-4.1,0-5.6
			c-2.7-1.6-6.2-1.5-9.8,0c-7.2,3.1-79.6,37.4-94.4,45.9c-2.2,1.3-3,2.8-3,4.1C519.8,340,520.6,340.2,521.2,340.5z"/>
		<path class="st5" d="M447.6,389.9c-3.4-1.7-3.6-4.8-0.4-6.6c0.1-0.1,0.3-0.2,0.5-0.2c0.2-0.1,0.3-0.2,0.4-0.2h0.1l0.1-0.1
			c4.5-2.6,30.3-14.6,49.2-23.4c8.7-4.1,15.3-7.2,19-9c1.4-0.7,3.2-0.9,4.9-0.8c1.6,0.1,2.9,1,2.8,1.9c0,0.2-0.1,0.4-0.3,0.5
			l-65.3,37.7C455.5,391.3,450.7,391.5,447.6,389.9z"/>
	</g>
	<g>
		
			<pattern  id="SVGID_8_" xlink:href="#РќРѕРІС‹Р№_РѕР±СЂР°Р·РµС†_СѓР·" patternTransform="matrix(1 0 0 -1 396.9 -15057)">
		</pattern>
		<path class="st16" d="M233.5,166.9l-6.8-4c-1.1-0.6-3-0.5-4.2,0.2s-1.4,1.8-0.3,2.4l0.3,0.2c0,0-60.1,27.8-83,41.1
			c-5,2.9-5,7.6,0.1,10.4c5,2.9,13.1,2.9,18.1,0c22.9-13.2,71.1-47.9,71.1-47.9l0.3,0.2c1.1,0.6,3,0.5,4.2-0.2
			C234.5,168.6,234.6,167.5,233.5,166.9z M193.2,148.8c1.1,0.6,3,0.5,4.2-0.2s1.4-1.8,0.3-2.4l-6.8-3.9c-1.1-0.6-3-0.5-4.2,0.2
			s-1.4,1.8-0.3,2.4l0.3,0.2c0,0-60.1,27.8-83,41.1c-5,2.9-5,7.6,0.1,10.4c5,2.9,13.1,2.9,18.1,0c22.9-13.2,71.1-47.9,71.1-47.9
			L193.2,148.8z M316.4,122.8l-37.8,21.8c-0.7,0.4-1.9,0.4-2.7,0l-0.2-0.1c-0.7-0.4-0.7-1.1,0-1.5l37.8-21.8l-2.4-1.4l-37.8,21.8
			c-0.7,0.4-1.9,0.4-2.7,0l-0.2-0.1c-0.7-0.4-0.7-1.1,0-1.5l37.8-21.8l-2.4-1.4L268,138.6c-0.7,0.4-1.9,0.4-2.7,0l-0.2-0.1
			c-0.7-0.4-0.7-1.1,0-1.5l37.8-21.8l-2.6-1.5c0,0-38.6,19.4-46.4,23.8c-7.4,4.3,0,10.2-6.5,13.9c-3,1.7-20.5,11.8-20.5,11.8l6,3.5
			c0,0,17.5-10.1,20.5-11.8c6.4-3.7,16.7,0.5,24.1-3.7c7.7-4.5,41.3-26.8,41.3-26.8L316.4,122.8z M191.2,142.5l6,3.5
			c0,0,13.4-7.8,16.4-9.5c6.4-3.7,15.3-0.3,22.7-4.6c7.7-4.5,26.6-19.1,26.6-19.1l-2.7-1.5l-25.4,14.6c-0.7,0.4-1.9,0.4-2.7,0
			l-0.2-0.1c-0.7-0.4-0.7-1.1,0-1.5l25.4-14.6l-3.1-1.8l-25.4,14.6c-0.7,0.4-1.9,0.4-2.7,0l-0.2-0.1c-0.7-0.4-0.7-1.1,0-1.5
			l25.4-14.6l-2.7-1.5c0,0-25.4,10.9-33.1,15.3c-7.4,4.3-1.5,9.4-7.9,13.1C204.7,134.7,191.2,142.5,191.2,142.5z"/>
		<g>
			<path class="st5" d="M225.8,165.7l-6.8-4c-1.1-0.6-0.9-1.7,0.3-2.4l0,0c1.2-0.7,3.1-0.8,4.2-0.2l6.8,3.9c1.1,0.6,0.9,1.7-0.3,2.4
				l0,0C228.8,166.3,226.9,166.3,225.8,165.7z"/>
			<path class="st5" d="M225.5,165.5l-6.2-3.6c0,0-60.1,27.8-83,41.1c-5,2.9-5,7.6,0.1,10.4c5,2.9,13.1,2.9,18.1,0
				C177.3,200.2,225.5,165.5,225.5,165.5z"/>
			<path class="st5" d="M189.9,145l-6.8-4c-1.1-0.6-0.9-1.7,0.3-2.4l0,0c1.2-0.7,3.1-0.8,4.2-0.2l6.8,4c1.1,0.6,0.9,1.7-0.3,2.4l0,0
				C192.9,145.6,191,145.6,189.9,145z"/>
			<path class="st5" d="M189.6,144.8l-6.2-3.6c0,0-60.1,27.8-83,41.1c-5,2.9-5,7.6,0.1,10.4c5,2.9,13.1,2.9,18.1,0
				C141.4,179.5,189.6,144.8,189.6,144.8z"/>
			<path class="st12" d="M139.9,211.4c-3-1.7-3-4.6,0-6.3c18.6-10.7,62.5-31.5,77.5-38.5c-12.1,8.7-48,34-66.6,44.8
				C147.8,213.1,142.9,213.1,139.9,211.4z"/>
			<path class="st12" d="M104,190.7c-3-1.7-3-4.6,0-6.3c18.6-10.7,62.5-31.5,77.5-38.5c-12.1,8.7-48,34-66.6,44.8
				C111.9,192.4,107,192.4,104,190.7z"/>
			<path class="st7" d="M315.8,120.5l-2.6-1.5l-37.8,21.8c-0.7,0.4-1.9,0.4-2.7,0l-0.2-0.1c-0.7-0.4-0.7-1.1,0-1.5l37.8-21.8
				l-2.4-1.4l-37.8,21.8c-0.7,0.4-1.9,0.4-2.7,0l-0.2-0.1c-0.7-0.4-0.7-1.1,0-1.5l37.8-21.8l-2.4-1.4l-37.8,21.8
				c-0.7,0.4-1.9,0.4-2.7,0l-0.2-0.1c-0.7-0.4-0.7-1.1,0-1.5l37.8-21.8l-2.6-1.5c0,0-38.6,19.4-46.4,23.8c-7.4,4.3,0,10.2-6.5,13.9
				c-3,1.7-20.5,11.8-20.5,11.8l6,3.5c0,0,17.5-10.1,20.5-11.8c6.4-3.7,16.7,0.5,24.1-3.7C282.2,142.8,315.8,120.5,315.8,120.5z"/>
			<path class="st7" d="M259.7,109l-2.7-1.5l-25.4,14.6c-0.7,0.4-1.9,0.4-2.7,0l-0.2-0.1c-0.7-0.4-0.7-1.1,0-1.5l25.4-14.6L251,104
				l-25.4,14.6c-0.7,0.4-1.9,0.4-2.7,0l-0.2-0.1c-0.7-0.4-0.7-1.1,0-1.5l25.4-14.6l-2.7-1.5c0,0-25.4,10.9-33.1,15.3
				c-7.4,4.3-1.5,9.4-7.9,13.1c-3,1.7-16.4,9.5-16.4,9.5l6,3.5c0,0,13.4-7.8,16.4-9.5c6.4-3.7,15.3-0.3,22.7-4.6
				C240.8,123.7,259.7,109,259.7,109z"/>
		</g>
	</g>
</g>
</svg>
