<?xml version="1.0" encoding="utf-8"?>
<!-- Generator: Adobe Illustrator 22.0.1, SVG Export Plug-In . SVG Version: 6.00 Build 0)  -->
<svg version="1.1" id="Слой_1" xmlns="http://www.w3.org/2000/svg" xmlns:xlink="http://www.w3.org/1999/xlink" x="0px" y="0px"
	 viewBox="0 0 669.7 487.1" style="enable-background:new 0 0 669.7 487.1;" xml:space="preserve">
<style type="text/css">
	.st0{fill:none;}
	.st1{fill:#E09480;}
	.st2{fill:#F9E1DC;}
	.st3{fill:#FFFFFF;}
	.st4{fill:#EAA496;stroke:#825441;stroke-linecap:round;stroke-linejoin:round;stroke-miterlimit:10;}
	.st5{fill:#B7674B;stroke:#825441;stroke-linecap:round;stroke-linejoin:round;stroke-miterlimit:10;}
	.st6{fill:#FFFFFF;stroke:#825441;stroke-linecap:round;stroke-linejoin:round;stroke-miterlimit:10;}
	.st7{fill:#E09480;stroke:#825441;stroke-linecap:round;stroke-linejoin:round;stroke-miterlimit:10;}
	.st8{fill:#FFFFFF;stroke:#825441;stroke-miterlimit:10;}
	.st9{fill:none;stroke:#825441;stroke-linecap:round;stroke-linejoin:round;stroke-miterlimit:10;}
	.st10{fill:#F9E1DC;stroke:#825441;stroke-miterlimit:10;}
	.st11{fill:#F9E1DC;stroke:#825441;stroke-linecap:round;stroke-linejoin:round;stroke-miterlimit:10;}
	.st12{fill:#F2C2B8;stroke:#825441;stroke-linecap:round;stroke-linejoin:round;stroke-miterlimit:10;}
	.st13{fill:#D88575;stroke:#825441;stroke-linecap:round;stroke-linejoin:round;stroke-miterlimit:10;}
	.st14{fill:url(#SVGID_5_);}
	.st15{fill:url(#SVGID_6_);}
	.st16{fill:url(#SVGID_7_);}
	.st17{fill:url(#SVGID_8_);}
	.st18{fill:url(#SVGID_9_);}
	.st19{enable-background:new    ;}
	.st20{clip-path:url(#SVGID_11_);fill:#FFFFFF;stroke:#825441;stroke-linecap:round;stroke-linejoin:round;stroke-miterlimit:10;}
	.st21{clip-path:url(#SVGID_13_);fill:#FFFFFF;stroke:#825441;stroke-linecap:round;stroke-linejoin:round;stroke-miterlimit:10;}
	.st22{fill:#B7674B;}
	.st23{clip-path:url(#SVGID_15_);fill:#B7674B;stroke:#825441;stroke-linecap:round;stroke-linejoin:round;stroke-miterlimit:10;}
	.st24{fill:url(#SVGID_16_);}
	.st25{fill:url(#SVGID_17_);}
	.st26{fill:url(#SVGID_18_);}
	.st27{fill:url(#SVGID_19_);}
	.st28{fill:url(#SVGID_20_);}
	.st29{fill:url(#SVGID_21_);}
	.st30{fill:url(#SVGID_22_);}
</style>
<pattern  x="-303" y="594.6" width="11" height="11" patternUnits="userSpaceOnUse" id="Новый_образец_уз" viewBox="1.1 -12 11 11" style="overflow:visible;">
	<g>
		<rect x="1.1" y="-12" class="st0" width="11" height="11"/>
		<g>
			<rect x="1.1" y="-12" class="st0" width="11" height="11"/>
			<g>
				<path class="st1" d="M11.2-12.2c0-0.5,0.4-0.9,0.9-0.9s0.9,0.4,0.9,0.9s-0.4,0.9-0.9,0.9S11.2-11.7,11.2-12.2z"/>
				<path class="st1" d="M12.2-13.1c0.5,0,0.9,0.4,0.9,0.9s-0.4,0.9-0.9,0.9s-0.9-0.4-0.9-0.9C11.2-12.7,11.7-13.1,12.2-13.1z"/>
			</g>
			<g>
				<path class="st1" d="M11-12.2c0-0.5,0.4-0.9,0.9-0.9s0.9,0.4,0.9,0.9s-0.4,0.9-0.9,0.9C11.4-11.2,11-11.7,11-12.2z"/>
				<path class="st1" d="M7.4-12.2c0-0.5,0.4-0.9,0.9-0.9s0.9,0.4,0.9,0.9s-0.4,0.9-0.9,0.9C7.8-11.2,7.4-11.7,7.4-12.2z"/>
				<path class="st1" d="M3.8-12.2c0-0.5,0.4-0.9,1-0.9c0.5,0,0.9,0.4,0.9,0.9s-0.4,0.9-0.9,0.9C4.2-11.2,3.8-11.7,3.8-12.2z"/>
				<path class="st1" d="M0.2-12.2c0-0.5,0.5-0.9,1-0.9s0.9,0.4,0.9,0.9s-0.4,0.9-0.9,0.9S0.2-11.7,0.2-12.2z"/>
				<path class="st1" d="M11.9-13.1c0.5,0,0.9,0.4,0.9,0.9s-0.4,0.9-0.9,0.9S11-11.7,11-12.2S11.4-13.1,11.9-13.1z"/>
				<path class="st1" d="M8.3-13.1c0.5,0,0.9,0.4,0.9,0.9s-0.4,0.9-0.9,0.9s-0.9-0.4-0.9-0.9S7.8-13.1,8.3-13.1z"/>
				<path class="st1" d="M4.8-13.1c0.5,0,0.9,0.4,0.9,0.9s-0.4,0.9-0.9,0.9s-0.9-0.4-0.9-0.9C3.8-12.7,4.2-13.1,4.8-13.1z"/>
				<path class="st1" d="M1.2-13.1c0.5,0,0.9,0.4,0.9,0.9s-0.4,0.9-0.9,0.9s-1-0.4-1-0.9S0.7-13.1,1.2-13.1z"/>
			</g>
			<g>
				<path class="st1" d="M0-12.2c0-0.5,0.4-0.9,0.9-0.9s0.9,0.4,0.9,0.9s-0.4,0.9-0.9,0.9C0.4-11.2,0-11.7,0-12.2z"/>
				<path class="st1" d="M0.9-13.1c0.5,0,0.9,0.4,0.9,0.9s-0.4,0.9-0.9,0.9C0.4-11.2,0-11.7,0-12.2S0.4-13.1,0.9-13.1z"/>
			</g>
			<g>
				<path class="st1" d="M11.2-1.2c0-0.5,0.4-0.9,0.9-0.9S13-1.7,13-1.2s-0.4,0.9-0.9,0.9S11.2-0.7,11.2-1.2z"/>
				<path class="st1" d="M12.2-2.1c0.5,0,0.9,0.4,0.9,0.9s-0.4,0.9-0.9,0.9s-0.9-0.4-0.9-0.9C11.2-1.7,11.7-2.1,12.2-2.1z"/>
				<path class="st1" d="M12.2-5.7c0.5,0,0.9,0.4,0.9,0.9s-0.4,0.9-0.9,0.9s-0.9-0.4-0.9-0.9S11.7-5.7,12.2-5.7z"/>
				<path class="st1" d="M12.2-9.3c0.5,0,0.9,0.4,0.9,0.9s-0.4,0.9-0.9,0.9s-0.9-0.4-0.9-0.9C11.2-8.9,11.7-9.3,12.2-9.3z"/>
				<circle class="st1" cx="12.2" cy="-11.9" r="0.9"/>
			</g>
			<g>
				<path class="st1" d="M11-1.2c0-0.5,0.4-0.9,0.9-0.9s0.9,0.4,0.9,0.9s-0.4,0.9-0.9,0.9C11.4-0.2,11-0.7,11-1.2z"/>
				<path class="st1" d="M7.4-1.2c0-0.5,0.4-0.9,0.9-0.9s0.9,0.4,0.9,0.9S8.8-0.3,8.3-0.3C7.8-0.2,7.4-0.7,7.4-1.2z"/>
				<path class="st1" d="M3.8-1.2c0-0.5,0.4-0.9,0.9-0.9s0.9,0.4,0.9,0.9S5.2-0.3,4.7-0.3C4.2-0.2,3.8-0.7,3.8-1.2z"/>
				<path class="st1" d="M0.2-1.2c0-0.5,0.4-0.9,0.9-0.9S2-1.7,2-1.2S1.6-0.3,1.1-0.3S0.2-0.7,0.2-1.2z"/>
				<path class="st1" d="M11.9-2.1c0.5,0,0.9,0.4,0.9,0.9s-0.4,0.9-0.9,0.9S11-0.7,11-1.2S11.4-2.1,11.9-2.1z"/>
				<path class="st1" d="M11.9-5.7c0.5,0,0.9,0.4,0.9,0.9s-0.4,0.9-0.9,0.9S11-4.3,11-4.8S11.4-5.7,11.9-5.7z"/>
				<path class="st1" d="M11.9-9.3c0.5,0,0.9,0.4,0.9,0.9s-0.4,0.9-0.9,0.9S11-7.9,11-8.4S11.4-9.3,11.9-9.3z"/>
				<circle class="st1" cx="11.9" cy="-11.9" r="0.9"/>
				<path class="st1" d="M8.3-2.1c0.5,0,0.9,0.4,0.9,0.9S8.8-0.3,8.3-0.3S7.4-0.7,7.4-1.2S7.8-2.1,8.3-2.1z"/>
				<path class="st1" d="M8.3-5.7c0.5,0,0.9,0.4,0.9,0.9s-0.3,1-0.9,1c-0.5,0-0.9-0.4-0.9-0.9S7.8-5.7,8.3-5.7z"/>
				<path class="st1" d="M8.3-9.3c0.5,0,0.9,0.4,0.9,0.9S8.8-7.5,8.3-7.5S7.4-7.9,7.4-8.4S7.8-9.3,8.3-9.3z"/>
				<path class="st1" d="M8.3-12.9c0.5,0,0.9,0.4,0.9,0.9s-0.4,0.9-0.9,0.9S7.4-11.5,7.4-12C7.4-12.4,7.8-12.9,8.3-12.9z"/>
				<path class="st1" d="M4.8-2.1c0.5,0,0.9,0.4,0.9,0.9S5.3-0.3,4.8-0.3S3.9-0.7,3.9-1.2C3.8-1.7,4.2-2.1,4.8-2.1z"/>
				<path class="st1" d="M4.8-5.7c0.5,0,0.9,0.4,0.9,0.9s-0.4,1-0.9,1S3.9-4.2,3.9-4.7S4.2-5.7,4.8-5.7z"/>
				<path class="st1" d="M4.8-9.3c0.5,0,0.9,0.4,0.9,0.9S5.3-7.5,4.8-7.5S3.9-7.9,3.9-8.4C3.8-8.9,4.2-9.3,4.8-9.3z"/>
				<path class="st1" d="M4.8-12.9c0.5,0,0.9,0.4,0.9,0.9s-0.4,0.9-0.9,0.9S3.9-11.5,3.9-12C3.8-12.4,4.2-12.9,4.8-12.9z"/>
				<path class="st1" d="M1.2-2.1c0.5,0,0.9,0.4,0.9,0.9S1.7-0.3,1.2-0.3S0.3-0.7,0.3-1.2C0.2-1.7,0.7-2.1,1.2-2.1z"/>
				<path class="st1" d="M1.2-5.7c0.5,0,0.9,0.4,0.9,0.9s-0.4,1-0.9,1s-1-0.4-1-1S0.7-5.7,1.2-5.7z"/>
				<path class="st1" d="M1.2-9.3c0.5,0,0.9,0.4,0.9,0.9S1.7-7.5,1.2-7.5s-1-0.3-1-0.8C0.2-8.9,0.7-9.3,1.2-9.3z"/>
				<circle class="st1" cx="1.2" cy="-11.9" r="0.9"/>
			</g>
			<g>
				<path class="st1" d="M0-1.2c0-0.5,0.4-0.9,0.9-0.9s0.9,0.4,0.9,0.9S1.4-0.3,0.9-0.3C0.4-0.2,0-0.7,0-1.2z"/>
				<path class="st1" d="M0.9-2.1c0.5,0,0.9,0.4,0.9,0.9S1.4-0.3,0.9-0.3S0-0.7,0-1.2S0.4-2.1,0.9-2.1z"/>
				<path class="st1" d="M0.9-5.7c0.5,0,0.9,0.4,0.9,0.9s-0.4,1-0.9,1S0-4.2,0-4.8S0.4-5.7,0.9-5.7z"/>
				<path class="st1" d="M0.9-9.3c0.5,0,0.9,0.4,0.9,0.9S1.4-7.5,0.9-7.5C0.4-7.4,0-7.8,0-8.3C0-8.9,0.4-9.3,0.9-9.3z"/>
				<circle class="st1" cx="0.9" cy="-11.9" r="0.9"/>
			</g>
			<g>
				<circle class="st1" cx="12.2" cy="-0.9" r="0.9"/>
			</g>
			<g>
				<circle class="st1" cx="11.9" cy="-0.9" r="0.9"/>
				<path class="st1" d="M8.3-1.9c0.5,0,0.9,0.4,0.9,0.9S8.8-0.1,8.3-0.1S7.4-0.5,7.4-1C7.4-1.4,7.8-1.9,8.3-1.9z"/>
				<path class="st1" d="M4.8-1.9c0.5,0,0.9,0.4,0.9,0.9S5.3-0.1,4.8-0.1S3.9-0.5,3.9-1C3.8-1.4,4.2-1.9,4.8-1.9z"/>
				<circle class="st1" cx="1.2" cy="-0.9" r="0.9"/>
			</g>
			<g>
				<circle class="st1" cx="0.9" cy="-0.9" r="0.9"/>
			</g>
		</g>
	</g>
</pattern>
<g>
	<path class="st2" d="M23.3,334.2l256,147.8c11.8,6.8,26.4,6.8,38.3,0l259.6-149.9c16.2-9.3,27.9-24.8,32.5-42.9l10-39.1
		c3.4-13.4,12.1-24.8,24.1-31.7l14.6-8.4c13.7-7.9,13.7-27.8,0-35.7L374.6,10.6c-7.4-4.3-16.5-4.2-23.9,0.1L112,150.2
		c-33.5,19.6-60.4,48.7-77.2,83.7L8.9,287.7C0.8,304.6,7.1,324.9,23.3,334.2z"/>
	<path class="st3" d="M592.5,163.3l-42.4-24.7c-0.4-0.3-1,0.1-1,0.6v10.7c0,0.2-0.1,0.5-0.3,0.6l-2.5,1.5c-0.2,0.1-0.3,0.3-0.3,0.6
		v9.1c0,0.2,0.1,0.5,0.3,0.6l31.3,17.9c10,5.7,13.2,18.6,7.1,28.4l-17.9,28.5l0,0c-3.3,6-5.1,12.6-5.5,19.4l-1,19.8
		c-0.7,14.2-8.6,27-20.9,34.1L261.6,470.7c-0.4,0.3-0.4,0.9,0,1.1l17.8,10.3c0.7,0.4,1.5,0.8,2.2,1.2c0.2,0.1,0.4,0.1,0.6,0
		l20.3-11.1l257.8-149.8c14.5-8.4,23.7-23.7,24.3-40.5l0.6-15.8c0.2-4.9,1.4-9.7,3.7-14l16.2-31.1l0,0l1.3-2.1
		C618.2,199.7,612,174.6,592.5,163.3z"/>
	<path class="st3" d="M488,273.3c-1.3-0.8-2.8-1.4-4.2-1.8v17.3l-4.8,2.8V311l-151.1,87.2c-4.3,10.5-15.9,18-29.6,18
		c-11.9,0-22.2-5.7-27.5-14.1l-153.6-88.5h0.1v-13.4h-0.1c-16.3,0-17.9,11.2-17.9,11.2c-0.9,7.1,2.5,14.1,8.9,17.8L258.5,416
		c9.2,11.4,24.1,18.4,39.8,18.4c18,0,34.5-9,43.1-23L488,326.6c5.6-3.2,9-9.2,9-15.6v-22.1C497,282.5,493.5,276.5,488,273.3z"/>
	<polygon class="st4" points="479,288.9 320.8,380.2 320.8,402.3 479,311 	"/>
	<polygon class="st5" points="117.3,291.5 117.3,313.6 117.2,313.6 271,402.3 271,380.2 	"/>
	<polygon class="st6" points="271,106.6 87.2,213.3 112.8,289 271,197.7 	"/>
	<polygon class="st4" points="542.2,173 409.5,249.6 409.5,271.8 542.2,195.1 	"/>
	<polygon class="st6" points="545.9,82.9 405.8,2 405.8,93.2 545.9,174.1 	"/>
	<polygon class="st6" points="545.9,82.9 415.2,158.4 415.2,249.5 545.9,174 	"/>
	<polygon class="st5" points="418.4,208.2 418.4,225.7 549.1,150.2 549.1,132.7 	"/>
	<polygon class="st6" points="545.9,93.2 521.7,107.2 521.7,124.1 545.9,110.1 	"/>
	<polygon class="st6" points="519.3,108.7 495,122.7 495,139.6 519.3,125.6 	"/>
	<polygon class="st6" points="492.7,124.1 468.4,138.1 468.4,155.1 492.7,141 	"/>
	<polygon class="st6" points="466.1,139.6 441.8,153.6 441.8,170.5 466.1,156.5 	"/>
	<polygon class="st6" points="439.4,155.1 415.2,169.1 415.2,186 439.4,172 	"/>
	<polygon class="st6" points="247.6,93.2 247.6,184.3 271,197.8 271,106.7 	"/>
	<polygon class="st6" points="415.2,158.3 415.2,249.4 483.7,289 483.7,197.9 	"/>
	<polygon class="st7" points="87.2,213.3 112.8,288.9 271,380.2 245.3,304.6 	"/>
	<polygon class="st6" points="483.7,197.8 325.6,289.1 325.6,380.2 483.7,288.9 	"/>
	<polygon class="st5" points="405.8,2 247.6,93.3 247.6,184.4 405.8,93.1 	"/>
	<polygon class="st6" points="87.2,213.3 245.3,304.6 325.6,289.1 483.7,197.8 415.2,158.3 545.9,82.9 405.8,2 247.6,93.2 
		271,106.6 	"/>
	<g>
		<polygon class="st8" points="151,213.2 335,106.4 311.8,93.1 405.8,38.9 481.9,82.9 351.1,158.3 419.7,197.8 314.3,258.7 
			251,270.9 		"/>
		<polygon class="st9" points="151,213.2 335,106.4 311.8,93.1 405.8,38.9 481.9,82.9 351.1,158.3 419.7,197.8 314.3,258.7 
			251,270.9 		"/>
	</g>
	<g>
		<g>
			<polygon class="st10" points="93.2,213.2 277,106.6 253.6,93.2 405.8,5.5 539.9,82.9 409.2,158.3 477.7,197.8 324.5,286.3 
				245.9,301.4 			"/>
			<polygon class="st11" points="93.2,213.2 277,106.6 253.6,93.2 405.8,5.5 539.9,82.9 409.2,158.3 477.7,197.8 324.5,286.3 
				245.9,301.4 			"/>
		</g>
		<polygon class="st12" points="93.2,213.2 100.3,217.4 277,115.3 277,106.6 		"/>
		<polygon class="st7" points="477.7,197.8 470.2,202.2 409.2,167 409.2,158.3 		"/>
		<polygon class="st7" points="532.4,87.3 539.9,82.9 405.8,5.5 405.8,14.2 		"/>
		<polygon class="st12" points="253.6,93.2 261.2,97.5 405.8,14.2 405.8,5.5 		"/>
	</g>
	<g>
		<g>
			<polygon class="st10" points="151,200 335,93.2 311.8,79.9 405.8,25.7 481.9,69.7 351.1,145.1 419.7,184.6 314.3,245.5 
				251,257.7 			"/>
			<polygon class="st11" points="151,200 335,93.2 311.8,79.9 405.8,25.7 481.9,69.7 351.1,145.1 419.7,184.6 314.3,245.5 
				251,257.7 			"/>
		</g>
		<polygon class="st7" points="151,213.2 151,200 251,257.7 251,270.9 		"/>
		<polygon class="st12" points="419.7,184.6 419.7,197.8 314.3,258.7 314.3,245.5 		"/>
		<polygon class="st7" points="311.8,79.9 311.8,93.1 323.6,99.9 335,93.2 		"/>
		<polygon class="st12" points="481.9,69.7 481.9,82.9 362.6,151.7 351.1,145.1 		"/>
	</g>
	<line class="st9" x1="87.2" y1="213.3" x2="245.3" y2="304.6"/>
	<g>
		<line class="st9" x1="101.2" y1="221.4" x2="126.9" y2="297"/>
		<line class="st9" x1="120.6" y1="232.6" x2="146.2" y2="308.2"/>
		<line class="st9" x1="139.9" y1="243.7" x2="165.5" y2="319.3"/>
		<line class="st9" x1="159.2" y1="254.9" x2="184.9" y2="330.5"/>
		<line class="st9" x1="178.6" y1="266" x2="204.2" y2="341.6"/>
		<line class="st9" x1="197.9" y1="277.2" x2="223.5" y2="352.8"/>
		<line class="st9" x1="217.2" y1="288.3" x2="242.8" y2="363.9"/>
	</g>
	<g>
		<line class="st9" x1="472.7" y1="204.2" x2="472.7" y2="294.7"/>
		<line class="st9" x1="459.5" y1="211.9" x2="459.5" y2="302.4"/>
		<line class="st9" x1="446.4" y1="219.6" x2="446.4" y2="310.1"/>
		<line class="st9" x1="433.3" y1="227.3" x2="433.3" y2="317.8"/>
		<line class="st9" x1="420.1" y1="235" x2="420.1" y2="325.5"/>
		<line class="st9" x1="407" y1="242.7" x2="407" y2="333.2"/>
		<line class="st9" x1="393.9" y1="250.4" x2="393.9" y2="340.8"/>
		<line class="st9" x1="380.7" y1="258" x2="380.7" y2="348.5"/>
		<line class="st9" x1="367.6" y1="265.7" x2="367.6" y2="356.2"/>
		<line class="st9" x1="354.5" y1="273.4" x2="354.5" y2="363.9"/>
	</g>
	<g>
		<path class="st5" d="M485.1,229.8l-64.1,37c-17.8,10.3-33.9,28.7-41,46.9l-28.8,73.9l39.7-22.9l17.3-43.1
			c7.2-18,23.2-36.1,40.8-46.3l36.2-20.9v-24.6H485.1z"/>
		<path class="st13" d="M419.6,265.7c-17.8,10.3-33.9,28.7-41,46.9l-29,74.1l1.5,0.9l1-2.5l0,0l27.8-71.3
			c7.1-18.2,23.2-36.6,41-46.9l64.1-37l-1.4-1.2L419.6,265.7z"/>
	</g>
	<g>
		<g>
			<g>
				<ellipse class="st8" cx="298.3" cy="277.2" rx="42.1" ry="32.7"/>
			</g>
			<g>
				<ellipse class="st9" cx="298.3" cy="277.2" rx="42.1" ry="32.7"/>
			</g>
		</g>
		<path class="st6" d="M298.3,309.9c-22.8,0-42.1-15-42.1-32.7v7.8l0,0c0.8,17.3,19.7,31.6,42,31.6s41.3-14.4,42-31.6l0,0v-7.8
			C340.4,294.9,321.1,309.9,298.3,309.9z"/>
	</g>
	<polygon class="st13" points="460,184.1 549.1,132.7 545.9,131.5 457.4,182.6 457.4,182.6 	"/>
	
		<pattern  id="SVGID_5_" xlink:href="#РќРѕРІС‹Р№_РѕР±СЂР°Р·РµС†_СѓР·" patternTransform="matrix(1 0 0 -1 396.9 -16555.0996)">
	</pattern>
	<polygon class="st14" points="545.9,156.6 545.9,152.1 475.4,192.8 479.2,195.1 	"/>
	
		<pattern  id="SVGID_6_" xlink:href="#РќРѕРІС‹Р№_РѕР±СЂР°Р·РµС†_СѓР·" patternTransform="matrix(1 0 0 -1 396.9 -16555.0996)">
	</pattern>
	<polygon class="st15" points="271,380.2 245.3,304.6 218.2,288.9 243.4,364.3 242.8,386.1 271,402.3 	"/>
	<path class="st6" d="M298.3,350.7c-29.3,0-54.2-16.1-63.3-38.6l0,0l33.3,85.1l0,0c3.9,11.1,15.9,19.1,30,19.1s26.1-8.1,30-19.1l0,0
		l33.3-85.1C352.5,334.6,327.6,350.7,298.3,350.7z"/>
	
		<pattern  id="SVGID_7_" xlink:href="#РќРѕРІС‹Р№_РѕР±СЂР°Р·РµС†_СѓР·" patternTransform="matrix(1 0 0 -1 396.9 -16555.0996)">
	</pattern>
	<polygon class="st16" points="240.1,272.2 240.1,264.6 151,213.2 144.3,216.9 	"/>
	<ellipse class="st11" cx="298.3" cy="293" rx="67.1" ry="57.7"/>
	<ellipse class="st10" cx="298.3" cy="283.8" rx="61.1" ry="51.7"/>
	<path class="st7" d="M235,312.1l33.3,85.1l0,0c3.9,11.1,15.9,19.1,30,19.1c2.7,0,5.3-0.3,7.9-0.9l8.1-65.9l-0.2-0.4
		c-5.1,1-10.3,1.6-15.8,1.6C269,350.7,244.1,334.6,235,312.1z"/>
	<line class="st9" x1="330.8" y1="343.5" x2="314.3" y2="412.5"/>
	<line class="st9" x1="346.2" y1="333.4" x2="320.8" y2="408.1"/>
	<path class="st5" d="M265.8,343.5L265.8,343.5c-14.3-6.8-25.3-18-30.8-31.4l33.3,85.1l0,0c2.3,6.5,7.4,11.9,14.1,15.3L265.8,343.5z
		"/>
	
		<pattern  id="SVGID_8_" xlink:href="#РќРѕРІС‹Р№_РѕР±СЂР°Р·РµС†_СѓР·" patternTransform="matrix(1 0 0 -1 396.9 -16555.0996)">
	</pattern>
	<path class="st17" d="M250.4,333.4l25.4,74.7c4,3.5,9,6.1,14.7,7.3l-8.1-65.9l-0.2-0.5C269.9,346.4,258.9,340.9,250.4,333.4
		L250.4,333.4z"/>
	<line class="st9" x1="90.7" y1="223.7" x2="183" y2="310.8"/>
	<line class="st9" x1="175" y1="283.4" x2="199.6" y2="306.6"/>
	<line class="st9" x1="117.2" y1="254.4" x2="141.8" y2="277.6"/>
	
		<pattern  id="SVGID_9_" xlink:href="#РќРѕРІС‹Р№_РѕР±СЂР°Р·РµС†_СѓР·" patternTransform="matrix(1 0 0 -1 396.9 -16555.0996)">
	</pattern>
	<polygon class="st18" points="469.7,202.4 409,167.4 402.3,171.2 463.1,206.3 	"/>
	<g>
		<polygon class="st6" points="401.1,245.7 397.6,243.7 397.6,241.6 401.1,243.7 		"/>
		<path class="st13" d="M400.8,239l-3.5-2v1.7c-0.1,0.2-0.1,0.4-0.2,0.6l0,0c-0.1,0.2-0.2,0.4-0.2,0.6l0,0c-0.1,0.2-0.2,0.4-0.3,0.5
			l0,0c-0.1,0.2-0.2,0.4-0.4,0.5c-0.2,0.3-0.5,0.6-0.8,0.8c-0.1,0.1-0.1,0.1-0.2,0.2c-0.3,0.2-0.6,0.5-0.9,0.6
			c-0.2,0.1-0.4,0.2-0.6,0.3c-0.1,0.1-0.3,0.1-0.4,0.1l0,0c-0.1,0-0.3,0.1-0.4,0.1l0,0c-0.1,0-0.2,0-0.3,0s-0.1,0-0.2-0.1l0,0l3.5,2
			l0,0h0.1h0.1l0,0h0.1h0.1h0.1l0,0l0,0c0.1,0,0.1,0,0.2,0c0.1,0,0.1,0,0.2,0l0,0l0,0c0.1,0,0.2-0.1,0.4-0.1l0,0
			c0.2-0.1,0.4-0.2,0.6-0.3c0.3-0.2,0.6-0.4,0.9-0.6c0.1-0.1,0.1-0.1,0.2-0.2c0.1-0.1,0.1-0.1,0.2-0.2c0.1-0.1,0.3-0.3,0.4-0.4
			c0.1-0.1,0.1-0.2,0.2-0.3l0,0c0.1-0.1,0.1-0.2,0.2-0.2c0.1-0.1,0.1-0.2,0.2-0.2l0,0l0,0c0-0.1,0.1-0.1,0.1-0.2s0.1-0.1,0.1-0.2
			c0,0,0-0.1,0.1-0.1l0,0c0,0,0,0,0-0.1s0.1-0.2,0.1-0.2c0-0.1,0.1-0.2,0.1-0.2l0,0l0,0c0-0.1,0-0.1,0.1-0.2c0-0.1,0.1-0.2,0.1-0.3
			v-0.1l0,0l0,0L400.8,239z"/>
		<g class="st19">
			<g>
				<path id="SVGID_1_" class="st3" d="M399.8,227.7l3.5,2c-0.1,0-0.1-0.1-0.2-0.1l-3.5-2C399.7,227.7,399.8,227.7,399.8,227.7z"/>
			</g>
			<g>
				<defs>
					<path id="SVGID_10_" d="M399.8,227.7l3.5,2c-0.1,0-0.1-0.1-0.2-0.1l-3.5-2C399.7,227.7,399.8,227.7,399.8,227.7z"/>
				</defs>
				<clipPath id="SVGID_11_">
					<use xlink:href="#SVGID_10_"  style="overflow:visible;"/>
				</clipPath>
				<path class="st20" d="M403.1,229.7l-3.5-2c0.1,0,0.1,0.1,0.2,0.1l3.5,2C403.3,229.7,403.2,229.7,403.1,229.7"/>
			</g>
			<g>
				<defs>
					<path id="SVGID_12_" d="M399.8,227.7l3.5,2c-0.1,0-0.1-0.1-0.2-0.1l-3.5-2C399.7,227.7,399.8,227.7,399.8,227.7z"/>
				</defs>
				<clipPath id="SVGID_13_">
					<use xlink:href="#SVGID_12_"  style="overflow:visible;"/>
				</clipPath>
				<path class="st21" d="M403.3,229.8l-3.5-2l0,0L403.3,229.8C403.4,229.8,403.3,229.8,403.3,229.8"/>
			</g>
			<g>
				<path id="SVGID_2_" class="st9" d="M399.8,227.7l3.5,2c-0.1,0-0.1-0.1-0.2-0.1l-3.5-2C399.7,227.7,399.8,227.7,399.8,227.7z"/>
			</g>
		</g>
		<g class="st19">
			<g>
				<path id="SVGID_3_" class="st22" d="M396.6,232.3l3.5,2c0.5,0.3,0.7,0.9,0.7,1.9l-3.5-2C397.3,233.2,397,232.6,396.6,232.3z"/>
			</g>
			<g>
				<defs>
					<path id="SVGID_14_" d="M396.6,232.3l3.5,2c0.5,0.3,0.7,0.9,0.7,1.9l-3.5-2C397.3,233.2,397,232.6,396.6,232.3z"/>
				</defs>
				<clipPath id="SVGID_15_">
					<use xlink:href="#SVGID_14_"  style="overflow:visible;"/>
				</clipPath>
				<path class="st23" d="M400.8,236.2l-3.5-2c0-1-0.2-1.6-0.7-1.9l3.5,2C400.6,234.6,400.8,235.3,400.8,236.2"/>
			</g>
			<g>
				<path id="SVGID_4_" class="st9" d="M396.6,232.3l3.5,2c0.5,0.3,0.7,0.9,0.7,1.9l-3.5-2C397.3,233.2,397,232.6,396.6,232.3z"/>
			</g>
		</g>
		<path class="st7" d="M397.3,234.2l-3.3,1.9c-0.5,0.3-0.9,0.5-1.3,0.8c-0.1,0.1-0.2,0.1-0.3,0.2c-0.4,0.3-0.8,0.6-1.1,0.9l-0.1,0.1
			c-0.2,0.2-0.4,0.4-0.6,0.5c-0.1,0.1-0.2,0.2-0.3,0.3c-0.1,0.1-0.1,0.1-0.2,0.2l-0.1,0.1c-0.1,0.1-0.2,0.3-0.4,0.4
			c-0.1,0.1-0.2,0.2-0.3,0.3c0,0,0,0.1-0.1,0.1c-0.1,0.1-0.1,0.2-0.2,0.3c-0.1,0.1-0.1,0.2-0.2,0.3c-0.1,0.1-0.1,0.2-0.2,0.3
			c0,0,0,0.1-0.1,0.1l0,0c0,0,0,0.1-0.1,0.1c0,0.1-0.1,0.2-0.1,0.3c0,0.1-0.1,0.2-0.1,0.3c0,0.1-0.1,0.2-0.1,0.3l0,0l0,0
			c0,0.1-0.1,0.2-0.1,0.4c0,0.1-0.1,0.3-0.1,0.4s0,0.2,0,0.3v0.1c0,0.1,0,0.1,0,0.2c0,0.3-0.1,0.6-0.1,0.9c0,1,0.2,1.7,0.6,2.2
			c0.1,0.2,0.3,0.3,0.5,0.4l3.5,2c-0.2-0.1-0.4-0.2-0.5-0.4c-0.4-0.5-0.6-1.2-0.6-2.2c0-0.4,0-0.7,0.1-1.1v-0.1
			c0.1-0.4,0.1-0.7,0.3-1l0,0c0.1-0.4,0.3-0.7,0.5-1.1l0,0c0.2-0.4,0.4-0.7,0.6-1.1c0.2-0.3,0.5-0.7,0.8-1c0.1-0.1,0.1-0.1,0.2-0.2
			c0.3-0.3,0.6-0.6,0.9-0.9l0.1-0.1c0.3-0.3,0.7-0.6,1.1-0.9c0.1-0.1,0.2-0.1,0.3-0.2c0.4-0.3,0.8-0.6,1.3-0.8l3.3-1.9L397.3,234.2z
			"/>
		<path class="st12" d="M399.1,230.2c0.2-0.1,0.4-0.2,0.5-0.2c0,0,0.1,0,0.1-0.1c0.3-0.1,0.5-0.2,0.8-0.3c0.1,0,0.2-0.1,0.3-0.1
			s0.2,0,0.3-0.1c0.1,0,0.2,0,0.3-0.1c0.1,0,0.1,0,0.2,0c0.1,0,0.3,0,0.4,0h0.1c0.2,0,0.3,0,0.5,0.1h0.1c0.1,0,0.3,0.1,0.4,0.1
			l-3.5-2l0,0c-0.1,0-0.2-0.1-0.3-0.1h-0.1h-0.1H399c-0.1,0-0.2,0-0.3,0l0,0h-0.1c-0.1,0-0.2,0-0.3,0h-0.1c-0.1,0-0.1,0-0.2,0
			c-0.1,0-0.1,0-0.2,0c-0.1,0-0.1,0-0.2,0c-0.1,0-0.2,0-0.3,0.1h-0.1h-0.1c-0.3,0.1-0.5,0.2-0.8,0.3h-0.1l0,0
			c-0.2,0.1-0.3,0.2-0.5,0.2c-0.1,0-0.2,0.1-0.3,0.1c-0.3,0.1-0.5,0.3-0.8,0.4c-1.1,0.7-2.3,1.5-3.4,2.5c-0.3,0.2-0.5,0.5-0.8,0.7
			l0,0c-0.3,0.3-0.6,0.6-0.9,1l-0.1,0.1c-0.1,0.1-0.1,0.2-0.2,0.2c-0.1,0.1-0.2,0.3-0.3,0.4c0,0.1-0.1,0.1-0.1,0.2
			c-0.1,0.2-0.2,0.3-0.4,0.5l3.5,2c0.2-0.2,0.3-0.4,0.5-0.6c0.1-0.1,0.2-0.3,0.3-0.4s0.2-0.2,0.3-0.4c0.3-0.3,0.6-0.7,0.9-1
			c0.2-0.2,0.5-0.5,0.8-0.7c1.1-1,2.2-1.8,3.4-2.5c0.3-0.2,0.6-0.3,0.8-0.4C399,230.3,399,230.3,399.1,230.2z"/>
		<path class="st6" d="M403.1,229.7c1.2,0.5,1.8,2,1.8,4.5v9.4l-3.9,2.2v-2c-0.8,2-2.2,3.6-4.3,4.8c-1.1,0.6-2.1,1-2.9,1
			c-0.8,0-1.4-0.2-1.9-0.7c-0.4-0.5-0.6-1.2-0.6-2.2c0-1.5,0.5-3,1.5-4.5s2.5-2.8,4.6-4l3.3-1.9c0-1-0.3-1.7-0.8-1.9
			c-0.6-0.2-1.4,0-2.5,0.6c-0.8,0.4-1.5,1-2.2,1.7s-1.4,1.4-1.9,2.2l-1.5-2.5c0.8-1.1,1.7-2.1,2.8-3.1s2.2-1.8,3.4-2.5
			C400.2,229.5,401.9,229.1,403.1,229.7z M400.8,240.7V239l-2.8,1.6c-1.7,1-2.6,2.1-2.5,3.4c0,0.6,0.2,1,0.6,1.1
			c0.4,0.1,1,0,1.7-0.5c0.7-0.4,1.3-1,1.9-1.7C400.2,242.3,400.6,241.6,400.8,240.7"/>
		<polygon class="st5" points="393.4,238.8 389.9,236.8 388.4,234.3 391.9,236.3 		"/>
		<polygon class="st13" points="384.2,255.5 380.6,253.4 380.6,240.6 384.1,242.7 		"/>
		<polygon class="st7" points="377.7,251.1 374.2,249.1 381,231.8 384.6,233.9 		"/>
		<polygon class="st12" points="384.6,233.9 381,231.8 384.6,229.8 388.1,231.8 		"/>
		<g>
			<polygon class="st13" points="376.7,257.5 373.2,255.5 367.7,248.3 371.2,250.4 			"/>
		</g>
		<polygon class="st12" points="367.2,243.9 363.7,241.9 367.2,239.8 370.7,241.8 		"/>
		<polygon class="st7" points="367.2,265.3 363.7,263.2 363.7,241.9 367.2,243.9 		"/>
		<polygon class="st6" points="388.1,231.8 388.2,253.2 384.2,255.5 384.1,242.7 378.7,256.4 376.7,257.5 371.2,250.4 371.3,262.9 
			367.2,265.3 367.2,243.9 370.7,241.8 377.7,251.1 384.6,233.9 		"/>
		<path class="st6" d="M461.8,206.5L461.8,206.5l-3.5-2c-0.2,0.3-0.5,0.6-0.7,0.9c0,0-0.1,0-0.1,0.1c-0.3,0.2-0.5,0.5-0.8,0.6
			c-0.1,0.1-0.3,0.1-0.4,0.2c0,0,0,0-0.1,0s-0.2,0.1-0.3,0.1l0,0c-0.1,0-0.2,0-0.3,0l0,0c-0.1,0-0.2,0-0.3-0.1l0,0l0,0l0,0l3.5,2
			l0,0c0,0,0,0,0.1,0h0.1h0.1l0,0l0,0c0,0,0,0,0.1,0h0.1h0.1l0,0l0,0c0,0,0.1,0,0.2,0c0.1,0,0.1,0,0.2-0.1c0,0,0,0,0.1,0l0,0
			c0.1,0,0.2-0.1,0.4-0.2c0.3-0.2,0.6-0.4,0.8-0.6c0,0,0.1,0,0.1-0.1c0,0,0,0,0.1,0c0.1-0.1,0.2-0.2,0.3-0.3
			c0.1-0.1,0.1-0.2,0.2-0.2C461.7,206.7,461.7,206.7,461.8,206.5C461.8,206.6,461.8,206.5,461.8,206.5L461.8,206.5L461.8,206.5z"/>
		<polygon class="st12" points="458.3,196.6 454.8,194.5 458.4,192.5 461.9,194.5 		"/>
		<path class="st13" d="M454.2,209.4v-6.7l-3.5-2v6.7c0,1.8,0.4,3,1.3,3.5l3.5,2C454.7,212.4,454.2,211.2,454.2,209.4z"/>
		<polygon class="st7" points="452,203.9 448.5,201.9 448.5,198.2 452,200.3 		"/>
		<polygon class="st12" points="452,200.3 448.5,198.2 450.7,196.9 454.2,199 		"/>
		<path class="st6" d="M458.3,192.6v4l3.6-2.1v3.7l-3.6,2.1v6.7c0,0.7,0.2,1.1,0.5,1.3c0.3,0.2,0.7,0.1,1.3-0.2
			c0.7-0.4,1.2-0.9,1.7-1.6l1.1,2.7c-0.4,0.6-0.9,1.1-1.5,1.6s-1.2,1-1.9,1.3c-1.7,1-3,1.2-4,0.8c-0.9-0.5-1.4-1.7-1.4-3.6v-6.7
			l-2.2,1.3v-3.7l2.2-1.3v-4L458.3,192.6z"/>
		<polygon class="st7" points="454.2,199 450.7,196.9 450.7,192.9 454.2,195 		"/>
		<polygon class="st12" points="454.2,195 450.7,192.9 454.8,190.6 458.3,192.6 		"/>
		<path class="st13" d="M444.2,211.6c-0.2,0.4-0.5,0.8-0.7,1.1c0,0,0,0.1-0.1,0.1c-0.3,0.3-0.5,0.7-0.8,0.9
			c-0.2,0.2-0.4,0.4-0.7,0.6c-0.1,0.1-0.2,0.2-0.3,0.3c-0.3,0.2-0.7,0.5-1,0.7s-0.6,0.3-0.8,0.4s-0.4,0.2-0.7,0.2c0,0,0,0-0.1,0
			c-0.2,0-0.4,0.1-0.6,0.1l0,0c-0.2,0-0.4,0-0.6-0.1c-0.2,0-0.3-0.1-0.5-0.2l3.5,2l0,0c0.1,0,0.1,0.1,0.2,0.1c0.1,0,0.1,0,0.2,0.1
			h0.1h0.1c0.1,0,0.2,0,0.2,0c0.1,0,0.2,0,0.2,0l0,0l0,0c0.1,0,0.2,0,0.3,0s0.2,0,0.3-0.1c0,0,0,0,0.1,0l0,0c0.2,0,0.4-0.1,0.6-0.2
			l0,0c0.3-0.1,0.5-0.2,0.8-0.4c0.4-0.2,0.7-0.4,1-0.7c0.1-0.1,0.2-0.2,0.3-0.3c0.2-0.2,0.4-0.3,0.5-0.5l0.1-0.1
			c0.1-0.1,0.3-0.3,0.4-0.4c0.1-0.1,0.2-0.3,0.3-0.4c0,0,0-0.1,0.1-0.1c0,0,0,0,0.1-0.1s0.1-0.2,0.2-0.3c0.1-0.1,0.2-0.3,0.3-0.5
			c0.1-0.1,0.2-0.3,0.3-0.4L444.2,211.6z"/>
		<path class="st6" d="M446.1,207.8l-3.5-2c0.3,0.1,0.5,0.4,0.6,0.7c0.2,0.3,0.3,0.6,0.3,1.1l3.5,2
			C446.9,208.7,446.6,208.1,446.1,207.8z"/>
		<polygon class="st5" points="440,213.6 436.5,211.6 443.5,207.5 447,209.5 		"/>
		<path class="st7" d="M448.9,203.8L448.9,203.8L448.9,203.8l-3.5-2l0,0c-0.1-0.1-0.2-0.1-0.3-0.2c-0.1,0-0.2-0.1-0.3-0.1l0,0l0,0
			c-0.1,0-0.2,0-0.3-0.1c-0.1,0-0.3,0-0.4,0H444c-0.1,0-0.2,0-0.3,0c-0.2,0-0.3,0-0.5,0c0,0,0,0-0.1,0l0,0c-0.2,0-0.4,0.1-0.7,0.1
			h-0.1c-0.1,0-0.3,0.1-0.5,0.2c-0.1,0-0.2,0.1-0.4,0.1c-0.1,0-0.1,0.1-0.2,0.1c-0.1,0-0.1,0.1-0.2,0.1c-0.3,0.1-0.6,0.3-0.9,0.5
			c-0.5,0.3-0.9,0.6-1.3,0.9c-0.1,0.1-0.2,0.2-0.3,0.3c-0.3,0.3-0.7,0.6-1,0.9c-0.1,0.1-0.1,0.1-0.2,0.2l-0.1,0.1
			c-0.1,0.1-0.2,0.2-0.3,0.4c-0.1,0.1-0.3,0.3-0.4,0.4c-0.1,0.1-0.1,0.2-0.2,0.3c-0.1,0.2-0.2,0.3-0.4,0.5c-0.1,0.2-0.3,0.4-0.4,0.6
			c0,0,0,0,0,0.1l0,0c-0.1,0.2-0.3,0.4-0.4,0.6c-0.1,0.1-0.2,0.3-0.3,0.4c0,0,0,0.1-0.1,0.1c0,0,0,0,0,0.1c-0.1,0.2-0.2,0.4-0.3,0.6
			s-0.2,0.3-0.2,0.5v0.1c0,0,0,0,0,0.1c-0.1,0.2-0.2,0.4-0.3,0.6s-0.2,0.4-0.2,0.5v0.1c-0.1,0.2-0.2,0.4-0.2,0.7
			c0,0.1-0.1,0.2-0.1,0.3c0,0.1,0,0.1-0.1,0.2c0,0.1,0,0.1-0.1,0.2c-0.1,0.3-0.1,0.5-0.2,0.8v0.1c0,0.1,0,0.2-0.1,0.4
			c0,0.2-0.1,0.4-0.1,0.6c0,0.1,0,0.1,0,0.1c-0.1,0.5-0.1,1-0.1,1.4c0,1.6,0.3,2.9,1,3.8c0.3,0.4,0.6,0.7,1,0.9l3.5,2
			c-0.4-0.2-0.7-0.5-1-0.9c-0.7-0.9-1-2.2-1-3.8c0-0.5,0-0.9,0.1-1.4c0-0.2,0.1-0.5,0.1-0.7c0-0.1,0-0.2,0.1-0.4
			c0.1-0.4,0.2-0.7,0.3-1.1c0-0.1,0-0.1,0.1-0.2c0.1-0.4,0.2-0.8,0.4-1.1c0.2-0.4,0.3-0.8,0.5-1.2c0,0,0,0,0-0.1
			c0.2-0.4,0.4-0.7,0.6-1.1c0,0,0-0.1,0.1-0.1c0.2-0.4,0.4-0.7,0.7-1.1c0,0,0,0,0-0.1c0.2-0.4,0.5-0.7,0.8-1
			c0.2-0.2,0.4-0.5,0.6-0.7c0.1-0.1,0.2-0.3,0.3-0.4s0.2-0.2,0.3-0.2c0.3-0.3,0.7-0.6,1-0.9c0.1-0.1,0.2-0.2,0.3-0.3
			c0.4-0.3,0.9-0.6,1.3-0.9c0.3-0.2,0.6-0.3,0.9-0.5c0.1,0,0.1-0.1,0.2-0.1c0.2-0.1,0.4-0.1,0.5-0.2c0.2-0.1,0.3-0.1,0.5-0.2
			c0.3-0.1,0.5-0.1,0.8-0.2c0,0,0,0,0.1,0c0.3,0,0.6-0.1,0.8-0.1c0.3,0,0.6,0.1,0.8,0.1l0,0C448.4,203.6,448.7,203.7,448.9,203.8z"
			/>
		<path class="st6" d="M450.9,208.8c0,0.1,0,0.5-0.1,1.3l-10.8,6.2c0.2,0.9,0.7,1.4,1.4,1.6s1.6-0.1,2.7-0.7c0.7-0.4,1.4-0.9,2-1.5
			s1.1-1.3,1.6-2.1l2.2,1.5c-1.3,2.5-3.3,4.6-5.9,6.1c-1.6,0.9-3,1.4-4.3,1.4c-1.2,0-2.2-0.5-2.9-1.4s-1-2.2-1-3.8
			c0-1.6,0.3-3.3,1-4.9c0.7-1.7,1.6-3.2,2.7-4.6c1.2-1.4,2.5-2.5,3.9-3.3s2.7-1.2,3.8-1.2s2,0.5,2.7,1.4
			C450.6,205.8,450.9,207.1,450.9,208.8z M440,213.6l7-4.1c-0.1-1-0.5-1.6-1.2-1.8c-0.6-0.2-1.4-0.1-2.3,0.4
			c-0.9,0.5-1.7,1.3-2.4,2.3C440.5,211.4,440.1,212.5,440,213.6"/>
		<g>
			<polygon class="st13" points="430.7,228.6 427.2,226.6 422.6,222.7 426.2,224.8 			"/>
		</g>
		<g>
			<polygon class="st12" points="430.2,212.5 426.7,210.4 431.6,207.6 435.1,209.6 			"/>
		</g>
		<g>
			<polygon class="st7" points="424.2,222.6 420.6,220.5 426.7,210.4 430.2,212.5 			"/>
		</g>
		<g>
			<polygon class="st7" points="420.1,234.8 416.5,232.7 416.5,210.1 420,212.1 			"/>
		</g>
		<g>
			<polygon class="st12" points="420,212.1 416.5,210.1 420.6,207.7 424.1,209.7 			"/>
		</g>
		<g>
			<polygon class="st6" points="424.1,209.7 424.2,222.6 430.2,212.5 435.1,209.6 429.2,220 435.7,225.7 430.7,228.6 426.2,224.8 
				424.2,228.2 424.2,232.4 420.1,234.8 420,212.1 			"/>
		</g>
		<path class="st12" d="M417.5,219.5L417.5,219.5L417.5,219.5l-3.5-2c-0.5,0.3-1,0.6-1.5,1c-0.2,0.1-0.3,0.2-0.4,0.4
			c-0.2,0.2-0.5,0.4-0.7,0.6c-0.1,0.1-0.2,0.2-0.3,0.3c-0.1,0.1-0.2,0.2-0.3,0.3c-0.1,0.1-0.1,0.2-0.2,0.2c0,0.1-0.1,0.1-0.1,0.2
			c0,0,0,0.1-0.1,0.1c-0.1,0.1-0.2,0.3-0.3,0.4c0,0,0,0.1-0.1,0.1c0,0,0,0.1-0.1,0.1c0,0.1-0.1,0.1-0.1,0.2
			c-0.1,0.1-0.2,0.2-0.2,0.4c0,0,0,0.1-0.1,0.1v0.1c0,0.1-0.1,0.1-0.1,0.2c-0.1,0.1-0.1,0.3-0.2,0.4c0,0.1-0.1,0.1-0.1,0.2l3.5,2
			c0.1-0.3,0.2-0.5,0.4-0.7V224c0.1-0.2,0.3-0.4,0.4-0.7c0,0,0-0.1,0.1-0.1c0.1-0.2,0.3-0.4,0.5-0.6c0-0.1,0.1-0.1,0.1-0.2
			c0.2-0.2,0.3-0.4,0.5-0.6c0.3-0.3,0.7-0.6,1-0.9c0.1-0.1,0.3-0.3,0.4-0.4C416.5,220.2,417,219.8,417.5,219.5z"/>
		<polygon class="st12" points="408.7,224.9 405.1,222.9 409.1,220.6 412.6,222.6 		"/>
		<polygon class="st7" points="408.7,241.3 405.2,239.3 405.1,222.9 408.7,224.9 		"/>
		<path class="st6" d="M417.5,219.5v4.4c-0.5,0.2-0.8,0.4-0.9,0.5c-1.2,0.7-2.1,1.6-2.8,2.8c-0.7,1.2-1,2.5-1,4v7.8l-4.1,2.4V225
			l4-2.3v2.2c0.5-1.1,1.2-2.1,2-3C415.5,220.9,416.4,220.2,417.5,219.5z"/>
	</g>
	<line class="st9" x1="298.3" y1="350.7" x2="298.3" y2="416.3"/>
	<line class="st9" x1="282.3" y1="349.5" x2="290.4" y2="415.4"/>
	<line class="st9" x1="265.8" y1="343.5" x2="282.3" y2="412.5"/>
	<line class="st9" x1="250.4" y1="333.4" x2="275.8" y2="408.1"/>
	<path class="st7" d="M280.3,333.3l1.2,9.4c5.3,1.3,11,2,16.8,2s11.5-0.7,16.8-2l1.2-9.4c-5.7,1.5-11.7,2.3-18,2.3
		S286,334.8,280.3,333.3z"/>
	<path class="st6" d="M359.1,288.4c-2.2,21.2-19.6,38.8-42.9,44.9l-1.2,9.4c25.5-6.2,44.3-26.1,44.3-49.7
		C359.4,291.4,359.3,289.9,359.1,288.4z"/>
	<path class="st5" d="M280.3,333.3c-23.3-6.1-40.6-23.7-42.9-44.9c-0.2,1.5-0.3,3-0.3,4.6c0,23.6,18.7,43.5,44.3,49.7L280.3,333.3z"
		/>
	<line class="st9" x1="456.5" y1="222.7" x2="432.4" y2="250.4"/>
	<line class="st9" x1="439.4" y1="231.8" x2="410.5" y2="263"/>
	<line class="st9" x1="453.1" y1="281.8" x2="413.3" y2="325.1"/>
	
		<pattern  id="SVGID_16_" xlink:href="#РќРѕРІС‹Р№_РѕР±СЂР°Р·РµС†_СѓР·" patternTransform="matrix(1 0 0 -1 396.9 -16555.0996)">
	</pattern>
	<ellipse class="st24" cx="538.8" cy="216.5" rx="9.2" ry="7.5"/>
	
		<pattern  id="SVGID_17_" xlink:href="#РќРѕРІС‹Р№_РѕР±СЂР°Р·РµС†_СѓР·" patternTransform="matrix(1 0 0 -1 396.9 -16555.0996)">
	</pattern>
	<ellipse class="st25" cx="564.7" cy="201.3" rx="8.3" ry="6.8"/>
	
		<pattern  id="SVGID_18_" xlink:href="#РќРѕРІС‹Р№_РѕР±СЂР°Р·РµС†_СѓР·" patternTransform="matrix(1 0 0 -1 396.9 -16555.0996)">
	</pattern>
	<path class="st26" d="M616.3,239.5c0,3.7-3.7,6.8-8.3,6.8s-8.3-3-8.3-6.8c0-3.7,3.7-6.8,8.3-6.8S616.3,235.7,616.3,239.5z"/>
	
		<pattern  id="SVGID_19_" xlink:href="#РќРѕРІС‹Р№_РѕР±СЂР°Р·РµС†_СѓР·" patternTransform="matrix(1 0 0 -1 396.9 -16555.0996)">
	</pattern>
	<ellipse class="st27" cx="475.8" cy="332.2" rx="8.3" ry="6.8"/>
	
		<pattern  id="SVGID_20_" xlink:href="#РќРѕРІС‹Р№_РѕР±СЂР°Р·РµС†_СѓР·" patternTransform="matrix(1 0 0 -1 396.9 -16555.0996)">
	</pattern>
	<ellipse class="st28" cx="452" cy="346.9" rx="8.3" ry="6.8"/>
	
		<pattern  id="SVGID_21_" xlink:href="#РќРѕРІС‹Р№_РѕР±СЂР°Р·РµС†_СѓР·" patternTransform="matrix(1 0 0 -1 396.9 -16555.0996)">
	</pattern>
	<path class="st29" d="M353.7,411.8c0,3.7-3.7,6.8-8.3,6.8s-8.3-3-8.3-6.8c0-3.7,3.7-6.8,8.3-6.8
		C349.9,405.1,353.7,408.1,353.7,411.8z"/>
	
		<pattern  id="SVGID_22_" xlink:href="#РќРѕРІС‹Р№_РѕР±СЂР°Р·РµС†_СѓР·" patternTransform="matrix(1 0 0 -1 396.9 -16555.0996)">
	</pattern>
	<ellipse class="st30" cx="247" cy="417.2" rx="8.3" ry="6.8"/>
	<g>
		<path class="st7" d="M544,205.3c-0.6,0-1,0.4-1,0.9v15.1c0,0.5,0.5,0.9,1,0.9c0.6,0,1-0.4,1-0.9v-15.1
			C545,205.7,544.6,205.3,544,205.3z"/>
		<path class="st6" d="M544.3,178.6c-0.1,0-0.2,0-0.3,0s-0.2,0-0.3,0c-7.1,0.5-9.9,18.1-9.9,22.4c0,4.9,4.6,8.8,10.2,8.8
			s10.2-3.9,10.2-8.8C554.2,196.7,551.4,179,544.3,178.6z"/>
		<path class="st7" d="M550.7,205.1c-5.6,0.8-10.7-2.4-11.4-7.2c-0.4-2.9-0.5-12.2,1.8-18.3c-5.1,4-7.2,17.6-7.2,21.3
			c0,4.9,4.6,8.8,10.2,8.8c4.3,0,7.9-2.2,9.4-5.4C552.6,204.7,551.7,205,550.7,205.1z"/>
	</g>
	<g>
		<path class="st7" d="M570.4,190.2c-0.6,0-1,0.4-1,0.9v15.1c0,0.5,0.5,0.9,1,0.9c0.6,0,1-0.4,1-0.9v-15.1
			C571.4,190.6,571,190.2,570.4,190.2z"/>
		<path class="st6" d="M570.7,163.4c-0.1,0-0.2,0-0.3,0s-0.2,0-0.3,0c-7.1,0.5-9.9,18.1-9.9,22.4c0,4.9,4.6,8.8,10.2,8.8
			s10.2-3.9,10.2-8.8C580.6,181.5,577.8,163.9,570.7,163.4z"/>
		<path class="st7" d="M577.1,190c-5.6,0.8-10.7-2.4-11.4-7.2c-0.4-2.9-0.5-12.2,1.8-18.3c-5.1,4-7.2,17.6-7.2,21.3
			c0,4.9,4.6,8.8,10.2,8.8c4.3,0,7.9-2.2,9.4-5.4C579,189.6,578,189.8,577.1,190z"/>
	</g>
	<g>
		<path class="st7" d="M612.1,227.8c-0.6,0-1,0.4-1,0.9v15.1c0,0.5,0.5,0.9,1,0.9c0.6,0,1-0.4,1-0.9v-15.1
			C613.1,228.2,612.6,227.8,612.1,227.8z"/>
		<path class="st6" d="M612.4,201.1c-0.1,0-0.2,0-0.3,0s-0.2,0-0.3,0c-7.1,0.5-9.9,18.1-9.9,22.4c0,4.9,4.6,8.8,10.2,8.8
			c5.6,0,10.2-3.9,10.2-8.8C622.3,219.2,619.5,201.6,612.4,201.1z"/>
		<path class="st7" d="M618.7,227.6c-5.6,0.8-10.7-2.4-11.4-7.2c-0.4-2.9-0.5-12.2,1.8-18.3c-5.1,4-7.2,17.6-7.2,21.3
			c0,4.9,4.6,8.8,10.2,8.8c4.3,0,7.9-2.2,9.4-5.4C620.7,227.2,619.7,227.5,618.7,227.6z"/>
	</g>
	<g>
		<path class="st7" d="M455.5,335.7c-0.6,0-1,0.4-1,0.9v15c0,0.5,0.5,0.9,1,0.9c0.6,0,1-0.4,1-0.9v-15.1
			C456.5,336.1,456.1,335.7,455.5,335.7z"/>
		<path class="st6" d="M455.8,308.9c-0.1,0-0.2,0-0.3,0s-0.2,0-0.3,0c-7.1,0.5-9.9,18.1-9.9,22.4c0,4.9,4.6,8.8,10.2,8.8
			c5.6,0,10.2-3.9,10.2-8.8C465.7,327,462.9,309.4,455.8,308.9z"/>
		<path class="st7" d="M462.2,335.5c-5.6,0.8-10.7-2.4-11.4-7.2c-0.4-2.9-0.5-12.2,1.8-18.3c-5.1,4-7.2,17.6-7.2,21.3
			c0,4.9,4.6,8.8,10.2,8.8c4.3,0,7.9-2.2,9.4-5.4C464.1,335.1,463.2,335.3,462.2,335.5z"/>
	</g>
	<g>
		<path class="st7" d="M481.9,320.5c-0.6,0-1,0.4-1,0.9v15.1c0,0.5,0.5,0.9,1,0.9c0.6,0,1-0.4,1-0.9v-15.1
			C482.9,320.9,482.5,320.5,481.9,320.5z"/>
		<path class="st6" d="M482.2,293.8c-0.1,0-0.2,0-0.3,0s-0.2,0-0.3,0c-7.1,0.5-9.9,18.1-9.9,22.4c0,4.9,4.6,8.8,10.2,8.8
			s10.2-3.9,10.2-8.8C492.1,311.9,489.3,294.3,482.2,293.8z"/>
		<path class="st7" d="M488.6,320.3c-5.6,0.8-10.7-2.4-11.4-7.2c-0.4-2.9-0.5-12.2,1.8-18.3c-5.1,4-7.2,17.6-7.2,21.3
			c0,4.9,4.6,8.8,10.2,8.8c4.3,0,7.9-2.2,9.4-5.4C490.5,319.9,489.5,320.2,488.6,320.3z"/>
	</g>
	<g>
		<circle class="st6" cx="349.6" cy="408.1" r="9.9"/>
		<circle class="st2" cx="351.9" cy="402.1" r="2.3"/>
		<path class="st7" d="M349.6,415.1c-5.2,0-9.4-3.4-9.8-7.8c0,0.3,0,0.5,0,0.8c0,5.5,4.4,9.9,9.9,9.9s9.9-4.4,9.9-9.9
			c0-0.3,0-0.5,0-0.8C359.1,411.7,354.8,415.1,349.6,415.1z"/>
	</g>
	<g>
		<circle class="st6" cx="251" cy="412.6" r="9.9"/>
		<path class="st2" d="M254.8,408.2c-0.9,0.9-2.3,0.9-3.2,0s-0.9-2.3,0-3.2c0.9-0.9,2.3-0.9,3.2,0
			C255.7,405.9,255.7,407.3,254.8,408.2z"/>
		<path class="st7" d="M251,419.7c-5.2,0-9.4-3.4-9.8-7.8c0,0.3,0,0.5,0,0.8c0,5.5,4.4,9.9,9.9,9.9s9.9-4.4,9.9-9.9
			c0-0.3,0-0.5,0-0.8C260.4,416.2,256.2,419.7,251,419.7z"/>
	</g>
</g>
</svg>
