<?xml version="1.0" encoding="utf-8"?>
<!-- Generator: Adobe Illustrator 22.0.1, SVG Export Plug-In . SVG Version: 6.00 Build 0)  -->
<svg version="1.1" id="Слой_1" xmlns="http://www.w3.org/2000/svg" xmlns:xlink="http://www.w3.org/1999/xlink" x="0px" y="0px"
	 viewBox="0 0 317.2 95.2" style="enable-background:new 0 0 317.2 95.2;" xml:space="preserve">
<style type="text/css">
	.st0{fill:none;}
	.st1{fill:#505256;}
	.st2{fill:url(#SVGID_1_);}
	.st3{fill:url(#SVGID_2_);}
	.st4{fill:url(#SVGID_3_);}
	.st5{fill:url(#SVGID_4_);}
	.st6{fill:url(#SVGID_5_);}
	.st7{fill:url(#SVGID_6_);}
	.st8{fill:url(#SVGID_7_);}
	.st9{fill:url(#SVGID_8_);}
	.st10{fill:url(#SVGID_9_);}
	.st11{fill:#9F6E5C;}
	.st12{fill:url(#SVGID_10_);}
	.st13{fill:url(#SVGID_11_);}
	.st14{fill:url(#SVGID_12_);}
	.st15{fill:url(#SVGID_13_);}
	.st16{fill:url(#SVGID_14_);}
	.st17{fill:url(#SVGID_15_);}
	.st18{fill:url(#SVGID_16_);}
	.st19{fill:url(#SVGID_17_);}
	.st20{fill:url(#SVGID_18_);}
	.st21{fill:#EABA9E;}
</style>
<rect x="547.6" y="-305.4" class="st0" width="708.7" height="708.7"/>
<rect x="-195" y="-305.4" class="st0" width="708.7" height="708.7"/>
<rect x="-195" y="437.3" class="st1" width="708.7" height="708.7"/>
<rect x="547.6" y="437.3" class="st1" width="708.7" height="708.7"/>
<g>
	<g>
		<linearGradient id="SVGID_1_" gradientUnits="userSpaceOnUse" x1="2.9386" y1="7.4771" x2="2.9386" y2="77.2338">
			<stop  offset="0" style="stop-color:#EABA9E"/>
			<stop  offset="1" style="stop-color:#9F6E5C"/>
		</linearGradient>
		<rect x="1" y="2.6" class="st2" width="3.9" height="74"/>
		<linearGradient id="SVGID_2_" gradientUnits="userSpaceOnUse" x1="47.7242" y1="7.4771" x2="47.7242" y2="77.2338">
			<stop  offset="0" style="stop-color:#EABA9E"/>
			<stop  offset="1" style="stop-color:#9F6E5C"/>
		</linearGradient>
		<rect x="45.8" y="2.6" class="st3" width="3.9" height="74"/>
		<linearGradient id="SVGID_3_" gradientUnits="userSpaceOnUse" x1="14.2924" y1="7.4771" x2="14.2924" y2="77.2338">
			<stop  offset="0" style="stop-color:#EABA9E"/>
			<stop  offset="1" style="stop-color:#9F6E5C"/>
		</linearGradient>
		<rect x="12.3" y="12" class="st4" width="3.9" height="74"/>
		<linearGradient id="SVGID_4_" gradientUnits="userSpaceOnUse" x1="36.5806" y1="7.4771" x2="36.5806" y2="77.2338">
			<stop  offset="0" style="stop-color:#EABA9E"/>
			<stop  offset="1" style="stop-color:#9F6E5C"/>
		</linearGradient>
		<rect x="34.6" y="12" class="st5" width="3.9" height="74"/>
		<linearGradient id="SVGID_5_" gradientUnits="userSpaceOnUse" x1="25.437" y1="7.4771" x2="25.437" y2="77.2338">
			<stop  offset="0" style="stop-color:#EABA9E"/>
			<stop  offset="1" style="stop-color:#9F6E5C"/>
		</linearGradient>
		<rect x="23.5" y="21.3" class="st6" width="3.9" height="74"/>
		<linearGradient id="SVGID_6_" gradientUnits="userSpaceOnUse" x1="92.2988" y1="7.4771" x2="92.2988" y2="77.2338">
			<stop  offset="0" style="stop-color:#EABA9E"/>
			<stop  offset="1" style="stop-color:#9F6E5C"/>
		</linearGradient>
		<rect x="90.3" y="2.6" class="st7" width="3.9" height="74"/>
		<linearGradient id="SVGID_7_" gradientUnits="userSpaceOnUse" x1="58.8679" y1="7.4771" x2="58.8679" y2="77.2338">
			<stop  offset="0" style="stop-color:#EABA9E"/>
			<stop  offset="1" style="stop-color:#9F6E5C"/>
		</linearGradient>
		<rect x="56.9" y="12" class="st8" width="3.9" height="74"/>
		<linearGradient id="SVGID_8_" gradientUnits="userSpaceOnUse" x1="81.1551" y1="7.4771" x2="81.1551" y2="77.2338">
			<stop  offset="0" style="stop-color:#EABA9E"/>
			<stop  offset="1" style="stop-color:#9F6E5C"/>
		</linearGradient>
		<rect x="79.2" y="12" class="st9" width="3.9" height="74"/>
		<linearGradient id="SVGID_9_" gradientUnits="userSpaceOnUse" x1="70.0115" y1="7.4771" x2="70.0115" y2="77.2338">
			<stop  offset="0" style="stop-color:#EABA9E"/>
			<stop  offset="1" style="stop-color:#9F6E5C"/>
		</linearGradient>
		<rect x="68.1" y="21.3" class="st10" width="3.9" height="74"/>
	</g>
	<g>
		<g>
			<path class="st11" d="M131.7,32.6v-0.5h10.5v0.5l-3,0.7l7.2,25.7l7.2-27.7h0.7l8.2,27.7l6.5-25.2l-3.2-1.2v-0.5h7.5v0.5l-3.2,1.2
				l-8.7,33.9h-0.7l-8.2-27.9l-7.2,27.9h-0.7l-9.7-34.4L131.7,32.6z"/>
			<path class="st11" d="M180.6,55.5c0,2.1,0.2,3.9,0.5,5.3c0.3,1.4,0.7,2.6,1.2,3.5c0.5,0.9,1.1,1.5,1.7,1.9c0.6,0.4,1.3,0.5,2,0.5
				c0.9,0,1.7-0.2,2.4-0.5c0.8-0.3,1.4-0.8,2-1.3c0.6-0.6,1.1-1.2,1.5-2c0.4-0.8,0.6-1.7,0.8-2.6h0.7c-0.1,1.1-0.4,2.1-0.9,3
				c-0.4,0.9-1,1.7-1.7,2.4c-0.7,0.7-1.5,1.2-2.4,1.6c-0.9,0.4-1.9,0.6-3,0.6c-1.3,0-2.5-0.3-3.6-0.8c-1.1-0.5-2.1-1.3-3-2.4
				c-0.9-1-1.6-2.3-2.1-3.8c-0.5-1.5-0.8-3.2-0.8-5.2c0-2,0.2-3.8,0.7-5.3c0.5-1.5,1.2-2.8,2-3.8c0.8-1,1.8-1.8,2.8-2.3
				c1.1-0.5,2.2-0.8,3.4-0.8c1.2,0,2.3,0.3,3.4,0.8c1.1,0.5,2,1.3,2.8,2.3c0.8,1,1.5,2.3,2,3.8c0.5,1.5,0.7,3.3,0.7,5.3H180.6z
				 M185.1,44c-0.5,0-1,0.2-1.5,0.5c-0.5,0.3-1,0.9-1.4,1.7c-0.4,0.8-0.8,1.9-1.1,3.2c-0.3,1.3-0.5,3.1-0.5,5.1h9
				c-0.1-2.1-0.2-3.8-0.5-5.1c-0.3-1.3-0.6-2.4-1.1-3.2c-0.4-0.8-0.9-1.4-1.4-1.7C186.1,44.2,185.6,44,185.1,44z"/>
			<path class="st11" d="M202.1,65.7V33.3l-3-0.7v-0.5h7v33.7l3,0.7V67h-10v-0.5L202.1,65.7z"/>
			<path class="st11" d="M216.3,65.7V33.3l-3-0.7v-0.5h7v33.7l3,0.7V67h-10v-0.5L216.3,65.7z"/>
			<path class="st11" d="M237,32.1c2.2,0,4.2,0.4,6.1,1.2c1.8,0.8,3.5,1.9,4.8,3.4c1.4,1.5,2.4,3.3,3.2,5.5c0.8,2.2,1.1,4.6,1.1,7.3
				c0,2.8-0.4,5.2-1.1,7.4c-0.8,2.2-1.8,4-3.2,5.5c-1.4,1.5-3,2.6-4.8,3.4c-1.8,0.8-3.9,1.2-6.1,1.2h-8.7v-0.5l3-0.7V33.3l-3-0.7
				v-0.5H237z M235.5,33.1V66h1.5c1.4,0,2.8-0.3,4.1-0.9c1.3-0.6,2.4-1.6,3.3-2.9c0.9-1.3,1.7-3,2.2-5.1c0.5-2.1,0.8-4.6,0.8-7.5
				c0-2.9-0.3-5.4-0.8-7.5c-0.5-2.1-1.3-3.8-2.2-5.1c-0.9-1.3-2.1-2.3-3.3-2.9c-1.3-0.6-2.6-0.9-4.1-0.9H235.5z"/>
			<path class="st11" d="M267.2,43.3c1.2,0,2.4,0.3,3.6,0.8c1.1,0.5,2.2,1.3,3,2.4c0.9,1,1.6,2.3,2.1,3.8c0.5,1.5,0.8,3.2,0.8,5.2
				c0,1.9-0.3,3.7-0.8,5.2c-0.5,1.5-1.2,2.8-2.1,3.8c-0.9,1-1.9,1.8-3,2.4s-2.3,0.8-3.6,0.8c-1.3,0-2.5-0.3-3.6-0.8
				c-1.1-0.5-2.1-1.3-3-2.4c-0.9-1-1.6-2.3-2.1-3.8c-0.5-1.5-0.8-3.2-0.8-5.2c0-1.9,0.3-3.7,0.8-5.2c0.5-1.5,1.2-2.8,2.1-3.8
				c0.9-1,1.9-1.8,3-2.4C264.7,43.6,265.9,43.3,267.2,43.3z M267.2,44c-0.6,0-1.1,0.2-1.7,0.6c-0.6,0.4-1.1,1-1.6,1.9
				c-0.5,0.9-0.9,2.1-1.2,3.5c-0.3,1.5-0.5,3.3-0.5,5.5c0,2.2,0.2,4,0.5,5.5c0.3,1.5,0.7,2.6,1.2,3.5c0.5,0.9,1,1.5,1.6,1.9
				c0.6,0.4,1.2,0.6,1.7,0.6c0.6,0,1.1-0.2,1.7-0.6c0.6-0.4,1.1-1,1.6-1.9c0.5-0.9,0.9-2.1,1.2-3.5c0.3-1.5,0.5-3.3,0.5-5.5
				c0-2.2-0.2-4-0.5-5.5c-0.3-1.5-0.7-2.6-1.2-3.5c-0.5-0.9-1-1.5-1.6-1.9C268.3,44.2,267.8,44,267.2,44z"/>
			<path class="st11" d="M285.2,65.7V45.3l-3-0.7V44h7v3c0.3-0.7,0.8-1.3,1.3-1.8c0.5-0.5,1.1-0.9,1.8-1.3c0.7-0.4,1.6-0.6,2.6-0.6
				c1.3,0,2.3,0.2,3.1,0.7c0.8,0.5,1.5,1,2,1.5c0.6,0.7,1.1,1.4,1.4,2.2c0.4-0.8,0.9-1.6,1.5-2.2c0.5-0.6,1.2-1.1,1.9-1.5
				c0.8-0.5,1.7-0.7,2.7-0.7c1,0,1.9,0.2,2.8,0.5c0.8,0.4,1.6,0.9,2.2,1.5c0.6,0.6,1.1,1.4,1.5,2.3c0.3,0.9,0.5,1.9,0.5,3.1v15
				l3,0.7V67h-9.7v-0.5l2.7-0.7v-15c0-2.4-0.4-4-1.1-5c-0.7-1-1.6-1.5-2.6-1.5c-0.8,0-1.5,0.2-2.1,0.7c-0.6,0.5-1.1,1-1.5,1.5
				c-0.5,0.7-0.9,1.4-1.3,2.2v17l2.7,0.7V67h-9.5v-0.5l2.7-0.7v-15c0-2.4-0.4-4-1.1-5c-0.7-1-1.6-1.5-2.6-1.5
				c-0.8,0-1.5,0.2-2.1,0.7s-1.1,1-1.5,1.5c-0.5,0.7-0.9,1.4-1.3,2.2v17l2.7,0.7V67h-9.7v-0.5L285.2,65.7z"/>
		</g>
	</g>
</g>
<g>
	<g>
		<rect x="743.7" y="2.6" class="st1" width="3.9" height="74"/>
		<rect x="788.4" y="2.6" class="st1" width="3.9" height="74"/>
		<rect x="755" y="12" class="st1" width="3.9" height="74"/>
		<rect x="777.3" y="12" class="st1" width="3.9" height="74"/>
		<rect x="766.2" y="21.3" class="st1" width="3.9" height="74"/>
		<rect x="833" y="2.6" class="st1" width="3.9" height="74"/>
		<rect x="799.6" y="12" class="st1" width="3.9" height="74"/>
		<rect x="821.9" y="12" class="st1" width="3.9" height="74"/>
		<rect x="810.7" y="21.3" class="st1" width="3.9" height="74"/>
	</g>
	<g>
		<g>
			<path class="st1" d="M874.4,32.6v-0.5h10.5v0.5l-3,0.7l7.2,25.7l7.2-27.7h0.7l8.2,27.7l6.5-25.2l-3.2-1.2v-0.5h7.5v0.5l-3.2,1.2
				l-8.7,33.9h-0.7l-8.2-27.9l-7.2,27.9h-0.7l-9.7-34.4L874.4,32.6z"/>
			<path class="st1" d="M923.3,55.5c0,2.1,0.2,3.9,0.5,5.3c0.3,1.4,0.7,2.6,1.2,3.5c0.5,0.9,1.1,1.5,1.7,1.9c0.6,0.4,1.3,0.5,2,0.5
				c0.9,0,1.7-0.2,2.4-0.5c0.8-0.3,1.4-0.8,2-1.3c0.6-0.6,1.1-1.2,1.5-2c0.4-0.8,0.6-1.7,0.8-2.6h0.7c-0.1,1.1-0.4,2.1-0.9,3
				c-0.4,0.9-1,1.7-1.7,2.4c-0.7,0.7-1.5,1.2-2.4,1.6c-0.9,0.4-1.9,0.6-3,0.6c-1.3,0-2.5-0.3-3.6-0.8c-1.1-0.5-2.1-1.3-3-2.4
				c-0.9-1-1.6-2.3-2.1-3.8c-0.5-1.5-0.8-3.2-0.8-5.2c0-2,0.2-3.8,0.7-5.3c0.5-1.5,1.2-2.8,2-3.8c0.8-1,1.8-1.8,2.8-2.3
				c1.1-0.5,2.2-0.8,3.4-0.8c1.2,0,2.3,0.3,3.4,0.8c1.1,0.5,2,1.3,2.8,2.3c0.8,1,1.5,2.3,2,3.8c0.5,1.5,0.7,3.3,0.7,5.3H923.3z
				 M927.8,44c-0.5,0-1,0.2-1.5,0.5s-1,0.9-1.4,1.7c-0.4,0.8-0.8,1.9-1.1,3.2c-0.3,1.3-0.5,3.1-0.5,5.1h9c-0.1-2.1-0.2-3.8-0.5-5.1
				c-0.3-1.3-0.6-2.4-1.1-3.2c-0.4-0.8-0.9-1.4-1.4-1.7S928.3,44,927.8,44z"/>
			<path class="st1" d="M944.7,65.7V33.3l-3-0.7v-0.5h7v33.7l3,0.7V67h-10v-0.5L944.7,65.7z"/>
			<path class="st1" d="M959,65.7V33.3l-3-0.7v-0.5h7v33.7l3,0.7V67h-10v-0.5L959,65.7z"/>
			<path class="st1" d="M979.7,32.1c2.2,0,4.2,0.4,6.1,1.2c1.8,0.8,3.5,1.9,4.8,3.4c1.4,1.5,2.4,3.3,3.2,5.5
				c0.8,2.2,1.1,4.6,1.1,7.3c0,2.8-0.4,5.2-1.1,7.4c-0.8,2.2-1.8,4-3.2,5.5c-1.4,1.5-3,2.6-4.8,3.4c-1.8,0.8-3.9,1.2-6.1,1.2h-8.7
				v-0.5l3-0.7V33.3l-3-0.7v-0.5H979.7z M978.2,33.1V66h1.5c1.4,0,2.8-0.3,4.1-0.9c1.3-0.6,2.4-1.6,3.3-2.9c0.9-1.3,1.7-3,2.2-5.1
				s0.8-4.6,0.8-7.5c0-2.9-0.3-5.4-0.8-7.5c-0.5-2.1-1.3-3.8-2.2-5.1c-0.9-1.3-2.1-2.3-3.3-2.9c-1.3-0.6-2.6-0.9-4.1-0.9H978.2z"/>
			<path class="st1" d="M1009.9,43.3c1.2,0,2.4,0.3,3.6,0.8c1.1,0.5,2.2,1.3,3,2.4c0.9,1,1.6,2.3,2.1,3.8c0.5,1.5,0.8,3.2,0.8,5.2
				c0,1.9-0.3,3.7-0.8,5.2c-0.5,1.5-1.2,2.8-2.1,3.8c-0.9,1-1.9,1.8-3,2.4s-2.3,0.8-3.6,0.8c-1.3,0-2.5-0.3-3.6-0.8
				c-1.1-0.5-2.1-1.3-3-2.4c-0.9-1-1.6-2.3-2.1-3.8c-0.5-1.5-0.8-3.2-0.8-5.2c0-1.9,0.3-3.7,0.8-5.2c0.5-1.5,1.2-2.8,2.1-3.8
				c0.9-1,1.9-1.8,3-2.4C1007.4,43.6,1008.6,43.3,1009.9,43.3z M1009.9,44c-0.6,0-1.1,0.2-1.7,0.6c-0.6,0.4-1.1,1-1.6,1.9
				c-0.5,0.9-0.9,2.1-1.2,3.5c-0.3,1.5-0.5,3.3-0.5,5.5c0,2.2,0.2,4,0.5,5.5c0.3,1.5,0.7,2.6,1.2,3.5c0.5,0.9,1,1.5,1.6,1.9
				c0.6,0.4,1.2,0.6,1.7,0.6c0.6,0,1.1-0.2,1.7-0.6c0.6-0.4,1.1-1,1.6-1.9c0.5-0.9,0.9-2.1,1.2-3.5c0.3-1.5,0.5-3.3,0.5-5.5
				c0-2.2-0.2-4-0.5-5.5c-0.3-1.5-0.7-2.6-1.2-3.5c-0.5-0.9-1-1.5-1.6-1.9C1011,44.2,1010.4,44,1009.9,44z"/>
			<path class="st1" d="M1027.8,65.7V45.3l-3-0.7V44h7v3c0.3-0.7,0.8-1.3,1.3-1.8c0.5-0.5,1.1-0.9,1.8-1.3c0.7-0.4,1.6-0.6,2.6-0.6
				c1.3,0,2.3,0.2,3.1,0.7c0.8,0.5,1.5,1,2,1.5c0.6,0.7,1.1,1.4,1.4,2.2c0.4-0.8,0.9-1.6,1.5-2.2c0.5-0.6,1.2-1.1,1.9-1.5
				c0.8-0.5,1.7-0.7,2.7-0.7c1,0,1.9,0.2,2.8,0.5c0.8,0.4,1.6,0.9,2.2,1.5c0.6,0.6,1.1,1.4,1.5,2.3s0.5,1.9,0.5,3.1v15l3,0.7V67
				h-9.7v-0.5l2.7-0.7v-15c0-2.4-0.4-4-1.1-5c-0.7-1-1.6-1.5-2.6-1.5c-0.8,0-1.5,0.2-2.1,0.7c-0.6,0.5-1.1,1-1.5,1.5
				c-0.5,0.7-0.9,1.4-1.3,2.2v17l2.7,0.7V67h-9.5v-0.5l2.7-0.7v-15c0-2.4-0.4-4-1.1-5c-0.7-1-1.6-1.5-2.6-1.5
				c-0.8,0-1.5,0.2-2.1,0.7s-1.1,1-1.5,1.5c-0.5,0.7-0.9,1.4-1.3,2.2v17l2.7,0.7V67h-9.7v-0.5L1027.8,65.7z"/>
		</g>
	</g>
</g>
<g>
	<g>
		<linearGradient id="SVGID_10_" gradientUnits="userSpaceOnUse" x1="2.9383" y1="750.1541" x2="2.9383" y2="819.9111">
			<stop  offset="0" style="stop-color:#EABA9E"/>
			<stop  offset="1" style="stop-color:#9F6E5C"/>
		</linearGradient>
		<rect x="1" y="745.3" class="st12" width="3.9" height="74"/>
		<linearGradient id="SVGID_11_" gradientUnits="userSpaceOnUse" x1="47.7241" y1="750.1541" x2="47.7241" y2="819.9111">
			<stop  offset="0" style="stop-color:#EABA9E"/>
			<stop  offset="1" style="stop-color:#9F6E5C"/>
		</linearGradient>
		<rect x="45.8" y="745.3" class="st13" width="3.9" height="74"/>
		<linearGradient id="SVGID_12_" gradientUnits="userSpaceOnUse" x1="14.2921" y1="750.1541" x2="14.2921" y2="819.9111">
			<stop  offset="0" style="stop-color:#EABA9E"/>
			<stop  offset="1" style="stop-color:#9F6E5C"/>
		</linearGradient>
		<rect x="12.3" y="754.7" class="st14" width="3.9" height="74"/>
		<linearGradient id="SVGID_13_" gradientUnits="userSpaceOnUse" x1="36.5804" y1="750.1541" x2="36.5804" y2="819.9111">
			<stop  offset="0" style="stop-color:#EABA9E"/>
			<stop  offset="1" style="stop-color:#9F6E5C"/>
		</linearGradient>
		<rect x="34.6" y="754.7" class="st15" width="3.9" height="74"/>
		<linearGradient id="SVGID_14_" gradientUnits="userSpaceOnUse" x1="25.4367" y1="750.1541" x2="25.4367" y2="819.9111">
			<stop  offset="0" style="stop-color:#EABA9E"/>
			<stop  offset="1" style="stop-color:#9F6E5C"/>
		</linearGradient>
		<rect x="23.5" y="764" class="st16" width="3.9" height="74"/>
		<linearGradient id="SVGID_15_" gradientUnits="userSpaceOnUse" x1="92.2988" y1="750.1541" x2="92.2988" y2="819.9111">
			<stop  offset="0" style="stop-color:#EABA9E"/>
			<stop  offset="1" style="stop-color:#9F6E5C"/>
		</linearGradient>
		<rect x="90.3" y="745.3" class="st17" width="3.9" height="74"/>
		<linearGradient id="SVGID_16_" gradientUnits="userSpaceOnUse" x1="58.8678" y1="750.1541" x2="58.8678" y2="819.9111">
			<stop  offset="0" style="stop-color:#EABA9E"/>
			<stop  offset="1" style="stop-color:#9F6E5C"/>
		</linearGradient>
		<rect x="56.9" y="754.7" class="st18" width="3.9" height="74"/>
		<linearGradient id="SVGID_17_" gradientUnits="userSpaceOnUse" x1="81.1552" y1="750.1541" x2="81.1552" y2="819.9111">
			<stop  offset="0" style="stop-color:#EABA9E"/>
			<stop  offset="1" style="stop-color:#9F6E5C"/>
		</linearGradient>
		<rect x="79.2" y="754.7" class="st19" width="3.9" height="74"/>
		<linearGradient id="SVGID_18_" gradientUnits="userSpaceOnUse" x1="70.0115" y1="750.1541" x2="70.0115" y2="819.9111">
			<stop  offset="0" style="stop-color:#EABA9E"/>
			<stop  offset="1" style="stop-color:#9F6E5C"/>
		</linearGradient>
		<rect x="68.1" y="764" class="st20" width="3.9" height="74"/>
	</g>
	<g>
		<g>
			<path class="st21" d="M131.7,775.2v-0.5h10.5v0.5l-3,0.7l7.2,25.7l7.2-27.7h0.7l8.2,27.7l6.5-25.2l-3.2-1.2v-0.5h7.5v0.5
				l-3.2,1.2l-8.7,33.9h-0.7l-8.2-27.9l-7.2,27.9h-0.7l-9.7-34.4L131.7,775.2z"/>
			<path class="st21" d="M180.6,798.2c0,2.1,0.2,3.9,0.5,5.3c0.3,1.4,0.7,2.6,1.2,3.5c0.5,0.9,1.1,1.5,1.7,1.9
				c0.6,0.4,1.3,0.5,2,0.5c0.9,0,1.7-0.2,2.4-0.5s1.4-0.8,2-1.3c0.6-0.6,1.1-1.2,1.5-2c0.4-0.8,0.6-1.7,0.8-2.6h0.7
				c-0.1,1.1-0.4,2.1-0.9,3c-0.4,0.9-1,1.7-1.7,2.4c-0.7,0.7-1.5,1.2-2.4,1.6c-0.9,0.4-1.9,0.6-3,0.6c-1.3,0-2.5-0.3-3.6-0.8
				c-1.1-0.5-2.1-1.3-3-2.4c-0.9-1-1.6-2.3-2.1-3.8c-0.5-1.5-0.8-3.2-0.8-5.2c0-2,0.2-3.8,0.7-5.3s1.2-2.8,2-3.8
				c0.8-1,1.8-1.8,2.8-2.3c1.1-0.5,2.2-0.8,3.4-0.8c1.2,0,2.3,0.3,3.4,0.8c1.1,0.5,2,1.3,2.8,2.3c0.8,1,1.5,2.3,2,3.8
				c0.5,1.5,0.7,3.3,0.7,5.3H180.6z M185.1,786.7c-0.5,0-1,0.2-1.5,0.5c-0.5,0.3-1,0.9-1.4,1.7c-0.4,0.8-0.8,1.9-1.1,3.2
				c-0.3,1.3-0.5,3.1-0.5,5.1h9c-0.1-2.1-0.2-3.8-0.5-5.1c-0.3-1.3-0.6-2.4-1.1-3.2c-0.4-0.8-0.9-1.4-1.4-1.7
				C186.1,786.9,185.6,786.7,185.1,786.7z"/>
			<path class="st21" d="M202.1,808.4V776l-3-0.7v-0.5h7v33.7l3,0.7v0.5h-10v-0.5L202.1,808.4z"/>
			<path class="st21" d="M216.3,808.4V776l-3-0.7v-0.5h7v33.7l3,0.7v0.5h-10v-0.5L216.3,808.4z"/>
			<path class="st21" d="M237,774.7c2.2,0,4.2,0.4,6.1,1.2c1.8,0.8,3.5,1.9,4.8,3.4c1.4,1.5,2.4,3.3,3.2,5.5
				c0.8,2.2,1.1,4.6,1.1,7.3c0,2.8-0.4,5.2-1.1,7.4c-0.8,2.2-1.8,4-3.2,5.5c-1.4,1.5-3,2.6-4.8,3.4c-1.8,0.8-3.9,1.2-6.1,1.2h-8.7
				v-0.5l3-0.7V776l-3-0.7v-0.5H237z M235.5,775.7v32.9h1.5c1.4,0,2.8-0.3,4.1-0.9c1.3-0.6,2.4-1.6,3.3-2.9c0.9-1.3,1.7-3,2.2-5.1
				c0.5-2.1,0.8-4.6,0.8-7.5c0-2.9-0.3-5.4-0.8-7.5c-0.5-2.1-1.3-3.8-2.2-5.1c-0.9-1.3-2.1-2.3-3.3-2.9c-1.3-0.6-2.6-0.9-4.1-0.9
				H235.5z"/>
			<path class="st21" d="M267.2,786c1.2,0,2.4,0.3,3.6,0.8c1.1,0.5,2.2,1.3,3,2.4s1.6,2.3,2.1,3.8c0.5,1.5,0.8,3.2,0.8,5.2
				s-0.3,3.7-0.8,5.2c-0.5,1.5-1.2,2.8-2.1,3.8s-1.9,1.8-3,2.4c-1.1,0.5-2.3,0.8-3.6,0.8c-1.3,0-2.5-0.3-3.6-0.8
				c-1.1-0.5-2.1-1.3-3-2.4s-1.6-2.3-2.1-3.8c-0.5-1.5-0.8-3.2-0.8-5.2s0.3-3.7,0.8-5.2c0.5-1.5,1.2-2.8,2.1-3.8s1.9-1.8,3-2.4
				C264.7,786.2,265.9,786,267.2,786z M267.2,786.7c-0.6,0-1.1,0.2-1.7,0.6c-0.6,0.4-1.1,1-1.6,1.9c-0.5,0.9-0.9,2.1-1.2,3.5
				c-0.3,1.5-0.5,3.3-0.5,5.5s0.2,4,0.5,5.5c0.3,1.5,0.7,2.6,1.2,3.5s1,1.5,1.6,1.9c0.6,0.4,1.2,0.6,1.7,0.6c0.6,0,1.1-0.2,1.7-0.6
				c0.6-0.4,1.1-1,1.6-1.9c0.5-0.9,0.9-2.1,1.2-3.5c0.3-1.5,0.5-3.3,0.5-5.5s-0.2-4-0.5-5.5c-0.3-1.5-0.7-2.6-1.2-3.5
				c-0.5-0.9-1-1.5-1.6-1.9C268.3,786.9,267.8,786.7,267.2,786.7z"/>
			<path class="st21" d="M285.2,808.4V788l-3-0.7v-0.5h7v3c0.3-0.7,0.8-1.3,1.3-1.8c0.5-0.5,1.1-0.9,1.8-1.3
				c0.7-0.4,1.6-0.6,2.6-0.6c1.3,0,2.3,0.2,3.1,0.7c0.8,0.5,1.5,1,2,1.5c0.6,0.7,1.1,1.4,1.4,2.2c0.4-0.8,0.9-1.6,1.5-2.2
				c0.5-0.6,1.2-1.1,1.9-1.5c0.8-0.5,1.7-0.7,2.7-0.7c1,0,1.9,0.2,2.8,0.5c0.8,0.4,1.6,0.9,2.2,1.5c0.6,0.6,1.1,1.4,1.5,2.3
				c0.3,0.9,0.5,1.9,0.5,3.1v15l3,0.7v0.5h-9.7v-0.5l2.7-0.7v-15c0-2.4-0.4-4-1.1-5c-0.7-1-1.6-1.5-2.6-1.5c-0.8,0-1.5,0.2-2.1,0.7
				c-0.6,0.5-1.1,1-1.5,1.5c-0.5,0.7-0.9,1.4-1.3,2.2v17l2.7,0.7v0.5h-9.5v-0.5l2.7-0.7v-15c0-2.4-0.4-4-1.1-5
				c-0.7-1-1.6-1.5-2.6-1.5c-0.8,0-1.5,0.2-2.1,0.7c-0.6,0.5-1.1,1-1.5,1.5c-0.5,0.7-0.9,1.4-1.3,2.2v17l2.7,0.7v0.5h-9.7v-0.5
				L285.2,808.4z"/>
		</g>
	</g>
</g>
<g>
	<g>
		<rect x="743.7" y="745.3" class="st0" width="3.9" height="74"/>
		<rect x="788.4" y="745.3" class="st0" width="3.9" height="74"/>
		<rect x="755" y="754.7" class="st0" width="3.9" height="74"/>
		<rect x="777.3" y="754.7" class="st0" width="3.9" height="74"/>
		<rect x="766.2" y="764" class="st0" width="3.9" height="74"/>
		<rect x="833" y="745.3" class="st0" width="3.9" height="74"/>
		<rect x="799.6" y="754.7" class="st0" width="3.9" height="74"/>
		<rect x="821.9" y="754.7" class="st0" width="3.9" height="74"/>
		<rect x="810.7" y="764" class="st0" width="3.9" height="74"/>
	</g>
	<g>
		<g>
			<path class="st0" d="M874.4,775.2v-0.5h10.5v0.5l-3,0.7l7.2,25.7l7.2-27.7h0.7l8.2,27.7l6.5-25.2l-3.2-1.2v-0.5h7.5v0.5l-3.2,1.2
				l-8.7,33.9h-0.7l-8.2-27.9l-7.2,27.9h-0.7l-9.7-34.4L874.4,775.2z"/>
			<path class="st0" d="M923.3,798.2c0,2.1,0.2,3.9,0.5,5.3c0.3,1.4,0.7,2.6,1.2,3.5c0.5,0.9,1.1,1.5,1.7,1.9c0.6,0.4,1.3,0.5,2,0.5
				c0.9,0,1.7-0.2,2.4-0.5c0.8-0.3,1.4-0.8,2-1.3c0.6-0.6,1.1-1.2,1.5-2c0.4-0.8,0.6-1.7,0.8-2.6h0.7c-0.1,1.1-0.4,2.1-0.9,3
				c-0.4,0.9-1,1.7-1.7,2.4c-0.7,0.7-1.5,1.2-2.4,1.6c-0.9,0.4-1.9,0.6-3,0.6c-1.3,0-2.5-0.3-3.6-0.8c-1.1-0.5-2.1-1.3-3-2.4
				c-0.9-1-1.6-2.3-2.1-3.8c-0.5-1.5-0.8-3.2-0.8-5.2c0-2,0.2-3.8,0.7-5.3c0.5-1.5,1.2-2.8,2-3.8c0.8-1,1.8-1.8,2.8-2.3
				c1.1-0.5,2.2-0.8,3.4-0.8c1.2,0,2.3,0.3,3.4,0.8c1.1,0.5,2,1.3,2.8,2.3c0.8,1,1.5,2.3,2,3.8c0.5,1.5,0.7,3.3,0.7,5.3H923.3z
				 M927.8,786.7c-0.5,0-1,0.2-1.5,0.5s-1,0.9-1.4,1.7c-0.4,0.8-0.8,1.9-1.1,3.2c-0.3,1.3-0.5,3.1-0.5,5.1h9
				c-0.1-2.1-0.2-3.8-0.5-5.1c-0.3-1.3-0.6-2.4-1.1-3.2c-0.4-0.8-0.9-1.4-1.4-1.7S928.3,786.7,927.8,786.7z"/>
			<path class="st0" d="M944.7,808.4V776l-3-0.7v-0.5h7v33.7l3,0.7v0.5h-10v-0.5L944.7,808.4z"/>
			<path class="st0" d="M959,808.4V776l-3-0.7v-0.5h7v33.7l3,0.7v0.5h-10v-0.5L959,808.4z"/>
			<path class="st0" d="M979.7,774.7c2.2,0,4.2,0.4,6.1,1.2c1.8,0.8,3.5,1.9,4.8,3.4c1.4,1.5,2.4,3.3,3.2,5.5
				c0.8,2.2,1.1,4.6,1.1,7.3c0,2.8-0.4,5.2-1.1,7.4c-0.8,2.2-1.8,4-3.2,5.5c-1.4,1.5-3,2.6-4.8,3.4c-1.8,0.8-3.9,1.2-6.1,1.2h-8.7
				v-0.5l3-0.7V776l-3-0.7v-0.5H979.7z M978.2,775.7v32.9h1.5c1.4,0,2.8-0.3,4.1-0.9c1.3-0.6,2.4-1.6,3.3-2.9c0.9-1.3,1.7-3,2.2-5.1
				s0.8-4.6,0.8-7.5c0-2.9-0.3-5.4-0.8-7.5c-0.5-2.1-1.3-3.8-2.2-5.1c-0.9-1.3-2.1-2.3-3.3-2.9c-1.3-0.6-2.6-0.9-4.1-0.9H978.2z"/>
			<path class="st0" d="M1009.9,786c1.2,0,2.4,0.3,3.6,0.8c1.1,0.5,2.2,1.3,3,2.4c0.9,1,1.6,2.3,2.1,3.8c0.5,1.5,0.8,3.2,0.8,5.2
				c0,1.9-0.3,3.7-0.8,5.2c-0.5,1.5-1.2,2.8-2.1,3.8c-0.9,1-1.9,1.8-3,2.4s-2.3,0.8-3.6,0.8c-1.3,0-2.5-0.3-3.6-0.8
				c-1.1-0.5-2.1-1.3-3-2.4c-0.9-1-1.6-2.3-2.1-3.8c-0.5-1.5-0.8-3.2-0.8-5.2c0-1.9,0.3-3.7,0.8-5.2c0.5-1.5,1.2-2.8,2.1-3.8
				c0.9-1,1.9-1.8,3-2.4C1007.4,786.2,1008.6,786,1009.9,786z M1009.9,786.7c-0.6,0-1.1,0.2-1.7,0.6s-1.1,1-1.6,1.9
				c-0.5,0.9-0.9,2.1-1.2,3.5c-0.3,1.5-0.5,3.3-0.5,5.5c0,2.2,0.2,4,0.5,5.5c0.3,1.5,0.7,2.6,1.2,3.5c0.5,0.9,1,1.5,1.6,1.9
				c0.6,0.4,1.2,0.6,1.7,0.6c0.6,0,1.1-0.2,1.7-0.6c0.6-0.4,1.1-1,1.6-1.9c0.5-0.9,0.9-2.1,1.2-3.5c0.3-1.5,0.5-3.3,0.5-5.5
				c0-2.2-0.2-4-0.5-5.5c-0.3-1.5-0.7-2.6-1.2-3.5c-0.5-0.9-1-1.5-1.6-1.9C1011,786.9,1010.4,786.7,1009.9,786.7z"/>
			<path class="st0" d="M1027.8,808.4V788l-3-0.7v-0.5h7v3c0.3-0.7,0.8-1.3,1.3-1.8c0.5-0.5,1.1-0.9,1.8-1.3
				c0.7-0.4,1.6-0.6,2.6-0.6c1.3,0,2.3,0.2,3.1,0.7c0.8,0.5,1.5,1,2,1.5c0.6,0.7,1.1,1.4,1.4,2.2c0.4-0.8,0.9-1.6,1.5-2.2
				c0.5-0.6,1.2-1.1,1.9-1.5c0.8-0.5,1.7-0.7,2.7-0.7c1,0,1.9,0.2,2.8,0.5c0.8,0.4,1.6,0.9,2.2,1.5c0.6,0.6,1.1,1.4,1.5,2.3
				s0.5,1.9,0.5,3.1v15l3,0.7v0.5h-9.7v-0.5l2.7-0.7v-15c0-2.4-0.4-4-1.1-5c-0.7-1-1.6-1.5-2.6-1.5c-0.8,0-1.5,0.2-2.1,0.7
				c-0.6,0.5-1.1,1-1.5,1.5c-0.5,0.7-0.9,1.4-1.3,2.2v17l2.7,0.7v0.5h-9.5v-0.5l2.7-0.7v-15c0-2.4-0.4-4-1.1-5
				c-0.7-1-1.6-1.5-2.6-1.5c-0.8,0-1.5,0.2-2.1,0.7s-1.1,1-1.5,1.5c-0.5,0.7-0.9,1.4-1.3,2.2v17l2.7,0.7v0.5h-9.7v-0.5L1027.8,808.4
				z"/>
		</g>
	</g>
</g>
</svg>
