<?xml version="1.0" encoding="utf-8"?>
<!-- Generator: Adobe Illustrator 22.0.1, SVG Export Plug-In . SVG Version: 6.00 Build 0)  -->
<svg version="1.1" id="Слой_1" xmlns="http://www.w3.org/2000/svg" xmlns:xlink="http://www.w3.org/1999/xlink" x="0px" y="0px"
	 viewBox="0 0 747 403.3" style="enable-background:new 0 0 747 403.3;" xml:space="preserve">
<style type="text/css">
	.st0{fill:none;}
	.st1{fill:#E09480;}
	.st2{fill:#F9E1DC;}
	.st3{fill:#B7674B;stroke:#825441;stroke-linecap:round;stroke-linejoin:round;stroke-miterlimit:10;}
	.st4{fill:#E09480;stroke:#825441;stroke-linecap:round;stroke-linejoin:round;stroke-miterlimit:10;}
	.st5{fill:#F9E1DC;stroke:#825441;stroke-linecap:round;stroke-linejoin:round;stroke-miterlimit:10;}
	.st6{fill:#FFFFFF;stroke:#825441;stroke-linecap:round;stroke-linejoin:round;stroke-miterlimit:10;}
	.st7{fill:#F2C2B8;stroke:#825441;stroke-linecap:round;stroke-linejoin:round;stroke-miterlimit:10;}
	.st8{fill:url(#SVGID_1_);stroke:#825441;stroke-linecap:round;stroke-linejoin:round;stroke-miterlimit:10;}
	.st9{fill:url(#SVGID_2_);stroke:#825441;stroke-linecap:round;stroke-linejoin:round;stroke-miterlimit:10;}
	.st10{fill:url(#SVGID_3_);stroke:#825441;stroke-linecap:round;stroke-linejoin:round;stroke-miterlimit:10;}
	.st11{fill:url(#SVGID_4_);stroke:#825441;stroke-linecap:round;stroke-linejoin:round;stroke-miterlimit:10;}
	.st12{fill:url(#SVGID_5_);stroke:#825441;stroke-linecap:round;stroke-linejoin:round;stroke-miterlimit:10;}
	.st13{fill:url(#SVGID_6_);stroke:#825441;stroke-linecap:round;stroke-linejoin:round;stroke-miterlimit:10;}
	.st14{fill:url(#SVGID_7_);stroke:#825441;stroke-linecap:round;stroke-linejoin:round;stroke-miterlimit:10;}
	.st15{fill:url(#SVGID_8_);stroke:#825441;stroke-linecap:round;stroke-linejoin:round;stroke-miterlimit:10;}
	.st16{fill:url(#SVGID_9_);}
	.st17{fill:url(#SVGID_10_);}
	.st18{fill:url(#SVGID_11_);}
	.st19{fill:url(#SVGID_12_);}
	.st20{fill:url(#SVGID_13_);}
	.st21{fill:url(#SVGID_14_);}
	.st22{fill:url(#SVGID_15_);}
	.st23{fill:url(#SVGID_16_);}
	.st24{fill:url(#SVGID_17_);}
	.st25{fill:url(#SVGID_18_);}
	.st26{fill:url(#SVGID_19_);}
</style>
<pattern  x="-266" y="551.8" width="11" height="11" patternUnits="userSpaceOnUse" id="Новый_образец_уз" viewBox="1.1 -12 11 11" style="overflow:visible;">
	<g>
		<rect x="1.1" y="-12" class="st0" width="11" height="11"/>
		<g>
			<rect x="1.1" y="-12" class="st0" width="11" height="11"/>
			<g>
				<path class="st1" d="M11.2-12.2c0-0.5,0.4-0.9,0.9-0.9s0.9,0.4,0.9,0.9s-0.4,0.9-0.9,0.9S11.2-11.7,11.2-12.2z"/>
				<path class="st1" d="M12.2-13.1c0.5,0,0.9,0.4,0.9,0.9s-0.4,0.9-0.9,0.9s-0.9-0.4-0.9-0.9C11.2-12.7,11.7-13.1,12.2-13.1z"/>
			</g>
			<g>
				<path class="st1" d="M11-12.2c0-0.5,0.4-0.9,0.9-0.9s0.9,0.4,0.9,0.9s-0.4,0.9-0.9,0.9C11.4-11.2,11-11.7,11-12.2z"/>
				<path class="st1" d="M7.4-12.2c0-0.5,0.4-0.9,0.9-0.9s0.9,0.4,0.9,0.9s-0.4,0.9-0.9,0.9C7.8-11.2,7.4-11.7,7.4-12.2z"/>
				<path class="st1" d="M3.8-12.2c0-0.5,0.4-0.9,1-0.9c0.5,0,0.9,0.4,0.9,0.9s-0.4,0.9-0.9,0.9C4.2-11.2,3.8-11.7,3.8-12.2z"/>
				<path class="st1" d="M0.2-12.2c0-0.5,0.5-0.9,1-0.9s0.9,0.4,0.9,0.9s-0.4,0.9-0.9,0.9S0.2-11.7,0.2-12.2z"/>
				<path class="st1" d="M11.9-13.1c0.5,0,0.9,0.4,0.9,0.9s-0.4,0.9-0.9,0.9S11-11.7,11-12.2S11.4-13.1,11.9-13.1z"/>
				<path class="st1" d="M8.3-13.1c0.5,0,0.9,0.4,0.9,0.9s-0.4,0.9-0.9,0.9s-0.9-0.4-0.9-0.9S7.8-13.1,8.3-13.1z"/>
				<path class="st1" d="M4.8-13.1c0.5,0,0.9,0.4,0.9,0.9s-0.4,0.9-0.9,0.9s-0.9-0.4-0.9-0.9C3.8-12.7,4.2-13.1,4.8-13.1z"/>
				<path class="st1" d="M1.2-13.1c0.5,0,0.9,0.4,0.9,0.9s-0.4,0.9-0.9,0.9s-1-0.4-1-0.9S0.7-13.1,1.2-13.1z"/>
			</g>
			<g>
				<path class="st1" d="M0-12.2c0-0.5,0.4-0.9,0.9-0.9s0.9,0.4,0.9,0.9s-0.4,0.9-0.9,0.9C0.4-11.2,0-11.7,0-12.2z"/>
				<path class="st1" d="M0.9-13.1c0.5,0,0.9,0.4,0.9,0.9s-0.4,0.9-0.9,0.9C0.4-11.2,0-11.7,0-12.2S0.4-13.1,0.9-13.1z"/>
			</g>
			<g>
				<path class="st1" d="M11.2-1.2c0-0.5,0.4-0.9,0.9-0.9S13-1.7,13-1.2s-0.4,0.9-0.9,0.9S11.2-0.7,11.2-1.2z"/>
				<path class="st1" d="M12.2-2.1c0.5,0,0.9,0.4,0.9,0.9s-0.4,0.9-0.9,0.9s-0.9-0.4-0.9-0.9C11.2-1.7,11.7-2.1,12.2-2.1z"/>
				<path class="st1" d="M12.2-5.7c0.5,0,0.9,0.4,0.9,0.9s-0.4,0.9-0.9,0.9s-0.9-0.4-0.9-0.9S11.7-5.7,12.2-5.7z"/>
				<path class="st1" d="M12.2-9.3c0.5,0,0.9,0.4,0.9,0.9s-0.4,0.9-0.9,0.9s-0.9-0.4-0.9-0.9C11.2-8.9,11.7-9.3,12.2-9.3z"/>
				<circle class="st1" cx="12.2" cy="-11.9" r="0.9"/>
			</g>
			<g>
				<path class="st1" d="M11-1.2c0-0.5,0.4-0.9,0.9-0.9s0.9,0.4,0.9,0.9s-0.4,0.9-0.9,0.9C11.4-0.2,11-0.7,11-1.2z"/>
				<path class="st1" d="M7.4-1.2c0-0.5,0.4-0.9,0.9-0.9s0.9,0.4,0.9,0.9S8.8-0.3,8.3-0.3C7.8-0.2,7.4-0.7,7.4-1.2z"/>
				<path class="st1" d="M3.8-1.2c0-0.5,0.4-0.9,0.9-0.9s0.9,0.4,0.9,0.9S5.2-0.3,4.7-0.3C4.2-0.2,3.8-0.7,3.8-1.2z"/>
				<path class="st1" d="M0.2-1.2c0-0.5,0.4-0.9,0.9-0.9S2-1.7,2-1.2S1.6-0.3,1.1-0.3S0.2-0.7,0.2-1.2z"/>
				<path class="st1" d="M11.9-2.1c0.5,0,0.9,0.4,0.9,0.9s-0.4,0.9-0.9,0.9S11-0.7,11-1.2S11.4-2.1,11.9-2.1z"/>
				<path class="st1" d="M11.9-5.7c0.5,0,0.9,0.4,0.9,0.9s-0.4,0.9-0.9,0.9S11-4.3,11-4.8S11.4-5.7,11.9-5.7z"/>
				<path class="st1" d="M11.9-9.3c0.5,0,0.9,0.4,0.9,0.9s-0.4,0.9-0.9,0.9S11-7.9,11-8.4S11.4-9.3,11.9-9.3z"/>
				<circle class="st1" cx="11.9" cy="-11.9" r="0.9"/>
				<path class="st1" d="M8.3-2.1c0.5,0,0.9,0.4,0.9,0.9S8.8-0.3,8.3-0.3S7.4-0.7,7.4-1.2S7.8-2.1,8.3-2.1z"/>
				<path class="st1" d="M8.3-5.7c0.5,0,0.9,0.4,0.9,0.9s-0.3,1-0.9,1c-0.5,0-0.9-0.4-0.9-0.9S7.8-5.7,8.3-5.7z"/>
				<path class="st1" d="M8.3-9.3c0.5,0,0.9,0.4,0.9,0.9S8.8-7.5,8.3-7.5S7.4-7.9,7.4-8.4S7.8-9.3,8.3-9.3z"/>
				<path class="st1" d="M8.3-12.9c0.5,0,0.9,0.4,0.9,0.9s-0.4,0.9-0.9,0.9S7.4-11.5,7.4-12C7.4-12.4,7.8-12.9,8.3-12.9z"/>
				<path class="st1" d="M4.8-2.1c0.5,0,0.9,0.4,0.9,0.9S5.3-0.3,4.8-0.3S3.9-0.7,3.9-1.2C3.8-1.7,4.2-2.1,4.8-2.1z"/>
				<path class="st1" d="M4.8-5.7c0.5,0,0.9,0.4,0.9,0.9s-0.4,1-0.9,1S3.9-4.2,3.9-4.7S4.2-5.7,4.8-5.7z"/>
				<path class="st1" d="M4.8-9.3c0.5,0,0.9,0.4,0.9,0.9S5.3-7.5,4.8-7.5S3.9-7.9,3.9-8.4C3.8-8.9,4.2-9.3,4.8-9.3z"/>
				<path class="st1" d="M4.8-12.9c0.5,0,0.9,0.4,0.9,0.9s-0.4,0.9-0.9,0.9S3.9-11.5,3.9-12C3.8-12.4,4.2-12.9,4.8-12.9z"/>
				<path class="st1" d="M1.2-2.1c0.5,0,0.9,0.4,0.9,0.9S1.7-0.3,1.2-0.3S0.3-0.7,0.3-1.2C0.2-1.7,0.7-2.1,1.2-2.1z"/>
				<path class="st1" d="M1.2-5.7c0.5,0,0.9,0.4,0.9,0.9s-0.4,1-0.9,1s-1-0.4-1-1S0.7-5.7,1.2-5.7z"/>
				<path class="st1" d="M1.2-9.3c0.5,0,0.9,0.4,0.9,0.9S1.7-7.5,1.2-7.5s-1-0.3-1-0.8C0.2-8.9,0.7-9.3,1.2-9.3z"/>
				<circle class="st1" cx="1.2" cy="-11.9" r="0.9"/>
			</g>
			<g>
				<path class="st1" d="M0-1.2c0-0.5,0.4-0.9,0.9-0.9s0.9,0.4,0.9,0.9S1.4-0.3,0.9-0.3C0.4-0.2,0-0.7,0-1.2z"/>
				<path class="st1" d="M0.9-2.1c0.5,0,0.9,0.4,0.9,0.9S1.4-0.3,0.9-0.3S0-0.7,0-1.2S0.4-2.1,0.9-2.1z"/>
				<path class="st1" d="M0.9-5.7c0.5,0,0.9,0.4,0.9,0.9s-0.4,1-0.9,1S0-4.2,0-4.8S0.4-5.7,0.9-5.7z"/>
				<path class="st1" d="M0.9-9.3c0.5,0,0.9,0.4,0.9,0.9S1.4-7.5,0.9-7.5C0.4-7.4,0-7.8,0-8.3C0-8.9,0.4-9.3,0.9-9.3z"/>
				<circle class="st1" cx="0.9" cy="-11.9" r="0.9"/>
			</g>
			<g>
				<circle class="st1" cx="12.2" cy="-0.9" r="0.9"/>
			</g>
			<g>
				<circle class="st1" cx="11.9" cy="-0.9" r="0.9"/>
				<path class="st1" d="M8.3-1.9c0.5,0,0.9,0.4,0.9,0.9S8.8-0.1,8.3-0.1S7.4-0.5,7.4-1C7.4-1.4,7.8-1.9,8.3-1.9z"/>
				<path class="st1" d="M4.8-1.9c0.5,0,0.9,0.4,0.9,0.9S5.3-0.1,4.8-0.1S3.9-0.5,3.9-1C3.8-1.4,4.2-1.9,4.8-1.9z"/>
				<circle class="st1" cx="1.2" cy="-0.9" r="0.9"/>
			</g>
			<g>
				<circle class="st1" cx="0.9" cy="-0.9" r="0.9"/>
			</g>
		</g>
	</g>
</pattern>
<path class="st2" d="M724,191.1l-73.8-42.6c-1.2-0.9-2.4-1.7-3.7-2.5L463.7,40.5c-23.8-13.7-53.1-13.7-76.9,0.1l-44.3,25.6
	c-15.7,9.1-35.1,9.1-50.8,0l-26.8-15.5c-29-16.7-64.6-16.7-93.5,0.1L28.5,133.5c-28.9,16.7-28.9,58.5,0,75.2l14.2,8.2
	c9.1,5.2,8.7,18.5-0.7,23.2l0,0c-22.5,11.3-23.5,43.1-1.7,55.7l154.9,89.4c40,23.1,89.2,23.1,129.1,0l25.9-15
	c16.7-9.7,37.4-9.7,54.1,0l25.8,14.9c23.2,13.4,51.7,13.4,74.9,0l219-126.3C750.1,243.8,750.1,206.2,724,191.1z"/>
<g>
	<path class="st3" d="M393.1,66.2v31.1c0,2.1,2,3.8,4.4,3.8s4.4-1.7,4.4-3.8V66.2H393.1z"/>
	<ellipse class="st4" cx="397.6" cy="66.2" rx="4.4" ry="3.8"/>
	<path class="st5" d="M397.6,13.8c-1.1,0-1.9,0.7-1.9,1.7V66c0,0.9,0.9,1.7,1.9,1.7c1.1,0,1.9-0.7,1.9-1.7V15.5
		C399.5,14.5,398.6,13.8,397.6,13.8z"/>
	<path class="st3" d="M402,15.4c0,2.1-2,3.8-4.4,3.8s-4.4-1.7-4.4-3.8s2-3.8,4.4-3.8S402,13.3,402,15.4z"/>
	<ellipse class="st6" cx="397.6" cy="9" rx="8" ry="8"/>
</g>
<path class="st5" d="M350.5,99.9c0-3.2,0.5-12.6-5.9-12.6l-32-2.3l-32.3-7.3c-5-1.1-10.1-1.7-15.2-1.7c-12,0-23.8,3.1-34.2,9.1
	l-2.4,1.4l0,0c-1.5,0.9-3.3,0.8-4.8,0l-14.9-8.7c-0.1-0.1-0.2-0.2-0.3-0.2l-0.3,22.9l20,11.6l2.6-1.5c10.4-5.9,22.2-9.1,34.2-9.1
	c5.1,0,10.2,0.6,15.2,1.7l32.3,7.3l37.9,2.7l-0.1-0.2V99.9H350.5z"/>
<path class="st3" d="M380.9,75.5c0-6.1-5.2-6.1-7.1-6.2l-28.4,18l0,0c4.7,0.7,5.1,7.2,5.1,10.9l0.2,0.3l0,0l0,0l0.1,14.5l30.4-17.8
	C381.2,95.3,380.9,73.2,380.9,75.5z"/>
<path class="st7" d="M345.4,87.3l28.4-18l0,0l-58.2-4.1l-30.8-7c-6.4-1.5-13-2.2-19.6-2.2c-15.4,0-30.7,4.1-44.1,11.7L209,74.6l0,0
	c-0.1,0-0.1,0.1-0.1,0.1l-0.2,0.1l0,0c-0.9,0.8-0.8,2.3,0.3,2.9l14.9,8.7c1.5,0.9,3.3,0.9,4.8,0l0,0l2.4-1.4
	c10.4-5.9,22.2-9.1,34.2-9.1c5.1,0,10.2,0.6,15.2,1.7l32.3,7.3L345.4,87.3L345.4,87.3z"/>
<path class="st3" d="M210.9,171l20.5,12.3c14.1,8.4,30.1,12.9,46.5,12.9h42.5c8.5,0,17,0.8,25.3,2.3l32.1,6
	c7.5,1.4,13,7.6,13.6,15.2l0,0c0.5,6.3,2.3,12.4,5.3,17.9l8.4,15.4c1.1,2,5.3,8.6,10.2,16.1c20,30.8,54.6,49.5,91.3,48.4
	c13.4-0.4,26.8-2.8,39.8-7.4l0.5-0.2c25.1-8.7,46-26.4,58.9-49.6l0,0c10-18.1,6-40.7-9.6-54.2l-29.8-25.8
	c-13.8-11.9-29.7-21.1-47-27.1l-46-15.8c-15.9-5.5-32.4-8.8-49.1-10l-112.8-8l-32.9-7.5c-14.6-3.3-29.9-1-42.9,6.4l-24.2,13.9
	C196.3,140.7,196.1,162.2,210.9,171z"/>
<g>
	
		<pattern  id="SVGID_1_" xlink:href="#РќРѕРІС‹Р№_РѕР±СЂР°Р·РµС†_СѓР·" patternTransform="matrix(1 0 0 -1 -944.2 -15890.0996)">
	</pattern>
	<path class="st8" d="M596.1,206.1c0.5,0.5,1,0.9,1.5,1.4C597.1,207,596.6,206.5,596.1,206.1z"/>
	
		<pattern  id="SVGID_2_" xlink:href="#РќРѕРІС‹Р№_РѕР±СЂР°Р·РµС†_СѓР·" patternTransform="matrix(1 0 0 -1 -944.2 -15890.0996)">
	</pattern>
	<path class="st9" d="M558.3,173.8c1.8,1.4,3.6,2.8,5.4,4.2C561.9,176.6,560.1,175.2,558.3,173.8z"/>
	
		<pattern  id="SVGID_3_" xlink:href="#РќРѕРІС‹Р№_РѕР±СЂР°Р·РµС†_СѓР·" patternTransform="matrix(1 0 0 -1 -944.2 -15890.0996)">
	</pattern>
	<path class="st10" d="M581.2,193.2l-14.9-12.9c-0.9-0.7-1.7-1.5-2.6-2.2c0.9,0.7,1.7,1.5,2.6,2.2L581.2,193.2z"/>
	
		<pattern  id="SVGID_4_" xlink:href="#РќРѕРІС‹Р№_РѕР±СЂР°Р·РµС†_СѓР·" patternTransform="matrix(1 0 0 -1 -944.2 -15890.0996)">
	</pattern>
	<path class="st11" d="M552.7,169.9c1.9,1.3,3.7,2.6,5.6,4C556.5,172.5,554.6,171.2,552.7,169.9z"/>
	
		<pattern  id="SVGID_5_" xlink:href="#РќРѕРІС‹Р№_РѕР±СЂР°Р·РµС†_СѓР·" patternTransform="matrix(1 0 0 -1 -944.2 -15890.0996)">
	</pattern>
	<path class="st12" d="M211.3,132.2l24.2-13.9c8.9-5.1,19-7.8,29.1-7.9c-10.1,0.1-20.2,2.8-29.1,7.9L211.3,132.2
		c-4.7,2.7-7.9,6.6-9.7,11C203.3,138.8,206.6,134.8,211.3,132.2z"/>
	
		<pattern  id="SVGID_6_" xlink:href="#РќРѕРІС‹Р№_РѕР±СЂР°Р·РµС†_СѓР·" patternTransform="matrix(1 0 0 -1 -944.2 -15890.0996)">
	</pattern>
	<path class="st13" d="M597.6,207.5c0.5,0.5,1,0.9,1.4,1.4c-10.1,19.6-26,35.8-45.7,46.2l-0.5,0.3c-12.1,6.4-25,10.8-38.3,13.2
		c-36.2,6.6-73.1-6.7-97.5-34.2c-5.9-6.7-11-12.5-12.4-14.4L394,206c-3.8-5-6.5-10.8-7.9-16.9c-1.7-7.4-8.1-12.7-15.7-13l-32.6-1.2
		c-8.5-0.3-17,0.2-25.4,1.5l-42.1,6.3c-16.2,2.4-32.8,0.4-47.9-5.8l-5.9-2.4l14.6,8.8c14.1,8.4,30.1,12.9,46.5,12.9h42.5
		c8.5,0,17,0.8,25.3,2.3l32.1,6c7.5,1.4,13,7.6,13.6,15.2c0.5,6.3,2.3,12.4,5.3,17.9l8.4,15.4c1.1,2,5.3,8.6,10.2,16.1
		c20,30.8,54.6,49.5,91.3,48.4c13.4-0.4,26.8-2.8,39.8-7.4l0.5-0.2c25.1-8.7,46-26.4,58.9-49.6l0,0
		C615.4,242.8,611.9,221.2,597.6,207.5z"/>
	
		<pattern  id="SVGID_7_" xlink:href="#РќРѕРІС‹Р№_РѕР±СЂР°Р·РµС†_СѓР·" patternTransform="matrix(1 0 0 -1 -944.2 -15890.0996)">
	</pattern>
	<path class="st14" d="M519.3,153.2c4.3,1.5,8.5,3.2,12.7,5.1C527.8,156.4,523.6,154.7,519.3,153.2l-23-7.9L519.3,153.2z"/>
	
		<pattern  id="SVGID_8_" xlink:href="#РќРѕРІС‹Р№_РѕР±СЂР°Р·РµС†_СѓР·" patternTransform="matrix(1 0 0 -1 -944.2 -15890.0996)">
	</pattern>
	<polygon class="st15" points="311.3,119.3 424.2,127.3 311.3,119.3 294.9,115.6 	"/>
</g>
<path class="st2" d="M552.8,93C383.9,116.3,315,288.4,156.5,363.2l-60.7-34.9C254.3,253.5,323.2,81.4,492.1,58L552.8,93z"/>
<g>
	
		<pattern  id="SVGID_9_" xlink:href="#РќРѕРІС‹Р№_РѕР±СЂР°Р·РµС†_СѓР·" patternTransform="matrix(1 0 0 -1 -944.2 -15890.0996)">
	</pattern>
	<ellipse class="st16" cx="180.2" cy="120.6" rx="16.5" ry="13.4"/>
	<g>
		<ellipse class="st6" cx="188.7" cy="113.2" rx="19.6" ry="19.6"/>
		<path class="st2" d="M196.3,104.3c-1.7,1.7-4.6,1.7-6.3,0c-1.7-1.7-1.7-4.6,0-6.3s4.6-1.7,6.3,0
			C198.1,99.8,198.1,102.6,196.3,104.3z"/>
		<path class="st4" d="M188.7,127.1c-10.3,0-18.7-6.8-19.6-15.5c0,0.5-0.1,1.1-0.1,1.6c0,10.8,8.8,19.6,19.6,19.6
			c10.8,0,19.6-8.8,19.6-19.6c0-0.5,0-1.1-0.1-1.6C207.4,120.3,199,127.1,188.7,127.1z"/>
	</g>
</g>
<path class="st4" d="M156.5,358.2C315,283.4,383.9,111.3,552.8,87.9v5C383.9,116.3,315,288.4,156.5,363.2V358.2z"/>
<path class="st4" d="M95.8,323.5C254.3,248.7,323.2,76.6,492.1,53.2v5C323.2,81.6,254.3,253.7,95.8,328.5V323.5z"/>
<pattern  id="SVGID_10_" xlink:href="#РќРѕРІС‹Р№_РѕР±СЂР°Р·РµС†_СѓР·" patternTransform="matrix(1 0 0 -1 -944.2 -15890.0996)">
</pattern>
<ellipse class="st17" cx="551.8" cy="115.5" rx="16.2" ry="13.1"/>
<g>
	<path class="st4" d="M543.9,92.8c1.1,0,2,0.8,2,1.7v29.4c0,0.9-0.9,1.7-2,1.7s-2-0.8-2-1.7V94.5C541.9,93.5,542.8,92.8,543.9,92.8z
		"/>
	<path class="st6" d="M543.3,40.7c0.2,0,0.4,0,0.6,0c0.2,0,0.4,0,0.6,0c13.8,1,19.3,35.3,19.3,43.6c0,9.5-8.9,17.1-19.9,17.1
		S524,93.7,524,84.3C524,76,529.5,41.7,543.3,40.7z"/>
	<path class="st4" d="M530.9,92.4c10.9,1.6,20.8-4.6,22.2-14c0.9-5.7,0.9-23.8-3.4-35.6c9.9,7.8,14,34.2,14,41.4
		c0,9.5-8.9,17.1-19.9,17.1c-8.3,0-15.4-4.4-18.4-10.5C527.2,91.6,529,92.2,530.9,92.4z"/>
</g>
<g>
	
		<pattern  id="SVGID_11_" xlink:href="#РќРѕРІС‹Р№_РѕР±СЂР°Р·РµС†_СѓР·" patternTransform="matrix(1 0 0 -1 -944.2 -15890.0996)">
	</pattern>
	<ellipse class="st18" cx="519.4" cy="129" rx="16.2" ry="13.1"/>
	<g>
		<path class="st4" d="M511.4,106.4c1.1,0,2,0.8,2,1.7v29.4c0,0.9-0.9,1.7-2,1.7s-2-0.8-2-1.7v-29.4
			C509.4,107.1,510.3,106.4,511.4,106.4z"/>
		<path class="st6" d="M510.9,54.3c0.2,0,0.4,0,0.6,0c0.2,0,0.4,0,0.6,0c13.8,1,19.3,35.3,19.3,43.6c0,9.5-8.9,17.1-19.9,17.1
			s-19.9-7.7-19.9-17.1C491.5,89.6,497.1,55.2,510.9,54.3z"/>
		<path class="st4" d="M498.5,106c10.9,1.6,20.8-4.6,22.2-14c0.9-5.7,0.9-23.8-3.4-35.6c9.9,7.8,14,34.2,14,41.4
			c0,9.5-8.9,17.1-19.9,17.1c-8.3,0-15.4-4.4-18.4-10.5C494.8,105.2,496.6,105.7,498.5,106z"/>
	</g>
</g>
<g>
	
		<pattern  id="SVGID_12_" xlink:href="#РќРѕРІС‹Р№_РѕР±СЂР°Р·РµС†_СѓР·" patternTransform="matrix(1 0 0 -1 -944.2 -15890.0996)">
	</pattern>
	<ellipse class="st19" cx="32.3" cy="182" rx="16.2" ry="13.1"/>
	<g>
		<path class="st4" d="M24.3,159.3c1.1,0,2,0.8,2,1.7v29.4c0,0.9-0.9,1.7-2,1.7s-2-0.8-2-1.7V161C22.3,160.1,23.2,159.3,24.3,159.3z
			"/>
		<path class="st6" d="M23.7,107.2c0.2,0,0.4,0,0.6,0s0.4,0,0.6,0c13.8,1,19.3,35.3,19.3,43.6c0,9.5-8.9,17.1-19.9,17.1
			s-19.9-7.7-19.9-17.1C4.4,142.5,10,108.2,23.7,107.2z"/>
		<path class="st4" d="M11.4,159c10.9,1.6,20.8-4.6,22.2-14c0.9-5.7,0.9-23.8-3.4-35.6c9.9,7.8,14,34.2,14,41.4
			c0,9.5-8.9,17.1-19.9,17.1c-8.3,0-15.4-4.4-18.4-10.5C7.6,158.1,9.5,158.7,11.4,159z"/>
	</g>
</g>
<g>
	
		<pattern  id="SVGID_13_" xlink:href="#РќРѕРІС‹Р№_РѕР±СЂР°Р·РµС†_СѓР·" patternTransform="matrix(1 0 0 -1 -944.2 -15890.0996)">
	</pattern>
	<ellipse class="st20" cx="143.2" cy="163" rx="18.5" ry="15"/>
	<g>
		<path class="st4" d="M134.1,137c1.3,0,2.3,0.9,2.3,2v33.6c0,1.1-1,2-2.3,2s-2.3-0.9-2.3-2V139C131.8,137.9,132.8,137,134.1,137z"
			/>
		<path class="st6" d="M133.4,77.5c0.2,0,0.4-0.1,0.7-0.1s0.4,0,0.7,0.1c15.7,1.1,22.1,40.3,22.1,49.9c0,10.8-10.2,19.6-22.7,19.6
			c-12.6,0-22.7-8.8-22.7-19.6C111.4,117.8,117.7,78.6,133.4,77.5z"/>
		<path class="st4" d="M119.3,136.7c12.4,1.9,23.8-5.3,25.4-16c1-6.5,1.1-27.2-3.9-40.6c11.3,9,16,39.1,16,47.4
			c0,10.8-10.2,19.6-22.7,19.6c-9.5,0-17.6-5-21-12C115,135.7,117.1,136.3,119.3,136.7z"/>
	</g>
</g>
<g>
	
		<pattern  id="SVGID_14_" xlink:href="#РќРѕРІС‹Р№_РѕР±СЂР°Р·РµС†_СѓР·" patternTransform="matrix(1 0 0 -1 -944.2 -15890.0996)">
	</pattern>
	<ellipse class="st21" cx="57" cy="242.2" rx="16.2" ry="13.1"/>
	<g>
		<path class="st4" d="M49,219.5c1.1,0,2,0.8,2,1.7v29.4c0,0.9-0.9,1.7-2,1.7s-2-0.8-2-1.7v-29.4C47,220.3,47.9,219.5,49,219.5z"/>
		<path class="st6" d="M48.4,167.5c0.2,0,0.4,0,0.6,0s0.4,0,0.6,0c13.8,1,19.3,35.3,19.3,43.6c0,9.5-8.9,17.1-19.9,17.1
			s-19.9-7.7-19.9-17.1C29.1,202.7,34.6,168.4,48.4,167.5z"/>
		<path class="st4" d="M36,219.2c10.9,1.6,20.8-4.6,22.2-14c0.9-5.7,0.9-23.8-3.4-35.6c9.9,7.8,14,34.2,14,41.4
			c0,9.5-8.9,17.1-19.9,17.1c-8.3,0-15.4-4.4-18.4-10.5C32.3,218.4,34.1,218.9,36,219.2z"/>
	</g>
</g>
<path class="st6" d="M208.6,74.9l-0.4,0.6c-0.6,0.9-0.9,1.9-0.9,3l-0.2,22.6c0,1.1,0.6,2.1,1.5,2.7l15.7,9.1c0,0,1.6,0.7,4-0.8
	l0.2-25.5L208.6,74.9z"/>
<path class="st3" d="M102.1,285.6L102.1,285.6L102.1,285.6l-1.4,0.8c-0.6,0.3-1.2,0.5-1.9,0.5v0.6v2.9v17.1l13.1-7.6l0.3-20.9
	L102.1,285.6z"/>
<path class="st6" d="M96.9,286.4l-2.7-1.5v0.1l0,0l-45.5-27l0.2,20.9l49.8,28.8v-14.1v-6V287C98.2,286.9,97.5,286.7,96.9,286.4z"/>
<path class="st4" d="M60.2,250.5l-10.9,6.3c-0.8,0.5-0.8,1.6,0,2.1l47.6,27.5c1.2,0.7,2.6,0.7,3.8,0l10.9-6.3c0.8-0.5,0.8-1.6,0-2.1
	L64,250.5C62.9,249.8,61.4,249.8,60.2,250.5z"/>
<path class="st4" d="M640,210.7c0.2,5.4-0.3,10.9-1.4,16.3c-0.1,0.4-0.2,0.8-0.2,1.1c-0.2,0.7-0.3,1.5-0.5,2.2
	c-0.1,0.3-0.1,0.6-0.2,0.9c-0.6,2.1-1.2,4.2-2,6.3l0,0c-1.3,3.5-2.8,7-4.7,10.4c-9.3,16.9-22,31.4-37.1,42.8l0,0
	c-11.3,8.6-24,15.4-37.6,20.2l-0.5,0.2c-15.6,5.4-31.9,8.5-48.5,9c-1.3,0-2.7,0.1-4,0.1l0,0c-29.4,0-57.5-9.7-80.4-27l0,0
	c-4.9-3.7-9.5-7.7-13.9-12.1c-0.5-0.5-1.2-0.1-1.2,0.6s0,22.7,0,23.7s1.2,2.2,1.2,2.2c24.9,24.9,58.6,39.1,94.3,39.1l0,0
	c1.3,0,2.7,0,4-0.1c16.5-0.5,32.8-3.5,48.5-9l0.5-0.2c31.8-11.1,58.4-33.5,74.7-63c6-10.9,9-22.9,9-34.9l0,0L640,210.7L640,210.7z"
	/>
<path class="st5" d="M602.7,173.5l-16.9-14.7l0,0L572.2,147c-8.2-7.1-17-13.2-26.3-18.3c-1.9,1.2-3.1,5-3.1,6.3v18.5l0,0
	c10.5,5.5,20.4,12.1,29.4,20l29.8,25.8c8.3,7.2,13.9,16.6,16.5,26.7C623.3,207.3,617.5,186.8,602.7,173.5z"/>
<path class="st7" d="M615,157.7l-29.8-25.8c-4.7-4.1-9.6-7.9-14.7-11.4c-4.5-3.1-7.7-1.1-8.4-0.9s-14.4,7.9-16.3,9.1l0,0
	c9.4,5.1,18.2,11.2,26.3,18.3l29.9,25.8c18.7,16.2,23.6,43.7,11.6,65.4c-13.9,25.2-36.6,44.3-63.8,53.8l-0.5,0.2
	c-13.7,4.8-28,7.4-42.5,7.9c-1.1,0-2.3,0.1-3.4,0.1l0,0c-28.5,0-55.5-10.7-76.2-29.6l0,0c-0.6-0.5-1.2-0.1-1.2-0.1
	s-14.6,8.3-17.6,10.3c0.3-0.2,0.7,0.2,0.7,0.2c24.9,24.9,58.6,39.1,94.3,39.1l0,0c1.3,0,2.7,0,4-0.1c16.5-0.5,32.8-3.5,48.5-9
	l0.5-0.2c31.8-11.1,58.4-33.5,74.7-63C647.6,217.9,640.9,180,615,157.7z"/>
<g>
	<path class="st3" d="M122.6,267.5v31.1c0,2.1,2,3.8,4.4,3.8s4.4-1.7,4.4-3.8v-31.1H122.6z"/>
	<path class="st4" d="M131.4,267.5c0,2.1-2,3.8-4.4,3.8s-4.4-1.7-4.4-3.8c0-2.1,2-3.8,4.4-3.8S131.4,265.4,131.4,267.5z"/>
	<path class="st5" d="M127,215c-1.1,0-1.9,0.7-1.9,1.7v50.5c0,0.9,0.9,1.7,1.9,1.7c1.1,0,1.9-0.7,1.9-1.7v-50.5
		C128.9,215.7,128.1,215,127,215z"/>
	<ellipse class="st3" cx="127" cy="216.7" rx="4.4" ry="3.8"/>
	<circle class="st6" cx="127" cy="210.2" r="8"/>
</g>
<g>
	<path class="st3" d="M232.1,176.8v31.1c0,2.1,2,3.8,4.4,3.8s4.4-1.7,4.4-3.8v-31.1H232.1z"/>
	<path class="st4" d="M241,176.8c0,2.1-2,3.8-4.4,3.8s-4.4-1.7-4.4-3.8c0-2.1,2-3.8,4.4-3.8S241,174.7,241,176.8z"/>
	<path class="st5" d="M236.6,124.3c-1.1,0-1.9,0.7-1.9,1.7v50.5c0,0.9,0.9,1.7,1.9,1.7c1.1,0,1.9-0.7,1.9-1.7V126
		C238.5,125,237.6,124.3,236.6,124.3z"/>
	<path class="st3" d="M241,125.9c0,2.1-2,3.8-4.4,3.8s-4.4-1.7-4.4-3.8c0-2.1,2-3.8,4.4-3.8S241,123.8,241,125.9z"/>
	<circle class="st6" cx="236.6" cy="119.5" r="8"/>
</g>
<g>
	<path class="st3" d="M202.7,326.3v31.1c0,2.1,2,3.8,4.4,3.8s4.4-1.7,4.4-3.8v-31.1H202.7z"/>
	<path class="st4" d="M211.5,326.3c0,2.1-2,3.8-4.4,3.8s-4.4-1.7-4.4-3.8c0-2.1,2-3.8,4.4-3.8S211.5,324.2,211.5,326.3z"/>
	<path class="st5" d="M207.1,273.8c-1.1,0-1.9,0.7-1.9,1.7V326c0,0.9,0.9,1.7,1.9,1.7c1.1,0,1.9-0.7,1.9-1.7v-50.5
		C209,274.6,208.2,273.8,207.1,273.8z"/>
	<path class="st3" d="M211.5,275.5c0,2.1-2,3.8-4.4,3.8s-4.4-1.7-4.4-3.8c0-2.1,2-3.8,4.4-3.8C209.5,271.7,211.5,273.4,211.5,275.5z
		"/>
	<circle class="st6" cx="207.1" cy="269.1" r="8"/>
</g>
<g>
	<path class="st3" d="M323.3,238.2v31.1c0,2.1,2,3.8,4.4,3.8s4.4-1.7,4.4-3.8v-31.1H323.3z"/>
	<ellipse class="st4" cx="327.7" cy="238.2" rx="4.4" ry="3.8"/>
	<path class="st5" d="M327.7,185.7c-1.1,0-1.9,0.7-1.9,1.7v50.4c0,0.9,0.9,1.7,1.9,1.7c1.1,0,1.9-0.7,1.9-1.7v-50.5
		C329.7,186.4,328.8,185.7,327.7,185.7z"/>
	<path class="st3" d="M332.2,187.3c0,2.1-2,3.8-4.4,3.8s-4.4-1.7-4.4-3.8c0-2.1,2-3.8,4.4-3.8S332.2,185.2,332.2,187.3z"/>
	<ellipse class="st6" cx="327.7" cy="181" rx="8" ry="8"/>
</g>
<path class="st3" d="M661.5,212.2v31.1c0,2.1,2,3.8,4.4,3.8s4.4-1.7,4.4-3.8v-31.1H661.5z"/>
<path class="st4" d="M670.4,212.2c0,2.1-2,3.8-4.4,3.8s-4.4-1.7-4.4-3.8c0-2.1,2-3.8,4.4-3.8S670.4,210.1,670.4,212.2z"/>
<path class="st5" d="M666,159.7c-1.1,0-1.9,0.7-1.9,1.7v50.5c0,0.9,0.9,1.7,1.9,1.7c1.1,0,1.9-0.7,1.9-1.7v-50.5
	C667.9,160.5,667,159.7,666,159.7z"/>
<path class="st3" d="M670.4,161.4c0,2.1-2,3.8-4.4,3.8s-4.4-1.7-4.4-3.8c0-2.1,2-3.8,4.4-3.8C668.4,157.6,670.4,159.3,670.4,161.4z"
	/>
<ellipse class="st6" cx="666" cy="155" rx="8" ry="8"/>
<g>
	
		<pattern  id="SVGID_15_" xlink:href="#РќРѕРІС‹Р№_РѕР±СЂР°Р·РµС†_СѓР·" patternTransform="matrix(1 0 0 -1 -944.2 -15890.0996)">
	</pattern>
	<ellipse class="st22" cx="228.1" cy="370.1" rx="16.5" ry="13.4"/>
	<g>
		
			<ellipse transform="matrix(0.9732 -0.2298 0.2298 0.9732 -77.449 60.1453)" class="st6" cx="219.5" cy="362.6" rx="19.6" ry="19.6"/>
		<path class="st2" d="M211.9,353.8c1.7,1.7,4.6,1.7,6.3,0c1.7-1.7,1.7-4.6,0-6.3c-1.7-1.7-4.6-1.7-6.3,0
			C210.2,349.2,210.2,352.1,211.9,353.8z"/>
		<path class="st4" d="M219.5,376.6c10.3,0,18.7-6.8,19.6-15.5c0,0.5,0.1,1.1,0.1,1.6c0,10.8-8.8,19.6-19.6,19.6
			c-10.8,0-19.6-8.8-19.6-19.6c0-0.5,0-1.1,0.1-1.6C200.8,369.7,209.2,376.6,219.5,376.6z"/>
	</g>
</g>
<g>
	
		<pattern  id="SVGID_16_" xlink:href="#РќРѕРІС‹Р№_РѕР±СЂР°Р·РµС†_СѓР·" patternTransform="matrix(1 0 0 -1 -944.2 -15890.0996)">
	</pattern>
	<ellipse class="st23" cx="715.3" cy="225" rx="16.5" ry="13.4"/>
	<g>
		
			<ellipse transform="matrix(0.9732 -0.2298 0.2298 0.9732 -31.0765 168.2446)" class="st6" cx="706.8" cy="217.5" rx="19.6" ry="19.6"/>
		<path class="st2" d="M699.1,208.8c1.7,1.7,4.6,1.7,6.3,0s1.7-4.6,0-6.3c-1.7-1.7-4.6-1.7-6.3,0C697.4,204.2,697.4,207,699.1,208.8
			z"/>
		<path class="st4" d="M706.8,231.5c10.3,0,18.7-6.8,19.6-15.5c0,0.5,0.1,1.1,0.1,1.6c0,10.8-8.8,19.6-19.6,19.6
			s-19.6-8.8-19.6-19.6c0-0.5,0-1.1,0.1-1.6C688,224.7,696.4,231.5,706.8,231.5z"/>
	</g>
</g>
<g>
	
		<pattern  id="SVGID_17_" xlink:href="#РќРѕРІС‹Р№_РѕР±СЂР°Р·РµС†_СѓР·" patternTransform="matrix(1 0 0 -1 -944.2 -15890.0996)">
	</pattern>
	<ellipse class="st24" cx="368.1" cy="250.4" rx="16.2" ry="13.1"/>
	<g>
		<path class="st4" d="M360.1,227.8c1.1,0,2,0.8,2,1.7v29.4c0,0.9-0.9,1.7-2,1.7s-2-0.8-2-1.7v-29.4
			C358.1,228.5,359,227.8,360.1,227.8z"/>
		<path class="st6" d="M359.5,175.7c0.2,0,0.4,0,0.6,0c0.2,0,0.4,0,0.6,0c13.8,1,19.3,35.3,19.3,43.6c0,9.5-8.9,17.1-19.9,17.1
			s-19.9-7.7-19.9-17.1C340.2,211,345.7,176.6,359.5,175.7z"/>
		<path class="st4" d="M347.1,227.4c10.9,1.6,20.8-4.6,22.2-14c0.9-5.7,0.9-23.8-3.4-35.6c9.9,7.8,14,34.2,14,41.4
			c0,9.5-8.9,17.1-19.9,17.1c-8.3,0-15.4-4.4-18.4-10.5C343.4,226.6,345.2,227.1,347.1,227.4z"/>
	</g>
</g>
<g>
	
		<pattern  id="SVGID_18_" xlink:href="#РќРѕРІС‹Р№_РѕР±СЂР°Р·РµС†_СѓР·" patternTransform="matrix(1 0 0 -1 -944.2 -15890.0996)">
	</pattern>
	<ellipse class="st25" cx="306.6" cy="303.7" rx="16.2" ry="13.1"/>
	<g>
		<path class="st4" d="M298.7,281c1.1,0,2,0.8,2,1.7v29.4c0,0.9-0.9,1.7-2,1.7s-2-0.8-2-1.7v-29.3C296.7,281.8,297.6,281,298.7,281z
			"/>
		<path class="st6" d="M298.1,229c0.2,0,0.4,0,0.6,0c0.2,0,0.4,0,0.6,0c13.8,1,19.3,35.3,19.3,43.6c0,9.5-8.9,17.1-19.9,17.1
			s-19.9-7.7-19.9-17.1C278.8,264.2,284.3,229.9,298.1,229z"/>
		<path class="st4" d="M285.7,280.7c10.9,1.6,20.8-4.6,22.2-14c0.9-5.7,0.9-23.8-3.4-35.6c9.9,7.8,14,34.2,14,41.4
			c0,9.5-8.9,17.1-19.9,17.1c-8.3,0-15.4-4.4-18.4-10.5C282,279.9,283.8,280.4,285.7,280.7z"/>
	</g>
</g>
<g>
	
		<pattern  id="SVGID_19_" xlink:href="#РќРѕРІС‹Р№_РѕР±СЂР°Р·РµС†_СѓР·" patternTransform="matrix(1 0 0 -1 -944.2 -15890.0996)">
	</pattern>
	<ellipse class="st26" cx="276.3" cy="323.4" rx="16.2" ry="13.1"/>
	<g>
		<path class="st4" d="M268.3,300.7c1.1,0,2,0.8,2,1.7v29.4c0,0.9-0.9,1.7-2,1.7s-2-0.8-2-1.7v-29.4
			C266.3,301.4,267.2,300.7,268.3,300.7z"/>
		<path class="st6" d="M267.7,248.6c0.2,0,0.4,0,0.6,0c0.2,0,0.4,0,0.6,0c13.8,1,19.3,35.3,19.3,43.6c0,9.5-8.9,17.1-19.9,17.1
			s-19.9-7.7-19.9-17.1C248.4,283.9,254,249.6,267.7,248.6z"/>
		<path class="st4" d="M255.4,300.3c10.9,1.6,20.8-4.6,22.2-14c0.9-5.7,0.9-23.8-3.4-35.6c9.9,7.8,14,34.2,14,41.4
			c0,9.5-8.9,17.1-19.9,17.1c-8.3,0-15.4-4.4-18.4-10.5C251.6,299.5,253.4,300.1,255.4,300.3z"/>
	</g>
</g>
</svg>
